<svg xmlns:xlink="http://www.w3.org/1999/xlink" xmlns="http://www.w3.org/2000/svg" version="1.1" viewBox="0 0 1200 1200" height="1200px" width="1200px">
    <title>Cary-11@2x</title>
    <defs>
        <linearGradient id="linearGradient-1" y2="100%" x2="50%" y1="0%" x1="50%">
            <stop offset="0%" stop-color="#D9F8FF"></stop>
            <stop offset="100%" stop-color="#FFD9E5"></stop>
        </linearGradient>
        <rect height="1200" width="1200" y="0" x="0" id="path-2"></rect>
        <path id="path-4" d="M466.666667,33.3333333 C570.758903,33.3333333 666.13313,63.994172 740.134758,114.921009 C757.079691,126.582264 782.757879,120.098631 808.148914,112.632039 L818.268631,109.633658 C845.658648,101.550168 871.282153,95.0143425 883.49314,112.183481 C894.517743,127.684514 892.449476,166.718381 888.593837,206.848081 L888.113554,211.765873 C888.032274,212.585909 887.950442,213.406021 887.868154,214.226016 L887.369719,219.143075 L886.86495,224.048202 L885.605582,236.198744 L885.114965,240.990022 L884.638769,245.728174 C881.911994,273.194647 880.156758,297.482276 883.49314,310.41431 C889.561292,333.934859 892.753623,358.327864 892.753623,383.333333 C892.753623,576.632996 701.987995,733.333333 466.666667,733.333333 C231.345338,733.333333 40.5797101,576.632996 40.5797101,383.333333 C40.5797101,357.493734 43.9885726,332.308142 50.4570439,308.063444 C54.3223254,293.575851 52.0350888,268.861622 48.7372322,241.587046 L48.1791135,237.018891 L47.0278906,227.771889 L46.1546906,220.770836 L45.5778175,216.086922 C40.5201622,174.682918 36.6773896,132.806697 50.4570439,114.921009 C62.2726293,99.5846395 88.3794081,103.83261 116.262618,109.76122 L119.756366,110.509755 L128.536047,112.406688 C129.122197,112.53248 129.708325,112.657869 130.29432,112.782691 L133.807768,113.523546 C158.377955,118.643877 182.312052,122.195215 197.226146,112.183481 C270.645685,62.8974213 364.453094,33.3333333 466.666667,33.3333333 Z"></path>
        <ellipse ry="46" rx="70" cy="46" cx="70" id="path-6"></ellipse>
        <ellipse ry="46" rx="70" cy="46" cx="70" id="path-8"></ellipse>
    </defs>
    <g fill-rule="evenodd" fill="none" stroke-width="1" stroke="none" id="天猫-数字藏品-NFT展示">
        <g transform="translate(-3420.000000, -4250.000000)" id="天猫-数字藏品-NFT展示备份-4">
            <g transform="translate(3420.000000, 4250.000000)" id="Cary-11">
                <mask fill="white" id="mask-3">
                    <use xlink:href="#path-2"></use>
                </mask>
                <g id="矩形">
                    <use xlink:href="#path-2" fill="#EDEDED"></use>
                    <use xlink:href="#path-2" fill="url(#linearGradient-1)"></use>
                </g>
                <ellipse ry="233.333333" rx="450" cy="1083.33333" cx="606" mask="url(#mask-3)" fill="#635D5C" stroke-width="33.3333333" stroke="#684539" id="椭圆形"></ellipse>
                <path mask="url(#mask-3)" fill="#FFFFFF" id="矩形备份-5" d="M472.666667,1100 L739.333333,1100 C776.152317,1100 806,1129.84768 806,1166.66667 L806,1533.33333 L806,1533.33333 L406,1533.33333 L406,1166.66667 C406,1129.84768 435.847683,1100 472.666667,1100 Z"></path>
                <path mask="url(#mask-3)" fill-rule="nonzero" fill="#684539" id="路径-103" d="M331.000599,1052.36824 C340.098313,1052.36824 347.493497,1059.65764 347.664248,1068.71453 L347.667266,1069.03491 L347.667266,1162.78461 C347.667266,1171.98935 340.205345,1179.45127 331.000599,1179.45127 C321.902885,1179.45127 314.507701,1172.16188 314.33695,1163.10499 L314.333933,1162.78461 L314.333933,1069.03491 C314.333933,1059.83016 321.795853,1052.36824 331.000599,1052.36824 Z"></path>
                <path mask="url(#mask-3)" fill-rule="nonzero" fill="#684539" id="路径-103备份" d="M897.667266,1052.36824 C906.76498,1052.36824 914.160164,1059.65764 914.330915,1068.71453 L914.333933,1069.03491 L914.333933,1162.78461 C914.333933,1171.98935 906.872012,1179.45127 897.667266,1179.45127 C888.569552,1179.45127 881.174368,1172.16188 881.003617,1163.10499 L881.000599,1162.78461 L881.000599,1069.03491 C881.000599,1059.83016 888.46252,1052.36824 897.667266,1052.36824 Z"></path>
                <path mask="url(#mask-3)" fill-rule="nonzero" fill="#684539" id="路径" d="M920.059755,944.707883 L1036.53285,839.081028 L887.219837,888.362243 C796.33259,918.359855 704.834495,933.333333 612.600286,933.333333 C521.051028,933.333333 424.560061,913.945336 323.039081,874.965801 L253.59397,848.301971 L279.913871,917.87816 C335.020915,1063.55265 422.158724,1140.21116 539.333333,1140.21116 C650.778301,1140.21116 777.144652,1074.3144 920.059755,944.707883 Z"></path>
                <path mask="url(#mask-3)" fill-rule="nonzero" fill="#FFB959" id="路径" d="M311.091003,906.084196 C416.281101,946.47251 516.784196,966.666667 612.600286,966.666667 C708.416377,966.666667 803.438703,951.116455 897.667266,920.016032 C760.300863,1044.59056 640.856218,1106.87782 539.333333,1106.87782 C437.810448,1106.87782 361.729671,1039.94661 311.091003,906.084196 Z"></path>
                <path mask="url(#mask-3)" fill="#FFFFFF" id="路径备份" d="M482.335859,1002.30855 C493.448178,995.892854 509.501953,1002.25028 520.805696,1016.5889 C537.557209,1009.0506 554.882961,1010.93133 561.72361,1021.87866 C569.563454,1034.42503 560.662635,1054.12905 541.843074,1065.88882 C532.618637,1071.65289 522.723389,1074.43849 514.107879,1074.30318 C502.245353,1075.05846 488.092398,1065.85448 479.227811,1050.50057 C468.132,1031.28206 469.523521,1009.70576 482.335859,1002.30855 Z"></path>
                <path transform="translate(975.703196, 833.333333) rotate(43.000000) translate(-975.703196, -833.333333)" mask="url(#mask-3)" fill-rule="nonzero" fill="#684539" id="路径" d="M997.939256,758.500518 L975.703196,738.589671 L953.467136,758.500518 C930.088416,779.434536 917.369863,804.871643 917.369863,833.333333 C917.369863,861.795023 930.088416,887.23213 953.467136,908.166149 L975.703196,928.076996 L997.939256,908.166149 C1021.31798,887.23213 1034.03653,861.795023 1034.03653,833.333333 C1034.03653,804.871643 1021.31798,779.434536 997.939256,758.500518 Z"></path>
                <path transform="translate(975.703196, 833.333333) rotate(43.000000) translate(-975.703196, -833.333333)" mask="url(#mask-3)" fill-rule="nonzero" fill="#FFB959" id="路径" d="M975.703196,783.333333 C992.369863,798.257175 1000.7032,814.923842 1000.7032,833.333333 C1000.7032,851.742825 992.369863,868.409492 975.703196,883.333333 C959.036529,868.409492 950.703196,851.742825 950.703196,833.333333 C950.703196,814.923842 959.036529,798.257175 975.703196,783.333333 Z"></path>
                <g mask="url(#mask-3)" id="虎头">
                    <g transform="translate(139.333333, 233.333333)">
                        <path fill-rule="nonzero" fill="#684539" stroke="none" id="路径" d="M466.666667,0 C361.585043,0 261.733152,29.487967 181.085557,82.8823887 L178.838357,84.380482 L178.82195,84.3861007 C178.493176,84.5119719 177.979857,84.6536829 177.269486,84.7865409 C175.134098,85.1859145 172.130091,85.3330258 168.296862,85.1413683 L167.554423,85.1010382 L166.803586,85.0538133 L166.043311,84.9995556 L164.882926,84.9046808 L163.695448,84.793206 L162.88701,84.7094374 L162.063928,84.6179461 L161.225162,84.5185942 L159.935326,84.3545258 L158.604344,84.171995 L157.228701,83.9705359 L156.285059,83.8254843 L154.827173,83.5914435 L152.798671,83.2479333 L151.745796,83.0623866 L150.115278,82.7664391 L148.420187,82.4489248 L146.657012,82.1093779 L144.194127,81.621571 L141.595625,81.0926636 L138.853179,80.5215518 L132.649565,79.1945279 L125.297119,77.6114004 L121.222405,76.7492986 L118.040742,76.0879605 L114.458097,75.3601794 L112.755855,75.0223169 L110.571646,74.597959 L107.968427,74.1082129 L105.493035,73.6620236 L103.595157,73.335233 L101.762633,73.0342614 L99.9881491,72.7581944 L98.2643929,72.5061177 L97.0004662,72.3322538 L95.7578746,72.1709842 L94.9398094,72.0702776 L93.7259201,71.9291415 L92.1272575,71.7588846 L90.9391534,71.6441352 L89.7569579,71.5400514 L88.5775859,71.4462476 L87.7913827,71.3892322 L86.9849276,71.3352664 C85.235727,71.2231208 83.4719912,71.1417593 81.6487416,71.0855582 C71.3102927,70.766879 61.8664204,71.7722678 52.9707318,74.6099372 C41.4493694,78.2851803 31.4977139,84.9124785 24.0515436,94.5774434 C15.0290804,106.288402 10.3951104,120.577006 8.56849105,138.081313 L8.41456404,139.634172 C8.09666647,143.016852 7.87967354,146.517747 7.75253748,150.141315 L7.70019944,151.822457 L7.66038077,153.521118 C7.6547742,153.805694 7.64967921,154.091003 7.64509077,154.377049 L7.6250792,155.938576 L7.61533088,157.345595 L7.61328813,158.759602 L7.62469191,160.895768 L7.65348457,163.052932 L7.68235539,164.504269 C7.68781287,164.747106 7.69359332,164.990429 7.69969693,165.234258 L7.74019799,166.703461 L7.78846397,168.185748 L7.84450399,169.682054 L7.90832717,171.193318 L8.01867537,173.49031 L8.14658705,175.82623 L8.24163422,177.406699 L8.3445102,179.006814 L8.51352318,181.445871 L8.70020236,183.934403 L8.83448491,185.622472 L8.97664193,187.334875 L9.12668255,189.072548 L9.36654519,191.728489 L9.62419727,194.446561 L9.89966961,197.229929 L10.192993,200.081756 L10.3984744,202.02257 L10.7216181,204.995527 L11.062695,208.045381 L11.5454136,212.23694 L11.9284546,215.478525 L13.1956697,225.847017 L15.5087146,244.515094 L16.3357989,251.410922 L17.0030805,257.223023 L17.5040769,261.884272 L17.8558322,265.438649 L18.1558366,268.773871 L18.326016,270.841766 L18.3759721,271.478074 C18.436375,272.256042 18.4944546,273.0357 18.5510566,273.825157 L18.7180252,276.263075 L18.828263,278.079893 L18.8923272,279.256642 L18.948968,280.405574 L19.0202333,282.076354 L19.0587613,283.154821 L19.0902225,284.204732 L19.1147185,285.225876 L19.1323513,286.218042 L19.1432228,287.181018 L19.147075,288.570289 L19.136287,289.892697 L19.1211312,290.736803 L19.0997232,291.550664 L19.0721648,292.334067 L19.0385579,293.086803 L18.9990042,293.80866 L18.9287465,294.833085 L18.8747716,295.47682 L18.8152065,296.088937 L18.7501529,296.669224 L18.6797128,297.21747 L18.6039878,297.733464 L18.52308,298.216995 C18.5091691,298.294867 18.4950465,298.371377 18.4807143,298.446521 L18.392223,298.880962 L18.2988034,299.282411 L18.2502772,299.470698 C10.9600384,326.795491 7.24637681,354.874081 7.24637681,383.333333 C7.24637681,596.649411 214.223905,766.666667 466.666667,766.666667 C719.109428,766.666667 926.086957,596.649411 926.086957,383.333333 C926.086957,356.334721 922.744716,329.676943 916.175813,303.678126 L915.747101,301.995564 L915.698296,301.770157 L915.645314,301.489654 L915.589217,301.155393 L915.50156,300.556133 L915.442331,300.093332 L915.371446,299.46624 L915.294571,298.669426 C915.258169,298.256981 915.22486,297.823579 915.194818,297.369654 L915.139146,296.434573 C915.130611,296.274209 915.122452,296.111597 915.114675,295.946753 L915.072663,294.931043 L915.055198,294.403346 C915.044119,294.039409 915.034761,293.668204 915.027124,293.289702 L915.009376,292.13228 C915.007278,291.935719 915.00561,291.737327 915.004373,291.5371 L915.002108,290.313698 L915.010163,289.0461 L915.028536,287.734139 L915.057225,286.377649 L915.096227,284.976461 L915.145542,283.530409 L915.205166,282.039326 L915.275098,280.503044 L915.355336,278.921397 L915.492185,276.504433 L915.586588,274.948865 L915.713178,272.976346 L915.848099,271.006611 L916.04165,268.382916 L916.384508,264.160532 L916.805207,259.434957 L917.24354,254.803792 L918.065619,246.509014 L919.466645,232.834529 L920.990825,217.993595 L921.518029,212.6784 L922.037021,207.267036 L922.422134,203.098945 L922.693437,200.062334 L922.94972,197.099217 L923.190994,194.206726 L923.417266,191.381996 L923.559784,189.535072 L923.761073,186.816906 L923.886944,185.03837 L924.118725,181.558058 L924.275104,179.011644 L924.37105,177.342832 L924.502514,174.880688 L924.581857,173.265402 L924.688429,170.879566 L924.751185,169.312499 L924.832889,166.995009 L924.879075,165.470852 L924.935935,163.213746 L924.9779,160.989049 L925.004979,158.793894 L925.014765,157.345454 L925.017942,155.908021 L925.01032,153.770651 L924.996984,152.357019 L924.971145,150.610067 L924.934944,148.883953 C924.921121,148.312035 924.905529,147.743561 924.888124,147.178502 L924.830429,145.493536 C924.819893,145.214405 924.808892,144.936121 924.797423,144.658679 L924.722933,143.00411 L924.636926,141.369584 L924.539145,139.754925 C924.521853,139.48746 924.504059,139.220817 924.485759,138.95499 L924.369835,137.3698 C923.922176,131.593156 923.224125,126.208249 922.218721,121.175878 L921.936856,119.812124 C919.716818,109.423237 916.130421,100.560018 910.656956,92.8641063 C903.292689,82.5096517 893.221941,75.2584683 881.410758,71.3916717 C872.013532,68.3151669 862.147828,67.5132567 851.517656,68.3605478 C849.347354,68.5335344 847.281155,68.7400679 845.237107,68.9959327 L844.471467,69.0942252 L843.352098,69.2468831 L842.232108,69.4104346 L841.483613,69.5258076 L840.355886,69.7088055 L839.219497,69.9042456 L837.685627,70.1851908 L836.517302,70.4119212 L835.330265,70.6530296 L834.1215,70.9090968 L832.887992,71.1807036 L831.199615,71.5680222 L829.896649,71.8781463 L828.104718,72.3189293 L826.243785,72.7921561 L824.306703,73.2992034 L821.242669,74.1261989 L818.528741,74.8792085 L815.653954,75.6931284 L811.332431,76.9400648 L804.48851,78.9522651 L796.748092,81.2373716 L794.268021,81.9538614 L792.203279,82.539626 L790.871193,82.9115805 L788.937424,83.4420918 L787.689838,83.7777259 L785.878593,84.2545294 L784.136806,84.6998499 L783.012701,84.9795146 L781.917213,85.2455991 L780.325665,85.6196235 L779.297776,85.8524786 L777.803402,86.1774318 L776.363277,86.4736842 L775.431829,86.6555155 L774.522238,86.8250031 L773.196861,87.0564505 L772.337969,87.1957999 L771.497779,87.3233824 L770.67539,87.439363 L769.869901,87.5439066 L769.08041,87.6371779 L768.306016,87.7193418 L767.545818,87.7905633 C767.420251,87.8015308 767.295238,87.8120492 767.17076,87.8221221 C764.046935,88.074904 761.655464,87.9939532 760.007631,87.6840053 C759.585361,87.6045786 759.275579,87.5222519 759.062449,87.4474068 L758.95171,87.4063333 L759.031829,87.4617337 C677.282018,31.2027103 574.751663,0 466.666667,0 Z"></path>
                        <mask fill="white" id="mask-5">
                            <use xlink:href="#path-4"></use>
                        </mask>
                        <use xlink:href="#path-4" fill-rule="nonzero" fill="#635D5C" stroke="none" id="路径"></use>
                        <path mask="url(#mask-5)" fill-rule="nonzero" fill="#684539" stroke="none" id="路径" d="M466.666667,77.1901709 C526.210348,77.1901709 584.141701,86.9218534 637.894524,105.585309 C646.590041,108.60447 651.191637,118.101092 648.172477,126.796609 C645.153316,135.492126 635.656694,140.093722 626.961177,137.074562 C576.731353,119.634323 522.495919,110.523504 466.666667,110.523504 C410.238775,110.523504 355.441653,119.830953 304.768448,137.634728 C296.084119,140.685923 286.570598,136.119367 283.519403,127.435038 C280.468208,118.75071 285.034765,109.237189 293.719093,106.185994 C347.94999,87.1322422 406.483416,77.1901709 466.666667,77.1901709 Z"></path>
                        <path mask="url(#mask-5)" fill-rule="nonzero" fill="#684539" stroke="none" id="路径" d="M466.666667,150 C490.703695,150 514.503779,151.585101 537.910626,154.717429 C547.034043,155.938334 553.440294,164.324064 552.219389,173.447481 C550.998484,182.570898 542.612755,188.977149 533.489338,187.756244 C511.548232,184.820063 489.225175,183.333333 466.666667,183.333333 C444.473997,183.333333 422.508921,184.772232 400.910774,187.614672 C391.784721,188.815713 383.412957,182.391221 382.211916,173.265168 C381.010875,164.139115 387.435367,155.767351 396.56142,154.56631 C419.601712,151.534075 443.01968,150 466.666667,150 Z"></path>
                        <path mask="url(#mask-5)" fill-rule="nonzero" fill="#684539" stroke="none" id="路径" d="M466.666667,516.666667 C478.56241,516.666667 490.402627,517.054889 502.168963,517.827292 C511.35394,518.430241 518.311048,526.364923 517.708099,535.549899 C517.105149,544.734876 509.170468,551.691984 499.985491,551.089035 C488.945989,550.364345 477.833987,550 466.666667,550 C456.099139,550 445.581033,550.326259 435.12688,550.975409 C425.939829,551.545879 418.029795,544.560759 417.459326,535.373708 C416.888856,526.186656 423.873976,518.276623 433.061027,517.706154 C444.202957,517.014296 455.410012,516.666667 466.666667,516.666667 Z"></path>
                        <g mask="url(#mask-5)" fill-rule="evenodd" fill="none" stroke-width="1" stroke="none" id="编组">
                            <g transform="translate(286.666667, 266.666667)">
                                <mask fill="white" id="mask-7">
                                    <use xlink:href="#path-6"></use>
                                </mask>
                                <use xlink:href="#path-6" fill-rule="evenodd" fill="#684539" stroke="none" id="椭圆形"></use>
                                <ellipse ry="46" rx="40" cy="14" cx="70" transform="translate(70.000000, 14.000000) scale(-1, 1) translate(-70.000000, -14.000000)" mask="url(#mask-7)" fill-rule="evenodd" fill="#FFFFFF" stroke="none" id="椭圆形备份-9"></ellipse>
                            </g>
                        </g>
                        <g mask="url(#mask-5)" fill-rule="evenodd" fill="none" stroke-width="1" stroke="none" id="编组备份-2">
                            <g transform="translate(506.666667, 266.666667)">
                                <mask fill="white" id="mask-9">
                                    <use xlink:href="#path-8"></use>
                                </mask>
                                <use xlink:href="#path-8" fill-rule="evenodd" fill="#684539" stroke="none" id="椭圆形"></use>
                                <ellipse ry="46" rx="40" cy="14" cx="70" transform="translate(70.000000, 14.000000) scale(-1, 1) translate(-70.000000, -14.000000)" mask="url(#mask-9)" fill-rule="evenodd" fill="#FFFFFF" stroke="none" id="椭圆形备份-9"></ellipse>
                            </g>
                        </g>
                        <circle r="150" cy="583.333333" cx="150" mask="url(#mask-5)" fill-rule="evenodd" fill="#F4F5F0" stroke="none" id="椭圆形备份-5"></circle>
                        <g mask="url(#mask-5)" fill-rule="evenodd" fill="none" stroke-width="1" stroke="none" id="编组-5">
                            <g fill-rule="nonzero" fill="#684539" transform="translate(244.195214, 525.333333) scale(-1, 1) translate(-244.195214, -525.333333) translate(168.666667, 410.666667)">
                                <path id="路径-10备份-7" d="M119.88596,-7.12653747 C123.821838,-15.0381483 133.426125,-18.2611167 141.337736,-14.3252387 C149.1492,-10.439182 152.38997,-1.02731166 148.682465,6.82529782 L148.536437,7.12653747 L34.4474068,236.459871 C30.5115288,244.371482 20.9072415,247.59445 12.9956306,243.658572 C5.18416669,239.772515 1.9433968,230.360645 5.65090183,222.508036 L5.79692936,222.206796 L119.88596,-7.12653747 Z"></path>
                                <path id="路径-10备份-6" d="M47.8708165,19.5675935 C51.9640683,11.8643037 61.4569299,8.8765489 69.2066996,12.7901753 L69.507741,12.9461511 L158.564836,60.267895 C166.368168,64.4143059 169.332689,74.1014869 165.186278,81.9048195 C161.093026,89.6081093 151.600165,92.5958641 143.850395,88.6822377 L143.549354,88.5262619 L54.492259,41.204518 C46.6889264,37.0581071 43.7244057,27.3709261 47.8708165,19.5675935 Z"></path>
                                <path id="路径-10备份-5" d="M17.8708165,85.5675935 C21.9640683,77.8643037 31.4569299,74.8765489 39.2066996,78.7901753 L39.507741,78.9461511 L128.564836,126.267895 C136.368168,130.414306 139.332689,140.101487 135.186278,147.904819 C131.093026,155.608109 121.600165,158.595864 113.850395,154.682238 L113.549354,154.526262 L24.492259,107.204518 C16.6889264,103.058107 13.7244057,93.3709261 17.8708165,85.5675935 Z"></path>
                                <path id="路径-10备份-4" d="M-14.1291835,147.567594 C-10.0359317,139.864304 -0.543070086,136.876549 7.20669956,140.790175 L7.50774101,140.946151 L96.5648357,188.267895 C104.368168,192.414306 107.332689,202.101487 103.186278,209.904819 C99.0930264,217.608109 89.6001647,220.595864 81.8503951,216.682238 L81.5493536,216.526262 L-7.50774101,169.204518 C-15.3110736,165.058107 -18.2755943,155.370926 -14.1291835,147.567594 Z"></path>
                            </g>
                        </g>
                        <circle r="150" cy="583.333333" cx="783.333333" mask="url(#mask-5)" fill-rule="evenodd" fill="#F4F5F0" stroke="none" id="椭圆形备份-6"></circle>
                        <polygon points="534.666667 476.666667 570.666667 564.666667 498.666667 564.666667" transform="translate(534.666667, 520.666667) rotate(-180.000000) translate(-534.666667, -520.666667)" mask="url(#mask-5)" fill-rule="evenodd" fill="#F4F5F0" stroke="none" id="三角形备份-5"></polygon>
                        <polygon points="400.666667 476.666667 436.666667 564.666667 364.666667 564.666667" transform="translate(400.666667, 520.666667) rotate(-180.000000) translate(-400.666667, -520.666667)" mask="url(#mask-5)" fill-rule="evenodd" fill="#F4F5F0" stroke="none" id="三角形备份-4"></polygon>
                        <path mask="url(#mask-5)" fill-rule="evenodd" fill="#FEF1E0" stroke="none" id="形状结合" d="M516.666667,400 C562.690396,400 600,429.847683 600,466.666667 C600,503.48565 562.690396,533.333333 516.666667,533.333333 C497.906177,533.333333 480.59362,528.373862 466.665796,520.004359 C452.739909,528.373806 435.427263,533.333333 416.666667,533.333333 C370.642938,533.333333 333.333333,503.48565 333.333333,466.666667 C333.333333,429.847683 370.642938,400 416.666667,400 C435.427263,400 452.739909,404.959527 466.667774,413.329116 C480.59362,404.959471 497.906177,400 516.666667,400 Z"></path>
                        <circle r="33.3333333" cy="400" cx="466.666667" mask="url(#mask-5)" fill-rule="evenodd" fill="#684539" stroke="none" id="椭圆形备份-2"></circle>
                        <path mask="url(#mask-5)" fill-rule="evenodd" fill="#3A3736" stroke="none" id="路径-101" d="M67.9970344,140.355334 C55.3586319,151.556422 55.3586319,192.78407 67.9970344,264.038276 C89.9227822,215.356218 109.949466,164.88933 151.296906,134.460698 C108.402061,127.189366 80.635437,129.154245 67.9970344,140.355334 Z"></path>
                        <path mask="url(#mask-5)" fill-rule="evenodd" fill="#3A3736" stroke="none" id="路径-102" d="M790.953684,143.088974 C831.238089,120.539127 856.190039,118.560924 865.809534,137.154366 C875.429029,155.747808 872.535146,201.668982 857.127885,274.917888 C841.775431,223.342702 822.696764,176.008627 790.953684,143.088974 Z"></path>
                        <path mask="url(#mask-5)" fill-rule="nonzero" fill="#684539" stroke="none" id="路径-165" d="M467.21804,8.87098256 C476.315753,8.87098256 483.710938,16.1603793 483.881688,25.2172694 L483.884706,25.5376492 L483.884706,160.24151 C483.884706,169.446256 476.422785,176.908176 467.21804,176.908176 C458.120326,176.908176 450.725142,169.61878 450.554391,160.56189 L450.551373,160.24151 L450.551373,25.5376492 C450.551373,16.3329034 458.013294,8.87098256 467.21804,8.87098256 Z"></path>
                        <path fill-rule="nonzero" fill="#3A3736" stroke="none" id="路径-16" d="M305.560441,691.127577 C309.671176,683.305391 319.344718,680.296665 327.166904,684.4074 C334.890074,688.466099 337.920874,697.947668 334.039767,705.715942 L333.887081,706.013862 L300.829986,768.917158 C296.719252,776.739344 287.04571,779.74807 279.223524,775.637336 C271.500354,771.578636 268.469554,762.097067 272.350661,754.328793 L272.503347,754.030873 L305.560441,691.127577 Z"></path>
                        <path fill-rule="nonzero" fill="#3A3736" stroke="none" id="路径-17" d="M376.680823,707.486516 C380.018736,699.304643 389.357369,695.377837 397.539243,698.715751 C405.618843,702.011941 409.549086,711.15977 406.43178,719.266823 L406.310007,719.574171 L379.481259,785.33663 C376.143345,793.518504 366.804712,797.445309 358.622839,794.107395 C350.543239,790.811205 346.612995,781.663377 349.730302,773.556324 L349.852074,773.248975 L376.680823,707.486516 Z"></path>
                        <path fill-rule="nonzero" fill="#3A3736" stroke="none" id="路径-18" d="M452.144972,692.745231 C460.876331,692.745231 467.974177,699.739132 468.141935,708.43036 L468.144972,708.745231 L468.144972,788.819653 C468.144972,797.656209 460.981528,804.819653 452.144972,804.819653 C443.413613,804.819653 436.315767,797.825751 436.148008,789.134523 L436.144972,788.819653 L436.144972,708.745231 C436.144972,699.908675 443.308416,692.745231 452.144972,692.745231 Z"></path>
                        <path fill-rule="nonzero" fill="#3A3736" stroke="none" id="路径-19" d="M516.124262,702.199073 C524.680154,700.463789 533.02537,705.90546 534.91894,714.387804 L534.985327,714.699483 L550.347404,790.442838 C552.10385,799.10307 546.507226,807.547456 537.846994,809.303903 C529.291103,811.039187 520.945887,805.597516 519.052317,797.115172 L518.98593,796.803493 L503.623853,721.060138 C501.867406,712.399906 507.46403,703.95552 516.124262,702.199073 Z"></path>
                        <path fill-rule="nonzero" fill="#3A3736" stroke="none" id="路径-19备份" d="M580.345863,690.546058 C587.421769,685.449498 597.252769,686.965903 602.473577,693.897614 L602.679933,694.177768 L640.294238,746.400308 C645.458752,753.57056 643.83278,763.569864 636.662528,768.734378 C629.586621,773.830938 619.755622,772.314533 614.534814,765.382822 L614.328458,765.102668 L576.714153,712.880128 C571.549639,705.709876 573.175611,695.710572 580.345863,690.546058 Z"></path>
                    </g>
                </g>
                <polygon points="401.655743 415.111254 580.598648 468.8079 571.401352 499.457692 392.458446 445.761046" mask="url(#mask-3)" fill-rule="nonzero" fill="#3A3736" id="路径-15"></polygon>
                <polygon points="830.453013 400.097595 833.064577 431.990851 657.305782 446.382777 654.694218 414.489522" mask="url(#mask-3)" fill-rule="nonzero" fill="#3A3736" id="路径-15备份"></polygon>
                <path transform="translate(790.998739, 793.998739) scale(-1, 1) translate(-790.998739, -793.998739)" mask="url(#mask-3)" fill-rule="nonzero" fill="#684539" id="路径-2" d="M733.021197,736.37546 C736.127544,728.102895 745.351976,723.914849 753.62454,727.021197 C809.76413,748.101611 842.460785,787.641752 849.863327,843.913169 C851.015852,852.674243 844.847904,860.710802 836.086831,861.863327 C827.325757,863.015852 819.289198,856.847904 818.136673,848.086831 C812.308167,803.780652 787.671489,773.987461 742.37546,756.978803 C734.102895,753.872456 729.914849,744.648024 733.021197,736.37546 Z"></path>
                <path transform="translate(979.120706, 920.016032) rotate(-240.000000) translate(-979.120706, -920.016032)" mask="url(#mask-3)" fill-rule="nonzero" fill="#684539" id="路径" d="M1001.35677,845.183216 L979.120706,825.272369 L956.884645,845.183216 C933.505926,866.117234 920.787372,891.554341 920.787372,920.016032 C920.787372,948.477722 933.505926,973.914829 956.884645,994.848847 L979.120706,1014.75969 L1001.35677,994.848847 C1024.73549,973.914829 1037.45404,948.477722 1037.45404,920.016032 C1037.45404,891.554341 1024.73549,866.117234 1001.35677,845.183216 Z"></path>
                <path transform="translate(979.120706, 920.016032) rotate(-240.000000) translate(-979.120706, -920.016032)" mask="url(#mask-3)" fill-rule="nonzero" fill="#FF755C" id="路径" d="M979.120706,870.016032 C995.787372,884.939873 1004.12071,901.60654 1004.12071,920.016032 C1004.12071,938.425523 995.787372,955.09219 979.120706,970.016032 C962.454039,955.09219 954.120706,938.425523 954.120706,920.016032 C954.120706,901.60654 962.454039,884.939873 979.120706,870.016032 Z"></path>
                <g mask="url(#mask-3)" id="帽子">
                    <g transform="translate(605.012415, 224.010987) rotate(5.000000) translate(-605.012415, -224.010987) translate(316.290298, 26.192112)">
                        <path transform="translate(288.722117, 197.818876) rotate(-11.000000) translate(-288.722117, -197.818876)" fill-rule="nonzero" fill="#684539" id="路径" d="M382.79997,47.8015862 C317.719093,47.7852874 232.636101,74.1327499 156.241579,114.490587 L153.565935,115.912035 L150.907177,117.340448 C149.140389,118.294991 147.385122,119.254016 145.641905,120.217199 L143.036183,121.665054 L140.44893,123.118905 C137.441397,124.818467 134.472381,126.529778 131.544712,128.251107 L129.045473,129.728945 C119.504378,135.403085 110.418381,141.180041 101.88782,146.998439 L99.6751215,148.517182 C95.6418494,151.303119 91.7376197,154.097315 87.9734089,156.893056 L85.9341551,158.418119 C79.1833694,163.501902 72.9020531,168.586757 67.1561798,173.632329 C39.6726975,197.766155 23.7504195,220.943544 23.7564833,245.10376 C23.7623085,268.258856 34.9092791,288.01844 54.3623748,302.970818 C69.9091472,314.920649 90.7854827,323.950664 116.747241,330.786449 C139.658567,336.819049 166.80166,341.183128 197.566106,343.985241 L201.131886,344.301636 C202.922777,344.456374 204.725643,344.605926 206.540367,344.750314 L210.185591,345.032209 L213.862228,345.300368 C218.785259,345.648772 223.791503,345.960642 228.878736,346.236368 L232.709311,346.436391 C244.887333,347.048375 257.519051,347.457025 270.574688,347.667538 L274.711577,347.727436 C280.246126,347.798535 285.855273,347.836165 291.536797,347.836165 C360.574979,347.853339 420.508812,341.226561 464.569206,327.83869 C489.707829,320.20025 510.012726,310.310561 525.020734,297.619388 C543.336756,282.130871 553.693428,262.366545 553.68775,239.735115 C553.68775,221.325782 552.290825,203.287315 548.985265,185.501896 C544.737645,162.647758 537.550174,141.602432 526.75038,122.900393 C499.415652,75.5647573 451.976783,48.3661518 384.840436,47.8102987 L382.79997,47.8015862 Z"></path>
                        <path transform="translate(288.722108, 197.818838) rotate(-11.000000) translate(-288.722108, -197.818838)" fill-rule="nonzero" fill="#FF755C" id="路径" d="M382.792736,76.6016097 C510.726347,76.6337294 524.873743,184.058446 524.887734,239.742353 C524.901726,295.42626 419.477635,319.068106 291.544025,319.036065 C163.610414,319.003894 52.5704736,300.780432 52.5564819,245.096525 C52.5424902,189.412617 254.859125,76.5695174 382.792736,76.6016097 Z"></path>
                        <path transform="translate(306.498604, 245.337876) rotate(-11.000000) translate(-306.498604, -245.337876)" fill-rule="nonzero" fill="#684539" id="路径" d="M559.263019,198.770829 C559.263019,217.005581 550.596154,232.900812 534.79621,245.745704 C521.111128,256.871276 502.012819,265.824657 478.020719,272.852486 C455.919244,279.326508 429.605199,284.156994 400.099196,287.334195 L396.613237,287.700355 C371.525871,290.26983 344.197856,291.663745 315.240915,291.876257 L311.189902,291.898242 C309.836081,291.903014 308.478798,291.904923 307.118114,291.904923 C305.720311,291.904923 304.327027,291.902062 302.9383,291.897457 L298.785827,291.877251 C297.406251,291.868383 296.031269,291.857381 294.660918,291.84424 L290.563795,291.798398 C288.522218,291.772264 286.491144,291.741308 284.4707,291.705514 L280.44402,291.627469 C279.106543,291.5993 277.773826,291.568976 276.445909,291.536493 L272.476587,291.432558 C265.885168,291.24852 259.414639,291.010368 253.069646,290.717514 L249.277752,290.535233 L245.51621,290.339796 C234.901717,289.767391 224.655397,289.036218 214.800079,288.143385 L211.338004,287.821551 C209.040827,287.602513 206.765446,287.374507 204.512159,287.137494 L201.148834,286.775215 C176.606513,284.068897 154.755468,280.270513 135.991522,275.329927 C111.726161,268.940807 92.5202032,260.63331 78.7156533,250.022616 C62.7777405,237.77214 53.93235,222.266364 53.7341899,204.166632 L53.7341899,203.568999 L82.534189,203.561762 C82.5435235,240.711108 167.460033,263.069803 307.125342,263.10489 C440.667472,263.138369 528.69891,237.743479 530.43681,199.927784 L530.463018,198.778065 L559.263019,198.770829 Z"></path>
                        <path fill-rule="evenodd" fill="#FFB959" id="路径-13" d="M383.688375,54.7738873 L290.834668,136.749316 L420.01832,197.962886 L519.483378,154.30183 C494.843779,77.9253363 449.578778,44.7493555 383.688375,54.7738873 Z"></path>
                        <path fill-rule="nonzero" fill="#684539" id="路径-14" d="M319.593319,84.5746094 C320.493921,76.7781965 327.463326,71.1590067 335.239169,71.8895401 L335.550621,71.9221578 L375.024325,76.4819548 C382.92469,77.3945638 388.589386,84.538891 387.676777,92.4392562 C386.776176,100.235669 379.80677,105.854859 372.030927,105.124326 L371.719475,105.091708 L332.245771,100.531911 C324.345406,99.6193018 318.68071,92.4749746 319.593319,84.5746094 Z"></path>
                        <path fill-rule="nonzero" fill="#684539" id="路径-14备份" d="M326.989348,124.086143 C333.049022,118.935514 342.136768,119.672441 347.287397,125.732115 C352.362282,131.702675 351.721501,140.612902 345.905309,145.800397 L345.641426,146.030163 L315.381126,171.75095 C309.321452,176.901579 300.233707,176.164653 295.083078,170.104979 C290.008193,164.134418 290.648974,155.224191 296.465165,150.036696 L296.729049,149.806931 L326.989348,124.086143 Z"></path>
                        <path fill-rule="nonzero" fill="#684539" id="路径-14备份-2" d="M373.861297,154.692127 C379.920971,149.541498 389.008717,150.278424 394.159346,156.338098 C399.23423,162.308658 398.59345,171.218885 392.777258,176.40638 L392.513375,176.636146 L362.253075,202.356933 C356.193401,207.507562 347.105655,206.770636 341.955026,200.710962 C336.880142,194.740401 337.520923,185.830174 343.337114,180.642679 L343.600997,180.412914 L373.861297,154.692127 Z"></path>
                        <path fill-rule="nonzero" fill="#684539" id="路径-14备份-3" d="M430.974479,148.301524 C436.470097,142.72078 445.396481,142.56826 451.078628,147.895264 L451.338553,148.145017 L479.633199,176.008065 C485.299801,181.58823 485.369872,190.705537 479.789706,196.372139 C474.294089,201.952883 465.367704,202.105403 459.685557,196.778399 L459.425632,196.528646 L431.130986,168.665598 C425.464384,163.085433 425.394314,153.968126 430.974479,148.301524 Z"></path>
                    </g>
                </g>
            </g>
        </g>
    </g>
</svg>