<svg xmlns:xlink="http://www.w3.org/1999/xlink" xmlns="http://www.w3.org/2000/svg" version="1.1" viewBox="0 0 1200 1200" height="1200px" width="1200px">
    <title>NAKIA-6@2x</title>
    <defs>
        <linearGradient id="linearGradient-1" y2="100%" x2="50%" y1="0%" x1="50%">
            <stop offset="0%" stop-color="#D9F8FF"></stop>
            <stop offset="100%" stop-color="#FFD9E5"></stop>
        </linearGradient>
        <rect height="1200" width="1200" y="0" x="0" id="path-2"></rect>
        <path id="path-4" d="M426.086957,0 C530.179193,0 625.553419,30.6608387 699.555048,81.5876758 C716.499981,93.2489306 742.178169,86.7652974 767.569204,79.2987054 L777.688921,76.3003243 C805.078938,68.2168342 830.702442,61.6810091 842.91343,78.8501475 C853.938033,94.351181 851.869766,133.385048 848.014127,173.514748 L847.533844,178.43254 C847.452564,179.252576 847.370732,180.072687 847.288443,180.892683 L846.790009,185.809741 L846.28524,190.714868 L845.025872,202.865411 L844.535255,207.656688 L844.059059,212.394841 C841.332284,239.861314 839.577048,264.148942 842.91343,277.080977 C848.981582,300.601526 852.173913,324.994531 852.173913,350 C852.173913,543.299662 661.408285,700 426.086957,700 C190.765628,700 0,543.299662 0,350 C0,324.160401 3.40886245,298.974809 9.87733374,274.730111 C13.7426153,260.242517 11.4553787,235.528288 8.15752202,208.253713 L7.59940332,203.685558 L6.44818045,194.438555 L5.57498045,187.437503 L4.9981074,182.753589 C-0.0595479715,141.349585 -3.90232051,99.4733635 9.87733374,81.5876758 C21.6929192,66.2513062 47.7996979,70.4992763 75.6829074,76.4278869 L79.1766556,77.1764214 L87.9563372,79.0733542 C88.5424868,79.1991466 89.1286152,79.3245352 89.7146094,79.4493581 L93.228058,80.1902123 C117.798245,85.3105435 141.732342,88.8618819 156.646436,78.8501475 C230.065975,29.564088 323.873384,0 426.086957,0 Z"></path>
        <ellipse ry="46" rx="70" cy="46" cx="70" id="path-6"></ellipse>
        <ellipse ry="46" rx="70" cy="46" cx="70" id="path-8"></ellipse>
    </defs>
    <g fill-rule="evenodd" fill="none" stroke-width="1" stroke="none" id="天猫-数字藏品-NFT展示">
        <g transform="translate(-1920.000000, -2356.000000)" id="天猫-数字藏品-NFT展示备份-4">
            <g transform="translate(1920.000000, 2356.000000)" id="NAKIA-6">
                <mask fill="white" id="mask-3">
                    <use xlink:href="#path-2"></use>
                </mask>
                <g id="矩形">
                    <use xlink:href="#path-2" fill="#EDEDED"></use>
                    <use xlink:href="#path-2" fill="url(#linearGradient-1)"></use>
                </g>
                <path mask="url(#mask-3)" fill="#FFB959" stroke-width="33.3333333" stroke="#684539" id="椭圆形" d="M600,850 C789.51302,850 950.223108,910.325155 1015.92001,992.99528 C1025.12802,1003.89569 1031.32224,1012.18058 1035.07633,1018.30608 C1044.09186,1033.01661 1041.94077,1041.05971 1039.90354,1045.6679 C1037.49979,1051.10512 1033.17211,1055.49704 1025.45399,1057.28488 C1022.39831,1057.99271 1018.32482,1058.23004 1013.34168,1057.59142 C1006.31954,1056.69149 996.197401,1053.82586 984.454492,1050.36746 C961.792793,1043.69336 931.389936,1033.51881 909.313641,1040.1012 C904.103016,1041.65482 899.500879,1044.40237 896.170281,1049.13289 C892.627357,1054.16497 890.508398,1061.0127 889.601518,1069.85103 C889.600934,1073.07519 889.597031,1076.33663 889.593089,1079.62752 C889.580786,1089.89906 889.515309,1100.50353 889.53067,1111.15983 L889.538968,1114.71346 C889.694432,1162.11058 891.740825,1209.91482 907.443264,1233.45009 C910.758132,1238.41852 915.305329,1243.24026 920.816273,1247.93322 C914.021638,1251.44257 907.264068,1254.74526 900.553856,1257.83715 C821.517118,1294.25524 715.98117,1316.66667 600,1316.66667 C477.389313,1316.66667 366.458943,1291.60964 286.133502,1251.44692 C243.827875,1230.29411 209.888899,1204.87831 186.64752,1176.82348 C162.788254,1148.0228 150,1116.36319 150,1083.33333 C150,1050.30348 162.788254,1018.64387 186.64752,989.843187 C209.888899,961.788361 243.827875,936.372557 286.133502,915.219744 C366.458943,875.057023 477.389313,850 600,850 Z"></path>
                <path mask="url(#mask-3)" fill-rule="nonzero" fill="#684539" id="路径-103" d="M325.000599,1052.36824 C334.098313,1052.36824 341.493497,1059.65764 341.664248,1068.71453 L341.667266,1069.03491 L341.667266,1162.78461 C341.667266,1171.98935 334.205345,1179.45127 325.000599,1179.45127 C315.902885,1179.45127 308.507701,1172.16188 308.33695,1163.10499 L308.333933,1162.78461 L308.333933,1069.03491 C308.333933,1059.83016 315.795853,1052.36824 325.000599,1052.36824 Z"></path>
                <path mask="url(#mask-3)" fill-rule="nonzero" fill="#684539" id="路径-11" d="M747.564577,1092.52475 C749.891245,1084 758.688056,1078.97547 767.212804,1081.30213 C775.633593,1083.60043 780.63902,1092.21202 778.517272,1100.63837 L778.435423,1100.95036 L762.767477,1158.35663 C760.44081,1166.88138 751.643999,1171.90591 743.11925,1169.57925 C734.698462,1167.28095 729.693034,1158.66936 731.814783,1150.24301 L731.896632,1149.93102 L747.564577,1092.52475 Z"></path>
                <path mask="url(#mask-3)" fill-rule="nonzero" fill="#684539" id="路径-11备份" d="M795.564577,1102.52475 C797.891245,1094 806.688056,1088.97547 815.212804,1091.30213 C823.633593,1093.60043 828.63902,1102.21202 826.517272,1110.63837 L826.435423,1110.95036 L810.767477,1168.35663 C808.44081,1176.88138 799.643999,1181.90591 791.11925,1179.57925 C782.698462,1177.28095 777.693034,1168.66936 779.814783,1160.24301 L779.896632,1159.93102 L795.564577,1102.52475 Z"></path>
                <path transform="translate(717.734948, 1149.958627) rotate(-90.000000) translate(-717.734948, -1149.958627)" mask="url(#mask-3)" fill-rule="nonzero" fill="#684539" id="路径-11备份-2" d="M710.133498,1117.04269 C712.460166,1108.51794 721.256977,1103.4934 729.781725,1105.82007 C738.202514,1108.11836 743.207941,1116.72996 741.086193,1125.15631 L741.004344,1125.4683 L725.336398,1182.87456 C723.009731,1191.39931 714.21292,1196.42385 705.688171,1194.09718 C697.267383,1191.79889 692.261955,1183.1873 694.383704,1174.76095 L694.465553,1174.44896 L710.133498,1117.04269 Z"></path>
                <path mask="url(#mask-3)" fill-rule="nonzero" fill="#684539" id="路径-11备份-3" d="M656.826033,1185.04405 C659.124327,1176.62326 667.735918,1171.61783 676.16227,1173.73958 L676.474261,1173.82143 L733.880527,1189.48937 C742.405276,1191.81604 747.429813,1200.61285 745.103146,1209.1376 C742.804852,1217.55839 734.193261,1222.56382 725.766909,1220.44207 L725.454919,1220.36022 L668.048652,1204.69227 C659.523903,1202.36561 654.499366,1193.56879 656.826033,1185.04405 Z"></path>
                <rect rx="28" height="134" width="134" y="1122" x="696" transform="translate(763.000000, 1189.000000) rotate(-345.000000) translate(-763.000000, -1189.000000)" mask="url(#mask-3)" fill="#FF755C" id="矩形"></rect>
                <path mask="url(#mask-3)" fill-rule="nonzero" fill="#684539" id="路径-103备份" d="M891.667266,1052.36824 C900.76498,1052.36824 908.160164,1059.65764 908.330915,1068.71453 L908.333933,1069.03491 L908.333933,1162.78461 C908.333933,1171.98935 900.872012,1179.45127 891.667266,1179.45127 C882.569552,1179.45127 875.174368,1172.16188 875.003617,1163.10499 L875.000599,1162.78461 L875.000599,1069.03491 C875.000599,1059.83016 882.46252,1052.36824 891.667266,1052.36824 Z"></path>
                <path fill="#FFFFFF" stroke-width="33.3333333" stroke="#684539" id="椭圆形备份-4" d="M600,816.666667 C667.025462,816.666667 727.651663,828.48704 771.556904,847.303571 C795.440569,857.539428 814.535339,869.941908 827.64762,883.508699 C842.482436,898.857734 850,915.844175 850,933.333333 C850,944.839018 845.494272,956.428099 835.056354,967.624647 C827.040069,976.223556 815.139624,984.818127 799.080242,993.071562 C770.311356,1007.85682 727.206596,1022.13638 669.653682,1035.6359 C658.554166,1038.23939 643.192882,1066.81712 620.233437,1112.69153 L618.741608,1115.67508 C617.489576,1118.18123 616.215374,1120.73683 614.918484,1123.34054 C609.508971,1134.201 604.529718,1144.24214 600.079158,1153.42262 C595.592124,1144.24807 590.572385,1134.2353 585.116835,1123.41103 C558.765499,1071.12777 541.584466,1038.28007 529.499536,1035.43699 C472.222633,1021.96212 429.325198,1007.70995 400.694353,992.955561 C384.705334,984.715907 372.857749,976.136198 364.876632,967.552668 C354.487183,956.379028 350,944.81538 350,933.333333 C350,915.844175 357.517564,898.857734 372.35238,883.508699 C385.464661,869.941908 404.559431,857.539428 428.443096,847.303571 C472.348337,828.48704 532.974538,816.666667 600,816.666667 Z"></path>
                <g transform="translate(169.913043, 266.666667)" id="虎头">
                    <path fill-rule="nonzero" fill="#684539" id="路径" d="M426.086957,-33.3333333 C321.005333,-33.3333333 221.153442,-3.84536629 140.505847,49.5490554 L138.258647,51.0471487 L138.24224,51.0527673 C137.913466,51.1786386 137.400147,51.3203496 136.689776,51.4532075 C134.554388,51.8525812 131.55038,51.9996924 127.717152,51.8080349 L126.974712,51.7677049 L126.223876,51.72048 L125.463601,51.6662223 L124.303216,51.5713474 L123.115738,51.4598727 L122.3073,51.3761041 L121.484218,51.2846128 L120.645452,51.1852609 L119.355616,51.0211925 L118.024634,50.8386616 L116.648991,50.6372026 L115.705349,50.492151 L114.247463,50.2581102 L112.21896,49.9145999 L111.166086,49.7290533 L109.535567,49.4331058 L107.840477,49.1155914 L106.077301,48.7760445 L103.614417,48.2882377 L101.015915,47.7593302 L98.2734689,47.1882185 L92.0698553,45.8611946 L84.7174086,44.2780671 L80.6426948,43.4159652 L77.4610321,42.7546272 L73.8783868,42.0268461 L72.1761447,41.6889836 L69.9919361,41.2646257 L67.3887172,40.7748795 L64.9133245,40.3286903 L63.0154465,40.0018996 L61.1829224,39.7009281 L59.4084389,39.4248611 L57.6846828,39.1727844 L56.4207561,38.9989204 L55.1781644,38.8376509 L54.3600993,38.7369442 L53.14621,38.5958082 L51.5475473,38.4255512 L50.3594432,38.3108018 L49.1772478,38.2067181 L47.9978757,38.1129142 L47.2116726,38.0558989 L46.4052175,38.001933 C44.6560168,37.8897874 42.892281,37.8084259 41.0690314,37.7522249 C30.7305826,37.4335457 21.2867102,38.4389344 12.3910217,41.2766038 C0.869659229,44.9518469 -9.08199627,51.5791451 -16.5281665,61.2441101 C-25.5506297,72.9550686 -30.1845997,87.2436729 -32.0112191,104.74798 L-32.1651461,106.300839 C-32.4830437,109.683519 -32.7000366,113.184414 -32.8271727,116.807981 L-32.8795107,118.489124 L-32.9193294,120.187785 C-32.9249359,120.47236 -32.9300309,120.75767 -32.9346194,121.043715 L-32.9546309,122.605243 L-32.9643793,124.012261 L-32.966422,125.426269 L-32.9550182,127.562434 L-32.9262256,129.719598 L-32.8973548,131.170936 C-32.8918973,131.413772 -32.8861168,131.657095 -32.8800132,131.900924 L-32.8395122,133.370128 L-32.7912462,134.852414 L-32.7352062,136.348721 L-32.671383,137.859984 L-32.5610348,140.156976 L-32.4331231,142.492897 L-32.3380759,144.073366 L-32.2351999,145.67348 L-32.066187,148.112537 L-31.8795078,150.601069 L-31.7452252,152.289139 L-31.6030682,154.001542 L-31.4530276,155.739214 L-31.213165,158.395155 L-30.9555129,161.113228 L-30.6800405,163.896596 L-30.3867171,166.748423 L-30.1812357,168.689236 L-29.858092,171.662194 L-29.5170151,174.712048 L-29.0342965,178.903607 L-28.6512556,182.145192 L-27.3840404,192.513684 L-25.0709955,211.181761 L-24.2439112,218.077588 L-23.5766296,223.88969 L-23.0756333,228.550938 L-22.7238779,232.105316 L-22.4238735,235.440538 L-22.2536941,237.508433 L-22.203738,238.14474 C-22.1433352,238.922709 -22.0852556,239.702366 -22.0286536,240.491824 L-21.8616849,242.929741 L-21.7514471,244.746559 L-21.6873829,245.923308 L-21.6307421,247.072241 L-21.5594768,248.743021 L-21.5209488,249.821488 L-21.4894877,250.871399 L-21.4649916,251.892543 L-21.4473588,252.884708 L-21.4364874,253.847684 L-21.4326351,255.236956 L-21.4434231,256.559364 L-21.4585789,257.40347 L-21.4799869,258.21733 L-21.5075453,259.000734 L-21.5411523,259.75347 L-21.5807059,260.475327 L-21.6509637,261.499752 L-21.7049385,262.143487 L-21.7645036,262.755603 L-21.8295572,263.33589 L-21.8999974,263.884137 L-21.9757223,264.400131 L-22.0566302,264.883662 C-22.0705411,264.961534 -22.0846637,265.038044 -22.0989959,265.113188 L-22.1874872,265.547628 L-22.2809068,265.949077 L-22.3294329,266.137364 C-29.6196718,293.462158 -33.3333333,321.540748 -33.3333333,350 C-33.3333333,563.316078 173.644195,733.333333 426.086957,733.333333 C678.529718,733.333333 885.507246,563.316078 885.507246,350 C885.507246,323.001388 882.165006,296.343609 875.596103,270.344793 L875.167391,268.662231 L875.118586,268.436824 L875.065603,268.156321 L875.009507,267.82206 L874.92185,267.2228 L874.862621,266.759999 L874.791736,266.132907 L874.714861,265.336092 C874.678459,264.923648 874.645149,264.490245 874.615108,264.036321 L874.559436,263.101239 C874.5509,262.940875 874.542741,262.778263 874.534965,262.61342 L874.492952,261.59771 L874.475488,261.070013 C874.464409,260.706076 874.455051,260.334871 874.447414,259.956369 L874.429666,258.798947 C874.427568,258.602386 874.4259,258.403993 874.424662,258.203767 L874.422398,256.980364 L874.430453,255.712767 L874.448826,254.400806 L874.477514,253.044315 L874.516517,251.643128 L874.565832,250.197076 L874.625456,248.705992 L874.695388,247.169711 L874.775626,245.588063 L874.912474,243.1711 L875.006878,241.615531 L875.133468,239.643013 L875.268389,237.673278 L875.46194,235.049583 L875.804798,230.827199 L876.225497,226.101623 L876.66383,221.470459 L877.485909,213.175681 L878.886935,199.501196 L880.411114,184.660262 L880.938319,179.345067 L881.45731,173.933703 L881.842424,169.765612 L882.113726,166.729001 L882.37001,163.765884 L882.611284,160.873393 L882.837556,158.048663 L882.980074,156.201738 L883.181363,153.483573 L883.307234,151.705037 L883.539014,148.224725 L883.695394,145.67831 L883.79134,144.009498 L883.922804,141.547354 L884.002147,139.932069 L884.108719,137.546233 L884.171475,135.979165 L884.253179,133.661676 L884.299365,132.137518 L884.356225,129.880413 L884.39819,127.655715 L884.425269,125.460561 L884.435055,124.012121 L884.438232,122.574688 L884.43061,120.437318 L884.417274,119.023686 L884.391435,117.276733 L884.355234,115.55062 C884.341411,114.978702 884.325819,114.410228 884.308414,113.845168 L884.250719,112.160202 C884.240183,111.881072 884.229182,111.602788 884.217713,111.325346 L884.143223,109.670776 L884.057216,108.03625 L883.959435,106.421591 C883.942143,106.154127 883.924349,105.887483 883.906049,105.621656 L883.790125,104.036466 C883.342465,98.2598222 882.644415,92.8749159 881.639011,87.8425445 L881.357146,86.4787907 C879.137108,76.089904 875.550711,67.2266847 870.077246,59.530773 C862.712979,49.1763183 852.642231,41.925135 840.831048,38.0583383 C831.433821,34.9818336 821.568118,34.1799234 810.937945,35.0272145 C808.767644,35.200201 806.701445,35.4067345 804.657397,35.6625994 L803.891757,35.7608919 L802.772388,35.9135498 L801.652397,36.0771012 L800.903903,36.1924743 L799.776176,36.3754722 L798.639787,36.5709123 L797.105917,36.8518574 L795.937592,37.0785879 L794.750554,37.3196963 L793.541789,37.5757635 L792.308282,37.8473702 L790.619905,38.2346889 L789.316939,38.544813 L787.525007,38.9855959 L785.664074,39.4588228 L783.726993,39.96587 L780.662959,40.7928655 L777.949031,41.5458751 L775.074244,42.359795 L770.752721,43.6067314 L763.9088,45.6189318 L756.168382,47.9040383 L753.688311,48.620528 L751.623569,49.2062926 L750.291483,49.5782472 L748.357714,50.1087584 L747.110128,50.4443926 L745.298883,50.921196 L743.557096,51.3665166 L742.432991,51.6461813 L741.337503,51.9122658 L739.745955,52.2862902 L738.718066,52.5191453 L737.223692,52.8440985 L735.783567,53.1403508 L734.852119,53.3221822 L733.942527,53.4916698 L732.617151,53.7231172 L731.758259,53.8624665 L730.918069,53.9900491 L730.09568,54.1060297 L729.290191,54.2105732 L728.5007,54.3038446 L727.726306,54.3860085 L726.966108,54.4572299 C726.840541,54.4681975 726.715528,54.4787159 726.59105,54.4887887 C723.467225,54.7415707 721.075754,54.6606198 719.427921,54.350672 C719.00565,54.2712453 718.695869,54.1889186 718.482739,54.1140735 L718.372,54.073 L718.452119,54.1284004 C636.702307,-2.13062306 534.171953,-33.3333333 426.086957,-33.3333333 Z"></path>
                    <mask fill="white" id="mask-5">
                        <use xlink:href="#path-4"></use>
                    </mask>
                    <use xlink:href="#path-4" fill-rule="nonzero" fill="#FFFFFF" id="路径"></use>
                    <path mask="url(#mask-5)" fill-rule="nonzero" fill="#684539" id="路径" d="M426.086957,43.8568375 C485.630638,43.8568375 543.561991,53.5885201 597.314814,72.2519759 C606.010331,75.2711363 610.611927,84.7677588 607.592767,93.4632758 C604.573606,102.158793 595.076984,106.760389 586.381467,103.741229 C536.151643,86.3009892 481.916209,77.1901709 426.086957,77.1901709 C369.659064,77.1901709 314.861942,86.4976201 264.188737,104.301395 C255.504409,107.35259 245.990888,102.786033 242.939693,94.1017051 C239.888498,85.417377 244.455055,75.9038558 253.139383,72.8526609 C307.37028,53.7989088 365.903706,43.8568375 426.086957,43.8568375 Z"></path>
                    <path mask="url(#mask-5)" fill-rule="nonzero" fill="#684539" id="路径" d="M426.086957,116.666667 C450.123984,116.666667 473.924069,118.251767 497.330916,121.384096 C506.454333,122.605 512.860584,130.99073 511.639679,140.114147 C510.418774,149.237564 502.033045,155.643816 492.909628,154.422911 C470.968522,151.48673 448.645464,150 426.086957,150 C403.894287,150 381.92921,151.438899 360.331064,154.281339 C351.205011,155.48238 342.833247,149.057888 341.632206,139.931835 C340.431165,130.805782 346.855657,122.434018 355.98171,121.232977 C379.022002,118.200742 402.43997,116.666667 426.086957,116.666667 Z"></path>
                    <path mask="url(#mask-5)" fill-rule="nonzero" fill="#684539" id="路径" d="M426.086957,483.333333 C437.9827,483.333333 449.822917,483.721556 461.589253,484.493958 C470.77423,485.096908 477.731338,493.031589 477.128388,502.216566 C476.525439,511.401543 468.590758,518.358651 459.405781,517.755702 C448.366279,517.031012 437.254277,516.666667 426.086957,516.666667 C415.519429,516.666667 405.001323,516.992926 394.54717,517.642076 C385.360119,518.212545 377.450085,511.227426 376.879616,502.040374 C376.309146,492.853323 383.294266,484.94329 392.481317,484.37282 C403.623247,483.680963 414.830301,483.333333 426.086957,483.333333 Z"></path>
                    <g mask="url(#mask-5)" id="编组">
                        <g transform="translate(246.086957, 233.333333)">
                            <mask fill="white" id="mask-7">
                                <use xlink:href="#path-6"></use>
                            </mask>
                            <use xlink:href="#path-6" fill-rule="evenodd" fill="#684539" stroke="none" id="椭圆形"></use>
                            <ellipse ry="46" rx="40" cy="14" cx="70" transform="translate(70.000000, 14.000000) scale(-1, 1) translate(-70.000000, -14.000000)" mask="url(#mask-7)" fill-rule="evenodd" fill="#FFFFFF" stroke="none" id="椭圆形备份-9"></ellipse>
                        </g>
                    </g>
                    <g mask="url(#mask-5)" id="编组备份-2">
                        <g transform="translate(466.086957, 233.333333)">
                            <mask fill="white" id="mask-9">
                                <use xlink:href="#path-8"></use>
                            </mask>
                            <use xlink:href="#path-8" fill-rule="evenodd" fill="#684539" stroke="none" id="椭圆形"></use>
                            <ellipse ry="46" rx="40" cy="14" cx="70" transform="translate(70.000000, 14.000000) scale(-1, 1) translate(-70.000000, -14.000000)" mask="url(#mask-9)" fill-rule="evenodd" fill="#FFFFFF" stroke="none" id="椭圆形备份-9"></ellipse>
                        </g>
                    </g>
                    <circle r="150" cy="550" cx="109.42029" mask="url(#mask-5)" fill="#717EEE" id="椭圆形备份-5"></circle>
                    <circle r="150" cy="550" cx="742.753623" mask="url(#mask-5)" fill="#717EEE" id="椭圆形备份-6"></circle>
                    <path mask="url(#mask-5)" fill="#FEF1E0" id="形状结合" d="M476.086957,366.666667 C522.110686,366.666667 559.42029,396.51435 559.42029,433.333333 C559.42029,470.152317 522.110686,500 476.086957,500 C457.326467,500 440.01391,495.040529 426.086085,486.671026 C412.160199,495.040473 394.847552,500 376.086957,500 C330.063227,500 292.753623,470.152317 292.753623,433.333333 C292.753623,396.51435 330.063227,366.666667 376.086957,366.666667 C394.847552,366.666667 412.160199,371.626194 426.088064,379.995783 C440.01391,371.626138 457.326467,366.666667 476.086957,366.666667 Z"></path>
                    <circle r="33.3333333" cy="366.666667" cx="426.086957" mask="url(#mask-5)" fill="#684539" id="椭圆形备份-2"></circle>
                    <path mask="url(#mask-5)" fill="#E0DFDF" id="路径-101" d="M27.4173243,107.022 C14.7789217,118.223089 14.7789217,159.450736 27.4173243,230.704942 C49.3430721,182.022885 69.3697555,131.555997 110.717195,101.127365 C67.8223506,93.8560329 40.0557269,95.8209114 27.4173243,107.022 Z"></path>
                    <path mask="url(#mask-5)" fill="#E0DFDF" id="路径-102" d="M750.373974,109.75564 C790.658379,87.2057934 815.610329,85.2275908 825.229824,103.821033 C834.849319,122.414474 831.955436,168.335648 816.548174,241.584555 C801.19572,190.009368 782.117054,142.675293 750.373974,109.75564 Z"></path>
                    <path mask="url(#mask-5)" fill-rule="nonzero" fill="#684539" id="路径-165" d="M426.638329,-24.4623508 C435.736043,-24.4623508 443.131227,-17.1729541 443.301978,-8.11606397 L443.304996,-7.79568411 L443.304996,126.908176 C443.304996,136.112922 435.843075,143.574843 426.638329,143.574843 C417.540616,143.574843 410.145431,136.285446 409.97468,127.228556 L409.971663,126.908176 L409.971663,-7.79568411 C409.971663,-17.0004299 417.433584,-24.4623508 426.638329,-24.4623508 Z"></path>
                </g>
                <path fill-rule="nonzero" fill="#684539" id="路径-2" d="M359.021197,736.37546 C362.127544,728.102895 371.351976,723.914849 379.62454,727.021197 C435.76413,748.101611 468.460785,787.641752 475.863327,843.913169 C477.015852,852.674243 470.847904,860.710802 462.086831,861.863327 C453.325757,863.015852 445.289198,856.847904 444.136673,848.086831 C438.308167,803.780652 413.671489,773.987461 368.37546,756.978803 C360.102895,753.872456 355.914849,744.648024 359.021197,736.37546 Z"></path>
                <path fill-rule="nonzero" fill="#684539" id="路径" d="M783.682361,290.810359 C789.20804,283.914593 799.277611,282.803919 806.173377,288.329598 C813.069143,293.855278 814.179817,303.924849 808.654138,310.820615 C616.505065,550.612837 400.37145,659.269718 161.363028,635.059093 C152.571462,634.168542 146.166424,626.319634 147.056975,617.528068 C147.936797,608.842424 155.608314,602.486148 164.270654,603.192995 L164.588,603.222015 C391.881945,626.246008 597.87682,522.686177 783.682361,290.810359 Z"></path>
                <path transform="translate(475.001700, 566.118000) rotate(-180.000000) translate(-475.001700, -566.118000)" fill-rule="nonzero" fill="#684539" id="路径" d="M390.593982,502.445736 L373.99081,523.245315 C361.172709,539.303155 354.191262,559.239894 354.191262,579.786376 C354.191262,629.840609 394.768236,670.417582 444.822469,670.417582 L505.177531,670.417582 C525.724013,670.417582 545.660753,663.436136 561.718592,650.618035 C600.837838,619.391269 607.235956,562.36456 576.00919,523.245315 L559.406018,502.445736 C554.382217,496.152183 548.670285,490.440252 542.376733,485.416451 C495.760577,448.205309 427.805125,455.829579 390.593982,502.445736 Z"></path>
                <path transform="translate(475.002300, 566.117400) rotate(-180.000000) translate(-475.002300, -566.117400)" fill-rule="nonzero" fill="#4E342B" id="路径" d="M522.414457,510.424441 C526.843253,513.959708 530.86276,517.979216 534.398027,522.408012 L551.0012,543.207591 C571.202442,568.514642 567.063367,605.406402 541.756316,625.607645 C531.368167,633.899939 518.470676,638.416382 505.178731,638.416382 L444.823669,638.416382 C412.442548,638.416382 386.192463,612.166297 386.192463,579.785176 C386.192463,566.493231 390.708905,553.59574 399.0012,543.207591 L415.604373,522.408012 C441.789992,489.60405 489.610495,484.238823 522.414457,510.424441 Z"></path>
                <path fill-rule="nonzero" fill="#684539" id="路径" d="M597.309051,64.0191771 C517.609639,65.1557003 449.809724,116.691212 432.3538,187.245769 L432.137,188.15 L430.808297,188.503675 C414.255973,192.940614 397.754333,198.078113 381.296193,203.919752 C364.589063,209.849768 355.887095,228.232565 361.890825,244.913348 L384.824859,308.63334 C390.777457,325.172059 408.955743,333.813455 425.539633,327.987887 L429.088721,326.740988 C540.195335,288.118129 652.359988,289.907894 775.19872,331.000702 C791.908966,336.590722 809.994112,327.619945 815.654516,310.93341 L837.40768,246.806371 C843.113653,229.985502 834.028179,211.736053 817.167039,206.150202 L812.903596,204.737786 L810.13975,203.836224 C797.38998,199.700903 784.728954,195.921755 772.135347,192.49387 L768.645,191.553 L768.469053,190.728999 C752.263255,117.717549 682.299937,64 600,64 L597.309051,64.0191771 Z"></path>
                <path fill-rule="nonzero" fill="#3F2D2C" id="路径" d="M600,96 C675.211209,96 736.570305,149.80078 739.861119,217.291959 C760.742321,222.240498 781.730014,228.189181 802.840312,235.114262 L807.103754,236.526678 L785.35059,300.653717 C658.708335,258.28853 538.97462,254.664167 418.581623,296.515156 L414.934034,297.796477 L392,234.076485 C414.763559,225.996806 437.53496,219.359454 460.339011,214.129222 C465.355481,148.128399 525.966979,96 600,96 Z"></path>
                <path fill-rule="nonzero" fill="#FFB959" id="路径" d="M615.274355,155.364515 C615.449183,155.633958 615.63604,155.89482 615.834925,156.147102 C616.034089,156.399355 616.244303,156.641968 616.465566,156.87494 C616.686829,157.10794 616.918441,157.330295 617.160404,157.542004 C617.402087,157.753741 617.65314,157.95394 617.913565,158.1426 C618.173989,158.33126 618.442386,158.5076 618.718755,158.671621 C618.995403,158.83567 619.279045,158.986687 619.56968,159.124674 C619.860035,159.26266 620.156264,159.387057 620.458368,159.497864 C620.760471,159.608672 621.066911,159.705402 621.377686,159.788054 L638.211987,164.263997 C638.422341,164.319945 638.630736,164.382367 638.837174,164.451262 C639.043891,164.520157 639.24809,164.595401 639.449772,164.676993 C639.651734,164.758585 639.850899,164.846357 640.047266,164.940311 C640.243633,165.034264 640.436784,165.134217 640.626718,165.240169 C640.816931,165.346121 641.003508,165.457878 641.186448,165.575438 C641.369669,165.69297 641.548973,165.816084 641.72436,165.944778 C641.899748,166.073472 642.07108,166.207482 642.238356,166.346807 C642.405352,166.486133 642.567873,166.630509 642.725918,166.779936 C642.883963,166.929391 643.037252,167.083589 643.185786,167.242532 C643.334041,167.401474 643.4774,167.564881 643.615864,167.732752 C643.754049,167.900596 643.886918,168.07257 644.014473,168.248673 C644.141748,168.424804 644.263569,168.604702 644.379935,168.788368 C644.496301,168.972061 644.606792,169.159145 644.711409,169.349619 C644.815747,169.540204 644.91421,169.733859 645.0068,169.930584 C645.099389,170.127308 645.185684,170.326684 645.265686,170.52871 C645.345687,170.730736 645.419395,170.934995 645.486809,171.141486 C645.553943,171.347977 645.614643,171.556421 645.66891,171.766819 C645.723177,171.977216 645.77087,172.189149 645.811989,172.402616 C645.853109,172.615804 645.887515,172.830247 645.915208,173.045947 C645.942901,173.261367 645.963741,173.477485 645.977727,173.6943 C645.991993,173.910837 646,174.127792 646,174.345166 C646,174.56226 645.994371,174.779355 645.981503,174.996449 C645.968636,175.213265 645.948915,175.429383 645.922341,175.644803 C645.896047,175.860502 645.863039,176.075225 645.823318,176.288971 C645.783318,176.502438 645.736743,176.71451 645.683595,176.925187 C645.630727,177.135863 645.571146,177.344726 645.504851,177.551775 C645.438836,177.758824 645.366387,177.963501 645.287504,178.165807 C645.208622,178.368391 645.123445,178.568185 645.031975,178.765189 C644.940784,178.962471 644.84344,179.156685 644.739941,179.347828 C644.636443,179.538972 644.52707,179.726767 644.411823,179.911214 C644.296576,180.095381 644.175735,180.275921 644.049299,180.452834 C643.922863,180.629747 643.790973,180.802473 643.653627,180.971015 L632.671743,194.462968 C632.468942,194.712152 632.27803,194.970126 632.099005,195.236891 C631.919981,195.503375 631.753684,195.777674 631.600115,196.059785 C631.446266,196.341617 631.305844,196.630007 631.178848,196.924954 C631.051573,197.219902 630.938284,197.520011 630.838982,197.825283 C630.739399,198.130555 630.654223,198.439733 630.583453,198.752818 C630.512402,199.065903 630.456038,199.381639 630.414358,199.700026 C630.3724,200.018133 630.345266,200.337636 630.332958,200.658534 C630.32065,200.979154 630.323168,201.299773 630.340511,201.620392 L631.275354,218.974424 C631.287102,219.191518 631.291997,219.408613 631.290039,219.625708 C631.288081,219.843081 631.27941,220.060036 631.264025,220.276573 C631.24864,220.493388 631.226541,220.709367 631.19773,220.924508 C631.168638,221.139928 631.132973,221.354232 631.090735,221.56742 C631.048496,221.780329 630.999684,221.991843 630.944298,222.201962 C630.888913,222.41208 630.826954,222.620245 630.758421,222.826457 C630.689888,223.032669 630.615062,223.236509 630.533941,223.437977 C630.452541,223.639725 630.365127,223.838682 630.271698,224.034848 C630.17799,224.231014 630.078268,224.423972 629.972532,224.61372 C629.866796,224.803748 629.755325,224.990287 629.63812,225.173339 C629.520915,225.35639 629.397976,225.535535 629.269302,225.710773 C629.140908,225.886291 629.007059,226.057483 628.867756,226.22435 C628.728732,226.391496 628.584534,226.554178 628.435161,226.712394 C628.285787,226.870332 628.131658,227.023665 627.972774,227.172395 C627.81389,227.320845 627.650391,227.464273 627.482276,227.602677 C627.31444,227.741082 627.142549,227.874046 626.966602,228.001568 C626.790374,228.129369 626.610371,228.25145 626.426591,228.36781 C626.242812,228.48445 626.055536,228.595229 625.864763,228.700149 C625.67399,228.80479 625.48014,228.90357 625.283213,228.996491 C625.086287,229.089412 624.886702,229.176055 624.684461,229.256419 C624.482219,229.336783 624.2776,229.410869 624.070603,229.478676 C623.863886,229.546483 623.655071,229.607733 623.444158,229.662425 C623.233525,229.717117 623.021353,229.765252 622.807643,229.806829 C622.593932,229.848406 622.379103,229.883286 622.163155,229.91147 C621.947207,229.939653 621.730559,229.961139 621.513213,229.975928 C621.295866,229.990718 621.078379,229.99867 620.860753,230 C620.642847,230.001182 620.42522,229.99574 620.207874,229.983462 C619.990527,229.971185 619.77374,229.95221 619.557512,229.926538 C619.341284,229.900587 619.126035,229.868079 618.911765,229.829013 C618.697496,229.789947 618.484764,229.744184 618.273572,229.691724 C618.062099,229.639543 617.852585,229.580805 617.645028,229.515509 C617.437192,229.449934 617.231734,229.378081 617.028653,229.299949 L600.772125,223.050388 C600.471979,222.935144 600.167079,222.833712 599.857423,222.746093 C599.547766,222.658753 599.234754,222.585784 598.918384,222.527185 C598.602014,222.468307 598.283687,222.424218 597.963401,222.394919 C597.642836,222.365341 597.321711,222.350551 597.000026,222.350551 C596.678342,222.350551 596.357217,222.365341 596.036652,222.394919 C595.716366,222.424218 595.398038,222.468307 595.081669,222.527185 C594.765299,222.585784 594.452286,222.658753 594.14263,222.746093 C593.832974,222.833712 593.528073,222.935144 593.227928,223.050388 L576.971441,229.299949 C576.768249,229.378081 576.562804,229.449934 576.355108,229.515509 C576.14744,229.580805 575.937926,229.639543 575.726565,229.691724 C575.515232,229.744184 575.302459,229.789947 575.088245,229.829013 C574.874032,229.868079 574.658811,229.900587 574.442583,229.926538 C574.226355,229.95221 574.009526,229.971185 573.792095,229.983462 C573.574692,229.99574 573.357108,230.001182 573.139342,230 C572.921575,229.99867 572.704061,229.990718 572.486798,229.975928 C572.269535,229.961139 572.052944,229.939653 571.837024,229.91147 C571.621103,229.883286 571.406274,229.848406 571.192536,229.806829 C570.97877,229.765252 570.766528,229.717117 570.555811,229.662425 C570.345066,229.607733 570.136236,229.546483 569.929324,229.478676 C569.722411,229.410869 569.517805,229.336783 569.315508,229.256419 C569.11321,229.176055 568.913626,229.089412 568.716755,228.996491 C568.519885,228.90357 568.326091,228.80479 568.135374,228.700149 C567.944657,228.595229 567.757395,228.48445 567.573587,228.36781 C567.389807,228.25145 567.209832,228.129369 567.033661,228.001568 C566.857462,227.874046 566.685431,227.741082 566.517567,227.602677 C566.349704,227.464273 566.186316,227.320845 566.027404,227.172395 C565.868492,227.023665 565.714363,226.870332 565.565018,226.712394 C565.415673,226.554178 565.271404,226.391496 565.132213,226.22435 C564.992993,226.057483 564.859145,225.886291 564.730667,225.710773 C564.602161,225.535535 564.479249,225.35639 564.361933,225.173339 C564.244616,224.990287 564.133117,224.803748 564.027437,224.61372 C563.921756,224.423972 563.822118,224.231014 563.728522,224.034848 C563.634898,223.838682 563.54747,223.639725 563.466237,223.437977 C563.385033,223.236509 563.310193,223.032669 563.241716,222.826457 C563.173239,222.620245 563.111266,222.41208 563.055796,222.201962 C563.000299,221.991843 562.951417,221.780329 562.90915,221.56742 C562.866884,221.354232 562.831302,221.139928 562.802407,220.924508 C562.773511,220.709367 562.751357,220.493388 562.735944,220.276573 C562.720531,220.060036 562.711888,219.843081 562.710013,219.625708 C562.708139,219.408613 562.713049,219.191518 562.724741,218.974424 L563.6595,201.620392 C563.676759,201.299773 563.679234,200.979154 563.666927,200.658534 C563.654619,200.337636 563.627569,200.018133 563.585778,199.700026 C563.543987,199.381639 563.487636,199.065903 563.416726,198.752818 C563.345816,198.439733 563.260639,198.130555 563.161197,197.825283 C563.061754,197.520011 562.948479,197.219902 562.821372,196.924954 C562.694265,196.630286 562.553843,196.341896 562.400106,196.059785 C562.246396,195.777674 562.08003,195.503375 561.901005,195.236891 C561.721981,194.970126 561.531054,194.712152 561.328225,194.462968 L550.346383,180.971015 C550.209122,180.802473 550.077245,180.629747 549.950754,180.452834 C549.824262,180.275921 549.70342,180.095381 549.588229,179.911214 C549.47301,179.726767 549.363652,179.538972 549.260153,179.347828 C549.156683,179.156685 549.059268,178.962471 548.96791,178.765189 C548.876524,178.568185 548.791389,178.368391 548.712507,178.165807 C548.633624,177.963501 548.561133,177.758824 548.495034,177.551775 C548.428907,177.344726 548.369311,177.135863 548.316247,176.925187 C548.263183,176.71451 548.216735,176.502438 548.176902,176.288971 C548.137069,176.075225 548.103936,175.860502 548.077502,175.644803 C548.051096,175.429383 548.031431,175.213265 548.018508,174.996449 C548.005556,174.779355 548,174.56226 548,174.345166 C548,174.127792 548.00806,173.910837 548.022242,173.6943 C548.036396,173.477485 548.057305,173.261367 548.08497,173.045947 C548.112635,172.830247 548.146999,172.615804 548.188063,172.402616 C548.229099,172.189149 548.27675,171.977216 548.331017,171.766819 C548.385312,171.556421 548.44611,171.347977 548.513412,171.141486 C548.580686,170.934995 548.654352,170.730736 548.734409,170.52871 C548.814467,170.326684 548.900734,170.127308 548.993211,169.930584 C549.085716,169.733859 549.184264,169.540204 549.288853,169.349619 C549.393414,169.159145 549.503836,168.972061 549.620118,168.788368 C549.736372,168.604702 549.858248,168.424804 549.985747,168.248673 C550.113246,168.07257 550.246116,167.900596 550.384356,167.732752 C550.522568,167.564881 550.6659,167.401474 550.81435,167.242532 C550.962772,167.083589 551.11602,166.929405 551.274093,166.779978 C551.432138,166.630523 551.5947,166.486133 551.76178,166.346807 C551.928861,166.207482 552.100122,166.073472 552.275566,165.944778 C552.45101,165.816084 552.6303,165.69297 552.813437,165.575438 C552.996545,165.457878 553.18315,165.346121 553.373251,165.240169 C553.563381,165.134217 553.756615,165.034264 553.952954,164.940311 C554.149294,164.846357 554.348374,164.758585 554.550196,164.676993 C554.752018,164.595401 554.95619,164.520157 555.162711,164.451262 C555.369233,164.382367 555.577712,164.319945 555.78815,164.263997 L572.622325,159.788054 C572.933268,159.705402 573.239735,159.608672 573.541727,159.497864 C573.843719,159.387057 574.139962,159.26266 574.430457,159.124674 C574.72098,158.98666 575.004537,158.835642 575.28113,158.671621 C575.557723,158.5076 575.826175,158.33126 576.086488,158.1426 C576.3468,157.95394 576.597882,157.753741 576.839733,157.542004 C577.081583,157.330295 577.313182,157.10794 577.534529,156.87494 C577.755848,156.641968 577.965992,156.399355 578.16496,156.147102 C578.363901,155.89482 578.550828,155.633958 578.72574,155.364515 L588.194966,140.776513 C588.31329,140.594159 588.437209,140.41567 588.566722,140.241046 C588.696234,140.066393 588.831062,139.895941 588.971205,139.729688 C589.111347,139.563406 589.256665,139.401646 589.407157,139.244406 C589.557369,139.087166 589.712337,138.934725 589.872061,138.787084 C590.031784,138.639471 590.195983,138.496964 590.364657,138.359564 C590.533332,138.222136 590.706062,138.090093 590.882849,137.963436 C591.059915,137.836751 591.240618,137.715675 591.424957,137.600207 C591.609576,137.484768 591.797551,137.375146 591.988884,137.271343 C592.179936,137.167567 592.374205,137.069833 592.571692,136.978139 C592.769178,136.886418 592.969321,136.80092 593.172122,136.721644 C593.374644,136.642368 593.579683,136.569469 593.787239,136.502945 C593.994515,136.436394 594.20361,136.376358 594.414523,136.322837 C594.625716,136.269289 594.838308,136.222341 595.052298,136.181991 C595.266288,136.14167 595.481257,136.108017 595.697205,136.081034 C595.913153,136.05405 596.1298,136.033792 596.347147,136.020258 C596.564494,136.006753 596.78212,136 597.000026,136 C597.217653,136 597.435139,136.006753 597.652486,136.020258 C597.869833,136.033792 598.08662,136.05405 598.302848,136.081034 C598.518796,136.108017 598.733765,136.14167 598.947755,136.181991 C599.161745,136.222341 599.374337,136.269289 599.585529,136.322837 C599.796442,136.376358 600.005537,136.436394 600.212814,136.502945 C600.42009,136.569469 600.625129,136.642368 600.82793,136.721644 C601.030731,136.80092 601.230875,136.886418 601.428361,136.978139 C601.625847,137.069833 601.820117,137.167567 602.011169,137.271343 C602.202501,137.375146 602.390477,137.484768 602.575096,137.600207 C602.759435,137.715675 602.940138,137.836751 603.117204,137.963436 C603.29399,138.090093 603.466721,138.222136 603.635395,138.359564 C603.80407,138.496964 603.968269,138.639471 604.127992,138.787084 C604.287715,138.934725 604.442683,139.087166 604.592896,139.244406 C604.743388,139.401646 604.888706,139.563406 605.028848,139.729688 C605.168991,139.895941 605.303818,140.066393 605.433331,140.241046 C605.562844,140.41567 605.686762,140.594159 605.805086,140.776513 L615.274355,155.364515 Z"></path>
                <path fill-rule="nonzero" fill="#684539" id="路径-10" d="M871.763792,603.540129 C875.69967,595.628518 885.303957,592.40555 893.215568,596.341428 C901.027032,600.227485 904.267802,609.639355 900.560297,617.491964 L900.414269,617.793204 L786.325239,847.126537 C782.389361,855.038148 772.785073,858.261117 764.873463,854.325239 C757.061999,850.439182 753.821229,841.027312 757.528734,833.174702 L757.674761,832.873463 L871.763792,603.540129 Z"></path>
                <path fill-rule="nonzero" fill="#684539" id="路径-10备份" d="M799.748648,630.23426 C803.8419,622.53097 813.334762,619.543216 821.084532,623.456842 L821.385573,623.612818 L910.442668,670.934562 C918.246,675.080973 921.210521,684.768154 917.06411,692.571486 C912.970858,700.274776 903.477997,703.262531 895.728227,699.348904 L895.427186,699.192929 L806.370091,651.871185 C798.566758,647.724774 795.602238,638.037593 799.748648,630.23426 Z"></path>
                <path fill-rule="nonzero" fill="#684539" id="路径-10备份-2" d="M769.748648,696.23426 C773.8419,688.53097 783.334762,685.543216 791.084532,689.456842 L791.385573,689.612818 L880.442668,736.934562 C888.246,741.080973 891.210521,750.768154 887.06411,758.571486 C882.970858,766.274776 873.477997,769.262531 865.728227,765.348904 L865.427186,765.192929 L776.370091,717.871185 C768.566758,713.724774 765.602238,704.037593 769.748648,696.23426 Z"></path>
                <path fill-rule="nonzero" fill="#684539" id="路径-10备份-3" d="M737.748648,758.23426 C741.8419,750.53097 751.334762,747.543216 759.084532,751.456842 L759.385573,751.612818 L848.442668,798.934562 C856.246,803.080973 859.210521,812.768154 855.06411,820.571486 C850.970858,828.274776 841.477997,831.262531 833.728227,827.348904 L833.427186,827.192929 L744.370091,779.871185 C736.566758,775.724774 733.602238,766.037593 737.748648,758.23426 Z"></path>
                <ellipse ry="46" rx="77.5" cy="1054" cx="968" transform="translate(968.000000, 1054.000000) rotate(-13.000000) translate(-968.000000, -1054.000000)" fill="#FF755C" stroke-width="32" stroke="#684539" id="椭圆形"></ellipse>
                <path fill-rule="nonzero" fill="#684539" id="路径" d="M980.023169,1090.3223 C988.241917,1087.38618 997.274548,1091.57949 1000.36039,1099.70054 L1000.47331,1100.00692 L1017.234,1146.926 L1017.30029,1147.08878 C1020.00613,1153.50543 1027.77192,1157.87845 1035.53219,1157.34983 L1035.90171,1157.32095 C1043.64697,1156.6372 1048.52716,1151.50301 1048.99579,1139.94036 L1049.01146,1139.49818 C1049.28015,1130.66571 1056.65809,1123.72339 1065.49056,1123.99207 C1074.32303,1124.26076 1081.26535,1131.6387 1080.99667,1140.47117 C1080.14494,1168.4702 1062.78512,1187.07215 1038.71569,1189.19698 C1017.07511,1191.10739 995.408189,1178.90619 987.387956,1158.47421 L987.299308,1158.24313 L987.214244,1158.01071 L970.338553,1110.77244 C967.365736,1102.45096 971.701686,1093.29512 980.023169,1090.3223 Z"></path>
                <path transform="translate(976.578918, 1086.345517) rotate(-15.000000) translate(-976.578918, -1086.345517)" fill="#FFB959" id="矩形" d="M937.943798,1050.83289 C960.640419,1039.95103 985.988754,1038.23982 1015.21404,1049.93661 L1011.78039,1130.80141 L945.780386,1130.80141 L937.943798,1050.83289 Z"></path>
            </g>
        </g>
    </g>
</svg>