<svg viewBox="0 0 1199.98 1199.98" xmlns="http://www.w3.org/2000/svg"><defs><style>.cls-1{fill:#55b2ff;}.cls-2{fill:#191919;}.cls-3{fill:#7f7f7f;}.cls-4{fill:#ffec00;}.cls-5{fill:#28231f;}.cls-6{fill:#898989;}.cls-7{fill:#efc9af;}.cls-8{fill:#fff;}.cls-9{fill:#564b44;}.cls-10{opacity:0.3;}.cls-11{fill:#39b4ff;}.cls-12{fill:#dbb39e;}</style></defs><title>8 (3)</title><g id="图层_2"><g id="_8"><g id="_编组_"><path d="M1200,0V1200h-96.79v-2.74a15.36,15.36,0,0,0,3.64-.45,15,15,0,0,0,11-18.18l-.3-1.16h60V22.54H22.54v846.8l-11.46,4A15,15,0,0,0,1,887.48H0V0Z"></path><path d="M1177.45,22.54V1177.45h-60l-27-109.12,8.75-120.26a112.5,112.5,0,0,0-108-120.57l-201-7.59L891.16,632.22l8.49-15.78,76.62-67.27,64.23-129.58-47.44-9.17,14.54-118.95-49.54-8.75L944,165.83,814.12,189.61l-16.63-75.28L665.23,153.74l-23.36-44.33-97.69,45.64-53.68-1.77L430.93,276.71l-54.35,43.08-21.33,131L346.72,503l-7.36,4a32.76,32.76,0,0,0-17,33l11.68,92.13a27.62,27.62,0,0,0,40.19,21l14.58-7.59L380,779.46l-56.94.22,1.62-9.5a24.37,24.37,0,0,0-29-29.82L137.25,789.15a34.06,34.06,0,0,0-25.39,27.08l-4.25,23.44L22.54,869.34V22.54ZM1032.58,717.18l14.46-5.6-14.65-5a50.25,50.25,0,0,1-31.51-31.48L995.5,659.3l-5.29,15.81a49.86,49.86,0,0,1-31.48,31.48l-17.58,5.9,17.92,4.88a43.86,43.86,0,0,1,31,31.06l4.5,16.45,6.2-15.89a55.53,55.53,0,0,1,31.78-31.81ZM324.67,267.84l14.46-5.59-14.68-5a100.09,100.09,0,0,1-62.77-62.76l-5.37-15.81L251,194.49a99.35,99.35,0,0,1-62.77,62.76l-17.61,5.9L188.55,268a88.25,88.25,0,0,1,62.35,62.35l4.51,16.45L261.57,331a112.13,112.13,0,0,1,30.16-43.24A109.83,109.83,0,0,1,324.67,267.84Z" class="cls-1"></path><path d="M1117.8,1178.61a15,15,0,0,1-11,18.18,15.36,15.36,0,0,1-3.64.45,15.05,15.05,0,0,1-14.57-11.42l-2.07-8.37h31Z"></path><path d="M1090.46,1068.33l27,109.12h-31l-25.65-103.56a15,15,0,0,0,7,8.75,9.31,9.31,0,0,0,11.42,1.92,6.28,6.28,0,0,0,1.35-.94,15,15,0,0,0,9.62-13Z"></path><path d="M1103.19,1197.24V1200H816.57v-1.87a9.41,9.41,0,0,0,9.16-7.29c1-4.47,2.1-8.94,3.23-13.37h257.59l2.07,8.37A15.05,15.05,0,0,0,1103.19,1197.24Z"></path><path d="M1070.81,864.87a111.67,111.67,0,0,1,28.4,83.2l-8.75,120.26-.6-2.36a14.94,14.94,0,0,0-16.64-11.23c-3.46-5.75-7-11.46-10.67-17.06l6.69-91.79a82.5,82.5,0,0,0-79.14-88.38l-117.61-4.44-30-15.77a25.35,25.35,0,0,0-32.86,8.41c-1.43,1.62-2.86,3.23-4.25,4.85l-39.66-1.5a10.77,10.77,0,0,0,2.48-.27l7.13-.41a9.38,9.38,0,0,0,8.83-9.92,9.71,9.71,0,0,0-1.46-4.5l7.55-14.05,201,7.59A111.51,111.51,0,0,1,1070.81,864.87Z"></path><path d="M1089.86,1066l.6,2.36-.19,2.33a15,15,0,0,1-9.62,13,9.25,9.25,0,0,0,2.37-11.79q-4.73-8.62-9.8-17.09A14.94,14.94,0,0,1,1089.86,1066Z"></path><path d="M1060.9,1073.89l25.65,103.56H829a666.48,666.48,0,0,1,113-238c1,.57,2.07,1.13,3.12,1.73,25,14.24,53.56,41.47,80.45,76.63a495.71,495.71,0,0,1,34.71,51.94,9.4,9.4,0,0,0,.15,1.77,8.27,8.27,0,0,0,.3,1.65A3.68,3.68,0,0,0,1060.9,1073.89Z" class="cls-2"></path><path d="M1083,1071.83a9.25,9.25,0,0,1-2.37,11.79,14.71,14.71,0,0,1-5.33,1,10.67,10.67,0,0,1-1.13,0,14.42,14.42,0,0,1-6.31-1.92,7.71,7.71,0,0,1-1.31-1.8c-2-3.72-4.13-7.4-6.31-11.08,0-.41,0-.83,0-1.28l0-.3a15.07,15.07,0,0,1,11.35-13.18,9.52,9.52,0,0,1,1.54-.26Q1078.29,1063.19,1083,1071.83Z"></path><path d="M1080.65,1083.62a6.28,6.28,0,0,1-1.35.94,9.31,9.31,0,0,1-11.42-1.92,14.42,14.42,0,0,0,6.31,1.92,10.67,10.67,0,0,0,1.13,0A14.71,14.71,0,0,0,1080.65,1083.62Z"></path><path d="M1073.22,1054.74a9.52,9.52,0,0,0-1.54.26,15.07,15.07,0,0,0-11.35,13.18l2.22-30.5C1066.19,1043.28,1069.76,1049,1073.22,1054.74Z"></path><path d="M1048.43,884.93a81.79,81.79,0,0,1,20.81,61l-6.69,91.79c-7-10.74-14.39-21.18-22.09-31.25-28.77-37.67-58.52-65.88-86.05-81.54-.75-.41-1.46-.83-2.21-1.24a25.24,25.24,0,0,0,2-18.74,25.58,25.58,0,0,0-12.59-15.51l-69.15-36.33,117.61,4.44A81.78,81.78,0,0,1,1048.43,884.93Z" class="cls-3"></path><path d="M1066.57,1080.84a7.71,7.71,0,0,0,1.31,1.8,15,15,0,0,1-7-8.75,3.68,3.68,0,0,1-.19-.71,11.93,11.93,0,0,1-.3-1.65,9.4,9.4,0,0,1-.15-1.77C1062.44,1073.44,1064.54,1077.12,1066.57,1080.84Z"></path><path d="M1062.55,1037.68l-2.22,30.5,0,.3c0,.45,0,.87,0,1.28a495.71,495.71,0,0,0-34.71-51.94c-26.89-35.16-55.44-62.39-80.45-76.63-1.05-.6-2.07-1.16-3.12-1.73,1.31-1.76,2.63-3.49,3.94-5.22l5.71-9.58.57-1c.75.41,1.46.83,2.21,1.24,27.53,15.66,57.28,43.87,86.05,81.54C1048.16,1016.5,1055.56,1026.94,1062.55,1037.68Z"></path><path d="M1060.41,1071.53a11.93,11.93,0,0,0,.3,1.65A8.27,8.27,0,0,1,1060.41,1071.53Z"></path><path d="M1047,711.58l-14.46,5.6A55.53,55.53,0,0,0,1000.8,749l-6.2,15.89-4.5-16.45a43.86,43.86,0,0,0-31-31.06l-17.92-4.88,17.58-5.9a49.86,49.86,0,0,0,31.48-31.48l5.29-15.81,5.38,15.81a50.25,50.25,0,0,0,31.51,31.48Zm-38.46,7.14a63,63,0,0,1,8.93-6.57,61.32,61.32,0,0,1-21.93-21.79,62,62,0,0,1-8.49,11.2,60,60,0,0,1-12.54,10,57.5,57.5,0,0,1,10.66,7.74,55.2,55.2,0,0,1,10.9,14A66.72,66.72,0,0,1,1008.58,718.72Z"></path><path d="M1040.5,419.59,976.27,549.17l-76.62,67.27-8.49,15.78-8.26-4.47a5.62,5.62,0,0,0-.83-7.1l-5.14-5a3.61,3.61,0,0,0,.48-.6,239.16,239.16,0,0,0,20.7-37.22L952,530.5,996,441.6l-36.17-7,14.46-118.5-43.42-7.66L918,201.14,791,224.35l-15.92-72L650.17,189.57l-21.52-40.83-78.24,36.58L509.06,184,456.74,292.3a15,15,0,0,0-23.1-17.73l-2.71,2.14L490.5,153.28l53.68,1.77,97.69-45.64,23.36,44.33,132.26-39.41,16.63,75.28L944,165.83l14.09,116.89,49.54,8.75-14.54,119Z"></path><path d="M1017.51,712.15a63,63,0,0,0-8.93,6.57,66.72,66.72,0,0,0-12.47,14.65,55.2,55.2,0,0,0-10.9-14,57.5,57.5,0,0,0-10.66-7.74,60,60,0,0,0,12.54-10,62,62,0,0,0,8.49-11.2,61.32,61.32,0,0,0,21.93,21.79Z" class="cls-4"></path><path d="M996,441.6,952,530.5l-53.86,47.33a226.12,226.12,0,0,0,19.34-76.55,222.27,222.27,0,0,0-2.06-48.64,1,1,0,0,0,0-.34l-.11-.56a3.11,3.11,0,0,0-.12-.3,4.76,4.76,0,0,0-1-1.88,6.82,6.82,0,0,0-.53-.56,5.61,5.61,0,0,0-1.84-1.13,3.24,3.24,0,0,0-.52-.19l-.53-.11a8,8,0,0,0-.94-.07,5.67,5.67,0,0,0-.82.07l-.57.11L880,455a6,6,0,0,1-7.25-4.13l-27.72-95.37a17.25,17.25,0,0,0-24.15-10.7l-42.4,20.73a6,6,0,0,1-7.93-2.59l-36.13-67.72a17.24,17.24,0,0,0-25.81-5.49L678.79,313a6,6,0,0,1-5.89.87,5.93,5.93,0,0,1-3.72-4.66l-6-37.67a17.27,17.27,0,0,0-27-11.38l-71.44,50.25a6,6,0,0,1-8.49-1.69L537,278.85l0-.08a5.71,5.71,0,0,0-.94-1.09,6.22,6.22,0,0,0-.53-.45,4.87,4.87,0,0,0-.6-.37,4.6,4.6,0,0,0-.64-.3,2.48,2.48,0,0,0-.68-.23,2.24,2.24,0,0,0-.67-.11,5,5,0,0,0-2.25.19,4.45,4.45,0,0,0-1.51.67,5.54,5.54,0,0,0-1.54,1.51l-8.37,11.57a175.36,175.36,0,0,0-51.16.52c-3.87.6-7.78,1.35-11.61,2.25a4.27,4.27,0,0,0,.27-.63L509.06,184l41.35,1.35,78.24-36.58,21.52,40.83L775.1,152.35l15.92,72,127-23.21L930.9,308.45l43.42,7.66-14.46,118.5Z" class="cls-5"></path><path d="M954.23,904.91a25.24,25.24,0,0,1-2,18.74c-2.56-1.43-5.19-2.82-7.89-4.21a9.43,9.43,0,0,0-12.62,4.14l-.9-.53,4.69-7.93a6.47,6.47,0,0,0-2.59-9.09L833.73,853.9a6.69,6.69,0,0,0-3-.75l.07-1.65,41.69,1.57,69.15,36.33A25.58,25.58,0,0,1,954.23,904.91Z"></path><path d="M952.2,923.65l-.57,1-5.71,9.58c-1.31,1.73-2.63,3.46-3.94,5.22-2-1.09-4-2.17-6.16-3.26a9.39,9.39,0,0,1,8.49-16.76C947,920.83,949.64,922.22,952.2,923.65Z"></path><path d="M935.82,936.2c2.14,1.09,4.17,2.17,6.16,3.26a666.48,666.48,0,0,0-113,238H809.58A686.71,686.71,0,0,1,930.64,923.28l.15-.23.9.53A9.4,9.4,0,0,0,935.82,936.2Z"></path><path d="M936.16,910a6.58,6.58,0,0,1-.68,5.1l-4.69,7.93-.15.23a686.71,686.71,0,0,0-121.06,254.17H667A658.49,658.49,0,0,1,824.12,857.66l1-1.39a6.6,6.6,0,0,1,5.6-3.12,6.69,6.69,0,0,1,3,.75L932.89,906A6.54,6.54,0,0,1,936.16,910Z" class="cls-6"></path><path d="M915.39,452.64a222.27,222.27,0,0,1,2.06,48.64,226.12,226.12,0,0,1-19.34,76.55l-22.35,19.61-6,11.23-.94-.94c21.94-32.87,34.9-69.94,37.45-107.24a210,210,0,0,0-1.16-40.3l6.12-1.58A5.64,5.64,0,0,0,915.39,452.64Z"></path><path d="M915.39,452.64a5.64,5.64,0,0,1-4.21,6l-6.12,1.58c-.26-2.06-.53-4.13-.87-6.2a5.69,5.69,0,0,1,5.56-6.49,8,8,0,0,1,.94.07l.53.11a3.24,3.24,0,0,1,.52.19,5.61,5.61,0,0,1,1.84,1.13c.19.19.34.37.53.56a4.76,4.76,0,0,1,1,1.88,3,3,0,0,1,.23.86A1,1,0,0,1,915.39,452.64Z"></path><path d="M915.24,451.74l.11.56a3,3,0,0,0-.23-.86A3.11,3.11,0,0,1,915.24,451.74Z"></path><path d="M914.11,449.56c-.19-.19-.34-.37-.53-.56A6.82,6.82,0,0,1,914.11,449.56Z"></path><path d="M911.74,447.87a3.24,3.24,0,0,0-.52-.19A3.24,3.24,0,0,1,911.74,447.87Z"></path><path d="M911.22,447.68l-.53-.11Z"></path><path d="M909.75,447.5a5.67,5.67,0,0,0-.82.07A5.67,5.67,0,0,1,909.75,447.5Z"></path><path d="M908.36,447.68l.57-.11a5.67,5.67,0,0,0-4.74,6.42c.34,2.07.61,4.14.87,6.2l-22.2,5.75a17.86,17.86,0,0,1-4.39.56A17.17,17.17,0,0,1,862,454l-27.72-95.4a5.82,5.82,0,0,0-3.35-3.8,5.91,5.91,0,0,0-5,.12l-42.44,20.69a17.19,17.19,0,0,1-22.8-7.36L724.5,300.52a5.8,5.8,0,0,0-4-3,5.9,5.9,0,0,0-4.92,1.13L685.7,321.86A17.25,17.25,0,0,1,658.06,311l-6-37.67a5.87,5.87,0,0,0-3.6-4.58,5.75,5.75,0,0,0-5.75.64l-71.48,50.21a17.23,17.23,0,0,1-24.41-4.77l-14.84-23,4.85-6.69a5.56,5.56,0,0,0,.22-6.27l19.23,29.82a6,6,0,0,0,8.49,1.69l71.44-50.25a17.27,17.27,0,0,1,27,11.38l6,37.67a5.93,5.93,0,0,0,3.72,4.66,6,6,0,0,0,5.89-.87l29.86-23.21a17.24,17.24,0,0,1,25.81,5.49L770.59,363a6,6,0,0,0,7.93,2.59l42.4-20.73a17.25,17.25,0,0,1,24.15,10.7l27.72,95.37A6,6,0,0,0,880,455Z"></path><path d="M905.06,460.19a210,210,0,0,1,1.16,40.3c-2.55,37.3-15.51,74.37-37.45,107.24l-33.61-32.64-20.66,21-3.79-3.72a5.64,5.64,0,0,0,1.2-6.65c-4.55-9.13-14.61-17.2-26.37-24,3.94-3.69,7.17-9.7,9.24-17.17,10.52,4.09,20,9.16,26.14,15.36a5.74,5.74,0,0,0,4,1.65,5.63,5.63,0,0,0,4-9.61c-7.74-7.74-19.42-13.86-32-18.63,0-.11,0-.23,0-.34-1.27-.37-2.55-.71-3.9-1-28.29-10-59.69-13.63-61.64-13.86a5.81,5.81,0,0,0-3.49.79l-8.87-2a77.71,77.71,0,0,1,11.95-10.22c15-10.36,28.77-14.34,41-11.9,7.52,1.5,12.47,5.07,17.69,8.79,5.64,4,11.5,8.22,20.4,10,16.9,3.41,36.13-4,57.13-22.2a5.65,5.65,0,0,0-7.4-8.53c-18.22,15.78-34.18,22.39-47.51,19.68-6.54-1.31-10.93-4.47-16-8.15-5.71-4.05-12.13-8.67-22.05-10.67-15.36-3.08-32,1.51-49.66,13.68a91,91,0,0,0-27.94,31.4L646.3,511.2l-29,55.1L500.87,533.36l-4.4-76.21-89.84,8,25.88-35.8L463.16,387l24.3-33.62,21.67-30,22.8-31.59,14.84,23a17.23,17.23,0,0,0,24.41,4.77l71.48-50.21a5.75,5.75,0,0,1,5.75-.64,5.87,5.87,0,0,1,3.6,4.58l6,37.67a17.25,17.25,0,0,0,27.64,10.9l29.87-23.25a5.9,5.9,0,0,1,4.92-1.13,5.8,5.8,0,0,1,4,3l36.14,67.76a17.19,17.19,0,0,0,22.8,7.36L825.88,355a5.91,5.91,0,0,1,5-.12,5.82,5.82,0,0,1,3.35,3.8L862,454a17.17,17.17,0,0,0,16.49,12.47,17.86,17.86,0,0,0,4.39-.56Zm-245.12,8.26a5.6,5.6,0,0,0,2.93-7.39c-10-23.18-23.7-39.11-40.79-47.37-8.57-4.17-16-5.44-22.61-6.61-7.22-1.24-13.45-2.33-20.66-6.72-12.1-7.36-20.89-20.47-26.22-39a5.63,5.63,0,0,0-10.82,3.12c6.13,21.33,16.6,36.66,31.14,45.52,9.05,5.52,17,6.88,24.64,8.23,6.42,1.09,12.47,2.14,19.64,5.63,14.58,7.06,26.45,21.07,35.35,41.7a5.58,5.58,0,0,0,5.18,3.41A5.35,5.35,0,0,0,659.94,468.45ZM646.34,502a5.67,5.67,0,0,0-.94-7.93,282.34,282.34,0,0,0-55.77-33.31c-20.85-9.2-44.66-15.78-66.22-12.25a5.68,5.68,0,0,0-4.66,6.5,5.59,5.59,0,0,0,6.46,4.62c10.52-1.73,21.86-.64,33.16,2.14-2.14,4.85-4.43,12.32-2.89,20.36a335.27,335.27,0,0,0-34-4.62,5.63,5.63,0,1,0-.83,11.23,338.64,338.64,0,0,1,42.3,6.46h0a17.27,17.27,0,0,0,9.17,2.18c18.37,4.62,37.79,11.57,51.31,21.82a5.51,5.51,0,0,0,3.42,1.17,5.62,5.62,0,0,0,4.46-2.22,5.69,5.69,0,0,0-1.08-7.93c-12.25-9.27-28.51-16-44.74-20.88a38.73,38.73,0,0,0,6.24-15.14,288.53,288.53,0,0,1,46.65,28.7,5.56,5.56,0,0,0,3.49,1.24A5.73,5.73,0,0,0,646.34,502Z" class="cls-7"></path><path d="M875.76,597.44l22.35-19.61a239.16,239.16,0,0,1-20.7,37.22,3.61,3.61,0,0,1-.48.6l-7.22-7Z"></path><path d="M891.16,632.22,790.24,819.91l-24.12-.9a14.85,14.85,0,0,0-13.52,7.4L864.19,619l10,9.77a5.6,5.6,0,0,0,8-.12,4.83,4.83,0,0,0,.72-.86Z"></path><path d="M882.07,620.65a5.62,5.62,0,0,1,.83,7.1,4.83,4.83,0,0,1-.72.86,5.6,5.6,0,0,1-8,.12l-10-9.77,3.08-5.71a5.43,5.43,0,0,0,2.33,3.34,5.74,5.74,0,0,0,3.16.94,5.5,5.5,0,0,0,4.17-1.88Z"></path><path d="M869.71,608.67l7.22,7a5.5,5.5,0,0,1-4.17,1.88,5.74,5.74,0,0,1-3.16-.94,5.43,5.43,0,0,1-2.33-3.34Z"></path><path d="M872.49,853.07,830.8,851.5l-25.43-.94c1.39-1.62,2.82-3.23,4.25-4.85a25.35,25.35,0,0,1,32.86-8.41Z"></path><path d="M868.77,607.73l.94.94-2.44,4.58a5.48,5.48,0,0,1,.83-4.47C868.32,608.44,868.55,608.1,868.77,607.73Z"></path><path d="M868.77,607.73c-.22.37-.45.71-.67,1a5.48,5.48,0,0,0-.83,4.47L864.19,619l-28.84-28-43.12,43.76-99.05-35.46-.9-2.56c-5.34-15.58-6.61-30.8-3.76-45.29A80.08,80.08,0,0,1,692,539.11l5.67,2a5.59,5.59,0,0,0,6.61-2.33,68.68,68.68,0,0,0-4.66,14.83c-2.33,11.72-1.46,24.16,2.52,36.93l87.14,31.17,25.24-25.61,20.66-21Z"></path><path d="M867.72,483.44a5.64,5.64,0,0,1-.56,7.93c-21,18.18-40.23,25.61-57.13,22.2-8.9-1.81-14.76-6-20.4-10-5.22-3.72-10.17-7.29-17.69-8.79-12.24-2.44-26,1.54-41,11.9A77.71,77.71,0,0,0,719,516.87,76.12,76.12,0,0,0,704.9,537.3a5.6,5.6,0,0,0-3.53-6.83l-4.81-1.69a91,91,0,0,1,27.94-31.4c17.62-12.17,34.3-16.76,49.66-13.68,9.92,2,16.34,6.62,22.05,10.67,5.11,3.68,9.5,6.84,16,8.15,13.33,2.71,29.29-3.9,47.51-19.68A5.65,5.65,0,0,1,867.72,483.44Z"></path><path d="M864.19,619,752.6,826.41c-.07.15-.19.3-.26.48a9.89,9.89,0,0,0-.72,1.58l-.11.23-.34,1a2.56,2.56,0,0,0-.18.75l-.12.45-116.13,6.57a2.09,2.09,0,0,0-.49.08,6.88,6.88,0,0,0-1.47.26,7,7,0,0,0-1.12.38,9.14,9.14,0,0,0-4.06,3.27,5.76,5.76,0,0,0-.53.82,3,3,0,0,0-.15.27v0L593,908,463.23,1017.1a10.29,10.29,0,0,1-16-3.79L394.91,891.76l6.2-84.06v0s0,0,.07,0a7.06,7.06,0,0,0,1.24-.75,6.34,6.34,0,0,0,1.17-.87,15,15,0,0,0,3.64-4.47c.23-.45.45-.9.68-1.39a5.72,5.72,0,0,0,.34-1,10,10,0,0,0,.48-1.81,10.91,10.91,0,0,0,.19-1.12,4.78,4.78,0,0,0,.08-.75l13.37-201.33-58.93,30.76-11.23-88.64a2.72,2.72,0,0,1,1.46-2.82l13.15-7.17a2.9,2.9,0,0,0,.71-.38,10.41,10.41,0,0,0,1.65-1,.11.11,0,0,0,.12-.07c.07,0,.11-.08.18-.15a5.57,5.57,0,0,0,4.55-2.89l24.34-44.48,87.51-7.81L490.09,542l133,37.59,28.66-54.57L692,539.11a80.08,80.08,0,0,0-3.46,12.32c-2.85,14.49-1.58,29.71,3.76,45.29l.9,2.56,99.05,35.46L835.35,591ZM724.32,726.8a5.62,5.62,0,1,0-11.23-.6c-.15,2.51-.83,3.68-1.24,4-2.48.71-12-7.06-18.33-12.25-16.15-13.18-38.28-31.21-67.76-34.14-10.78-1-20.36.15-28.85,1.24-13.82,1.76-24.75,3.15-37.11-4.62A48.89,48.89,0,0,1,547,668.54a5.63,5.63,0,1,0-9,6.8A59.47,59.47,0,0,0,553.83,690c15.74,9.95,29.71,8.15,44.51,6.27,8.26-1.05,16.83-2.18,26.29-1.2,26.14,2.55,46.73,19.38,61.75,31.66,9.84,8,18.14,14.84,25.43,14.84a11.09,11.09,0,0,0,6.8-2.33C721,737.43,723.94,733.82,724.32,726.8Zm-45.71-104a5.65,5.65,0,0,0,4.62-6.5c-2-11.38-7.37-19.08-16.08-22.84-24.64-10.66-66,16-70.69,19.08A5.64,5.64,0,1,0,602.7,622c11.19-7.43,43.79-25.12,60-18.14,5.07,2.22,8.15,6.91,9.43,14.39a5.62,5.62,0,0,0,5.52,4.69A8.07,8.07,0,0,0,678.61,622.83Zm-6.31,177a5.62,5.62,0,0,0,2.47-7.58c-38.87-76.63-168.3-48.34-173.83-47.1a5.64,5.64,0,0,0,2.48,11c1.28-.26,126.36-27.68,161.33,41.2a5.58,5.58,0,0,0,5,3.08A5.43,5.43,0,0,0,672.3,799.81Z" class="cls-7"></path><path d="M830.8,851.5l-.07,1.65a6.6,6.6,0,0,0-5.6,3.12l-1,1.39A658.49,658.49,0,0,0,667,1177.45H648A676.83,676.83,0,0,1,805.37,850.56Z"></path><path d="M828.89,552a5.63,5.63,0,0,1-4,9.61,5.74,5.74,0,0,1-4-1.65c-6.19-6.2-15.62-11.27-26.14-15.36a71.83,71.83,0,0,0,2.07-11.23C809.47,538.13,821.15,544.25,828.89,552Z"></path><path d="M809.58,1177.45H829c-1.13,4.43-2.22,8.9-3.23,13.37a9.41,9.41,0,0,1-9.16,7.29,10.4,10.4,0,0,1-2.11-.23,9.45,9.45,0,0,1-7.06-11.27C808.11,1183.53,808.83,1180.49,809.58,1177.45Z"></path><path d="M816.57,1198.11V1200H655.51v-1.87a9.39,9.39,0,0,0,9.27-7.85c.72-4.29,1.47-8.57,2.26-12.81H809.58c-.75,3-1.47,6.08-2.18,9.16a9.45,9.45,0,0,0,7.06,11.27A10.4,10.4,0,0,0,816.57,1198.11Z"></path><path d="M814.5,596.09,789.26,621.7l-87.14-31.17c-4-12.77-4.85-25.21-2.52-36.93a68.68,68.68,0,0,1,4.66-14.83,5.18,5.18,0,0,0,.56-1.13,1,1,0,0,0,.08-.34A76.12,76.12,0,0,1,719,516.87l8.87,2a5.48,5.48,0,0,0-2.71,4.21,5.61,5.61,0,0,0,5,6.19c.3,0,14.8,1.69,32.6,5.75a32.77,32.77,0,0,0-2.63,14.65,314.63,314.63,0,0,0-35.72-11.76,5.63,5.63,0,0,0-2.74,10.93,288.58,288.58,0,0,1,46.47,16.49c15.21,7.14,28.95,15.85,33.72,25.39a5.7,5.7,0,0,0,5.08,3.12,5.78,5.78,0,0,0,3.83-1.5Z" class="cls-7"></path><path d="M811.91,585.72a5.65,5.65,0,0,1-10.11,5c-4.77-9.54-18.51-18.25-33.72-25.39l.3-.71a16.81,16.81,0,0,0,10.85.75,14.84,14.84,0,0,0,6.31-3.64C797.3,568.52,807.36,576.59,811.91,585.72Z"></path><path d="M765.71,849.06l39.66,1.5A676.83,676.83,0,0,0,648,1177.45H249.36a1268.15,1268.15,0,0,1,48.27-369.71s0,0,.07,0l.42.22a12.56,12.56,0,0,0,1.27.64c.49.19,1,.38,1.51.53a8.3,8.3,0,0,0,1.35.33l.49.12a4.65,4.65,0,0,0,1,.11,11.42,11.42,0,0,0,2.26.07l76.17-.3L375.87,895,430,1020.71a28.85,28.85,0,0,0,20,16.79,30.27,30.27,0,0,0,6.8.79,28.58,28.58,0,0,0,18.59-6.84L606.45,921.17l1.47-1.2,33.2-64,123.42-7h.08a1.2,1.2,0,0,0,.38,0Z" class="cls-2"></path><path d="M796.88,533c0,.11,0,.23,0,.34-1.28-.49-2.6-1-3.87-1.39C794.33,532.31,795.61,532.65,796.88,533Z"></path><path d="M793,532c1.27.41,2.59.9,3.87,1.39a71.83,71.83,0,0,1-2.07,11.23c-5-2-10.25-3.72-15.51-5.26-1-2.59-3-4.43-5.34-4.73a6.2,6.2,0,0,0-5.1,1.91c-2.07-.52-4.14-1-6.13-1.46a38.51,38.51,0,0,1,2.82-5.82,70.7,70.7,0,0,1,17.39.52c1.47.27,4.28.83,7.33,1.54Z"></path><path d="M793,532l-2.74-.68c-3-.71-5.86-1.27-7.33-1.54a70.7,70.7,0,0,0-17.39-.52,38.51,38.51,0,0,0-2.82,5.82c-17.8-4.06-32.3-5.71-32.6-5.75a5.61,5.61,0,0,1-5-6.19,5.48,5.48,0,0,1,2.71-4.21,5.81,5.81,0,0,1,3.49-.79C733.29,518.34,764.69,521.94,793,532Z"></path><path d="M794.78,544.59c-2.07,7.47-5.3,13.48-9.24,17.17-3.79-2.18-7.77-4.21-11.79-6.13,3.08-1.09,5.67-4.77,6.31-9.39a13.84,13.84,0,0,0-.79-6.91C784.53,540.87,789.79,542.6,794.78,544.59Z"></path><path d="M790.24,819.91,782.69,834a9.22,9.22,0,0,0-8.42-4.32L750.87,831l.12-.45a5.11,5.11,0,0,1,.18-.75,5.16,5.16,0,0,1,.34-1l.11-.23a10.49,10.49,0,0,1,.72-1.58c.07-.18.19-.33.26-.48a14.85,14.85,0,0,1,13.52-7.4Z"></path><path d="M784.15,838.46a9.38,9.38,0,0,1-8.83,9.92l-7.13.41a14.93,14.93,0,0,0,10.63-7.66l3.87-7.17A9.71,9.71,0,0,1,784.15,838.46Z"></path><path d="M782.69,834l-3.87,7.17a14.93,14.93,0,0,1-10.63,7.66l-3.57.19h-.08a10.45,10.45,0,0,1-2.47-.38,4.23,4.23,0,0,1-.76-.18,4.65,4.65,0,0,1-1-.34,11,11,0,0,1-1.35-.56,9.1,9.1,0,0,1-.83-.46,13.72,13.72,0,0,1-2.44-1.72c-.34-.3-.64-.57-.94-.87a11,11,0,0,1-.94-1.09,14.23,14.23,0,0,1-.83-1.16c-.26-.38-.48-.79-.71-1.2a13.39,13.39,0,0,1-1.09-2.63,10.59,10.59,0,0,1-.34-1.43,8.37,8.37,0,0,1-.22-1.39c0-.07,0-.15,0-.22a10.29,10.29,0,0,1-.08-1.92,13.25,13.25,0,0,1,.3-2.48l23.4-1.31A9.22,9.22,0,0,1,782.69,834Z"></path><path d="M785.54,561.76a14.84,14.84,0,0,1-6.31,3.64,16.81,16.81,0,0,1-10.85-.75.5.5,0,0,1-.12-.08c-4.09-2.18-5.74-6.12-6.61-8.11a20.84,20.84,0,0,1-1.58-6.76c2.11.82,4.21,1.69,6.31,2.59a6.5,6.5,0,0,0,4.78,3.64,5.41,5.41,0,0,0,2.59-.3C777.77,557.55,781.75,559.58,785.54,561.76Z"></path><path d="M779.27,539.33a13.84,13.84,0,0,1,.79,6.91c-.64,4.62-3.23,8.3-6.31,9.39-2.44-1.16-4.92-2.29-7.37-3.34a12.86,12.86,0,0,1-1.31-8,12.49,12.49,0,0,1,3.76-7.78C772.24,537.34,775.78,538.28,779.27,539.33Z" class="cls-8"></path><path d="M773.93,534.6c2.37.3,4.29,2.14,5.34,4.73-3.49-1.05-7-2-10.44-2.82A6.2,6.2,0,0,1,773.93,534.6Z" class="cls-8"></path><path d="M773.75,555.63a5.41,5.41,0,0,1-2.59.3,6.5,6.5,0,0,1-4.78-3.64C768.83,553.34,771.31,554.47,773.75,555.63Z" class="cls-8"></path><path d="M762.7,535.05c2,.45,4.06.94,6.13,1.46a12.49,12.49,0,0,0-3.76,7.78,12.86,12.86,0,0,0,1.31,8c-2.1-.9-4.2-1.77-6.31-2.59A32.77,32.77,0,0,1,762.7,535.05Z"></path><path d="M768.38,564.65l-.3.71a288.58,288.58,0,0,0-46.47-16.49,5.63,5.63,0,0,1,2.74-10.93,314.63,314.63,0,0,1,35.72,11.76,20.84,20.84,0,0,0,1.58,6.76c.87,2,2.52,5.93,6.61,8.11A.5.5,0,0,0,768.38,564.65Z"></path><path d="M764.62,849l3.57-.19a10.77,10.77,0,0,1-2.48.27l-.71,0A1.2,1.2,0,0,1,764.62,849Z"></path><path d="M764.54,849l-123.42,7,2.48-4.77a9.37,9.37,0,0,0-4-12.65,8.79,8.79,0,0,0-5.33-1,2.09,2.09,0,0,1,.49-.08L750.87,831a13.25,13.25,0,0,0-.3,2.48,7.57,7.57,0,0,0,.08,1.92c0,.07,0,.15,0,.22a5.31,5.31,0,0,0,.22,1.39,6.22,6.22,0,0,0,.34,1.43A11.34,11.34,0,0,0,752.3,841a5.91,5.91,0,0,0,.71,1.2,6,6,0,0,0,.83,1.16,11,11,0,0,0,.94,1.09,11.13,11.13,0,0,0,.94.87,13.72,13.72,0,0,0,2.44,1.72,1.41,1.41,0,0,0,.3.19c.19.08.34.19.53.27a11,11,0,0,0,1.35.56l1,.34a5.23,5.23,0,0,0,.76.18A10.45,10.45,0,0,0,764.54,849Z"></path><path d="M761.31,848.42a4.23,4.23,0,0,0,.76.18A5.23,5.23,0,0,1,761.31,848.42Z"></path><path d="M760.34,848.08a4.65,4.65,0,0,0,1,.34Z"></path><path d="M759,847.52c-.19-.08-.34-.19-.53-.27a1.41,1.41,0,0,1-.3-.19A9.1,9.1,0,0,0,759,847.52Z"></path><path d="M754.78,844.47c.3.3.6.57.94.87A11.13,11.13,0,0,1,754.78,844.47Z"></path><path d="M753,842.22a14.23,14.23,0,0,0,.83,1.16A6,6,0,0,1,753,842.22Z"></path><path d="M752.3,841c.23.41.45.82.71,1.2A5.91,5.91,0,0,1,752.3,841Z"></path><path d="M752.34,826.89a10.49,10.49,0,0,0-.72,1.58A9.89,9.89,0,0,1,752.34,826.89Z"></path><path d="M751.21,838.39A13.39,13.39,0,0,0,752.3,841,11.34,11.34,0,0,1,751.21,838.39Z"></path><path d="M751.51,828.7a5.16,5.16,0,0,0-.34,1Z"></path><path d="M750.87,837a10.59,10.59,0,0,0,.34,1.43A6.22,6.22,0,0,1,750.87,837Z"></path><path d="M751.17,829.75a5.11,5.11,0,0,0-.18.75A2.56,2.56,0,0,1,751.17,829.75Z"></path><path d="M750.65,835.57a8.37,8.37,0,0,0,.22,1.39A5.31,5.31,0,0,1,750.65,835.57Z"></path><path d="M750.65,835.35a7.57,7.57,0,0,1-.08-1.92A10.29,10.29,0,0,0,750.65,835.35Z"></path><path d="M719,720.86a5.67,5.67,0,0,1,5.3,5.94c-.38,7-3.31,10.63-5.71,12.39a11.09,11.09,0,0,1-6.8,2.33c-7.29,0-15.59-6.8-25.43-14.84-15-12.28-35.61-29.11-61.75-31.66-9.46-1-18,.15-26.29,1.2-14.8,1.88-28.77,3.68-44.51-6.27A59.47,59.47,0,0,1,538,675.34a5.63,5.63,0,1,1,9-6.8,48.89,48.89,0,0,0,12.81,11.87c12.36,7.77,23.29,6.38,37.11,4.62,8.49-1.09,18.07-2.29,28.85-1.24,29.48,2.93,51.61,21,67.76,34.14,6.31,5.19,15.85,13,18.33,12.25.41-.3,1.09-1.47,1.24-4A5.69,5.69,0,0,1,719,720.86Z"></path><path d="M701.37,530.47a5.6,5.6,0,0,1,3.53,6.83c-.23.49-.45,1-.64,1.47a5.59,5.59,0,0,1-6.61,2.33l-5.67-2a80.41,80.41,0,0,1,4.58-10.33Z"></path><path d="M704.9,537.3a1,1,0,0,1-.08.34,5.18,5.18,0,0,1-.56,1.13C704.45,538.28,704.67,537.79,704.9,537.3Z"></path><path d="M646.3,511.2l50.26,17.58A80.41,80.41,0,0,0,692,539.11l-40.23-14.05-28.66,54.57L490.09,542l-4.21-72.61-87.51,7.81,1.31-2.44.11-.19,6.84-9.42,89.84-8,4.4,76.21L617.34,566.3Z"></path><path d="M683.23,616.33a5.65,5.65,0,0,1-4.62,6.5,8.07,8.07,0,0,1-1,.07,5.62,5.62,0,0,1-5.52-4.69c-1.28-7.48-4.36-12.17-9.43-14.39-16.19-7-48.79,10.71-60,18.14a5.64,5.64,0,1,1-6.24-9.39c4.66-3.08,46-29.74,70.69-19.08C675.86,597.25,681.27,605,683.23,616.33Z"></path><path d="M674.77,792.23a5.62,5.62,0,0,1-2.47,7.58,5.43,5.43,0,0,1-2.52.6,5.58,5.58,0,0,1-5-3.08c-35-68.88-160-41.46-161.33-41.2a5.64,5.64,0,0,1-2.48-11C506.47,743.89,635.9,715.6,674.77,792.23Z"></path><path d="M648,1177.45H667c-.79,4.24-1.54,8.52-2.26,12.81a9.39,9.39,0,0,1-9.27,7.85A10,10,0,0,1,654,1198a9.42,9.42,0,0,1-7.73-10.81C646.79,1183.91,647.36,1180.68,648,1177.45Z"></path><path d="M662.87,461.06a5.6,5.6,0,0,1-2.93,7.39,5.35,5.35,0,0,1-2.22.49,5.58,5.58,0,0,1-5.18-3.41c-8.9-20.63-20.77-34.64-35.35-41.7-7.17-3.49-13.22-4.54-19.64-5.63-7.66-1.35-15.59-2.71-24.64-8.23-14.54-8.86-25-24.19-31.14-45.52a5.63,5.63,0,0,1,10.82-3.12c5.33,18.56,14.12,31.67,26.22,39,7.21,4.39,13.44,5.48,20.66,6.72,6.57,1.17,14,2.44,22.61,6.61C639.17,422,652.91,437.88,662.87,461.06Z"></path><path d="M655.51,1198.11V1200H240.42v-1.87a9.37,9.37,0,0,0,9.13-9.62c-.07-3.68-.15-7.36-.19-11H648c-.6,3.23-1.17,6.46-1.69,9.73A9.42,9.42,0,0,0,654,1198,10,10,0,0,0,655.51,1198.11Z"></path><path d="M645.4,494a5.67,5.67,0,0,1,.94,7.93,5.73,5.73,0,0,1-4.43,2.14,5.56,5.56,0,0,1-3.49-1.24,288.53,288.53,0,0,0-46.65-28.7,57.71,57.71,0,0,0,1-6.94c-1.42-.83-3-1.73-4.84-2.6l1.73-3.9A282.34,282.34,0,0,1,645.4,494Z"></path><path d="M639.58,838.58a9.37,9.37,0,0,1,4,12.65L641.12,856l-5.33.3h-.53a9.34,9.34,0,0,1-8.34-13.67v0a3,3,0,0,1,.15-.27,5.76,5.76,0,0,1,.53-.82,9.14,9.14,0,0,1,4.06-3.27c.37-.15.75-.26,1.12-.38a6.88,6.88,0,0,1,1.47-.26A8.79,8.79,0,0,1,639.58,838.58Z"></path><path d="M641.12,856l-33.2,64-1.47,1.2L475.33,1031.45a28.58,28.58,0,0,1-18.59,6.84,30.27,30.27,0,0,1-6.8-.79,28.85,28.85,0,0,1-20-16.79L375.87,895l6.27-85.45,11.87,0h0a16.22,16.22,0,0,0,4.5-.68,8.66,8.66,0,0,0,1.32-.53,8.47,8.47,0,0,0,1.24-.56l-6.2,84.06,52.32,121.55a10.29,10.29,0,0,0,16,3.79L593,908l33.95-65.4a9.34,9.34,0,0,0,8.34,13.67h.53Z"></path><path d="M632.78,837.86c-.37.12-.75.23-1.12.38A7,7,0,0,1,632.78,837.86Z"></path><path d="M630.27,510.18a5.69,5.69,0,0,1,1.08,7.93,5.62,5.62,0,0,1-4.46,2.22,5.51,5.51,0,0,1-3.42-1.17C610,508.91,590.53,502,572.16,497.34a13.74,13.74,0,0,0,3-.38c4-.9,7.55-3.6,10.4-7.66C601.76,494.15,618,500.91,630.27,510.18Z"></path><path d="M627.6,841.51a5.76,5.76,0,0,0-.53.82A5.76,5.76,0,0,1,627.6,841.51Z"></path><path d="M592.74,467.22a57.71,57.71,0,0,1-1,6.94c-3.31-1.57-6.69-3.11-10.15-4.58-.67-2.93-2.36-5.18-4.77-5.78a6.62,6.62,0,0,0-5.85,1.73c-4.17-1.47-8.38-2.75-12.63-3.8a47.27,47.27,0,0,1,2.37-4.54,77.92,77.92,0,0,1,16.83,3.26,74.82,74.82,0,0,1,10.33,4.17C589.7,465.49,591.32,466.39,592.74,467.22Z"></path><path d="M589.63,460.72l-1.73,3.9a74.82,74.82,0,0,0-10.33-4.17,77.92,77.92,0,0,0-16.83-3.26,47.27,47.27,0,0,0-2.37,4.54c-11.3-2.78-22.64-3.87-33.16-2.14a5.59,5.59,0,0,1-6.46-4.62,5.68,5.68,0,0,1,4.66-6.5C545,444.94,568.78,451.52,589.63,460.72Z"></path><path d="M591.77,474.16a38.73,38.73,0,0,1-6.24,15.14c-4.77-1.43-9.54-2.67-14.16-3.79l.3-1.28c4,1,8.34-2.78,9.77-8.41a14.12,14.12,0,0,0,.18-6.24C585.08,471.05,588.46,472.59,591.77,474.16Z"></path><path d="M581.62,469.58a14.12,14.12,0,0,1-.18,6.24c-1.43,5.63-5.79,9.39-9.77,8.41s-6-6.39-4.58-12a13,13,0,0,1,3.91-6.68C574.6,466.76,578.13,468.12,581.62,469.58Z" class="cls-8"></path><path d="M576.85,463.8c2.41.6,4.1,2.85,4.77,5.78-3.49-1.46-7-2.82-10.62-4.05A6.62,6.62,0,0,1,576.85,463.8Z" class="cls-8"></path><path d="M585.53,489.3c-2.85,4.06-6.42,6.76-10.4,7.66a13.74,13.74,0,0,1-3,.38c-3.12-.79-6.16-1.5-9.17-2.18h0a.55.55,0,0,1-.15-.11c-4.4-2.89-5.86-7.51-6.73-10.48a20.32,20.32,0,0,1-.6-2.48c5,1,10.37,2.1,15.89,3.42C576,486.63,580.76,487.87,585.53,489.3Z"></path><path d="M572.16,497.34a17.27,17.27,0,0,1-9.17-2.18C566,495.84,569,496.55,572.16,497.34Z"></path><path d="M571.67,484.23l-.3,1.28c-5.52-1.32-10.85-2.44-15.89-3.42-1.54-8,.75-15.51,2.89-20.36,4.25,1,8.46,2.33,12.63,3.8a13,13,0,0,0-3.91,6.68C565.66,477.84,567.73,483.22,571.67,484.23Z"></path><path d="M563,495.16a338.64,338.64,0,0,0-42.3-6.46,5.63,5.63,0,1,1,.83-11.23,335.27,335.27,0,0,1,34,4.62,20.32,20.32,0,0,0,.6,2.48c.87,3,2.33,7.59,6.73,10.48A.55.55,0,0,0,563,495.16Z"></path><path d="M537,278.85a5.56,5.56,0,0,1-.22,6.27l-4.85,6.69-4.47-6.95a5.69,5.69,0,0,1,.15-6.27,5.54,5.54,0,0,1,1.54-1.51,6,6,0,0,1,1.51-.67,5.56,5.56,0,0,1,2.25-.19l.67.11.68.23c.19.07.41.19.64.3a4.87,4.87,0,0,1,.6.37,6.22,6.22,0,0,1,.53.45,5.71,5.71,0,0,1,.94,1.09Z"></path><path d="M535.5,277.23a6.22,6.22,0,0,1,.53.45A6.22,6.22,0,0,0,535.5,277.23Z"></path><path d="M534.9,276.86c-.23-.11-.45-.23-.64-.3A4.6,4.6,0,0,1,534.9,276.86Z"></path><path d="M534.26,276.56l-.68-.23A2.48,2.48,0,0,1,534.26,276.56Z"></path><path d="M533.58,276.33l-.67-.11A2.24,2.24,0,0,1,533.58,276.33Z"></path><path d="M532.91,276.22a5.56,5.56,0,0,0-2.25.19A5,5,0,0,1,532.91,276.22Z"></path><path d="M527.46,284.86l4.47,6.95-22.8,31.59-1.54-1.13a3.37,3.37,0,0,0,.75-1.95,3.75,3.75,0,0,0-3.49-4c-1.43-.12-2.89-.19-4.32-.27l13.71-18.93c1.73.15,3.46.38,5.18.64a3.75,3.75,0,1,0,1.06-7.43,10.74,10.74,0,0,0-1.24-.15l8.37-11.57A5.69,5.69,0,0,0,527.46,284.86Z"></path><path d="M530.66,276.41a6,6,0,0,0-1.51.67A4.45,4.45,0,0,1,530.66,276.41Z"></path><path d="M520.48,290.31a3.75,3.75,0,1,1-1.06,7.43c-1.72-.26-3.45-.49-5.18-.64l5-6.94A10.74,10.74,0,0,1,520.48,290.31Z"></path><path d="M519.24,290.16l-5,6.94a165.73,165.73,0,0,0-45,1,161.8,161.8,0,0,0-24.11,5.71l7.17-5.67c.12-.11.27-.19.38-.3a9.57,9.57,0,0,0,1.35-1.35,9,9,0,0,0,1.35-1.7,12.35,12.35,0,0,0,1.09-1.84c3.83-.9,7.74-1.65,11.61-2.25A175.36,175.36,0,0,1,519.24,290.16Z" class="cls-9"></path><path d="M514.24,297.1,500.53,316A235.72,235.72,0,0,0,415.91,327l29.22-23.17a161.8,161.8,0,0,1,24.11-5.71A165.73,165.73,0,0,1,514.24,297.1Z" class="cls-5"></path><path d="M509.13,323.4l-21.67,30-1.54-1.09a3.75,3.75,0,0,0-3.3-5.78c-1.43.07-2.82.11-4.25.22l16.9-23.36c3,0,6.05.19,9.06.41a3.62,3.62,0,0,0,3.26-1.5Z"></path><path d="M504.85,316.3a3.75,3.75,0,0,1,3.49,4,3.37,3.37,0,0,1-.75,1.95,3.62,3.62,0,0,1-3.26,1.5c-3-.22-6.05-.37-9.06-.41l5.26-7.33C502,316.11,503.42,316.18,504.85,316.3Z"></path><path d="M500.53,316l-5.26,7.33a226.45,226.45,0,0,0-91.42,15.92l.53-3.15L415.91,327A235.72,235.72,0,0,1,500.53,316Z" class="cls-9"></path><path d="M495.27,323.36l-16.9,23.36a218.3,218.3,0,0,0-44.51,7.4,214.3,214.3,0,0,0-34.52,12.81l4.51-27.65a226.45,226.45,0,0,1,91.42-15.92Z" class="cls-5"></path><path d="M487.46,353.37,463.16,387l-1.54-1.09a3.63,3.63,0,0,0,.67-3.23,3.77,3.77,0,0,0-4.58-2.71c-1.39.34-2.78.72-4.17,1.13l19-26.37c3.45-.34,6.87-.56,10.33-.71a3.68,3.68,0,0,0,3-1.73Z"></path><path d="M486.52,350.1a3.61,3.61,0,0,1-.6,2.18,3.68,3.68,0,0,1-3,1.73c-3.46.15-6.88.37-10.33.71l5.78-8c1.43-.11,2.82-.15,4.25-.22A3.62,3.62,0,0,1,486.52,350.1Z"></path><path d="M478.37,346.72l-5.78,8a210.41,210.41,0,0,0-36.74,6.65,206.36,206.36,0,0,0-38,14.61l1.46-9.05a214.3,214.3,0,0,1,34.52-12.81A218.3,218.3,0,0,1,478.37,346.72Z" class="cls-9"></path><path d="M472.59,354.72l-19,26.37c-11.79,3.12-23.55,6.91-35,11.19-8.42,3.12-16.76,6.61-25,10.33L397.88,376a206.36,206.36,0,0,1,38-14.61A210.41,210.41,0,0,1,472.59,354.72Z" class="cls-5"></path><path d="M463.16,387l-30.65,42.4L431,428.3a3.53,3.53,0,0,0,.75-3.11,3.77,3.77,0,0,0-4.47-2.9c-1.39.3-2.82.64-4.21,1l23.4-32.34c4.36-1.35,8.76-2.55,13.15-3.68a3.73,3.73,0,0,0,2-1.35Z"></path><path d="M462.29,382.67a3.63,3.63,0,0,1-.67,3.23,3.73,3.73,0,0,1-2,1.35c-4.39,1.13-8.79,2.33-13.15,3.68l7.1-9.84c1.39-.41,2.78-.79,4.17-1.13A3.77,3.77,0,0,1,462.29,382.67Z"></path><path d="M454.75,277a15,15,0,0,1,2,15.29l-.27.56s0,0,0,.07a174.77,174.77,0,0,0-21.15,6.31,15,15,0,0,1-5.86-19.41l1.5-3.12,2.71-2.14A15,15,0,0,1,454.75,277Z"></path><path d="M456.47,292.86l.27-.56a4.27,4.27,0,0,1-.27.63h0S456.47,292.9,456.47,292.86Z"></path><path d="M456.44,292.93h0a12.35,12.35,0,0,1-1.09,1.84A18.66,18.66,0,0,0,456.44,292.93Z"></path><path d="M456.44,292.93a18.66,18.66,0,0,1-1.06,1.84,14,14,0,0,1-1.35,1.7q-.61.67-1.35,1.35c-.11.11-.26.19-.38.3a15.06,15.06,0,0,1-15.88,1.76,6.77,6.77,0,0,1-1.13-.64A174.77,174.77,0,0,1,456.44,292.93Z"></path><path d="M454,296.47a14,14,0,0,0,1.35-1.7A9,9,0,0,1,454,296.47Z"></path><path d="M452.68,297.82q.74-.68,1.35-1.35A9.57,9.57,0,0,1,452.68,297.82Z"></path><path d="M453.54,381.09l-7.1,9.84c-8.52,2.44-17,5.26-25.27,8.38-9.81,3.64-19.57,7.77-29.08,12.28l1.47-9c8.22-3.72,16.56-7.21,25-10.33C430,388,441.75,384.21,453.54,381.09Z" class="cls-9"></path><path d="M452.3,298.12l-7.17,5.67A173.59,173.59,0,0,0,392.77,331a3.76,3.76,0,0,1-2.29.75,3.65,3.65,0,0,1-3-1.47,3.72,3.72,0,0,1,.72-5.26,182.06,182.06,0,0,1,47.06-25.73,6.77,6.77,0,0,0,1.13.64A15.06,15.06,0,0,0,452.3,298.12Z"></path><path d="M446.44,390.93,423,423.27a132.39,132.39,0,0,0-13.93,4.21,142.8,142.8,0,0,0-21.18,9.57l4.16-25.46c9.51-4.51,19.27-8.64,29.08-12.28C429.47,396.19,437.92,393.37,446.44,390.93Z" class="cls-5"></path><path d="M445.13,303.79,415.91,327c-7.29,2.37-14.46,5-21.49,8.08a3.75,3.75,0,0,0,1.47,7.21,3.5,3.5,0,0,0,1.5-.3c2.14-.94,4.28-1.8,6.46-2.67l-4.51,27.65c-4.8,2.25-9.54,4.66-14.19,7.29a3.71,3.71,0,0,0-1.43,5.1,3.73,3.73,0,0,0,5.11,1.43c3-1.69,6-3.27,9.05-4.77l-4.32,26.63c-5.67,2.59-11.23,5.3-16.75,8.15a3.75,3.75,0,0,0-1.62,5.07,3.8,3.8,0,0,0,3.34,2,4.17,4.17,0,0,0,1.73-.41q5.87-3,11.83-5.86l-4.16,25.46a148.71,148.71,0,0,0-20.21,13.49,3.7,3.7,0,0,0-1.35,2.1l-11.12-1.8,21.33-131,54.35-43.08-1.5,3.12a15,15,0,0,0,5.86,19.41A182.06,182.06,0,0,0,388.23,325a3.72,3.72,0,0,0-.72,5.26,3.65,3.65,0,0,0,3,1.47,3.76,3.76,0,0,0,2.29-.75A173.59,173.59,0,0,1,445.13,303.79Z"></path><path d="M432.51,429.39l-25.88,35.8-11.76,1.05-.52,0a4.73,4.73,0,0,0-2,.6,3.7,3.7,0,0,0-.9.56,3.45,3.45,0,0,0-.57.53.48.48,0,0,0-.18.15L416,433.07c4.24-1.35,8.52-2.48,12.88-3.42A3.56,3.56,0,0,0,431,428.3Z"></path><path d="M431.72,425.19a3.81,3.81,0,0,1-2.89,4.46c-4.36.94-8.64,2.07-12.88,3.42l7.09-9.8c1.39-.34,2.82-.68,4.21-1A3.77,3.77,0,0,1,431.72,425.19Z"></path><path d="M423,423.27l-7.09,9.8-4.29,1.47a134,134,0,0,0-25.27,12.13l1.54-9.62a142.8,142.8,0,0,1,21.18-9.57A132.39,132.39,0,0,1,423,423.27Z" class="cls-9"></path><path d="M422.37,594.13,409,795.46c0-.34,0-.72,0-1.05a15,15,0,0,0-15-15h-.08l-14,0,8.87-133.91-14.58,7.59a27.62,27.62,0,0,1-40.19-21L322.38,540a32.76,32.76,0,0,1,17-33l7.36-4-1.16,7.25A15,15,0,0,0,358,527.5a13.11,13.11,0,0,0,2.44.23,14.79,14.79,0,0,0,6.39-1.47l-13.15,7.17a2.72,2.72,0,0,0-1.46,2.82l11.23,88.64Z"></path><path d="M416,433.07l-25.28,35.05-.27.33a1.53,1.53,0,0,1-.11.16,3.93,3.93,0,0,0-.37.6,1.63,1.63,0,0,0-.19.37,1,1,0,0,1-.15.26L379.66,488l6.73-41.28a134,134,0,0,1,25.27-12.13Z" class="cls-5"></path><path d="M415.91,327l-11.53,9.17-.53,3.15c-2.18.87-4.32,1.73-6.46,2.67a3.5,3.5,0,0,1-1.5.3,3.75,3.75,0,0,1-1.47-7.21C401.45,332,408.62,329.33,415.91,327Z"></path><path d="M409,794.41c0,.33,0,.71,0,1.05a4.78,4.78,0,0,1-.08.75,10.91,10.91,0,0,1-.19,1.12,10,10,0,0,1-.48,1.81c-.08.34-.23.67-.34,1s-.45.94-.68,1.39a15.68,15.68,0,0,1-3.64,4.47c-.38.3-.75.6-1.17.87s-.82.52-1.24.75c0,0,0,0-.07,0l.07-1a9.39,9.39,0,0,0-18.59-2.4A15,15,0,0,1,379,793.47l.94-14,14,0H394A15,15,0,0,1,409,794.41Z"></path><path d="M408.73,797.33a10.91,10.91,0,0,0,.19-1.12A10.91,10.91,0,0,1,408.73,797.33Z"></path><path d="M407.91,800.15c.11-.34.26-.67.34-1A5.72,5.72,0,0,1,407.91,800.15Z"></path><path d="M406.63,465.19l-6.84,9.42a5.65,5.65,0,0,0-2.21-7.66,5.49,5.49,0,0,0-2.71-.71Z"></path><path d="M403.59,806a15.68,15.68,0,0,0,3.64-4.47A15,15,0,0,1,403.59,806Z"></path><path d="M402.42,806.88c.42-.27.79-.57,1.17-.87A6.34,6.34,0,0,1,402.42,806.88Z"></path><path d="M401.18,807.63c.42-.23.83-.49,1.24-.75A7.06,7.06,0,0,1,401.18,807.63Z"></path><path d="M392.51,796.55a9.4,9.4,0,0,1,8.67,10.06l-.07,1a10.14,10.14,0,0,1-1.24.6c-.41.19-.86.34-1.32.53a16.22,16.22,0,0,1-4.5.68h0a8.44,8.44,0,0,1-1,0,14.81,14.81,0,0,1-10.41-5.22A9.32,9.32,0,0,1,392.51,796.55Z"></path><path d="M401.11,807.66v0a8.47,8.47,0,0,1-1.24.56A10.14,10.14,0,0,0,401.11,807.66Z"></path><path d="M397.58,467a5.65,5.65,0,0,1,2.21,7.66l-.11.19-.26.38a5.47,5.47,0,0,1-3.76,2.29l-.3,0c-.19,0-.34,0-.52,0a4.43,4.43,0,0,1-1-.11,3.09,3.09,0,0,1-.82-.22,1.31,1.31,0,0,1-.38-.15,3.09,3.09,0,0,1-.68-.34,2.59,2.59,0,0,1-.52-.42,1.36,1.36,0,0,1-.38-.3,2.82,2.82,0,0,1-.64-.71,3.9,3.9,0,0,1-.56-.83s0,0,0,0a6.2,6.2,0,0,1-.56-2c0-.19,0-.34,0-.53a5,5,0,0,1,.11-1,3.29,3.29,0,0,1,.23-.83c0-.07,0-.11,0-.19a1,1,0,0,0,.15-.26,1.08,1.08,0,0,1,.19-.37,3.93,3.93,0,0,1,.37-.6.85.85,0,0,1,.11-.16l.12-.11a1,1,0,0,1,.33-.37,3.45,3.45,0,0,1,.57-.53,4.66,4.66,0,0,1,.9-.56,5.72,5.72,0,0,1,2-.6l.52,0A5.49,5.49,0,0,1,397.58,467Z"></path><path d="M398.55,808.79c.46-.19.91-.34,1.32-.53A8.66,8.66,0,0,1,398.55,808.79Z"></path><path d="M399.68,474.8l-1.31,2.44-2.71.23a5.47,5.47,0,0,0,3.76-2.29Z"></path><path d="M399.34,366.93,397.88,376c-3,1.5-6.09,3.08-9.05,4.77a3.75,3.75,0,1,1-3.68-6.53C389.8,371.59,394.54,369.18,399.34,366.93Z"></path><path d="M398.37,477.24,374,521.72a5.57,5.57,0,0,1-4.55,2.89,6.51,6.51,0,0,0,1.24-1.05.87.87,0,0,0,.3-.27,9.63,9.63,0,0,0,1.2-1.39,9.27,9.27,0,0,0,1.13-1.65,14.19,14.19,0,0,0,.9-1.73v-.07a9.09,9.09,0,0,0,.6-1.73.7.7,0,0,0,.08-.26c.11-.45.22-.9.3-1.35L379.66,488l9.92-18.11c0,.08,0,.12,0,.19a3.83,3.83,0,0,0-.23.83,5,5,0,0,0-.11,1c0,.19,0,.34,0,.53a5.76,5.76,0,0,0,.56,2s0,0,0,0a3.9,3.9,0,0,0,.56.83,2.82,2.82,0,0,0,.64.71,1,1,0,0,0,.38.3,2.59,2.59,0,0,0,.52.42,7.18,7.18,0,0,0,.68.34,1.31,1.31,0,0,0,.38.15,3.57,3.57,0,0,0,.82.22,4.43,4.43,0,0,0,1,.11c.18,0,.33,0,.52,0l.3,0Z"></path><path d="M393.82,477.43a4.43,4.43,0,0,0,1,.11A4.43,4.43,0,0,1,393.82,477.43Z"></path><path d="M394,809.47l-11.87,0,.3-4.28c0-.34.08-.67.15-1A14.81,14.81,0,0,0,393,809.43,8.44,8.44,0,0,0,394,809.47Z"></path><path d="M393,477.21a3.09,3.09,0,0,0,.82.22A3.57,3.57,0,0,1,393,477.21Z"></path><path d="M393.56,402.61l-1.47,9q-6,2.82-11.83,5.86a4.17,4.17,0,0,1-1.73.41,3.8,3.8,0,0,1-3.34-2,3.75,3.75,0,0,1,1.62-5.07C382.33,407.91,387.89,405.2,393.56,402.61Z"></path><path d="M394.35,466.28a5.72,5.72,0,0,0-2,.6A4.73,4.73,0,0,1,394.35,466.28Z"></path><path d="M391.94,476.72a3.09,3.09,0,0,0,.68.34A7.18,7.18,0,0,1,391.94,476.72Z"></path><path d="M392.32,466.88a4.66,4.66,0,0,0-.9.56A3.7,3.7,0,0,1,392.32,466.88Z"></path><path d="M391,476a1.36,1.36,0,0,0,.38.3A1,1,0,0,1,391,476Z"></path><path d="M390.85,468a1,1,0,0,0-.33.37c0-.07.11-.15.15-.22A.48.48,0,0,1,390.85,468Z"></path><path d="M390.67,468.12c0,.07-.12.15-.15.22l-.12.11Z"></path><path d="M390.4,468.45a.85.85,0,0,0-.11.16A1.53,1.53,0,0,0,390.4,468.45Z"></path><path d="M389.84,474.46a3.9,3.9,0,0,0,.56.83A3.9,3.9,0,0,1,389.84,474.46Z"></path><path d="M389.92,469.21a1.08,1.08,0,0,0-.19.37A1.63,1.63,0,0,1,389.92,469.21Z"></path><path d="M389.54,470a3.29,3.29,0,0,0-.23.83A3.83,3.83,0,0,1,389.54,470Z"></path><path d="M389.24,472.4a6.2,6.2,0,0,0,.56,2A5.76,5.76,0,0,1,389.24,472.4Z"></path><path d="M389.31,470.86a5,5,0,0,0-.11,1A5,5,0,0,1,389.31,470.86Z"></path><path d="M387.93,437.05l-1.54,9.62a138.6,138.6,0,0,0-14,9.77,3.84,3.84,0,0,1-2.33.78,3.76,3.76,0,0,1-3-1.42,3.83,3.83,0,0,1-.71-3.16,3.7,3.7,0,0,1,1.35-2.1A148.71,148.71,0,0,1,387.93,437.05Z"></path><path d="M386.39,446.67,379.66,488l-8.07,14.72a15,15,0,0,0-18.33-3.19L346.72,503l8.53-52.17,11.12,1.8a3.83,3.83,0,0,0,.71,3.16,3.76,3.76,0,0,0,3,1.42,3.84,3.84,0,0,0,2.33-.78A138.6,138.6,0,0,1,386.39,446.67Z"></path><path d="M382.59,804.21c-.07.34-.11.67-.15,1l-.3,4.28-76.17.3a14.94,14.94,0,0,0,14.08-12.5l3-17.62,56.94-.22-.94,14A15,15,0,0,0,382.59,804.21Z"></path><path d="M379.66,488l-4.43,27.16c-.08.45-.19.9-.3,1.35a14.93,14.93,0,0,0-1.32-10.93,14.06,14.06,0,0,0-2-2.86Z"></path><path d="M373.61,505.53a14.93,14.93,0,0,1,1.32,10.93.7.7,0,0,1-.08.26,10.17,10.17,0,0,1-.6,1.73v.07a14.19,14.19,0,0,1-.9,1.73,12,12,0,0,1-1.13,1.65,13,13,0,0,1-1.2,1.39.87.87,0,0,1-.3.27,6.51,6.51,0,0,1-1.24,1.05h0a1.26,1.26,0,0,1-.38,0,5.42,5.42,0,0,1-2.7-.68,5.67,5.67,0,0,1-2.26-7.66l7.48-13.64A14.06,14.06,0,0,1,373.61,505.53Z"></path><path d="M374.25,518.45a10.17,10.17,0,0,0,.6-1.73A9.09,9.09,0,0,1,374.25,518.45Z"></path><path d="M373.35,520.25a14.19,14.19,0,0,0,.9-1.73A14.19,14.19,0,0,1,373.35,520.25Z"></path><path d="M372.22,521.9a12,12,0,0,0,1.13-1.65A9.27,9.27,0,0,1,372.22,521.9Z"></path><path d="M371,523.29a13,13,0,0,0,1.2-1.39A9.63,9.63,0,0,1,371,523.29Z"></path><path d="M371.59,502.67l-7.48,13.64a5.67,5.67,0,0,0,2.26,7.66,5.42,5.42,0,0,0,2.7.68,1.26,1.26,0,0,0,.38,0,.36.36,0,0,1-.15.15.11.11,0,0,1-.12.07,10.41,10.41,0,0,1-1.65,1,2.9,2.9,0,0,1-.71.38,14.79,14.79,0,0,1-6.39,1.47,13.11,13.11,0,0,1-2.44-.23,15,15,0,0,1-12.43-17.24l1.16-7.25,6.54-3.53A15,15,0,0,1,371.59,502.67Z"></path><path d="M370.72,523.56a6.51,6.51,0,0,1-1.24,1.05A6.51,6.51,0,0,0,370.72,523.56Z"></path><path d="M369.48,524.61c-.07.07-.11.15-.18.15a.36.36,0,0,0,.15-.15Z"></path><path d="M367.53,525.88a10.41,10.41,0,0,0,1.65-1A10.41,10.41,0,0,1,367.53,525.88Z"></path><path d="M339.13,262.25l-14.46,5.59a109.83,109.83,0,0,0-32.94,19.87A112.13,112.13,0,0,0,261.57,331l-6.16,15.88-4.51-16.45A88.25,88.25,0,0,0,188.55,268l-17.91-4.88,17.61-5.9A99.35,99.35,0,0,0,251,194.49l5.29-15.81,5.37,15.81a100.09,100.09,0,0,0,62.77,62.76Zm-54.8,17a119,119,0,0,1,24-16.41,111.76,111.76,0,0,1-52-51.72,110.73,110.73,0,0,1-19.64,28.36,111.94,111.94,0,0,1-31,22.72,98.56,98.56,0,0,1,27.61,18.1A99.66,99.66,0,0,1,257,313.86,121.79,121.79,0,0,1,284.33,279.26Z"></path><path d="M318.93,747.57a24.49,24.49,0,0,1,5.71,22.61l-1.62,9.5-17,.08c.9-3,1.84-6,2.82-9.09A9.4,9.4,0,0,0,290.87,765c-1,3-1.92,6.12-2.86,9.16L147.09,817.54a9.39,9.39,0,0,0-18.37-.11c-1.39,6.31-2.78,12.62-4.21,18.93a15,15,0,0,0-8.6.41l-8.3,2.9,4.25-23.44a34.06,34.06,0,0,1,25.39-27.08L295.6,740.36A24.4,24.4,0,0,1,318.93,747.57Z"></path><path d="M323,779.68l-3,17.62A14.94,14.94,0,0,1,306,809.8h-.72c-.52,0-1,0-1.54-.07a9.41,9.41,0,0,1-1.46-.23l-1.35-.33c-.53-.15-1-.34-1.51-.53s-.86-.41-1.27-.64l-.42-.22s-.07,0-.07-.08q4-14,8.34-27.94Z"></path><path d="M302.66,758.87a9.38,9.38,0,0,1,6.13,11.8c-1,3-1.92,6-2.82,9.09h-.75a15,15,0,0,0-14.65,11.94l3.27-19.38-5.83,1.8c.94-3,1.88-6.12,2.86-9.16A9.41,9.41,0,0,1,302.66,758.87Z"></path><path d="M305.22,779.76H306q-4.34,13.9-8.34,27.94a12.68,12.68,0,0,1-3-2.29,9.26,9.26,0,0,1-.79-.86,14.14,14.14,0,0,1-1.09-1.39c-.22-.38-.48-.79-.71-1.21a7.33,7.33,0,0,1-.49-1,10.86,10.86,0,0,1-.41-1,9.93,9.93,0,0,1-.41-1.2c-.12-.52-.23-1-.34-1.61a8.83,8.83,0,0,1-.11-1,14,14,0,0,1,0-2.59,7.41,7.41,0,0,1,.15-1.28l.11-.56A15,15,0,0,1,305.22,779.76Z"></path><path d="M306,809.8a11.42,11.42,0,0,1-2.26-.07c.53,0,1,.07,1.54.07H306Z"></path><path d="M303.71,809.73a4.65,4.65,0,0,1-1-.11l-.49-.12A9.41,9.41,0,0,0,303.71,809.73Z"></path><path d="M300.9,809.17l1.35.33A8.3,8.3,0,0,1,300.9,809.17Z"></path><path d="M298.12,808c.41.23.82.42,1.27.64A12.56,12.56,0,0,1,298.12,808Z"></path><path d="M297.63,807.7s0,0,.07.08,0,0-.07,0Z"></path><path d="M297.63,807.7v0a1268.15,1268.15,0,0,0-48.27,369.71H230.55A1288.9,1288.9,0,0,1,288,774.12l5.83-1.8-3.27,19.38-.11.56a7.09,7.09,0,0,0-.15,1.28,14,14,0,0,0,0,2.59,4.43,4.43,0,0,0,.11,1c.11.56.22,1.09.34,1.61a9.93,9.93,0,0,0,.41,1.2,10.86,10.86,0,0,0,.41,1,7.33,7.33,0,0,0,.49,1c.23.42.45.83.71,1.21a14.14,14.14,0,0,0,1.09,1.39,5.8,5.8,0,0,0,.79.86A12.68,12.68,0,0,0,297.63,807.7Z"></path><path d="M293.87,804.55a9.26,9.26,0,0,0,.79.86A5.8,5.8,0,0,1,293.87,804.55Z"></path><path d="M292.07,802c.23.42.49.83.71,1.21C292.52,802.78,292.3,802.37,292.07,802Z"></path><path d="M291.17,800a10.86,10.86,0,0,0,.41,1A10.86,10.86,0,0,1,291.17,800Z"></path><path d="M290.76,798.76a9.93,9.93,0,0,0,.41,1.2A9.93,9.93,0,0,1,290.76,798.76Z"></path><path d="M290.46,792.26a7.41,7.41,0,0,0-.15,1.28A7.09,7.09,0,0,1,290.46,792.26Z"></path><path d="M290.31,796.13a8.83,8.83,0,0,0,.11,1A4.43,4.43,0,0,1,290.31,796.13Z"></path><path d="M147.09,817.54,288,774.12a1288.9,1288.9,0,0,0-57.46,403.33H72a334.54,334.54,0,0,1-1.28-34.22c.6-47.93,12.81-84.25,24.64-119.37,4.88-14.42,9.46-28,13.18-42.18,14-53.33,27-107.23,38.58-160.23A9.2,9.2,0,0,0,147.09,817.54Z" class="cls-6"></path><path d="M308.37,262.85a119,119,0,0,0-24,16.41,121.79,121.79,0,0,0-27.3,34.6,99.66,99.66,0,0,0-23.7-33.55,98.56,98.56,0,0,0-27.61-18.1,111.94,111.94,0,0,0,31-22.72,110.73,110.73,0,0,0,19.64-28.36,111.76,111.76,0,0,0,52,51.72Z" class="cls-4"></path><path d="M249.55,1188.49a9.37,9.37,0,0,1-9.13,9.62h-.26a9.42,9.42,0,0,1-9.39-9.13c-.11-3.83-.19-7.7-.22-11.53h18.81C249.4,1181.13,249.48,1184.81,249.55,1188.49Z"></path><path d="M240.42,1198.11V1200H63.63v-1.87a5.05,5.05,0,0,0,1.09-.08,9.41,9.41,0,0,0,8.26-10.4c-.38-3.38-.75-6.76-1-10.18H230.55c0,3.83.11,7.7.22,11.53a9.42,9.42,0,0,0,9.39,9.13Z"></path><path d="M147.09,817.54a9.2,9.2,0,0,1,0,3.91c-11.61,53-24.57,106.9-38.58,160.23-3.72,14.16-8.3,27.76-13.18,42.18-11.83,35.12-24,71.44-24.64,119.37A334.54,334.54,0,0,0,72,1177.45H53.11c-1-11.46-1.35-23-1.2-34.45.64-50.89,13.9-90.33,25.61-125.15,4.78-14.08,9.24-27.42,12.81-40.94,9.51-36.17,18.52-72.57,26.93-108.81l7.52-2.63a1.42,1.42,0,0,0,.33-.11,14.14,14.14,0,0,0,4.89-2.48c.3-.23.6-.49.9-.75a10.42,10.42,0,0,0,.94-.94,6.32,6.32,0,0,0,.64-.72,7.48,7.48,0,0,0,.67-.9,16.78,16.78,0,0,0,1.32-2.25,8.37,8.37,0,0,0,.45-1.09,14.76,14.76,0,0,0,.71-2.59l.11-.53,5.71-31.55a4,4,0,0,1,3.08-3.23Z"></path><path d="M147.09,817.54l-2.56.79a4,4,0,0,0-3.08,3.23l-5.71,31.55A15.35,15.35,0,0,0,135,846a15.05,15.05,0,0,0-10.52-9.65c1.43-6.31,2.82-12.62,4.21-18.93a9.39,9.39,0,0,1,18.37.11Z"></path><path d="M135,846a15.35,15.35,0,0,1,.71,7.1l-.11.53a14.76,14.76,0,0,1-.71,2.59c-.15.38-.3.75-.45,1.09a16.78,16.78,0,0,1-1.32,2.25c-.19.3-.45.6-.67.9s-.42.49-.64.72a10.42,10.42,0,0,1-.94.94c-.3.26-.6.52-.9.75a14.93,14.93,0,0,1-4.21,2.25l-.68.23a1.42,1.42,0,0,1-.33.11,14.82,14.82,0,0,1-3.91.53,16.55,16.55,0,0,1-2.67-.27c-.11,0-.26,0-.37-.07,2.29-9.77,4.5-19.57,6.68-29.3A15.05,15.05,0,0,1,135,846Z"></path><path d="M134.47,857.32c.15-.34.3-.71.45-1.09A8.37,8.37,0,0,1,134.47,857.32Z"></path><path d="M132.48,860.47c.22-.3.48-.6.67-.9A7.48,7.48,0,0,1,132.48,860.47Z"></path><path d="M131.84,861.19c.22-.23.45-.49.64-.72A6.32,6.32,0,0,1,131.84,861.19Z"></path><path d="M130.9,862.13c-.3.26-.6.52-.9.75C130.3,862.65,130.6,862.39,130.9,862.13Z"></path><path d="M125.79,865.13a14.93,14.93,0,0,0,4.21-2.25,14.14,14.14,0,0,1-4.89,2.48Z"></path><path d="M124.78,865.47l-7.52,2.63a24.72,24.72,0,0,0,.57-2.44c.11,0,.26,0,.37.07a16.55,16.55,0,0,0,2.67.27A14.82,14.82,0,0,0,124.78,865.47Z"></path><path d="M115.91,836.77a15,15,0,0,1,8.6-.41c-2.18,9.73-4.39,19.53-6.68,29.3a15,15,0,0,1-11.76-17.39l1.54-8.6Z"></path><path d="M117.83,865.66a24.72,24.72,0,0,1-.57,2.44l-94.72,33V869.34l85.07-29.67-1.54,8.6A15,15,0,0,0,117.83,865.66Z"></path><path d="M22.54,901.11l94.72-33c-8.41,36.24-17.42,72.64-26.93,108.81-3.57,13.52-8,26.86-12.81,40.94-11.71,34.82-25,74.26-25.61,125.15-.15,11.46.22,23,1.2,34.45H22.54Z" class="cls-2"></path><path d="M73,1187.63a9.41,9.41,0,0,1-8.26,10.4,5.05,5.05,0,0,1-1.09.08,9.42,9.42,0,0,1-9.32-8.31c-.49-4.09-.9-8.22-1.2-12.35H72C72.23,1180.87,72.6,1184.25,73,1187.63Z"></path><path d="M63.63,1198.11V1200H0V887.48H1a15.41,15.41,0,0,0,.86,5A15.07,15.07,0,0,0,21,901.68l1.58-.57v276.34H53.11c.3,4.13.71,8.26,1.2,12.35A9.42,9.42,0,0,0,63.63,1198.11Z"></path><path d="M22.54,869.34v31.77l-1.58.57a15.07,15.07,0,0,1-19.12-9.24,15.41,15.41,0,0,1-.86-5,15,15,0,0,1,10.1-14.16Z"></path></g><g class="cls-10"><polygon points="496.48 457.17 646.3 511.21 617.35 566.3 500.88 533.37 496.48 457.17" class="cls-11"></polygon></g><g class="cls-10"><path d="M835.15,575.08,707.36,532.53s-16.17,24.05-5.24,58l87.12,31.19Z" class="cls-11"></path></g><path d="M401.18,806.6s53.44-45,102.26-50.47,125.43-19,161.3,41.21c0,0,16.17,18.77,18.55,37.44L631,838.59Z" class="cls-12"></path></g></g></svg>