<svg xml:space="preserve" style="enable-background:new 0 0 1024 1024;" viewBox="0 0 1024 1024" y="0px" x="0px" xmlns:xlink="http://www.w3.org/1999/xlink" xmlns="http://www.w3.org/2000/svg" id="图层_1" version="1.1">
<style type="text/css">
	.st0{fill:#FFAE55;}
	.st1{fill:#381818;}
	.st2{clip-path:url(#SVGID_2_);}
	.st3{fill:#EADDC2;}
	.st4{fill:#93E2B8;}
	.st5{fill:#FF88B9;}
	.st6{fill:#D7FFE8;}
	.st7{fill:#EBF9BB;}
	.st8{fill:#F9E7DC;}
	.st9{fill:#F4CABD;}
	.st10{fill:#D0261D;}
	.st11{fill:#F73C58;}
	.st12{fill:#F2B53B;}
	.st13{opacity:0.41;}
	.st14{fill:#C66728;}
	.st15{fill:#FFFFFF;}
	.st16{fill:#E4473B;}
	.st17{fill:#F9A694;}
	.st18{fill:#65B788;}
	.st19{fill:#FCC25B;}
	.st20{fill:#F4A462;}
</style>
<g>
	<g>
		<g>
			<path d="M374.6,946.2c-60.5,0-111.7-44.4-120.5-103.9c-13.9-4.1-37.2-13.1-56.7-31.6c-25.3-23.9-37.5-56.1-36.3-95.8
				l0-0.3l0-0.3c0.1-0.8,11.5-81-26.8-117.9l-3.8-3.7l3.8-3.7c38.4-36.8,27-117.1,26.8-117.9l0-0.3l0-0.3
				c-1.3-39.7,10.9-71.9,36.2-95.8c19.5-18.4,42.8-27.5,56.7-31.6c8.6-59.7,59.8-104.3,120.5-104.3h286.6
				c60.8,0,112,44.6,120.5,104.3c13.9,4.1,37.2,13.2,56.7,31.6c25.3,23.9,37.5,56.1,36.2,95.8l0,0.3l0,0.3
				c-0.1,0.8-11.5,81,26.8,117.9l3.8,3.7l-3.8,3.7c-38.4,36.8-27,117.1-26.8,117.9l0,0.3l0,0.3c1.3,39.7-10.9,72-36.3,95.8
				c-19.5,18.4-42.8,27.5-56.7,31.6c-8.7,59.5-59.9,103.9-120.5,103.9H374.6z" class="st0"></path>
		</g>
		<g>
			<g>
				<path d="M661.2,244c59.9,0,109.2,45.1,115.9,103.2c28.1,7.5,95.3,34.8,92.5,123.2c0,0-12.4,83.2,28.4,122.3
					c-40.8,39.1-28.4,122.3-28.4,122.3c2.8,88.5-64.4,115.7-92.5,123.2c-6.9,57.9-56.1,102.8-115.9,102.8H374.6
					c-59.7,0-109-44.9-115.9-102.8c-28.1-7.5-95.3-34.8-92.5-123.2c0,0,12.4-83.2-28.4-122.3c40.8-39.1,28.4-122.3,28.4-122.3
					c-2.8-88.4,64.4-115.7,92.5-123.2c6.7-58.1,56-103.2,115.9-103.2H661.2 M661.2,233.9H374.6c-31.3,0-61.4,11.5-84.7,32.4
					c-21.4,19.2-35.6,44.9-40.3,73.1c-16.3,5.1-37.3,14.5-55.7,31.8c-12.1,11.4-21.4,24.8-27.7,39.9c-7.4,17.6-10.8,37.7-10.1,59.8
					l0,0.6l0.1,0.6c0.1,0.8,11.1,78.5-25.3,113.4l-7.7,7.3l7.7,7.3c36.4,35,25.4,112.7,25.3,113.4l-0.1,0.6l0,0.6
					c-0.7,22,2.7,42.1,10.1,59.8c6.4,15.1,15.7,28.6,27.8,39.9c18.3,17.3,39.4,26.7,55.7,31.8c10.5,60.3,63,105,125,105h286.6
					c62,0,114.5-44.7,125-105c16.3-5.1,37.4-14.5,55.7-31.8c12.1-11.4,21.4-24.8,27.8-39.9c7.4-17.6,10.8-37.8,10.1-59.8l0-0.6
					l-0.1-0.6c-0.1-0.8-11.1-78.5,25.3-113.4l7.7-7.3l-7.7-7.3c-36.4-35-25.4-112.7-25.3-113.4l0.1-0.6l0-0.6
					c0.7-22-2.7-42.1-10.1-59.8c-6.3-15.1-15.7-28.5-27.7-39.9c-18.3-17.3-39.4-26.7-55.7-31.8c-4.8-28.1-18.9-53.8-40.3-73.1
					C722.7,245.4,692.6,233.9,661.2,233.9L661.2,233.9z" class="st1"></path>
			</g>
		</g>
	</g>
	<g>
		<defs>
			<path d="M898.1,592.8c-40.8-39.1-28.4-122.3-28.4-122.3c2.8-88.4,154.3-123.3,126.2-130.8
				c-2.7-23.6,31.1-58.4,16.4-75.6c27.3-33.2-219.1-51.9-219.1-94.2c0-118.2-123.2-214-275.2-214s-275.2,95.8-275.2,214
				c0,42.4-117.4,83.8-90.1,117C138,304,127,316,124.3,339.7c-28.1,7.5,39.2,42.4,42,130.8c0,0,12.4,83.2-28.4,122.3
				c40.8,39.1,28.4,122.3,28.4,122.3c-2.8,88.5,64.4,115.7,92.5,123.2c6.9,57.9,56.1,102.8,115.9,102.8h286.6
				c59.7,0,109-44.9,115.9-102.8c28.1-7.5,95.3-34.8,92.5-123.2C869.7,715.1,857.3,631.9,898.1,592.8z" id="SVGID_1_"></path>
		</defs>
		<clipPath id="SVGID_2_">
			<use style="overflow:visible;" xlink:href="#SVGID_1_"></use>
		</clipPath>
		<g class="st2">
			<g>
				<g>
					<path d="M461,552.2c0,0,27.5,150,66.6,173.4c0,0,72.8-111.3,60.8-173.4C588.3,552.2,505.4,525.5,461,552.2z" class="st3"></path>
				</g>
				<g>
					<g>
						<path d="M523.7,1064.3c-0.9,0-1.8,0-2.7,0c-1,0-1.8,0-2.7,0c-75.8,0-127-13.4-156.6-24.7
							c-32.6-12.4-47-24.8-47.5-25.3c-2-1.7-2.4-4.6-1.1-6.8l29.9-50.2c28.7-48.2,61.3-102.8,51.3-155.4c-1.4-7.2-3.1-14.5-5.2-21.7
							l-22.5-76.1c-0.2-0.7-0.3-1.4-0.2-2.1c3.6-36.6,21.4-70.4,50.1-95.1c0.5-0.4,1-0.8,1.5-1.2c11.6-9.8,24.7-17.8,38.9-23.9
							c20.2-8.7,41.8-13.1,64.1-13.1c38.7,0,75.8,13.6,104.5,38.2c28.7,24.7,46.5,58.5,50.1,95.1c0.1,0.7,0,1.4-0.2,2.1L653,780.2
							c-3,10.3-5.3,20.8-6.9,31.4c-6.7,46.3,22.3,94.6,47.8,137.2c1.7,2.9,3.4,5.7,5.1,8.5l29.9,50.2c1.3,2.2,0.9,5.1-1.1,6.8
							c-0.6,0.5-15,13-47.5,25.3C650.7,1050.9,599.5,1064.3,523.7,1064.3z" class="st4"></path>
					</g>
					<g>
						<g>
							<path d="M521,574.1c77.4,0,142.1,55.7,149.3,128.5l-22.5,76.1c-3.1,10.6-5.5,21.3-7,32.1
								c-7.4,51.3,26.7,104.1,53.6,149.2l29.9,50.2c0,0-55.6,48.7-200.6,48.7c-0.9,0-1.8,0-2.7,0c-0.9,0-1.8,0-2.7,0
								c-145.1,0-200.6-48.7-200.6-48.7l29.9-50.2c28.6-48,62.3-104.7,52-159.1c-1.4-7.4-3.2-14.9-5.4-22.2l-22.5-76.1
								c3.6-36.4,21.5-68.5,48.3-91.5c0.5-0.4,0.9-0.8,1.4-1.2c11.2-9.4,23.8-17.2,37.6-23.1C477.9,578.7,499,574.1,521,574.1
								 M521,563.4c-23.1,0-45.4,4.6-66.3,13.5c-14.6,6.3-28.2,14.6-40.2,24.7c-0.5,0.4-1,0.8-1.5,1.3c-29.8,25.6-48.3,60.7-52,98.7
								c-0.1,1.4,0,2.8,0.4,4.1l22.5,76.1c2.1,7,3.8,14.1,5.1,21.1c4.2,22.2,0.7,47.1-10.8,76c-10.4,26.3-26.1,52.5-39.8,75.6
								l-29.9,50.2c-2.7,4.5-1.8,10.2,2.2,13.6c2.4,2.1,60.3,51.3,207.7,51.3c0.9,0,1.8,0,2.7,0l0.1,0h0c0.9,0,1.8,0,2.7,0
								c147.4,0,205.3-49.2,207.7-51.3c3.9-3.4,4.8-9.2,2.2-13.6l-29.9-50.2c-1.7-2.8-3.4-5.6-5.1-8.5
								c-25.1-41.8-53.5-89.2-47.1-133.6c1.5-10.3,3.7-20.6,6.7-30.6l22.5-76.1c0.4-1.3,0.5-2.7,0.4-4.1c-3.7-38-22.2-73-52-98.7
								C599.4,577.4,561,563.4,521,563.4L521,563.4z" class="st1"></path>
						</g>
					</g>
				</g>
				<g>
					<g>
						<path d="M454,800.6c-21.4,0-37.2-6.1-47-18.3c-3.3-4.1-7.4-9.6-11.8-16c-0.4-0.6-0.7-1.3-0.9-2.1
							c-1.4-7.2-3.1-14.5-5.2-21.7l-22.5-76.1c-0.2-0.7-0.3-1.4-0.2-2.1c3.6-36.6,21.4-70.4,50.1-95.1c0.5-0.4,1-0.8,1.5-1.3
							c11.6-9.8,24.7-17.8,38.9-23.9c20.2-8.7,41.8-13.1,64.1-13.1c38.7,0,75.8,13.6,104.5,38.2c28.7,24.7,46.5,58.5,50.1,95.1
							c0.1,0.7,0,1.4-0.2,2.1L653,742.6c-3,10.3-5.3,20.8-6.9,31.4c-0.2,1.2-0.7,2.3-1.6,3.1c-9.8,9.5-16.5,15.4-16.8,15.6
							c-1,0.8-2.2,1.3-3.5,1.3c-0.2,0-0.4,0-0.5,0l-97.5-9.6C519.1,787.4,485.3,800.6,454,800.6z" class="st5"></path>
					</g>
					<g>
						<path d="M521,536.5c77.4,0,142.1,55.7,149.3,128.5l-22.5,76.1c-3.1,10.6-5.5,21.3-7,32.1
							c-9.8,9.5-16.6,15.4-16.6,15.4l-98.8-9.7c0,0-37.5,16.3-71.4,16.3c-16.9,0-32.9-4.1-42.9-16.3c-3.1-3.8-7-9.1-11.5-15.6
							c-1.4-7.4-3.2-14.9-5.4-22.2L371.7,665c3.6-36.4,21.5-68.5,48.3-91.5c0.5-0.4,0.9-0.8,1.4-1.2c11.2-9.4,23.8-17.2,37.6-23.1
							C477.9,541,499,536.5,521,536.5 M521,525.7c-23.1,0-45.4,4.6-66.3,13.5c-14.6,6.3-28.2,14.6-40.2,24.7c-0.5,0.4-1,0.8-1.5,1.3
							c-29.8,25.6-48.3,60.7-52,98.7c-0.1,1.4,0,2.8,0.4,4.1l22.5,76.1c2.1,7,3.8,14.1,5.1,21.1c0.3,1.5,0.9,2.9,1.7,4.1
							c4.5,6.5,8.6,12.1,12,16.3c10.9,13.4,28.2,20.2,51.2,20.2c30.8,0,63.5-12.2,73-16l96.1,9.4c0.4,0,0.7,0.1,1.1,0.1
							c2.6,0,5.1-0.9,7-2.6c0.3-0.2,7.2-6.2,17.1-15.8c1.7-1.7,2.8-3.8,3.2-6.2c1.5-10.3,3.7-20.6,6.7-30.6l22.5-76.1
							c0.4-1.3,0.5-2.7,0.4-4.1c-3.7-38-22.2-73-52-98.7C599.4,539.8,561,525.7,521,525.7L521,525.7z" class="st1"></path>
					</g>
				</g>
				<g>
					<g>
						<path d="M541.7,696.5c-1.5,0-2.9-0.6-4-1.7c-7.5-8.1-73.6-80.2-75.8-112.2c-0.4-6,1.5-11.3,5.8-15.9
							c14.2-15.2,52.5-17.5,74-17.5c4.6,0,7.5,0.1,7.6,0.1c0.1,0,0.2,0,0.3,0l53.9,4.9c1.8,0.2,3.3,1.2,4.2,2.7c0.9,1.5,1,3.4,0.2,5
							l-61.3,131.6c-0.8,1.6-2.3,2.8-4.1,3C542.3,696.5,542,696.5,541.7,696.5z" class="st6"></path>
					</g>
					<g>
						<path d="M541.7,554.6c4.6,0,7.4,0.1,7.4,0.1l53.9,4.9l-61.3,131.6c0,0-72.3-77.9-74.4-108.9
							C465.6,556.9,521.3,554.6,541.7,554.6 M541.7,543.8v10.8V543.8c-27.4,0-63.1,3.3-77.9,19.2c-5.2,5.6-7.7,12.5-7.2,19.9
							c0.6,8.9,5.2,20.4,14.1,35c6.5,10.7,15.3,23.2,26.2,37.1c18.4,23.4,36.2,42.7,37,43.5c2.1,2.2,4.9,3.5,7.9,3.5
							c0.6,0,1.1,0,1.7-0.1c3.5-0.6,6.6-2.8,8.1-6.1l61.3-131.6c1.5-3.2,1.3-6.9-0.4-9.9c-1.8-3-4.9-5-8.4-5.4l-53.9-4.9
							c-0.2,0-0.4,0-0.5,0C549.4,543.9,546.5,543.8,541.7,543.8L541.7,543.8z" class="st1"></path>
					</g>
				</g>
				<g>
					<g>
						<g>
							<path d="M309.5,915.8c-1.8,0-3.5-0.9-4.5-2.4c-1.1-1.6-1.2-3.6-0.4-5.3l57.3-121.8c0.9-1.9,2.8-3.1,4.9-3.1
								h101.5c1.6,0,3.1,0.7,4.2,1.9c1,1.2,1.4,2.9,1.2,4.4c-0.5,2.6-12.5,64.3-56.2,100.6c-26.2,21.8-75.4,24.1-104.7,25.5
								l-2.8,0.1C309.6,915.8,309.5,915.8,309.5,915.8z" class="st5"></path>
						</g>
						<g>
							<path d="M468.2,788.6c0,0-11.6,61.9-54.4,97.5c-25.7,21.3-75.7,23-104.4,24.4l57.3-121.8H468.2 M468.2,777.8
								H366.7c-4.2,0-8,2.4-9.8,6.2l-57.3,121.8c-1.6,3.4-1.3,7.4,0.8,10.6c2,3,5.4,4.8,9,4.8c0.2,0,0.3,0,0.5,0l2.8-0.1
								c30-1.4,80.3-3.8,107.9-26.7c45.2-37.6,57.6-101.1,58.1-103.8c0.6-3.2-0.3-6.4-2.3-8.9C474.5,779.3,471.4,777.8,468.2,777.8
								L468.2,777.8z M468.2,799.4L468.2,799.4L468.2,799.4L468.2,799.4z" class="st1"></path>
						</g>
					</g>
					<g>
						<g>
							<path d="M732.3,915.8l-2.8-0.1c-29.4-1.4-78.5-3.7-104.7-25.5c-43.8-36.3-55.7-98-56.2-100.6
								c-0.3-1.6,0.1-3.2,1.2-4.4s2.5-1.9,4.2-1.9h101.5c2.1,0,4,1.2,4.9,3.1l57.3,121.8c0.8,1.7,0.7,3.7-0.4,5.3
								c-1,1.5-2.7,2.4-4.5,2.4C732.4,915.8,732.4,915.8,732.3,915.8z" class="st5"></path>
						</g>
						<g>
							<path d="M675.2,788.6l57.3,121.8c-28.7-1.4-78.7-3.1-104.4-24.4c-42.8-35.5-54.4-97.5-54.4-97.5H675.2
								 M675.2,777.8H573.8c-3.2,0-6.3,1.4-8.3,3.9c-2,2.5-2.9,5.7-2.3,8.9c0.5,2.7,12.8,66.2,58.1,103.8
								c27.6,22.9,77.9,25.3,107.9,26.7l2.8,0.1c0.2,0,0.3,0,0.5,0c3.6,0,7-1.8,9-4.8c2.1-3.1,2.4-7.2,0.8-10.6L685,784
								C683.2,780.2,679.4,777.8,675.2,777.8L675.2,777.8z" class="st1"></path>
						</g>
					</g>
				</g>
				<g>
					<g>
						<path d="M518.3,769.6c-1.4,0-2.7-0.5-3.7-1.5c-0.7-0.7-17.2-16.7-37.7-48.9c-18.8-29.5-44.6-78.7-60.7-145.7
							c-0.5-2,0.2-4.1,1.8-5.4c10.5-8.9,22.3-16.3,34.9-22.1c1.2-0.6,2.6-1.2,4.1-1.8c0.7-0.3,1.4-0.4,2.1-0.4c0.7,0,1.4,0.1,2,0.4
							c1.3,0.5,2.4,1.6,3,2.9c13.9,32.7,41.4,95,69.7,145.4c19.1,34,35.3,56.7,48.2,67.7c1.7,1.5,2.4,3.8,1.6,6
							c-0.8,2.1-2.8,3.5-5.1,3.5H518.3z" class="st4"></path>
					</g>
					<g>
						<path d="M459,549.2c13.8,32.4,41.4,95.2,70,145.9c17.1,30.4,34.5,56.5,49.5,69.2h-60.2c0,0-66.1-63.7-96.9-192
							c10.1-8.5,21.4-15.7,33.7-21.3C456.3,550.3,457.7,549.7,459,549.2 M459,538.4c-1.5,0-2.9,0.3-4.3,0.9
							c-1.5,0.7-2.9,1.3-4.3,1.9c-13,6-25.1,13.7-36,22.9c-3.1,2.6-4.5,6.8-3.5,10.8c16.3,67.7,42.4,117.5,61.4,147.4
							c20.8,32.7,37.8,49.2,38.5,49.8c2,1.9,4.7,3,7.5,3h60.2c4.5,0,8.6-2.8,10.1-7.1c1.6-4.2,0.3-9-3.1-11.9
							c-15.5-13.1-34.1-43.3-47-66.2c-28.2-50.1-55.6-112.3-69.5-144.8c-1.1-2.6-3.3-4.7-5.9-5.8C461.7,538.6,460.4,538.4,459,538.4
							L459,538.4z" class="st1"></path>
					</g>
				</g>
				<g>
					<path d="M529,695.1c-2.3,0.5-4.6,0.7-7.1,0.6c-13.9-0.8-24.6-12.7-23.8-26.6c0.1-2.4,0.6-4.6,1.3-6.8
						c-11.9-2.6-20.6-13.5-19.9-26.1c0.3-5.5,2.3-10.5,5.5-14.4c-12-2.5-20.7-13.5-20-26.1c0.2-2.9,0.8-5.6,1.8-8.1
						c-9.6-4-16.1-13.7-15.5-24.7c0.2-4.4,1.6-8.4,3.7-11.9c1.3-0.6,2.6-1.2,4-1.8C472.8,581.6,500.4,644.3,529,695.1z" class="st7"></path>
				</g>
				<g>
					<g>
						<path d="M470.6,769.6c-2.3,0-4.3-1.4-5.1-3.5c-0.8-2.1-0.2-4.5,1.6-6c38.8-33,95.4-160,118-213.1
							c0.6-1.3,1.6-2.4,3-2.9c0.6-0.3,1.3-0.4,2-0.4c0.7,0,1.4,0.1,2.1,0.4c14.2,6.1,27.3,14.1,39,24c1.6,1.3,2.3,3.4,1.8,5.4
							c-16.1,67-41.9,116.2-60.7,145.7c-20.5,32.1-37,48.2-37.7,48.9c-1,1-2.3,1.5-3.7,1.5H470.6z" class="st4"></path>
					</g>
					<g>
						<path d="M590,549.2c13.8,5.9,26.4,13.7,37.6,23.1c-30.8,128.3-96.9,192-96.9,192h-60.2
							C510.5,730.4,568,601,590,549.2 M590,538.4c-1.4,0-2.7,0.3-4,0.8c-2.7,1.1-4.8,3.2-5.9,5.8c-17.5,41.1-77.5,178-116.5,211.1
							c-3.4,2.9-4.7,7.7-3.1,11.9c1.6,4.2,5.6,7.1,10.1,7.1h60.2c2.8,0,5.5-1.1,7.5-3c0.7-0.7,17.7-17.2,38.5-49.8
							c19-29.8,45.1-79.6,61.4-147.4c1-4-0.4-8.1-3.5-10.8c-12.1-10.2-25.6-18.5-40.3-24.8C592.9,538.7,591.5,538.4,590,538.4
							L590,538.4z" class="st1"></path>
					</g>
				</g>
				<g>
					<path d="M510.3,714.7c2.3,0.5,4.6,0.7,7.1,0.6c13.9-0.8,24.6-12.7,23.8-26.6c-0.1-2.4-0.6-4.6-1.3-6.8
						c11.9-2.6,20.6-13.5,19.9-26.1c-0.3-5.5-2.3-10.5-5.5-14.4c12-2.5,20.7-13.5,20-26.1c-0.2-2.9-0.8-5.6-1.8-8.1
						c9.6-4,16.1-13.7,15.5-24.7c-0.2-4.4-1.6-8.4-3.7-11.9c-1.3-0.6-2.6-1.2-4-1.8C566.5,601.2,538.8,664,510.3,714.7z" class="st7"></path>
				</g>
				<g>
					<path d="M574.2,741.7c-20.6-27.2-42-30.1-48.9-30.3c-6.8,0.2-28.2,3.1-48.9,30.3c-24.9,32.9-81.8,15.5-81.8,15.5
						l5.3,74.2c17.7-25.8,109.8-29.7,125.3-30.2c15.5,0.5,107.6,4.3,125.3,30.2l5.3-74.2C656,757.2,599.1,774.6,574.2,741.7z" class="st8"></path>
					<path d="M400,836.8c-0.5,0-0.9-0.1-1.4-0.2c-2.2-0.6-3.8-2.5-4-4.8l-5.3-74.2c-0.1-1.8,0.6-3.5,2-4.6
						c1.4-1.1,3.2-1.5,4.9-0.9c0.5,0.2,53.6,15.9,75.9-13.6c21.6-28.6,44.3-32.2,53-32.5c0.1,0,0.2,0,0.3,0
						c8.7,0.2,31.4,3.9,53,32.5c22.3,29.5,75.4,13.8,75.9,13.6c1.7-0.5,3.5-0.2,4.9,0.9c1.4,1.1,2.1,2.8,2,4.6l-5.3,74.2
						c-0.2,2.3-1.8,4.2-4,4.8c-2.2,0.6-4.6-0.3-5.9-2.2c-11.7-17-69.1-26.2-120.9-27.8c-51.8,1.6-109.2,10.8-120.9,27.8
						C403.5,836,401.8,836.8,400,836.8z M525.3,795.9c0.1,0,0.1,0,0.2,0c22.7,0.7,91.9,4.4,120.6,23.9l4-55.6
						c-17.1,3.7-58.7,9.1-80.2-19.3l0,0c-19.2-25.3-38.8-28-44.6-28.2c-5.8,0.2-25.4,2.9-44.6,28.2c-21.5,28.4-63.1,23-80.2,19.3
						l4,55.6c28.6-19.5,97.9-23.2,120.6-23.9C525.2,795.9,525.3,795.9,525.3,795.9z" class="st1"></path>
				</g>
				<g>
					<g>
						<path d="M521.7,581.3c-11.6,0-32.9-1.9-44.5-14.6c-5.8-6.3-8.2-14.3-7.4-23.7l7.5-80h88.8l7.5,80
							c0.9,9.4-1.6,17.4-7.4,23.7C554.6,579.4,533.4,581.3,521.7,581.3z" class="st9"></path>
					</g>
					<g>
						<path d="M560.2,469.5l6.9,74.1c2.5,26.7-28.5,31.2-45.4,31.2c-16.8,0-47.9-4.5-45.4-31.2l6.9-74.1H560.2
							 M572,456.5h-11.8h-76.9h-11.8l-1.1,11.8l-6.9,74.1c-1,11.1,2.1,21.1,9,28.7c13.2,14.5,36.6,16.7,49.3,16.7
							c12.7,0,36-2.2,49.3-16.7c6.9-7.6,10.1-17.5,9-28.7l-6.9-74.1L572,456.5L572,456.5z" class="st1"></path>
					</g>
				</g>
				<g>
					<g>
						<ellipse ry="135" rx="151.2" cy="377.4" cx="520" class="st1"></ellipse>
					</g>
					<g>
						<circle r="131.4" cy="314.4" cx="520.2" class="st1"></circle>
					</g>
					<g>
						<g>
							<g>
								
									<ellipse ry="47.7" rx="56.2" cy="351.7" cx="666.9" class="st1" transform="matrix(0.9095 -0.4158 0.4158 0.9095 -85.8662 309.123)"></ellipse>
							</g>
							<g>
								
									<ellipse ry="52.2" rx="60.2" cy="301.1" cx="658.9" class="st1" transform="matrix(0.9095 -0.4158 0.4158 0.9095 -65.5464 301.1802)"></ellipse>
							</g>
							<g>
								
									<ellipse ry="56.4" rx="65.2" cy="234.8" cx="628.2" class="st1" transform="matrix(0.5953 -0.8035 0.8035 0.5953 65.5388 599.8073)"></ellipse>
							</g>
						</g>
						<g>
							<g>
								
									<ellipse ry="56.2" rx="47.7" cy="351.7" cx="376.3" class="st1" transform="matrix(0.4158 -0.9095 0.9095 0.4158 -100.0313 547.7711)"></ellipse>
							</g>
							<g>
								
									<ellipse ry="60.2" rx="52.2" cy="301.1" cx="384.4" class="st1" transform="matrix(0.4158 -0.9095 0.9095 0.4158 -49.2606 525.5372)"></ellipse>
							</g>
							<g>
								
									<ellipse ry="65.2" rx="56.4" cy="261.5" cx="415.1" class="st1" transform="matrix(0.8035 -0.5953 0.5953 0.8035 -74.0871 298.4606)"></ellipse>
							</g>
						</g>
					</g>
					<g>
						<g>
							<g>
								<path d="M387.7,440.2c-18,0-33.5-19.2-36.1-44.8c-2.7-27.4,10.1-51,29.3-53.7c1.2-0.2,2.4-0.2,3.5-0.2
									c18,0,33.5,19.2,36.1,44.8c2.7,27.4-10.1,51-29.3,53.7C390.1,440.1,388.9,440.2,387.7,440.2z" class="st9"></path>
							</g>
							<g>
								<g>
									<path d="M384.4,347.9c14.4,0,27.4,16.7,29.6,38.9c2.4,23.6-8.3,44.4-23.7,46.6c-0.9,0.1-1.8,0.2-2.6,0.2
										c-14.4,0-27.4-16.7-29.6-38.9c-2.4-23.6,8.3-44.4,23.7-46.6C382.7,348,383.6,347.9,384.4,347.9 M384.4,335L384.4,335
										c-1.5,0-3,0.1-4.4,0.3c-22.6,3.2-37.9,29.9-34.8,60.8c1.3,13.1,5.9,25.3,12.8,34.4c8,10.5,18.6,16.2,29.7,16.2
										c1.5,0,3-0.1,4.4-0.3c22.6-3.2,37.9-29.9,34.8-60.8c-1.3-13.1-5.9-25.3-12.8-34.4C406.1,340.7,395.6,335,384.4,335
										L384.4,335z" class="st1"></path>
								</g>
							</g>
						</g>
						<g>
							<g>
								<path d="M656.8,440.2c-1.2,0-2.4-0.1-3.5-0.2c-19.2-2.7-32-26.3-29.3-53.7c2.5-25.5,18.1-44.8,36.1-44.8
									c1.2,0,2.4,0.1,3.5,0.2c19.2,2.7,32,26.3,29.3,53.7C690.3,420.9,674.8,440.2,656.8,440.2
									C656.8,440.2,656.8,440.2,656.8,440.2z" class="st9"></path>
							</g>
							<g>
								<g>
									<path d="M660.1,347.9c0.9,0,1.7,0.1,2.6,0.2c15.5,2.2,26.1,23.1,23.7,46.6c-2.2,22.2-15.2,38.9-29.6,38.9
										c-0.9,0-1.7-0.1-2.6-0.2c-15.5-2.2-26.1-23.1-23.7-46.6C632.7,364.6,645.6,347.9,660.1,347.9 M660.1,335
										c-11.1,0-21.7,5.8-29.7,16.2c-7,9.1-11.5,21.3-12.8,34.4c-3.1,30.9,12.2,57.6,34.8,60.8c1.5,0.2,3,0.3,4.4,0.3
										c11.1,0,21.7-5.8,29.7-16.2c7-9.1,11.5-21.3,12.8-34.4c3.1-30.9-12.2-57.6-34.8-60.8C663,335.1,661.5,335,660.1,335
										L660.1,335z" class="st1"></path>
								</g>
							</g>
						</g>
					</g>
					<g>
						
							<ellipse ry="101.7" rx="47.1" cy="562.3" cx="613.3" class="st1" transform="matrix(0.9976 -6.855559e-02 6.855559e-02 0.9976 -37.1049 43.3689)"></ellipse>
					</g>
					<g>
						<path d="M600,484.4c0,0,43.2-1.1,114.7,22.2l1-28.9c0,0-55.8-11.4-118.5-2.6L600,484.4z" class="st10"></path>
						<path d="M717.7,511.1l-4.1-1.3c-36.6-11.9-65.5-17.3-83.3-19.7c-19.3-2.6-30.1-2.4-30.2-2.4l-2.5,0.1l-4.6-15.3
							l3.7-0.5c62.5-8.8,119,2.5,119.6,2.6l2.7,0.6L717.7,511.1z M602.4,481.2c10,0.1,49,1.9,109.2,21.1l0.8-21.8
							c-11.6-2-58.7-9.3-111-2.6L602.4,481.2z" class="st1"></path>
					</g>
					<g>
						<g>
							<path d="M616.8,528.6c-12,0-27-7.6-39.2-19.8c-19.1-19.1-25.4-42.6-14.4-53.6c3.5-3.5,8.5-5.4,14.4-5.4
								c12,0,27,7.6,39.2,19.8c8.8,8.8,15.3,19.1,18.2,28.8c3.1,10.4,1.7,19.2-3.8,24.7C627.7,526.7,622.7,528.6,616.8,528.6
								L616.8,528.6z M580.8,465.1c-2.5,0-4.4,0.7-5.7,2c-2.2,2.2-2.6,6.2-1.1,11.1c1.7,5.6,5.5,11.6,10.7,16.8
								c7,7,15.7,11.5,22.2,11.5c2.5,0,4.4-0.7,5.7-2c5.4-5.4-0.7-19-9.6-27.9C595.9,469.6,587.2,465.1,580.8,465.1z" class="st10"></path>
						</g>
						<g>
							<path d="M577.6,453.1c10.7,0,24.8,6.8,36.9,18.8c17.5,17.5,24,39.4,14.4,49c-3,3-7.2,4.4-12.1,4.4
								c-10.7,0-24.8-6.8-36.9-18.8c-17.5-17.5-24-39.4-14.4-49C568.5,454.5,572.7,453.1,577.6,453.1 M606.8,509.8
								c3.3,0,6.1-0.9,8-2.9c6.3-6.3,2-20.9-9.6-32.5c-8-8-17.3-12.5-24.5-12.5c-3.3,0-6.1,0.9-8,2.9c-6.3,6.3-2,20.9,9.6,32.5
								C590.3,505.3,599.6,509.8,606.8,509.8 M577.6,446.6c-6.8,0-12.6,2.2-16.7,6.3c-6.4,6.4-8,16.3-4.6,27.9
								c3,10.3,9.8,21,19,30.2c13,13,28.5,20.7,41.5,20.7c6.8,0,12.6-2.2,16.7-6.3c6.4-6.4,8-16.3,4.6-27.9c-3-10.3-9.8-21-19-30.2
								C606.1,454.4,590.6,446.6,577.6,446.6L577.6,446.6z M606.8,503.3c-4.3,0-12.1-2.8-19.9-10.6c-9.9-9.9-12.3-20.6-9.6-23.3
								c0.9-0.9,2.3-1,3.5-1c4.3,0,12.1,2.8,19.9,10.6c4.8,4.8,8.4,10.4,9.9,15.5c1.1,3.6,0.9,6.6-0.3,7.8
								C609.4,503.1,607.9,503.3,606.8,503.3L606.8,503.3z" class="st1"></path>
						</g>
					</g>
					<g>
						<g>
							<path d="M521.7,542.6c-62.1,0-121.5-72.2-129.7-157.6c-4.6-48.5-0.1-84.6,13.9-110.3
								c24.5-44.9,72.6-48.6,115.8-48.6c43.3,0,91.4,3.8,115.7,48.6l0.8,1.5v0.1c13.2,25.5,17.5,61.1,13.3,108.7
								c-3.8,42.3-18.5,81.6-41.4,110.6C586,525.9,554.7,542.6,521.7,542.6z" class="st9"></path>
						</g>
						<g>
							<path d="M521.7,232.7c43.9,0,87.7,4.1,109.8,45.1c0,0,0,0,0,0c12.2,22.5,17.8,56.2,13.3,106.5
								C637.4,467.8,586.6,536,521.7,536c-57.7,0-115.1-68.2-123.1-151.6c-4.8-50.2,0.8-83.9,13.1-106.4
								C434,237.2,478,232.7,521.7,232.7 M521.7,219.4c-21,0-45.4,0.9-67.1,8c-24.8,8-42.7,22.4-54.5,44.1
								c-14.7,26.9-19.5,64.2-14.7,114.1c4.1,42.6,20.4,83.2,45.9,114.2c12.5,15.2,26.4,27.2,41.5,35.7c16.1,9.1,32.5,13.7,49,13.7
								c35,0,68.2-17.6,93.5-49.6c23.7-30,38.9-70.5,42.8-114.1c4.3-48,0-84.3-13.2-110.9v-0.1l-1.6-3
								c-11.8-21.8-29.6-36.3-54.4-44.3C567.4,220.4,543.9,219.4,521.7,219.4L521.7,219.4z" class="st1"></path>
						</g>
					</g>
					<g>
						<circle r="7.2" cy="348.5" cx="521.6" class="st11"></circle>
					</g>
					<g>
						<path d="M631.5,277.8C631.5,277.8,631.5,277.8,631.5,277.8c-12.8,13.4-34.6,22.3-59.3,22.3
							c-7.6,0-14.9-0.8-21.8-2.4c-19-4.3-38.8-4.3-57.8,0c-6.9,1.5-14.2,2.4-21.8,2.4c-24.7,0-46.4-8.8-59.2-22.2
							c22.2-40.7,66.2-45.2,110-45.2C565.6,232.7,609.4,236.8,631.5,277.8z" class="st1"></path>
					</g>
					<g>
						<path d="M368.8,83.7c-44.6,0-80.8,29.9-80.8,66.8c0,36.9,36.2,66.8,80.8,66.8s80.8-29.9,80.8-66.8
							C449.5,113.6,413.4,83.7,368.8,83.7z M386.7,189.6c-26.1,0-47.2-17.5-47.2-39.1c0-21.6,21.1-39.1,47.2-39.1
							s47.2,17.5,47.2,39.1C434,172.1,412.8,189.6,386.7,189.6z" class="st1"></path>
					</g>
					<g>
						<g>
							<ellipse ry="81.9" rx="103.5" cy="178.4" cx="521.6" class="st4"></ellipse>
						</g>
						<g>
							<path d="M521.6,99.8c55.4,0,100.3,35.2,100.3,78.6c0,43.4-44.9,78.6-100.3,78.6s-100.3-35.2-100.3-78.6
								C421.4,135,466.3,99.8,521.6,99.8 M521.6,93.3c-28.2,0-54.8,8.7-74.9,24.4c-20.5,16.1-31.9,37.7-31.9,60.7
								c0,23,11.3,44.6,31.9,60.7c20.1,15.7,46.7,24.4,74.9,24.4c28.2,0,54.8-8.7,74.9-24.4c20.5-16.1,31.9-37.7,31.9-60.7
								c0-23-11.3-44.6-31.9-60.7C576.5,102,549.9,93.3,521.6,93.3L521.6,93.3z" class="st1"></path>
						</g>
					</g>
					<g>
						<g>
							<path d="M542.3,277.6c-1.3,0-2.5-0.1-3.8-0.4c-7.7-1.4-11.6-5.8-13.5-9.2c-4.2-7.6-3.5-18.8,2.1-33.3
								c2.6-6.8,5.3-11.8,5.5-12l0.8-1.5l66.3-40.5l17.6-10.8l1.3-0.8l3.2-2l5.8-13.3l6.4,4.1c0,0,3.2,1.9,7.2,1.9
								c4.5,0,8.4-2.3,11.9-7.1c3-4.1,7.1-8.7,12.5-8.7c2.7,0,7.5,1.2,9.8,8.9c2.3,7.6,0,18.4-3.2,25.1c-0.7,1.5-1.5,2.8-2.3,3.9
								c1.9,1.6,3.4,3.9,4,6.4c0.5,1.9,0.5,3.8,0,5.8c-0.7,3-2.3,5.6-4.6,7.7l-0.1,0.1c-1.6,1.4-3.4,2.5-5.5,3.3
								c-1.2,0.5-2.5,0.9-3.7,1.1c0.1,0.4,0.1,0.8,0.2,1.3c0.4,4.8-2.5,9.1-6.9,10.6c-1.1,0.4-2.4,0.7-3.6,1
								c1.4,2.2,2.2,4.7,2.1,7.4l0,0.2c-0.1,1.8-0.6,3.7-1.5,5.5c-1.6,3.1-4,5.3-7,6.6l-0.1,0.1c-2.2,1-4.7,1.4-7.5,1.4
								c-1.1,0-2.3-0.1-3.5-0.2c0.3,1.6,0.3,3.2,0.1,4.9c-0.4,3.6-2.3,8.8-9,13.1l-0.8,0.5c-1.7,1-3.5,1.7-5.5,2.2l-0.7,0.1h0
								c-1.4,0.3-2.8,0.4-4.3,0.4c-4.5,0-9.1-1.2-13.2-2.7c-0.3,8.8-4.8,15.2-12.6,17.5l-0.5,0.1c-0.4,0.1-0.8,0.2-1.2,0.3
								c-1.2,0.2-2.5,0.4-3.7,0.4c-4.7,0-9.2-1.7-13.3-5.1c-1.9-1.5-3.5-3.2-4.9-4.9c-5.9,6.6-12.5,10.3-19.2,10.6
								C543.1,277.6,542.7,277.6,542.3,277.6z" class="st12"></path>
						</g>
						<g>
							<path d="M665.7,150.5c1.8,0,2.9,1.9,3.6,4.2c1.6,5.4,0,14.4-2.8,20.5c-1,2-2.1,3.7-3.6,4.9
								c-2.5,2.1-6.1,2.7-9.5,2.7c-4.3,0-8.2-1-8.7-1.1c0.2,0.3,1.5,1.7,3.8,2.9c0,0,0,0,0,0c0.3,0.2,0.7,0.3,1,0.5
								c0.5,0.2,1,0.4,1.6,0.5c1.2,0.3,2.6,0.6,4.2,0.6c0.9,0,1.9-0.1,2.9-0.3c0.6-0.1,1.2-0.2,1.9-0.4c0.5-0.1,1.1-0.2,1.6-0.2
								c2.8,0,5.3,1.9,6,4.5c0.2,0.8,0.2,1.7,0,2.7c-0.4,1.6-1.2,3.1-2.7,4.5c-0.9,0.8-2.1,1.6-3.7,2.2c-1.5,0.6-3,0.9-4.4,1
								c-0.3,0-0.6,0-0.9,0c-4.9,0-9-2.5-11.6-4.7c-1.7-1.4-2.8-2.7-3-2.9c0.1,0.2,0.5,1.3,1.3,2.7c1.6,3,4.7,7.6,9,9.7
								c1.3,0.6,2,1.8,2.1,3.1c0.1,1.6-0.7,3.4-2.5,4c-2.8,1-6.6,1.7-11.7,1.7c-2.3,0-4.8-0.1-7.6-0.5c0,0,13.6,6,13.4,13.3
								c0,0,0,0,0,0c0,0.9-0.3,1.8-0.8,2.7c-1,1.8-2.3,3-3.9,3.7c-1.4,0.6-3.1,0.9-4.9,0.9c-1.9,0-3.8-0.3-5.9-0.8h0
								c-2.5-0.6-5-1.5-7.4-2.4h0c-1.7-0.6-3.2-1.3-4.7-2c0.3,0.2,1.1,0.9,2.1,2c4.1,4.3,11.7,14.5,0.1,21.9
								c-0.3,0.2-0.5,0.3-0.8,0.5c-1.1,0.6-2.2,1.1-3.4,1.3h0c-1.2,0.3-2.4,0.4-3.6,0.4c-9.6,0-20.9-7-21.5-7.4
								c0.1,0.4,1.1,3.2,1.6,6.8c0.8,5.7,0.2,13.4-7.7,15.7c-0.4,0.1-0.7,0.2-1.1,0.3c-0.8,0.2-1.7,0.3-2.5,0.3
								c-3.5,0-6.6-1.6-9.2-3.7c-5.5-4.5-8.6-11.5-8.6-11.5s-1.5,2.8-4.1,6.1c-3.5,4.3-9,9.3-15.7,9.7c-0.3,0-0.5,0-0.8,0
								c-0.8,0-1.7-0.1-2.5-0.2c-15.7-2.9-11.4-21.5-6.6-33.8c2.5-6.4,5.1-11.2,5.1-11.2l64.8-39.6l17.6-10.8l1.3-0.8l5-3.1l3.6-8.2
								c0,0,4.6,2.9,10.7,2.9c5.2,0,11.5-2.1,17.1-9.7C661.7,152.1,664,150.5,665.7,150.5 M665.7,137.5c-8.4,0-14.2,6.5-17.7,11.4
								c-3.3,4.5-5.8,4.5-6.7,4.5c-1.9,0-3.7-0.9-3.7-0.9l-12.8-8.2l-6.1,13.9l-1.9,4.4l-1.5,0.9l-1.2,0.7l0,0l0,0l-17.6,10.8
								l-64.8,39.6l-2.9,1.8l-1.7,3c-0.1,0.2-3.1,5.6-5.8,12.8c-6.3,16.4-6.9,29.5-1.7,38.8c2.6,4.6,7.8,10.5,18,12.4
								c1.6,0.3,3.3,0.5,5,0.5c0.5,0,1,0,1.5,0c6.6-0.3,12.9-3,18.7-7.9c0.3,0.3,0.6,0.5,0.9,0.8c5.3,4.3,11.3,6.6,17.5,6.6
								c1.6,0,3.3-0.2,4.9-0.5c0.7-0.1,1.2-0.3,1.6-0.4l0.2,0l0.2-0.1l0.2-0.1c8-2.3,13.5-7.9,15.9-15.5c2.6,0.6,5.3,0.9,8.1,0.9
								c1.7,0,3.3-0.1,4.9-0.4h0.1l1.4-0.3c2.7-0.6,5.2-1.6,7.5-2.9l0.1,0l0.1,0l0.1-0.1l0.7-0.4l0.1,0l0.1-0.1
								c8.3-5.3,11-12,11.8-16.9c2.5-0.3,4.9-0.9,7.1-1.8l0.1-0.1l0.1-0.1c4.3-2,7.7-5.2,9.9-9.4l0-0.1l0-0.1
								c1.4-2.6,2.1-5.4,2.2-8.2l0-0.2v-0.1c0-1.1-0.1-2.3-0.3-3.5c4.6-2.5,7.7-7,8.5-12.1c2.6-1.1,4.9-2.5,7-4.3l0.1-0.1l0.1-0.1
								c3.3-3,5.5-6.8,6.5-11c0.7-3,0.7-6.1,0-8.9c-0.5-2-1.3-3.8-2.4-5.5c0.1-0.1,0.1-0.3,0.2-0.4l0-0.1l0-0.1
								c3.7-8,6.3-20.3,3.5-29.7C678,138.5,668.5,137.5,665.7,137.5L665.7,137.5z" class="st1"></path>
						</g>
					</g>
					<g class="st13">
						<path d="M667.8,192.5c-0.4,1.6-1.2,3.1-2.7,4.5c-0.9,0.8-2.1,1.6-3.7,2.2c-1.5,0.6-3,0.9-4.4,1
							c-3.5-2-7.9-3.9-12.6-4.7c-0.6-0.1-1.2-0.2-1.7-0.2c-2.8-0.3-5.6-0.1-8.4,0.8c-14.5,4.7-24.9-11.9-24.9-11.9l14.5-7
							c0,0,11.3,13.6,19,8.8c1.4-0.9,3.4-1.3,5.6-1.4c0,0,0,0,0,0c3-0.1,6.4,0.4,9.8,1.3c3.6,1,7,2.4,9.4,3.9
							C668,190.7,668,191.6,667.8,192.5z" class="st14"></path>
					</g>
					<g class="st13">
						<path d="M645.4,226.6C645.4,226.6,645.4,226.6,645.4,226.6c0,0.9-0.3,1.8-0.8,2.8c-1,1.8-2.3,3-3.9,3.7
							c-3,1.3-6.8,1.1-10.7,0.1h0c-2.1-1.3-4.6-2.2-7.4-2.4c0,0,0,0,0,0c-0.8-0.1-1.7-0.1-2.7,0c-1.3,0.1-2.6,0.4-3.9,0.9
							c-13,4.7-40.4-6.8-38.6-14.7c1.8-7.9,13.6-6.8,13.6-6.8s15.6,14,26,8.6C625.4,214.4,641.8,218.4,645.4,226.6z" class="st14"></path>
					</g>
					<g class="st13">
						<path d="M615.7,254.6L615.7,254.6c-10.2,2.3-24.4-6.5-25.2-7c0.1,0.4,1.1,3.2,1.6,6.8c-3.3-1.2-7.7-1.4-13.5,0.5
							c-19.8,6.6-43.1-14.5-33.8-32.6l10.2,2.4c0,0-10.6,19.7,10.2,19.9C584.4,244.8,616.1,240.5,615.7,254.6z" class="st14"></path>
					</g>
					<g>
						<path d="M609.4,191.9c1.2-2.6,2.5-4.5,3.9-5.7L609.4,191.9z" class="st15"></path>
					</g>
					<g>
						<path d="M649.6,185.1c-2.4-0.6-4.7-0.4-6.7,0.9c-9.3,6.2-21.1-7.7-29.6,0.2l7.4-10.8l3.9-5.7
							c0,0,0.9,0.8,2.4,1.8c4.8,3.5,15.6,10.4,21.1,6.9c4.3-2.7,12.3-1.3,18.4-3.2c-1,2-2.1,3.7-3.6,4.9c-5.7,4.7-17.3,1.8-18.2,1.6
							C645,182,646.6,183.8,649.6,185.1z" class="st15"></path>
					</g>
					<g>
						<path d="M667.8,192.5c-0.4,1.6-1.2,3.1-2.7,4.5c-3.8-4.4-8.9-9.4-13.9-11.4c2.4,0.7,5.4,0.9,9-0.1
							C664.6,184.4,668.9,188.1,667.8,192.5z" class="st15"></path>
					</g>
					<g>
						<path d="M597.6,204.8c0,0-2.7,13.3,11.8,11.6c14.5-1.7,24.9,5.8,24.9,5.8s-11.8-14.6-22.6-12.4
							s-7.6-11.6-7.6-11.6L597.6,204.8z" class="st15"></path>
					</g>
					<g>
						<path d="M583.3,270.3c-4.6,0.9-8.5-0.8-11.7-3.4c-1-6.4-3.2-13.6-7.9-13.5c-8.4,0.1-23-7.3-17.7-26.1l7.1-1.1
							c0,0-9.3,16.1,1.3,17.4C564.2,244.8,586.7,259.9,583.3,270.3z" class="st15"></path>
					</g>
					<g>
						<path d="M653.8,208.1c-8.2-5.7-18.9-9.9-27.8-2.4c-10.8,9.1-18.6-6.6-22.9-19.5l18.9-11.5
							c1.4,10.3,6.1,20.6,19.4,17.9c0,0,3.6,9.3,10.4,12.5C653.1,205.6,653.7,206.8,653.8,208.1z" class="st1"></path>
					</g>
					<g>
						<path d="M665.1,197c-0.9,0.8-2.1,1.6-3.7,2.2c-11.1,4.5-20.1-6.7-20.1-6.7C649.5,190.9,657.7,193.1,665.1,197z" class="st1"></path>
					</g>
					<g>
						<path d="M617.7,228.9c1.3,1.2,16.6,14.7,2.2,23.9c-2.9-10-10.4-19.9-29.4-5.3c-31.6,24.3-21.6-35-21.6-35
							l17.5-7.7c0,0,1,23.5,21.4,19.9c11.7-2.1,24.2,2.1,32.9,8.4C634.7,235.8,624.8,231.9,617.7,228.9z" class="st1"></path>
					</g>
					<g>
						<path d="M558.9,261.4c-3.5,4.3-9,9.3-15.7,9.7c3.3-3.3,5.3-7,1.6-9.6c-5.3-3.8-10.9-15.4-11.5-24.4
							c-0.4-5.4,0.9-9.8,5.1-11.2c11.2-3.8,11.7,3.5,11.7,3.5s-12.7,8.6-5.3,15C548.2,247.2,554.7,254.4,558.9,261.4z" class="st1"></path>
					</g>
					<g>
						<ellipse ry="91.1" rx="116.2" cy="144" cx="521.6" class="st1"></ellipse>
					</g>
					<g>
						<g>
							<g>
								<path d="M500.7,468c0,0,1.6-14.4,11-14.4c6.8,0,10,7.2,10,7.2s3.4-7.2,10-7.2c8.9,0,11,14.4,11,14.4H500.7z" class="st16"></path>
							</g>
							<g>
								<path d="M500.7,466.5c0,0,6.2,15.5,22,15c15.9-0.5,19.9-15,19.9-15H500.7z" class="st16"></path>
							</g>
						</g>
						<g>
							<path d="M538.9,468.9c-0.1,0-0.2,0-0.3,0l-33.7-0.5c-3.1,0-6-0.7-8.3-1.7l-1.5-0.7c-0.6-0.3-0.9-1-0.6-1.6
								c0.3-0.6,1-0.9,1.6-0.6l1.5,0.7c2,0.9,4.5,1.5,7.3,1.5l33.7,0.5c2.7,0,5.4-0.4,7.4-1.3l1.2-0.5c0.6-0.3,1.3,0,1.6,0.6
								s0,1.3-0.6,1.6l-1.2,0.5C544.7,468.4,541.8,468.9,538.9,468.9z" class="st1"></path>
						</g>
						<g>
							<g>
								
									<ellipse ry="2.5" rx="2.1" cy="465.6" cx="496.2" class="st1" transform="matrix(0.4164 -0.9092 0.9092 0.4164 -133.6648 722.8726)"></ellipse>
							</g>
							<g>
								
									<ellipse ry="2.1" rx="2.5" cy="465.6" cx="547" class="st1" transform="matrix(0.9092 -0.4164 0.4164 0.9092 -144.1728 270.0559)"></ellipse>
							</g>
						</g>
					</g>
					<g>
						<g>
							<ellipse ry="18.4" rx="19.6" cy="431.3" cx="451.1" class="st17"></ellipse>
						</g>
						<g>
							<ellipse ry="18.4" rx="19.6" cy="431.3" cx="592.1" class="st17"></ellipse>
						</g>
					</g>
					<g>
						<g>
							<path d="M493.3,368.2c-6.2-2.8-12.3-5.3-18.5-7.5c-6.2-2.2-12.4-4.1-18.7-5.5c-6.3-1.4-12.7-2.4-19.1-2.9
								c-6.5-0.5-13-0.3-19.8,0.1c6.1-3,12.9-4.7,19.8-5.2c6.9-0.5,13.9,0.1,20.6,1.6c6.7,1.5,13.2,4,19.3,7.2
								C483,359.3,488.7,363.2,493.3,368.2z" class="st1"></path>
						</g>
						<g>
							<path d="M549.9,368.2c4.7-5,10.4-8.9,16.4-12.1c6.1-3.2,12.5-5.7,19.3-7.2c6.7-1.5,13.7-2.2,20.6-1.6
								c6.9,0.5,13.7,2.2,19.8,5.2c-6.8-0.4-13.3-0.6-19.8-0.1c-6.5,0.4-12.8,1.4-19.1,2.9c-6.3,1.4-12.5,3.3-18.7,5.5
								C562.2,362.9,556.1,365.4,549.9,368.2z" class="st1"></path>
						</g>
						<g>
							<circle r="16.1" cy="388.1" cx="455.9" class="st1"></circle>
						</g>
						<g>
							<circle r="16.1" cy="388.1" cx="588" class="st1"></circle>
						</g>
					</g>
					<g>
						<path d="M386.1,415.9c-0.2,0-0.3,0-0.5,0c-1.8-0.3-3-1.9-2.7-3.7c3.3-22.6-14.7-31.5-15.5-31.8
							c-1.6-0.8-2.3-2.7-1.5-4.3c0.8-1.6,2.7-2.3,4.3-1.5c0.2,0.1,23.1,11.2,19.1,38.6C389,414.7,387.7,415.9,386.1,415.9z" class="st1"></path>
					</g>
					<g>
						<path d="M658.5,415.9c-1.6,0-3-1.2-3.2-2.8c-4-27.4,18.9-38.5,19.1-38.6c1.6-0.8,3.6-0.1,4.3,1.6
							c0.8,1.6,0.1,3.5-1.5,4.3c-0.8,0.4-18.8,9.3-15.5,31.8c0.3,1.8-1,3.4-2.7,3.7C658.8,415.9,658.7,415.9,658.5,415.9z" class="st1"></path>
					</g>
					<g>
						<g>
							<g>
								<path d="M384.5,445.2c-5.6,0-10.1-4.6-10.1-10.1s4.6-10.1,10.1-10.1s10.1,4.6,10.1,10.1
									S390.1,445.2,384.5,445.2z" class="st4"></path>
							</g>
							<g>
								<g>
									<path d="M384.5,428.1c3.8,0,6.9,3.1,6.9,6.9c0,3.8-3.1,6.9-6.9,6.9s-6.9-3.1-6.9-6.9
										C377.6,431.2,380.7,428.1,384.5,428.1 M384.5,421.6c-7.4,0-13.4,6-13.4,13.4s6,13.4,13.4,13.4s13.4-6,13.4-13.4
										S391.9,421.6,384.5,421.6L384.5,421.6z" class="st1"></path>
								</g>
							</g>
						</g>
						<g>
							<g>
								<path d="M384.5,465.3c-5.6,0-10.1-4.6-10.1-10.1s4.6-10.1,10.1-10.1s10.1,4.6,10.1,10.1
									S390.1,465.3,384.5,465.3z" class="st4"></path>
							</g>
							<g>
								<g>
									<path d="M384.5,448.3c3.8,0,6.9,3.1,6.9,6.9c0,3.8-3.1,6.9-6.9,6.9s-6.9-3.1-6.9-6.9
										C377.6,451.4,380.7,448.3,384.5,448.3 M384.5,441.8c-7.4,0-13.4,6-13.4,13.4c0,7.4,6,13.4,13.4,13.4s13.4-6,13.4-13.4
										C397.9,447.8,391.9,441.8,384.5,441.8L384.5,441.8z" class="st1"></path>
								</g>
							</g>
						</g>
						<g>
							<g>
								<path d="M384.5,495.9c-7.8,0-10.1-18.5-10.1-20.5c0-5.6,4.6-10.1,10.1-10.1s10.1,4.6,10.1,10.1
									C394.6,477.4,392.3,495.9,384.5,495.9z" class="st18"></path>
							</g>
							<g>
								<g>
									<path d="M384.5,468.5c3.8,0,6.9,3.1,6.9,6.9c0,3.8-3.1,17.2-6.9,17.2s-6.9-13.4-6.9-17.2
										C377.6,471.6,380.7,468.5,384.5,468.5 M384.5,462c-7.4,0-13.4,6-13.4,13.4c0,2.8,1,7.9,2.3,12.1
										c0.9,2.9,3.8,11.7,11.1,11.7s10.1-8.8,11.1-11.7c1.4-4.2,2.3-9.2,2.3-12.1C397.9,468,391.9,462,384.5,462L384.5,462z" class="st1"></path>
								</g>
							</g>
						</g>
					</g>
					<g>
						<g>
							<g>
								<path d="M664.2,445.2c-5.6,0-10.1-4.6-10.1-10.1s4.6-10.1,10.1-10.1c5.6,0,10.1,4.6,10.1,10.1
									S669.8,445.2,664.2,445.2z" class="st4"></path>
							</g>
							<g>
								<g>
									<path d="M664.2,428.1c3.8,0,6.9,3.1,6.9,6.9c0,3.8-3.1,6.9-6.9,6.9c-3.8,0-6.9-3.1-6.9-6.9
										C657.3,431.2,660.4,428.1,664.2,428.1 M664.2,421.6c-7.4,0-13.4,6-13.4,13.4s6,13.4,13.4,13.4s13.4-6,13.4-13.4
										S671.6,421.6,664.2,421.6L664.2,421.6z" class="st1"></path>
								</g>
							</g>
						</g>
						<g>
							<g>
								<path d="M664.2,465.3c-5.6,0-10.1-4.6-10.1-10.1s4.6-10.1,10.1-10.1c5.6,0,10.1,4.6,10.1,10.1
									S669.8,465.3,664.2,465.3z" class="st4"></path>
							</g>
							<g>
								<g>
									<path d="M664.2,448.3c3.8,0,6.9,3.1,6.9,6.9c0,3.8-3.1,6.9-6.9,6.9c-3.8,0-6.9-3.1-6.9-6.9
										C657.3,451.4,660.4,448.3,664.2,448.3 M664.2,441.8c-7.4,0-13.4,6-13.4,13.4c0,7.4,6,13.4,13.4,13.4s13.4-6,13.4-13.4
										C677.6,447.8,671.6,441.8,664.2,441.8L664.2,441.8z" class="st1"></path>
								</g>
							</g>
						</g>
						<g>
							<g>
								<path d="M664.2,495.9c-7.8,0-10.1-18.5-10.1-20.5c0-5.6,4.6-10.1,10.1-10.1c5.6,0,10.1,4.6,10.1,10.1
									C674.4,477.4,672,495.9,664.2,495.9z" class="st18"></path>
							</g>
							<g>
								<g>
									<path d="M664.2,468.5c3.8,0,6.9,3.1,6.9,6.9c0,3.8-3.1,17.2-6.9,17.2c-3.8,0-6.9-13.4-6.9-17.2
										C657.3,471.6,660.4,468.5,664.2,468.5 M664.2,462c-7.4,0-13.4,6-13.4,13.4c0,2.8,1,7.9,2.3,12.1
										c0.9,2.9,3.8,11.7,11.1,11.7s10.1-8.8,11.1-11.7c1.4-4.2,2.3-9.2,2.3-12.1C677.6,468,671.6,462,664.2,462L664.2,462z" class="st1"></path>
								</g>
							</g>
						</g>
					</g>
					<g>
						
							<ellipse ry="2.6" rx="5.8" cy="163.9" cx="663.4" class="st15" transform="matrix(0.3119 -0.9501 0.9501 0.3119 300.7501 743.1403)"></ellipse>
					</g>
					<g>
						
							<ellipse ry="2.6" rx="4.2" cy="170.4" cx="656.4" class="st15" transform="matrix(8.482096e-02 -0.9964 0.9964 8.482096e-02 430.9335 810.0571)"></ellipse>
					</g>
				</g>
				<g>
					<g>
						<g>
							<rect height="235.3" width="163.4" class="st19" y="601.6" x="439.3"></rect>
						</g>
						<g>
							<path d="M597.3,607v224.4H444.7V607H597.3 M608.1,596.2h-10.9H444.7h-10.9V607v224.4v10.9h10.9h152.5h10.9v-10.9
								V607V596.2L608.1,596.2z" class="st1"></path>
						</g>
					</g>
					<g>
						<g>
							<rect height="42.3" width="180.6" class="st20" y="596" x="430.6"></rect>
							<path d="M616.6,643.7H425.2v-53.1h191.4V643.7z M436,632.9h169.8v-31.5H436V632.9z" class="st1"></path>
						</g>
						<g>
							<g>
								<path d="M423.2,651.3h-2c-7,0-12.7-5.7-12.7-12.7v-43c0-7,5.7-12.7,12.7-12.7h2c7,0,12.7,5.7,12.7,12.7v43
									C435.9,645.6,430.2,651.3,423.2,651.3z" class="st20"></path>
								<path d="M423.2,656.7h-2c-10,0-18.1-8.1-18.1-18.1v-43c0-10,8.1-18.1,18.1-18.1h2c10,0,18.1,8.1,18.1,18.1v43
									C441.3,648.6,433.2,656.7,423.2,656.7z M421.2,588.3c-4,0-7.3,3.3-7.3,7.3v43c0,4,3.3,7.3,7.3,7.3h2c4,0,7.3-3.3,7.3-7.3
									v-43c0-4-3.3-7.3-7.3-7.3H421.2z" class="st1"></path>
							</g>
							<g>
								<path d="M620.7,651.3h-2c-7,0-12.7-5.7-12.7-12.7v-43c0-7,5.7-12.7,12.7-12.7h2c7,0,12.7,5.7,12.7,12.7v43
									C633.4,645.6,627.7,651.3,620.7,651.3z" class="st20"></path>
								<path d="M620.7,656.7h-2c-10,0-18.1-8.1-18.1-18.1v-43c0-10,8.1-18.1,18.1-18.1h2c10,0,18.1,8.1,18.1,18.1v43
									C638.8,648.6,630.7,656.7,620.7,656.7z M618.8,588.3c-4,0-7.3,3.3-7.3,7.3v43c0,4,3.3,7.3,7.3,7.3h2c4,0,7.3-3.3,7.3-7.3
									v-43c0-4-3.3-7.3-7.3-7.3H618.8z" class="st1"></path>
							</g>
						</g>
					</g>
					<g>
						<g>
							<rect height="42.3" width="180.6" class="st20" y="817.1" x="430.6"></rect>
							<path d="M616.6,864.8H425.2v-53.1h191.4V864.8z M436,854h169.8v-31.5H436V854z" class="st1"></path>
						</g>
						<g>
							<g>
								<path d="M423.2,872.5h-2c-7,0-12.7-5.7-12.7-12.7v-43c0-7,5.7-12.7,12.7-12.7h2c7,0,12.7,5.7,12.7,12.7v43
									C435.9,866.8,430.2,872.5,423.2,872.5z" class="st20"></path>
								<path d="M423.2,877.9h-2c-10,0-18.1-8.1-18.1-18.1v-43c0-10,8.1-18.1,18.1-18.1h2c10,0,18.1,8.1,18.1,18.1v43
									C441.3,869.8,433.2,877.9,423.2,877.9z M421.2,809.5c-4,0-7.3,3.3-7.3,7.3v43c0,4,3.3,7.3,7.3,7.3h2c4,0,7.3-3.3,7.3-7.3
									v-43c0-4-3.3-7.3-7.3-7.3H421.2z" class="st1"></path>
							</g>
							<g>
								<path d="M620.7,872.5h-2c-7,0-12.7-5.7-12.7-12.7v-43c0-7,5.7-12.7,12.7-12.7h2c7,0,12.7,5.7,12.7,12.7v43
									C633.4,866.8,627.7,872.5,620.7,872.5z" class="st20"></path>
								<path d="M620.7,877.9h-2c-10,0-18.1-8.1-18.1-18.1v-43c0-10,8.1-18.1,18.1-18.1h2c10,0,18.1,8.1,18.1,18.1v43
									C638.8,869.8,630.7,877.9,620.7,877.9z M618.8,809.5c-4,0-7.3,3.3-7.3,7.3v43c0,4,3.3,7.3,7.3,7.3h2c4,0,7.3-3.3,7.3-7.3
									v-43c0-4-3.3-7.3-7.3-7.3H618.8z" class="st1"></path>
							</g>
						</g>
					</g>
				</g>
				<g>
					<g>
						<g>
							<g>
								<path d="M433.2,678.4c-2,0-4.1-0.2-6.1-0.5l-4.6-0.7v-76.6l4.6-0.7c2-0.3,4-0.5,6.1-0.5
									c21.8,0,39.5,17.7,39.5,39.5S454.9,678.4,433.2,678.4z" class="st9"></path>
							</g>
							<g>
								<g>
									<path d="M433.2,604.8c18.8,0,34.1,15.3,34.1,34.1c0,18.8-15.3,34.1-34.1,34.1c-1.8,0-3.5-0.1-5.2-0.4l0-67.4
										C429.6,605,431.4,604.8,433.2,604.8 M433.2,594.1c-2.3,0-4.6,0.2-6.9,0.5l-9.1,1.4v9.3l0,67.4v9.3l9.1,1.4
										c2.3,0.3,4.6,0.5,6.9,0.5c24.7,0,44.9-20.1,44.9-44.9c0-12-4.7-23.3-13.1-31.7S445.1,594.1,433.2,594.1L433.2,594.1z" class="st1"></path>
								</g>
							</g>
						</g>
						<g>
							<g>
								<path d="M391.9,724.3c-3,0-5.4-2.4-5.4-5.4V604.8c0-3,2.4-5.4,5.4-5.4h34.7c3,0,5.4,2.4,5.4,5.4v114.1
									c0,3-2.4,5.4-5.4,5.4H391.9z" class="st5"></path>
							</g>
							<g>
								<path d="M426.6,604.8l0,114.1h-34.7l0-114.1H426.6 M426.6,594.1h-34.7c-6,0-10.8,4.8-10.8,10.8l0,114.1
									c0,6,4.8,10.8,10.8,10.8l34.7,0c2.9,0,5.6-1.1,7.6-3.2c2-2,3.2-4.8,3.2-7.6l0-114.1c0-2.9-1.1-5.6-3.2-7.6
									C432.2,595.2,429.5,594.1,426.6,594.1L426.6,594.1z M426.6,615.6L426.6,615.6L426.6,615.6L426.6,615.6z" class="st1"></path>
							</g>
						</g>
						<g>
							<g>
								<path d="M391.5,823.3c-68,0-123.3-55.3-123.3-123.3v-34.1c0-36.6,29.8-66.4,66.4-66.4h56.9
									c1.4,0,2.8,0.6,3.8,1.6c1,1,1.6,2.4,1.6,3.8l0,213C396.9,820.8,394.4,823.3,391.5,823.3z" class="st5"></path>
							</g>
							<g>
								<path d="M334.5,604.8l56.9,0l0,213h0c-65.1,0-117.9-52.8-117.9-117.9v-34.1
									C273.5,632.1,300.8,604.8,334.5,604.8 M334.5,594.1c-39.6,0-71.8,32.2-71.8,71.8v34.1c0,34.4,13.4,66.7,37.7,91
									c24.3,24.3,56.6,37.7,91,37.7c6,0,10.8-4.8,10.8-10.8l0-213c0-2.9-1.1-5.6-3.2-7.6c-2-2-4.8-3.2-7.6-3.2H334.5L334.5,594.1z" class="st1"></path>
							</g>
						</g>
					</g>
					<g>
						<g>
							<g>
								<path d="M608.8,678.4c-21.8,0-39.5-17.7-39.5-39.5s17.7-39.5,39.5-39.5c2,0,4.1,0.2,6.1,0.5l4.6,0.7v76.6
									l-4.6,0.7C612.9,678.3,610.9,678.4,608.8,678.4z" class="st9"></path>
							</g>
							<g>
								<g>
									<path d="M608.8,604.8c1.8,0,3.5,0.1,5.2,0.4v67.4c-1.7,0.3-3.5,0.4-5.2,0.4c-18.8,0-34.1-15.3-34.1-34.1
										C574.7,620.1,590,604.8,608.8,604.8 M608.8,594.1c-24.7,0-44.9,20.1-44.9,44.9s20.1,44.9,44.9,44.9c2.3,0,4.6-0.2,6.9-0.5
										l9.1-1.4v-9.3v-67.4V596l-9.1-1.4C613.4,594.2,611.1,594.1,608.8,594.1L608.8,594.1z" class="st1"></path>
								</g>
							</g>
						</g>
						<g>
							<g>
								<path d="M615.4,724.3c-3,0-5.4-2.4-5.4-5.4V604.8c0-3,2.4-5.4,5.4-5.4h34.7c3,0,5.4,2.4,5.4,5.4v114.1
									c0,3-2.4,5.4-5.4,5.4H615.4z" class="st5"></path>
							</g>
							<g>
								<path d="M650.1,604.8v114.1h-34.7V604.8H650.1 M650.1,594.1h-34.7c-6,0-10.8,4.8-10.8,10.8v114.1
									c0,6,4.8,10.8,10.8,10.8h34.7c6,0,10.8-4.8,10.8-10.8V604.8C660.8,598.9,656,594.1,650.1,594.1L650.1,594.1z" class="st1"></path>
							</g>
						</g>
						<g>
							<g>
								<path d="M650.5,823.3c-3,0-5.4-2.4-5.4-5.4l0-213c0-1.4,0.6-2.8,1.6-3.8c1-1,2.4-1.6,3.8-1.6h56.9
									c36.6,0,66.4,29.8,66.4,66.4v34.1C773.8,767.9,718.5,823.3,650.5,823.3z" class="st5"></path>
							</g>
							<g>
								<path d="M707.5,604.8c33.7,0,61,27.3,61,61v34.1c0,65.1-52.8,117.9-117.9,117.9h0v-213H707.5 M707.5,594.1
									h-56.9c-6,0-10.8,4.8-10.8,10.8v213c0,6,4.8,10.8,10.8,10.8c34.4,0,66.7-13.4,91-37.7c24.3-24.3,37.7-56.6,37.7-91v-34.1
									C779.2,626.3,747,594.1,707.5,594.1L707.5,594.1z" class="st1"></path>
							</g>
						</g>
					</g>
				</g>
			</g>
		</g>
	</g>
</g>
</svg>
