<svg xml:space="preserve" style="enable-background:new 0 0 1024 1024;" viewBox="0 0 1024 1024" y="0px" x="0px" xmlns:xlink="http://www.w3.org/1999/xlink" xmlns="http://www.w3.org/2000/svg" id="图层_1" version="1.1">
<style type="text/css">
	.st0{fill:#FF7950;}
	.st1{fill:#381818;}
	.st2{clip-path:url(#SVGID_2_);}
	.st3{fill:#FCC25B;}
	.st4{fill:#F4A462;stroke:#381818;stroke-width:10.4219;stroke-miterlimit:10;}
	.st5{fill:#FFAEAE;}
	.st6{fill:#F44D79;}
	.st7{fill:#F4CABD;}
	.st8{fill:#F94B2B;}
	.st9{fill:#F94B2B;stroke:#381818;stroke-width:15.2597;stroke-miterlimit:10;}
	.st10{fill:#F2B53B;}
	.st11{fill:#FFAEAE;stroke:#381818;stroke-width:10.2599;stroke-linejoin:round;stroke-miterlimit:10;}
	.st12{fill:#E4473B;}
	.st13{fill:none;stroke:#381818;stroke-width:2.8612;stroke-linecap:round;stroke-linejoin:round;stroke-miterlimit:10;}
	.st14{opacity:0.72;}
	.st15{fill:#ED8A77;}
	.st16{fill:#80D198;stroke:#381818;stroke-width:7.6299;stroke-miterlimit:10;}
	.st17{fill:#E4F7B5;stroke:#381818;stroke-width:7.6299;stroke-miterlimit:10;}
	.st18{fill:#9B5E4E;}
	.st19{fill:#F4A462;stroke:#381818;stroke-width:10.5882;stroke-miterlimit:10;}
	.st20{fill:#D6CCC9;}
	.st21{fill:#FCFCFC;}
	.st22{fill:#E8DA8B;}
</style>
<g>
	<g>
		<path d="M368.9,941.9c-60.3,0-111.3-44.3-120-103.5c-13.9-4.1-37-13.1-56.5-31.4c-25.2-23.8-37.4-55.9-36.1-95.5
			l0-0.3l0-0.3c0.1-0.8,11.5-80.7-26.7-117.4l-3.8-3.7l3.8-3.7c38.3-36.7,26.9-116.6,26.7-117.4l0-0.3l0-0.3
			c-1.3-39.6,10.9-71.7,36.1-95.5c19.5-18.3,42.6-27.4,56.5-31.5c8.5-59.5,59.6-104,120.1-104h285.6c60.5,0,111.6,44.5,120.1,104
			c13.9,4.1,37,13.1,56.5,31.5c25.2,23.8,37.4,55.9,36.1,95.5l0,0.3l0,0.3c-0.1,0.8-11.5,80.7,26.7,117.4l3.8,3.7l-3.8,3.7
			c-38.2,36.7-26.9,116.6-26.7,117.4l0,0.3l0,0.3c1.3,39.6-10.9,71.7-36.1,95.5c-19.5,18.3-42.6,27.4-56.5,31.4
			c-8.7,59.3-59.7,103.5-120,103.5H368.9z" class="st0"></path>
		<path d="M654.6,242.2c59.7,0,108.9,45,115.5,102.9c28,7.5,94.9,34.7,92.1,122.8c0,0-12.4,82.9,28.3,121.8
			c-40.6,39-28.3,121.8-28.3,121.8C865,799.7,798,826.9,770,834.4c-6.8,57.7-55.9,102.4-115.5,102.4H368.9
			c-59.5,0-108.6-44.7-115.5-102.4c-28-7.5-95-34.7-92.2-122.8c0,0,12.4-82.9-28.3-121.8c40.6-39,28.3-121.8,28.3-121.8
			c-2.8-88.1,64.1-115.3,92.1-122.8c6.6-57.9,55.8-102.9,115.5-102.9H654.6 M654.6,232.1H368.9c-31.2,0-61.2,11.5-84.4,32.3
			c-21.3,19.1-35.4,44.8-40.2,72.8c-16.2,5.1-37.2,14.5-55.5,31.7c-12,11.3-21.3,24.7-27.6,39.8c-7.4,17.6-10.8,37.6-10.1,59.5
			l0,0.6l0.1,0.6c0.1,0.8,11.1,78.2-25.2,113l-7.6,7.3l7.6,7.3c36.3,34.8,25.4,112.3,25.2,113l-0.1,0.6l0,0.6
			c-0.7,22,2.7,42,10.1,59.6c6.3,15.1,15.6,28.5,27.7,39.8c18.3,17.2,39.3,26.6,55.5,31.7C254.8,902.4,307.2,947,368.9,947h285.6
			c61.7,0,114.1-44.5,124.6-104.7c16.2-5.1,37.2-14.5,55.5-31.7c12-11.3,21.3-24.7,27.7-39.8c7.4-17.6,10.8-37.6,10.1-59.6l0-0.6
			l-0.1-0.6c-0.1-0.8-11.1-78.2,25.2-113l7.6-7.3l-7.6-7.3c-18.7-17.9-24.6-47.4-26.3-69c-1.9-24.2,1-43.8,1-44l0.1-0.6l0-0.6
			c0.7-21.9-2.7-42-10.1-59.5c-6.3-15.1-15.6-28.4-27.6-39.8c-18.3-17.2-39.3-26.6-55.5-31.7c-4.8-28-18.9-53.6-40.2-72.8
			C715.8,243.6,685.8,232.1,654.6,232.1L654.6,232.1z" class="st1"></path>
	</g>
	<g>
		<defs>
			<path d="M890.5,589.7c-40.6-39-28.3-121.8-28.3-121.8c2.8-88.1,153.8-122.9,125.8-130.4
				c-2.7-23.6,31-58.2,16.4-75.3c27.2-33.1-218.3-51.7-218.3-93.9C786.1,50.5,663.3-45,511.8-45S237.6,50.5,237.6,168.3
				c0,42.2-117,83.5-89.8,116.6c-14.6,17.1-25.6,29.1-28.3,52.6c-28,7.5,39.1,42.3,41.9,130.4c0,0,12.4,82.9-28.3,121.8
				c40.6,39,28.3,121.8,28.3,121.8c-2.8,88.1,64.2,115.3,92.2,122.8c6.8,57.7,55.9,102.4,115.5,102.4h285.6
				c59.5,0,108.6-44.7,115.5-102.4c28-7.5,95-34.7,92.2-122.8C862.3,711.6,849.9,628.7,890.5,589.7z" id="SVGID_1_"></path>
		</defs>
		<clipPath id="SVGID_2_">
			<use style="overflow:visible;" xlink:href="#SVGID_1_"></use>
		</clipPath>
		<g class="st2">
			<g>
				<g>
					<rect height="227.3" width="157.9" class="st3" y="681.6" x="424.5"></rect>
					<path d="M577.2,686.9v216.8H429.8V686.9H577.2 M587.7,676.4h-10.5H429.8h-10.5v10.5v216.8v10.5h10.5h147.4h10.5
						v-10.5V686.9V676.4L587.7,676.4z" class="st1"></path>
				</g>
				<g>
					<rect height="40.9" width="174.5" class="st4" y="676.2" x="416.1"></rect>
					<g>
						<path d="M408.6,729.7h-1.1c-7,0-12.7-5.7-12.7-12.7v-40.7c0-7,5.7-12.7,12.7-12.7h1.1c7,0,12.7,5.7,12.7,12.7V717
							C421.3,724,415.6,729.7,408.6,729.7z" class="st4"></path>
						<path d="M599.4,729.7h-1.1c-7,0-12.7-5.7-12.7-12.7v-40.7c0-7,5.7-12.7,12.7-12.7h1.1c7,0,12.7,5.7,12.7,12.7V717
							C612.1,724,606.4,729.7,599.4,729.7z" class="st4"></path>
					</g>
				</g>
				<g>
					<rect height="40.9" width="174.5" class="st4" y="889.9" x="416.1"></rect>
					<g>
						<path d="M408.6,943.4h-1.1c-7,0-12.7-5.7-12.7-12.7V890c0-7,5.7-12.7,12.7-12.7h1.1c7,0,12.7,5.7,12.7,12.7v40.7
							C421.3,937.7,415.6,943.4,408.6,943.4z" class="st4"></path>
						<path d="M599.4,943.4h-1.1c-7,0-12.7-5.7-12.7-12.7V890c0-7,5.7-12.7,12.7-12.7h1.1c7,0,12.7,5.7,12.7,12.7v40.7
							C612.1,937.7,606.4,943.4,599.4,943.4z" class="st4"></path>
					</g>
				</g>
			</g>
			<g>
				<g>
					<g>
						<g>
							<g>
								<path d="M368,559.5l1.7-1.5c39.2-34.6,89.6-53.6,141.9-53.6c52.3,0,102.7,19,141.9,53.6l1.7,1.5v69.3l-8.5-7.5
									c-37.3-32.9-85.3-51-135.1-51s-97.7,18.1-135.1,51l-8.5,7.5V559.5z" class="st5"></path>
								<path d="M511.6,509.5c49.5,0,98.9,17.4,138.5,52.3c0,18.5,0,37.1,0,55.6c-39.6-34.9-89-52.3-138.5-52.3
									s-98.9,17.4-138.5,52.3c0-18.5,0-37.1,0-55.6C412.7,527,462.2,509.5,511.6,509.5 M511.6,499.3
									c-53.5,0-105.1,19.5-145.3,54.9l-3.5,3.1v4.6v55.6v22.7l17-15c36.4-32.1,83.2-49.8,131.7-49.8s95.3,17.7,131.7,49.8l17,15
									v-22.7v-55.6v-4.6l-3.5-3.1C616.7,518.8,565.1,499.3,511.6,499.3L511.6,499.3z" class="st1"></path>
							</g>
							<g>
								<path d="M284.4,1022.1l15.9-128.3l2.1-16.8l17.9-144.8c1.4-11.2,3.7-22.1,6.7-32.4c6.9-23.6,17.8-45.5,32.4-65
									c9.1-12.2,19.5-23.2,30.9-32.7c0.5-0.5,1-0.9,1.5-1.3c1.4-1.1,2.8-2.3,4.3-3.5c1.4-1.1,2.9-2.2,4.6-3.5
									c32.9-24.3,71.2-37.1,110.9-37.1c42.2,0,84,15.1,118,42.6h0l1.4,1.1c1.5,1.2,3,2.5,4.4,3.7c0.8,0.7,1.5,1.3,2.3,2
									c0.2,0.1,0.4,0.3,0.6,0.6c12.2,11.1,22.9,23.6,31.9,37.1c2.8,4.2,5.5,8.6,8,13c13.1,23.2,21.4,48.5,24.7,75.3l1.6,12.6
									l34.4,277.3H284.4z" class="st6"></path>
								<g>
									<path d="M511.6,561.9c42.7,0,83.4,15.7,116.1,42.5c0,0,0.1,0.1,0.2,0.1c1.4,1.2,2.9,2.4,4.3,3.6
										c0.8,0.7,1.4,1.3,2.2,1.9c0.2,0.1,0.3,0.3,0.5,0.4c11.8,10.7,22.3,22.8,31.2,36.3c2.7,4.1,5.3,8.3,7.7,12.6
										c12.4,21.9,20.8,46.6,24.1,73.5l1.6,12.6l33.6,271.5H290.2l15.1-122.5l2.1-16.8l10.6-85.4l7.4-59.5
										c1.4-10.9,3.5-21.4,6.5-31.6c6.8-23.5,17.7-44.8,31.6-63.4c8.9-11.8,19-22.6,30.2-31.9c0.5-0.4,0.9-0.8,1.4-1.2
										c1.4-1.1,2.7-2.3,4.2-3.3c1.5-1.2,3-2.3,4.5-3.4C434.8,575,472.5,561.9,511.6,561.9 M511.6,551.6c-20.4,0-40.7,3.4-60.3,10
										c-19.1,6.5-37.2,16-53.7,28.2c-1.7,1.3-3.3,2.4-4.7,3.6c-1.5,1.2-3,2.4-4.4,3.5c-0.5,0.4-1,0.8-1.6,1.4
										c-11.6,9.8-22.3,21-31.6,33.5c-15,20-26.2,42.5-33.3,66.7c-3.1,10.6-5.4,21.7-6.9,33.2l-7.4,59.5l-10.6,85.4l-2.1,16.8
										L280,1015.7l-1.4,11.5h11.6h442.8h11.6l-1.4-11.5l-33.6-271.5l-1.6-12.6c-3.4-27.4-11.9-53.4-25.3-77.2
										c-2.5-4.5-5.3-9-8.2-13.3c-9.2-13.8-20.1-26.5-32.6-37.9c-0.3-0.3-0.6-0.6-0.8-0.7c-0.8-0.8-1.6-1.4-2.3-2.1
										c-1.4-1.2-2.9-2.5-4.5-3.8l-2.8-2.3h0C596.8,566.7,554.4,551.6,511.6,551.6L511.6,551.6z" class="st1"></path>
								</g>
							</g>
							<g>
								<path d="M487.1,819.4c-2.4,0-4.4-1.6-5-3.9l-19.9-84l-72.9-131.3c-1.2-2.2-0.6-5,1.4-6.6
									c0.5-0.4,1.1-0.8,1.6-1.1c1.4-1,2.8-1.9,4.3-2.8c1.4-0.9,2.9-1.8,4.6-2.8c13.3-8,27.8-14.5,43.1-19.5
									c0.1-1.3,0.2-2.5,0.3-3.7l-2.9-73.7c-0.1-1.4,0.5-2.8,1.5-3.8c1-1,2.3-1.5,3.6-1.5c0.1,0,0.1,0,0.2,0l126.5,4.7
									c2.7,0.1,4.8,2.3,4.9,5l2.2,70c0.2,1.2,0.5,2.5,0.7,3.8c17.7,5.9,34.2,13.9,49.1,23.9c1.1,0.6,2,1.7,2.4,3
									c0.7,2.1-0.1,4.5-2,5.7c-3.4,2.4-8.6,6-14.2,10.2c-16.1,12-34.1,50.9-51.8,112.7c-13.6,47.3-22.3,91.3-22.3,91.7
									c-0.5,2.4-2.6,4.1-5,4.1H487.1z M628.1,591.4L628.1,591.4z" class="st7"></path>
								<path d="M446.7,489.7l126.5,4.7l2.2,70.4c0.5,2.4,0.9,4.7,1.2,7.1c18.4,5.9,35.6,14.1,51.1,24.4
									c0,0,0.1,0.1,0.2,0.1c-4.5,3.1-9.3,6.5-14.4,10.3c-41.7,30.9-76.1,207.5-76.1,207.5h-50.2L467,729.6l-73.2-131.9
									c0.5-0.3,0.9-0.6,1.4-1c1.4-0.9,2.7-1.8,4.2-2.7c1.5-1,3-1.9,4.5-2.8c13.9-8.4,29.2-15.1,45.3-20c0.2-2.5,0.3-5,0.5-7.4
									L446.7,489.7 M446.7,479.5c-2.7,0-5.3,1.1-7.2,3c-2,2-3.1,4.8-3,7.6l2.9,73.4c0,0,0,0,0,0.1c-14.4,4.9-28.2,11.2-40.9,18.9
									c-1.7,1-3.3,2-4.7,2.9c-1.5,0.9-3,1.9-4.4,2.8c-0.5,0.3-1.2,0.8-1.8,1.3c-4.1,3.1-5.3,8.7-2.8,13.1l72.6,130.7l19.8,83.4
									c1.1,4.6,5.2,7.9,10,7.9h50.2c4.9,0,9.1-3.5,10-8.3c0.1-0.4,8.7-44.4,22.3-91.4c23.2-80.6,41.2-103.4,49.9-109.8
									c5.6-4.2,10.7-7.8,14.1-10.1c3.7-2.5,5.3-7.2,3.9-11.5c-0.8-2.5-2.5-4.6-4.6-5.8c-14.4-9.6-30.3-17.5-47.2-23.4
									c0-0.2-0.1-0.3-0.1-0.5l-2.2-69.6c-0.2-5.4-4.5-9.7-9.8-9.9l-126.5-4.7C447,479.5,446.8,479.5,446.7,479.5L446.7,479.5z" class="st1"></path>
							</g>
							<g>
								<path d="M510.8,844.8c-3.3,0-6.3-2.2-7.3-5.4l-63.9-207.3c-1.1-3.6,0.6-7.5,4-9.1c20.7-9.9,44.3-15.1,68-15.1
									c23.2,0,46.2,5,66.5,14.4c3.5,1.6,5.2,5.5,4.1,9.2l-64.2,208C517.1,842.6,514.1,844.8,510.8,844.8
									C510.8,844.8,510.8,844.8,510.8,844.8z" class="st8"></path>
								<path d="M511.6,615.5c22.9,0,44.4,5,63.3,13.7l-64.2,208l-63.9-207.3C466.1,620.7,488.2,615.5,511.6,615.5
									 M511.6,600.3c-24.9,0-49.6,5.5-71.3,15.8c-6.8,3.3-10.2,11-8,18.3l63.9,207.3c2,6.4,7.9,10.8,14.6,10.8
									c6.7,0,12.6-4.4,14.6-10.8l64.2-208c2.3-7.3-1.2-15.1-8.2-18.3C560,605.5,535.9,600.3,511.6,600.3L511.6,600.3z" class="st1"></path>
							</g>
							<g>
								<path d="M263.1,471.1l3.8-2.2c10.7-6.3,21.5-26.9,31.3-59.5c7.5-25.2,11.7-48.7,11.8-48.9l0.8-4.4l19.1,6.3
									l0,2.7c0,44.5-35.2,131-36.7,134.7l-2.5,6L263.1,471.1z" class="st8"></path>
								<path d="M313.7,361l12.3,4.1c0,44.3-36.4,133.2-36.4,133.2l-20.8-26.2C297.1,455.4,313.7,361,313.7,361
									 M307.7,351l-1.5,8.7c0,0.2-4.2,23.6-11.7,48.5c-12.6,42.1-24,54-29.6,57.3l-7.5,4.5l5.4,6.9l20.8,26.2l8.1,10.2l4.9-12.1
									c1.5-3.7,37-90.8,36.9-136.1l0-5.5l-5.2-1.7l-12.3-4.1L307.7,351L307.7,351z" class="st1"></path>
							</g>
							<g>
								<path d="M321.4,576.9l1.7-2.4c16.1-22.4,5.7-83.2-1.1-123.5c-1.4-8.3-2.8-16.2-3.7-22.8
									c-6.2-42.5,12.4-71.4,13.2-72.6l1.1-1.7h27.4l-3.9,5.9c-0.2,0.3-22,34.5-8.4,81.5c22.6,77.8,1.6,158.2,1.4,159l-1.9,7
									L321.4,576.9z" class="st8"></path>
								<path d="M353,357.7c0,0-23.2,35.3-8.9,84.6c22.5,77.6,1.3,157,1.3,157l-19.3-22.6
									c20.4-28.4,1.6-109.6-4.1-149.1c-6-41.6,12.6-70,12.6-70H353 M367.2,350.1H353h-18.3h-4.1l-2.3,3.4
									c-0.8,1.3-20.2,31.3-13.8,75.2c1,6.6,2.3,14.5,3.7,22.9c3.5,20.7,7.9,46.4,9.2,69.4c1.4,25.2-1.1,42.4-7.4,51.3l-3.5,4.9
									l3.9,4.6l19.3,22.6l9.4,11.1l3.8-14c0.2-0.8,5.5-20.8,8-50.7c2.3-27.6,2.6-69.1-9.4-110.4c-13.2-45.5,7.7-78,7.9-78.3
									L367.2,350.1L367.2,350.1z" class="st1"></path>
							</g>
							<path d="M546.3,113.1c-56-87.6-283.2-20.5-331.9,98.3c-68.4,167.2,100.3,283,141.5,113.7
								C383.1,213,581.1,167.6,546.3,113.1z" class="st1"></path>
							
								<ellipse ry="160" rx="167.1" cy="249.7" cx="497.8" class="st9" transform="matrix(0.9756 -0.2196 0.2196 0.9756 -42.6721 115.3928)"></ellipse>
							<ellipse ry="200.7" rx="180.7" cy="310.5" cx="513.2" class="st1"></ellipse>
							<g>
								<g>
									<path d="M374.4,463c-20.3,0-39.2-17-45.8-41.4c-7.7-28.3,4.4-56.3,27-62.5c3-0.8,6-1.2,9.1-1.2
										c20.3,0,39.2,17,45.8,41.4c3.7,13.5,3,27.3-1.8,39c-5,12.1-14,20.5-25.2,23.5C380.5,462.6,377.5,463,374.4,463z" class="st7"></path>
									<path d="M364.6,363c17.5,0,34.8,15.3,40.9,37.6c7,25.6-3.5,50.8-23.4,56.2c-2.6,0.7-5.2,1-7.8,1
										c-17.5,0-34.8-15.3-40.9-37.6c-7-25.6,3.5-50.8,23.4-56.2C359.4,363.4,362,363,364.6,363 M364.6,352.8L364.6,352.8
										c-3.5,0-7.1,0.5-10.5,1.4c-12.7,3.5-22.9,12.9-28.5,26.5c-5.3,12.7-6,27.7-2,42.3c3.5,12.7,10.1,23.8,19.2,32
										c9.3,8.4,20.5,13.1,31.6,13.1c3.5,0,7.1-0.5,10.5-1.4c12.7-3.5,22.9-12.9,28.5-26.5c5.3-12.7,6-27.7,2-42.3
										c-3.5-12.7-10.1-23.8-19.2-32C387,357.4,375.7,352.8,364.6,352.8L364.6,352.8z" class="st1"></path>
								</g>
								<g>
									<path d="M648.9,463c-3.1,0-6.2-0.4-9.1-1.2c-11.2-3.1-20.1-11.4-25.2-23.5c-4.8-11.7-5.5-25.5-1.8-39
										c6.6-24.4,25.5-41.4,45.8-41.4c3.1,0,6.2,0.4,9.1,1.2c22.6,6.2,34.7,34.2,27,62.5C688.1,446,669.2,463,648.9,463
										C648.9,463,648.9,463,648.9,463z" class="st7"></path>
									<path d="M658.6,363c2.6,0,5.2,0.3,7.8,1c19.9,5.4,30.4,30.6,23.4,56.2c-6.1,22.3-23.4,37.6-40.9,37.6
										c-2.6,0-5.2-0.3-7.8-1c-19.9-5.4-30.4-30.6-23.4-56.2C623.8,378.3,641.1,363,658.6,363 M658.6,352.8
										c-11.1,0-22.3,4.6-31.6,13.1c-9.1,8.2-15.7,19.3-19.2,32c-4,14.6-3.3,29.6,2,42.3c5.7,13.6,15.8,23,28.5,26.5
										c3.4,0.9,6.9,1.4,10.5,1.4c11.1,0,22.3-4.6,31.6-13.1c9.1-8.2,15.7-19.3,19.2-32c4-14.6,3.3-29.6-2-42.3
										c-5.7-13.6-15.8-23-28.5-26.5C665.7,353.3,662.1,352.8,658.6,352.8L658.6,352.8z" class="st1"></path>
								</g>
							</g>
							<g>
								<path d="M507.4,544.6c-58.1-0.1-129-67.2-137.9-163.4c-5-54.6-0.1-95,14.9-123.7c26.2-49.9,78-54,124.5-54
									c46.6,0,98.4,4.2,124.3,54l0.6,1.1v0.1c14.4,28.6,19.1,68.7,14.5,122.5c-3.8,44.5-22.2,86.3-51.7,117.9
									C569.8,527.6,536.6,544.6,507.4,544.6L507.4,544.6z" class="st7"></path>
								<path d="M508.9,208.6c47.8,0,95.6,4.7,119.7,51.2c0,0,0,0,0,0c13.3,25.6,19.4,63.8,14.5,120.9
									c-8.1,94.6-81,158.8-135.5,158.8c0,0-0.1,0-0.1,0c-54.5-0.1-124.1-64.2-132.8-158.8c-5.2-57,0.9-95.2,14.3-120.8
									C413.2,213.6,461.2,208.6,508.9,208.6 M508.9,198.3c-22.6,0-48.8,1.1-72,8.9c-26,8.7-44.6,24.4-57,47.9
									c-15.5,29.6-20.5,71-15.4,126.5c4.2,45.7,22.6,88.6,51.8,120.8c13.2,14.5,28.3,26.5,43.9,34.6c15.8,8.3,32.2,12.7,47.3,12.7
									h0.1c30.4,0,65.1-17.6,92.7-47.2c30.3-32.4,49.2-75.4,53.1-121c4.7-54.2-0.1-94.8-14.5-124.2v-0.1l-1.2-2.3
									C610.5,202.7,556.9,198.3,508.9,198.3L508.9,198.3z" class="st1"></path>
							</g>
							<path d="M632,258.3C632,258.3,632,258.3,632,258.3c-3.9-7.6-8.5-14-13.6-19.5c-11.4-12.3-25.4-19.9-40.8-24.6
								c-20.3-6.1-43.2-7.2-66.1-7.2c-23.2,0-46.4,1.2-66.9,7.6c-15.1,4.7-28.8,12.2-40,24.2c-5.2,5.5-9.8,11.9-13.8,19.5
								c-8.2,15.5-13.7,35.7-15.5,61.8c18.5-11,34.3-25.9,46.1-43.3c10.5-15.4,29.1-23.2,47.6-20.6c0.7,0.1,1.4,0.2,2.2,0.4
								c26.5,5.9,53.7,5.5,80.2,0c0.6-0.1,1.2-0.2,1.8-0.3c17.1-2.4,34.3,5,43,19.8c12.4,21.2,30.2,39,51.8,51.8
								C646.6,298,640.9,275.3,632,258.3z" class="st1"></path>
							<g>
								<g>
									<path d="M429.5,273.3c0-25.4-17.2-46-38.4-46c-21.2,0-38.4,20.6-38.4,46c-26.3,0-47.6,33-47.6,73.8
										s21.3,73.8,47.6,73.8c26.3,0,47.6-33,47.6-73.8c0-0.1,0-0.2,0-0.4c0-14.6,5.8-28.2,16-38.7
										C424.3,299.6,429.5,287.2,429.5,273.3z" class="st1"></path>
								</g>
								<g>
									<path d="M593.8,273.3c0-25.4,17.2-46,38.4-46c21.2,0,38.4,20.6,38.4,46c26.3,0,47.6,33,47.6,73.8
										s-21.3,73.8-47.6,73.8c-26.3,0-47.6-33-47.6-73.8c0-0.1,0-0.2,0-0.4c0-14.6-5.8-28.2-16-38.7
										C598.9,299.6,593.8,287.2,593.8,273.3z" class="st1"></path>
								</g>
							</g>
							<g>
								<path d="M511.6,274.4c-8.2,0-14.9-6.7-14.9-14.9V120.8c0-8.2,6.7-14.9,14.9-14.9c8.2,0,14.9,6.7,14.9,14.9
									v138.7C526.6,267.7,519.9,274.4,511.6,274.4z" class="st10"></path>
								<path d="M511.6,109.8c6.1,0,11,4.9,11,11v138.7c0,6.1-4.9,11-11,11h0c-6.1,0-11-4.9-11-11V120.8
									C500.6,114.7,505.5,109.8,511.6,109.8L511.6,109.8 M511.6,101.9c-10.4,0-18.9,8.5-18.9,18.9v138.7
									c0,10.4,8.5,18.9,18.9,18.9c10.4,0,18.9-8.5,18.9-18.9V120.8C530.5,110.4,522,101.9,511.6,101.9L511.6,101.9z" class="st1"></path>
							</g>
							<g>
								<path d="M343.6,257.1c-1.8,0-3.6-0.2-5.3-0.7c-17.6-4.5-25.8-29.7-18.7-57.4c6.2-24.4,22.5-42.1,38.6-42.1
									c1.8,0,3.6,0.2,5.3,0.7c8.7,2.2,15.4,9.7,18.8,21c3.2,10.6,3.2,23.6-0.1,36.4C376,239.4,359.8,257.1,343.6,257.1
									C343.6,257.1,343.6,257.1,343.6,257.1z M354.9,182.1c-8.8,0-18.6,11.6-22.4,26.4c-2.2,8.4-2.2,16.8-0.2,23.6
									c1.9,6.1,5.2,10.1,9.3,11.1c0.8,0.2,1.5,0.3,2.3,0.3c8.8,0,18.6-11.6,22.4-26.4c4.2-16.5,0-32.4-9.2-34.8
									C356.4,182.2,355.6,182.1,354.9,182.1z" class="st8"></path>
								<path d="M358.2,160.8c1.5,0,2.9,0.2,4.4,0.5c15.3,3.9,22.4,27.5,16,52.8c-5.8,22.9-20.8,39.2-34.9,39.2
									c-1.5,0-2.9-0.2-4.4-0.5c-15.3-3.9-22.4-27.5-16-52.8C329.1,177.1,344.1,160.8,358.2,160.8 M344,247.4
									c10.5,0,21.7-12.2,26.1-29.3c4.8-18.8-0.5-36.5-11.9-39.4c-1.1-0.3-2.2-0.4-3.3-0.4c-10.5,0-21.7,12.2-26.1,29.3
									c-4.8,18.8,0.5,36.5,11.9,39.4C341.8,247.3,342.9,247.4,344,247.4 M358.2,153.2c-9.1,0-18.4,4.8-26.2,13.6
									c-7.3,8.1-13,19.2-16.1,31.4c-7.6,29.8,1.8,57,21.5,62.1c2,0.5,4.2,0.8,6.3,0.8c9.1,0,18.4-4.8,26.2-13.6
									c7.3-8.1,13-19.2,16.1-31.4c7.6-29.8-1.8-57-21.5-62.1C362.4,153.4,360.3,153.2,358.2,153.2L358.2,153.2z M344,239.8
									c-0.5,0-0.9-0.1-1.4-0.2c-2.8-0.7-5.2-3.8-6.6-8.5c-1.8-6-1.8-13.9,0.2-21.6c3.7-14.5,12.6-23.5,18.7-23.5
									c0.5,0,0.9,0.1,1.4,0.2c6.3,1.6,10.3,14.8,6.4,30.1C359,230.8,350.1,239.8,344,239.8L344,239.8z" class="st1"></path>
							</g>
							<g>
								<path d="M323.3,335c-0.9,0-1.9-0.1-2.8-0.2c-14.9-2.3-23.7-22.4-20.1-45.6c3.3-21.4,16.4-37.6,30.3-37.6
									c0.9,0,1.9,0.1,2.8,0.2c7.5,1.2,13.6,6.8,17.4,15.9c3.5,8.4,4.4,19,2.8,29.8C350.3,318.9,337.2,335,323.3,335z M330.5,264
									c-7.7,0-14.3,11.6-16,22.4c-2.1,13.2,2.3,25.3,9.5,26.5c0.3,0.1,0.7,0.1,1.1,0.1c7.7,0,14.3-11.6,16-22.4
									c1.1-6.8,0.5-13.5-1.6-18.7c-1.1-2.6-3.5-7.1-7.8-7.8C331.2,264.1,330.9,264,330.5,264z" class="st8"></path>
								<path d="M330.7,255.4c0.7,0,1.5,0.1,2.2,0.2c12.6,2,20.2,20.4,16.9,41.3c-3.1,19.6-14.6,34.3-26.5,34.3
									c-0.7,0-1.5-0.1-2.2-0.2c-12.6-2-20.2-20.4-16.9-41.3C307.2,270.1,318.8,255.4,330.7,255.4 M325,316.8
									c8.9,0,17.5-11,19.8-25.6c2.4-15.6-3.2-29.3-12.6-30.8c-0.5-0.1-1.1-0.1-1.6-0.1c-8.9,0-17.5,11-19.8,25.6
									c-2.4,15.6,3.2,29.3,12.6,30.8C323.9,316.8,324.5,316.8,325,316.8 M330.7,247.8L330.7,247.8c-16,0-30.4,17.2-34.1,40.8
									c-4,25.4,6.3,47.3,23.3,50c1.1,0.2,2.2,0.3,3.4,0.3c16,0,30.4-17.2,34.1-40.8c4-25.4-6.3-47.3-23.3-50
									C333,247.9,331.8,247.8,330.7,247.8L330.7,247.8z M325,309.2c-0.2,0-0.3,0-0.5,0c-3.8-0.6-8.2-9.7-6.3-22.1
									c0.9-5.8,3-11.1,5.9-14.8c2.1-2.7,4.5-4.4,6.3-4.4c0.2,0,0.3,0,0.5,0c3.8,0.6,8.2,9.7,6.3,22.1c-0.9,5.8-3,11.1-5.9,14.8
									C329.2,307.5,326.8,309.2,325,309.2L325,309.2z" class="st1"></path>
							</g>
							<path d="M653.6,563c0,0-5,26.6,0,42.4c0,0-112,65.4-96.9,270L513.2,829C513.2,829,522.2,605.3,653.6,563z" class="st11"></path>
							<path d="M363.7,563c0,0,5,26.6,0,42.4c0,0,112,65.4,96.9,270L504,829C504,829,495.1,605.3,363.7,563z" class="st11"></path>
							<g>
								<g>
									<path d="M386,361.4c3.5-1.6,7-2.9,10.6-4.1c3.6-1.2,7.3-2.2,11-3.2c3.7-0.9,7.5-1.6,11.2-2.3
										c3.8-0.6,7.6-1,11.5-1.3c7.7-0.5,15.6-1,23.2,0.9c3.8,0.9,7.5,2.1,11.1,3.8c3.6,1.6,6.9,3.7,10,6.1l-0.3,0.7
										c-3.9-0.5-7.5-1.2-11.2-1.7c-3.7-0.5-7.3-1-10.9-1.4c-3.6-0.4-7.2-0.9-10.8-1.3c-3.6-0.5-7.3-0.9-10.9-1
										c-3.7-0.1-7.4,0-11.1,0.2c-3.7,0.2-7.4,0.5-11.1,1c-7.4,0.9-14.8,2.3-22,4.2L386,361.4z" class="st1"></path>
								</g>
								<g>
									<path d="M636.9,362.1c-7.2-2-14.6-3.4-22-4.2c-3.7-0.5-7.4-0.8-11.1-1c-3.7-0.2-7.4-0.3-11.1-0.2
										c-3.7,0.1-7.3,0.4-10.9,1c-3.6,0.5-7.2,0.9-10.8,1.3c-3.6,0.4-7.2,0.9-10.9,1.4c-3.7,0.5-7.3,1.2-11.2,1.7l-0.3-0.7
										c3-2.5,6.4-4.5,10-6.1c3.6-1.6,7.3-2.9,11.1-3.8c7.6-1.9,15.6-1.4,23.2-0.9c3.8,0.3,7.7,0.7,11.5,1.3
										c3.8,0.6,7.5,1.4,11.2,2.3c3.7,0.9,7.4,2,11,3.2c3.6,1.2,7.2,2.5,10.6,4.1L636.9,362.1z" class="st1"></path>
								</g>
							</g>
							<g>
								<g>
									<circle r="16.9" cy="398.5" cx="434.6" class="st1"></circle>
								</g>
								<g>
									<circle r="16.9" cy="398.5" cx="582.9" class="st1"></circle>
								</g>
							</g>
							<g>
								<g>
									<path d="M487.8,471.5c0,0,1.8-15.2,12.5-15.2c7.7,0,11.3,7.6,11.3,7.6s3.9-7.6,11.3-7.6
										c10.1,0,12.5,15.2,12.5,15.2H487.8z" class="st12"></path>
									<path d="M487.8,470c0,0,7,16.4,25,15.9c18-0.5,22.6-15.9,22.6-15.9H487.8z" class="st12"></path>
								</g>
								<path d="M541.2,469.2l-1.4,0.6c-2.5,1-5.7,1.5-9,1.5l-38.2-0.5c-3.3,0-6.4-0.6-8.8-1.7l-1.7-0.8" class="st13"></path>
								<g>
									
										<ellipse ry="2.8" rx="2.2" cy="469" cx="482.8" class="st1" transform="matrix(0.2909 -0.9568 0.9568 0.2909 -106.3531 794.4732)"></ellipse>
									
										<ellipse ry="2.2" rx="2.8" cy="469" cx="540.4" class="st1" transform="matrix(0.9568 -0.2909 0.2909 0.9568 -113.05 177.4868)"></ellipse>
								</g>
							</g>
							<g class="st14">
								<ellipse ry="21.3" rx="24.8" cy="453.4" cx="438" class="st15"></ellipse>
							</g>
							<g class="st14">
								<ellipse ry="21.3" rx="24.8" cy="453.4" cx="591.8" class="st15"></ellipse>
							</g>
							<g>
								<path d="M369.3,474.6h-9.4c-0.9,0-1.7-0.7-1.7-1.7v-25.9c0-0.9,0.7-1.7,1.7-1.7h9.4c0.9,0,1.7,0.7,1.7,1.7V473
									C371,473.9,370.2,474.6,369.3,474.6z" class="st16"></path>
								<circle r="8.8" cy="472.9" cx="365.4" class="st17"></circle>
								<path d="M374.3,492.4c0,4.9-4,18.1-8.8,18.1s-8.8-13.2-8.8-18.1s4-8.8,8.8-8.8S374.3,487.5,374.3,492.4z" class="st16"></path>
							</g>
							<g>
								<path d="M662.8,474.6h-9.4c-0.9,0-1.7-0.7-1.7-1.7v-25.9c0-0.9,0.7-1.7,1.7-1.7h9.4c0.9,0,1.7,0.7,1.7,1.7V473
									C664.4,473.9,663.7,474.6,662.8,474.6z" class="st16"></path>
								<circle r="8.8" cy="472.9" cx="658.9" class="st17"></circle>
								<path d="M667.8,492.4c0,4.9-4,18.1-8.8,18.1c-4.9,0-8.8-13.2-8.8-18.1s4-8.8,8.8-8.8
									C663.8,483.5,667.8,487.5,667.8,492.4z" class="st16"></path>
							</g>
						</g>
						<g>
							<g>
								<g>
									<path d="M612.8,737.7c-2.3,0-4.6-0.8-6.4-2.3l-10.4-8.6c-2.1-1.7-3.3-4.1-3.6-6.8c-0.2-2.7,0.6-5.3,2.3-7.3
										l24.4-29.5l25.8,21.4l-24.4,29.5C618.6,736.4,615.8,737.7,612.8,737.7z" class="st18"></path>
									<path d="M620.1,693.9l14.1,11.7l-19.6,23.6c-0.5,0.6-1.2,0.9-1.8,0.9c-0.5,0-1.1-0.2-1.5-0.6l-10.4-8.6
										c-1-0.8-1.2-2.4-0.3-3.4L620.1,693.9 M618.1,672.5l-9.7,11.7l-19.6,23.6c-3,3.6-4.4,8.2-4,12.9s2.7,8.9,6.3,12l10.4,8.6
										c3.2,2.6,7.2,4.1,11.3,4.1c5.3,0,10.2-2.3,13.6-6.4l19.6-23.6l9.7-11.7l-11.7-9.7l-14.1-11.7L618.1,672.5L618.1,672.5z" class="st1"></path>
								</g>
							</g>
						</g>
					</g>
				</g>
				<g>
					<g>
						<rect height="230.9" width="160.4" class="st3" y="638.1" x="432.8"></rect>
						<path d="M587.9,643.4v220.3H438.2V643.4H587.9 M598.6,632.8h-10.7H438.2h-10.7v10.7v220.3v10.7h10.7h149.7h10.7
							v-10.7V643.4V632.8L598.6,632.8z" class="st1"></path>
					</g>
					<g>
						<rect height="41.5" width="177.3" class="st19" y="632.6" x="424.3"></rect>
						<g>
							<path d="M416.8,686.9h-1.5c-7,0-12.7-5.7-12.7-12.7v-41.8c0-7,5.7-12.7,12.7-12.7h1.5c7,0,12.7,5.7,12.7,12.7
								v41.8C429.5,681.2,423.8,686.9,416.8,686.9z" class="st19"></path>
							<path d="M610.7,686.9h-1.5c-7,0-12.7-5.7-12.7-12.7v-41.8c0-7,5.7-12.7,12.7-12.7h1.5c7,0,12.7,5.7,12.7,12.7
								v41.8C623.4,681.2,617.7,686.9,610.7,686.9z" class="st19"></path>
							<g>
								<g>
									
										<rect height="28.5" width="154.9" class="st18" transform="matrix(0.6383 -0.7698 0.7698 0.6383 -206.6782 734.5453)" y="572.9" x="600.9"></rect>
									<path d="M717.5,525.7l14.1,11.7l-92.3,111.4L625.1,637L717.5,525.7 M716.1,511.3l-6.5,7.9l-92.3,111.4
										l-6.5,7.9l7.9,6.5l14.1,11.7l7.9,6.5l6.5-7.9l92.3-111.4l6.5-7.9l-7.9-6.5L724,517.8L716.1,511.3L716.1,511.3z" class="st1"></path>
								</g>
								<g>
									
										<rect height="28.5" width="142.3" class="st20" transform="matrix(0.6383 -0.7698 0.7698 0.6383 -239.9169 725.9526)" y="604" x="581.4"></rect>
									<path d="M687.7,561.6l14.1,11.7L617.5,675l-14.1-11.7L687.7,561.6 M686.3,547.2l-6.5,7.9l-84.3,101.6l-6.5,7.9
										l7.9,6.5l14.1,11.7l7.9,6.5l6.5-7.9l84.3-101.6l6.5-7.9l-7.9-6.5l-14.1-11.7L686.3,547.2L686.3,547.2z" class="st1"></path>
								</g>
								<g>
									<path d="M736.7,534.7c-2.9,0-5.8-0.7-8.3-2.1c-4.1-2.2-7-5.9-8.3-10.3c-1.3-4.4-0.8-9.1,1.4-13.2
										c1.9-3.5,5.5-5,9.2-6.5c6.2-2.5,13.8-5.6,18.8-19.1c0.7-1.9,2.5-3.2,4.6-3.3c0.1,0,0.2,0,0.2,0c2,0,3.8,1.1,4.6,2.9
										c7.6,15.9-3.4,36-7,42.6C748.9,531.3,743.1,534.7,736.7,534.7z" class="st21"></path>
									<path d="M754.4,485.3c6.5,13.6-3.7,32.1-6.9,38c-2.2,4-6.4,6.3-10.7,6.3c-2,0-4-0.5-5.9-1.5
										c-5.9-3.2-8.1-10.7-4.8-16.6C729.3,505.6,745.8,508.5,754.4,485.3 M754.4,475.1c-0.2,0-0.3,0-0.5,0
										c-4.1,0.2-7.7,2.8-9.1,6.7c-4.2,11.4-10.1,13.8-15.9,16.1c-4,1.6-9,3.6-11.8,8.8c-6,10.8-2,24.5,8.9,30.5
										c3.3,1.8,7,2.8,10.8,2.8c8.2,0,15.7-4.5,19.7-11.6c3.9-7.2,15.9-29,7.2-47.3C761.9,477.3,758.3,475.1,754.4,475.1
										L754.4,475.1z" class="st1"></path>
								</g>
							</g>
						</g>
					</g>
					<g>
						<rect height="41.5" width="177.3" class="st19" y="849.7" x="424.3"></rect>
						<g>
							<path d="M416.8,904h-1.5c-7,0-12.7-5.7-12.7-12.7v-41.8c0-7,5.7-12.7,12.7-12.7h1.5c7,0,12.7,5.7,12.7,12.7
								v41.8C429.5,898.3,423.8,904,416.8,904z" class="st19"></path>
							<path d="M610.7,904h-1.5c-7,0-12.7-5.7-12.7-12.7v-41.8c0-7,5.7-12.7,12.7-12.7h1.5c7,0,12.7,5.7,12.7,12.7
								v41.8C623.4,898.3,617.7,904,610.7,904z" class="st19"></path>
						</g>
					</g>
				</g>
				<g>
					<g>
						<g>
							<path d="M401.2,714.5c-2,0-4-0.2-5.9-0.5l-4.5-0.7v-75.2l4.5-0.7c2-0.3,4-0.5,5.9-0.5
								c21.4,0,38.8,17.4,38.8,38.8C440,697.1,422.6,714.5,401.2,714.5z" class="st7"></path>
							<g>
								<path d="M401.2,642.3c18.5,0,33.5,15,33.5,33.5c0,18.5-15,33.5-33.5,33.5c-1.7,0-3.5-0.1-5.1-0.4l0-66.1
									C397.8,642.4,399.5,642.3,401.2,642.3 M401.2,631.7c-2.3,0-4.5,0.2-6.7,0.5l-9,1.4v9.1l0,66.1v9.1l9,1.4
									c2.2,0.3,4.5,0.5,6.7,0.5c11.8,0,22.8-4.6,31.1-12.9c8.3-8.3,12.9-19.4,12.9-31.1c0-11.8-4.6-22.8-12.9-31.1
									C424,636.3,413,631.7,401.2,631.7L401.2,631.7z" class="st1"></path>
							</g>
						</g>
						<g>
							<rect height="122.5" width="44.6" class="st22" y="637" x="355.5"></rect>
							<g>
								<path d="M360.7,642.3h34.1l0,112h-34.1L360.7,642.3 M360.7,631.8h-10.5v10.5l0,112v10.5h10.5h34.1h10.5v-10.5
									l0-112v-10.5h-10.5L360.7,631.8L360.7,631.8z" class="st1"></path>
							</g>
						</g>
						<g>
							<path d="M360.3,856.7c-32.3,0-62.7-12.6-85.6-35.5c-22.9-22.9-35.4-53.3-35.4-85.6v-33.5
								c0-35.9,29.2-65.1,65.1-65.1h61.2v219.7H360.3z" class="st6"></path>
							<g>
								<path d="M304.4,642.3l55.9,0l0,209.1h0c-63.9,0-115.8-51.8-115.8-115.8v-33.5
									C244.5,669.1,271.3,642.3,304.4,642.3 M304.4,631.7c-38.8,0-70.4,31.6-70.4,70.4v33.5c0,33.7,13.1,65.5,37,89.3
									c23.9,23.9,55.6,37,89.3,37h10.6v-10.6l0-209.1l0-10.6h-10.6H304.4L304.4,631.7z" class="st1"></path>
							</g>
						</g>
					</g>
					<g>
						<g>
							<path d="M624.9,714.5c-21.4,0-38.8-17.4-38.8-38.8c0-21.4,17.4-38.8,38.8-38.8c2,0,4,0.2,5.9,0.5l4.5,0.7v75.2
								l-4.5,0.7C628.8,714.4,626.8,714.5,624.9,714.5z" class="st7"></path>
							<g>
								<path d="M624.9,642.3c1.7,0,3.5,0.1,5.1,0.4v66.1c-1.7,0.3-3.4,0.4-5.1,0.4c-18.5,0-33.5-15-33.5-33.5
									S606.4,642.3,624.9,642.3 M624.9,631.7c-24.3,0-44.1,19.8-44.1,44.1c0,24.3,19.8,44.1,44.1,44.1c2.3,0,4.5-0.2,6.7-0.5
									l9-1.4v-9.1v-66.1v-9.1l-9-1.4C629.4,631.9,627.1,631.7,624.9,631.7L624.9,631.7z" class="st1"></path>
							</g>
						</g>
						<g>
							<rect height="122.5" width="44.6" class="st22" y="637" x="626"></rect>
							<g>
								<path d="M665.3,642.3v112h-34.1v-112H665.3 M675.9,631.8h-10.5h-34.1h-10.5v10.5v112v10.5h10.5h34.1h10.5v-10.5
									v-112V631.8L675.9,631.8z" class="st1"></path>
							</g>
						</g>
						<g>
							<path d="M660.5,856.7V637h61.2c35.9,0,65.1,29.2,65.1,65.1v33.5c0,66.7-54.3,121-121,121H660.5z" class="st6"></path>
							<g>
								<path d="M721.7,642.3c33.1,0,59.9,26.8,59.9,59.9v33.5c0,63.9-51.8,115.8-115.8,115.8h0V642.3H721.7
									 M721.7,631.7h-55.9h-10.6v10.6v209.1V862h10.6c33.7,0,65.5-13.1,89.3-37c23.9-23.9,37-55.6,37-89.3v-33.5
									C792.1,663.3,760.5,631.7,721.7,631.7L721.7,631.7z" class="st1"></path>
							</g>
						</g>
					</g>
				</g>
			</g>
		</g>
	</g>
</g>
</svg>
