<svg xml:space="preserve" style="enable-background:new 0 0 1024 1024;" viewBox="0 0 1024 1024" y="0px" x="0px" xmlns:xlink="http://www.w3.org/1999/xlink" xmlns="http://www.w3.org/2000/svg" id="图层_1" version="1.1">
<style type="text/css">
	.st0{fill:#5DE2BC;}
	.st1{fill:#381818;}
	.st2{clip-path:url(#SVGID_2_);}
	.st3{fill:#6490FF;}
	.st4{fill:#F4CABD;}
	.st5{fill:#F7AA23;}
	.st6{fill:#5366C4;}
	.st7{fill:#E8DA8B;}
	.st8{fill:#E4473B;}
	.st9{fill:none;stroke:#381818;stroke-width:2.6684;stroke-linecap:round;stroke-linejoin:round;stroke-miterlimit:10;}
	.st10{fill:#6490FF;stroke:#381818;stroke-width:7.1157;stroke-linejoin:round;stroke-miterlimit:10;}
	.st11{fill:#FFFFFF;stroke:#381818;stroke-width:7.1157;stroke-linejoin:round;stroke-miterlimit:10;}
	.st12{fill:#F7AA23;stroke:#381818;stroke-width:10.6735;stroke-linejoin:round;stroke-miterlimit:10;}
	.st13{fill:#FFFFFF;}
	.st14{fill:#F22C52;}
	.st15{fill:#4955EA;}
	.st16{fill:#EF8E78;}
	.st17{fill:#FC6238;stroke:#381818;stroke-width:7.1157;stroke-linejoin:round;stroke-miterlimit:10;}
	.st18{fill:#93E2B8;stroke:#381818;stroke-width:7.1157;stroke-linejoin:round;stroke-miterlimit:10;}
	.st19{fill:#93E2B8;}
	.st20{fill:#FCC25B;}
	.st21{fill:#F4A462;stroke:#381818;stroke-width:9.7088;stroke-miterlimit:10;}
</style>
<g>
	<path d="M377.2,940.8c-57.9,0-106.9-42.5-115.3-99.4c-13.3-3.9-35.6-12.6-54.3-30.2c-24.2-22.8-35.9-53.7-34.7-91.7
		l0-0.3l0-0.3c0.1-0.8,11-77.5-25.7-112.8l-3.7-3.5l3.7-3.5c36.7-35.2,25.8-112,25.7-112.8l0-0.3l0-0.3c-1.2-38,10.5-68.8,34.7-91.7
		c18.7-17.6,40.9-26.3,54.3-30.2c8.2-57.2,57.2-99.9,115.4-99.9h274.3c58.1,0,107.2,42.7,115.4,99.9c13.3,3.9,35.6,12.6,54.3,30.2
		c24.2,22.8,35.9,53.7,34.7,91.7l0,0.3l0,0.3c-0.1,0.8-11,77.5,25.7,112.8l3.7,3.5l-3.7,3.5c-36.7,35.2-25.8,112-25.7,112.8l0,0.3
		l0,0.3c1.2,38-10.5,68.9-34.7,91.7c-18.7,17.6-40.9,26.3-54.3,30.2c-8.4,56.9-57.4,99.4-115.3,99.4H377.2z" class="st0"></path>
	<path d="M651.5,268.9c57.3,0,104.5,43.2,110.9,98.8c26.9,7.2,91.2,33.3,88.5,117.9c0,0-11.9,79.6,27.1,117
		c-39,37.4-27.1,117-27.1,117c2.7,84.6-61.7,110.7-88.5,117.9C755.8,893,708.7,936,651.5,936H377.2c-57.2,0-104.3-43-110.9-98.4
		c-26.9-7.2-91.2-33.3-88.5-117.9c0,0,11.9-79.6-27.1-117c39-37.4,27.1-117,27.1-117c-2.7-84.6,61.6-110.7,88.5-117.9
		c6.4-55.6,53.6-98.8,110.9-98.8H651.5 M651.5,259.2H377.2c-59.5,0-109.9,43-119.7,100.9c-15.6,4.9-35.7,13.9-53.3,30.4
		c-11.5,10.9-20.5,23.7-26.5,38.2c-7.1,16.9-10.3,36.1-9.7,57.2l0,0.6l0.1,0.6c0.1,0.7,10.6,75.1-24.2,108.5l-7.3,7l7.3,7
		c34.9,33.5,24.4,107.8,24.2,108.6l-0.1,0.6l0,0.6c-0.7,21.1,2.6,40.3,9.7,57.2c6.1,14.5,15,27.3,26.6,38.2
		c17.5,16.5,37.7,25.6,53.3,30.4c10,57.7,60.3,100.5,119.6,100.5h274.3c59.3,0,109.6-42.8,119.6-100.5c15.6-4.9,35.7-13.9,53.3-30.4
		c11.5-10.9,20.5-23.7,26.6-38.2c7.1-16.9,10.3-36.1,9.7-57.2l0-0.6l-0.1-0.6c-0.1-0.7-10.6-75.1,24.2-108.5l7.3-7l-7.3-7
		c-34.9-33.5-24.4-107.8-24.2-108.6l0.1-0.6l0-0.6c0.7-21.1-2.6-40.3-9.7-57.2c-6.1-14.5-15-27.3-26.5-38.2
		C807,374,786.8,365,771.2,360.1C761.4,302.1,711.1,259.2,651.5,259.2L651.5,259.2z" class="st1"></path>
</g>
<g>
	<defs>
		<path d="M878.2,602.6c-39-37.4-27.1-117-27.1-117c2.7-84.6,147.7-118,120.8-125.2c-2.6-22.6,29.8-55.9,15.7-72.3
			c26.1-31.8-209.7-49.6-209.7-90.2C777.9,84.8,659.9-6.9,514.5-6.9S251.1,84.8,251.1,197.9c0,40.6-112.4,80.2-86.2,112
			c-14,16.4-24.6,27.9-27.2,50.5c-26.9,7.2,37.6,40.6,40.2,125.2c0,0,11.9,79.6-27.1,117c39,37.4,27.1,117,27.1,117
			c-2.7,84.6,61.7,110.7,88.5,117.9C273,893,320.1,936,377.3,936h274.3c57.2,0,104.3-43,110.9-98.4c26.9-7.2,91.2-33.3,88.5-117.9
			C851,719.7,839.2,640.1,878.2,602.6z" id="SVGID_1_"></path>
	</defs>
	<clipPath id="SVGID_2_">
		<use style="overflow:visible;" xlink:href="#SVGID_1_"></use>
	</clipPath>
	<g class="st2">
		<g>
			<g>
				<g>
					<g>
						<path d="M308.6,417.4c-12.4,0-19.1-4.8-22.5-8.7c-3,1.5-7.2,3.1-12,3.1c-5.6,0-13.6-2.2-20-12.6
							c-9.1-14.9-5.4-27.9-0.7-35.1c-3.9-4.7-9.7-13.9-7.5-24.7c2.4-11.4,10.3-18,21.7-18c2.3,0,4.4,0.3,6.1,0.6
							c5.8-8,18.4-13.6,27.8-13.6c9.6,0,15.8,5.6,16.2,14.5c0.5,12.1-6.9,16-10.8,16.3c-0.1,0-0.3,0-0.4,0c-0.3,0-0.6,0-0.9-0.1
							c-0.5-0.1-0.9-0.1-1.4-0.1c-4,0-6.2,3.9-7,7.2c-1,4.8,0.2,11.5,7.3,14.7c2.9,1.3,5.7,2,8.5,2c10.1,0,20.2-8.8,26.3-22.8
							c6.5-15.1,18.5-23.4,34-23.4c6.9,0,12.1,1.7,12.3,1.8c1.7,0.6,3,2.1,3.2,3.9l3.5,23.9c0.1,0.6,0.1,1.2-0.1,1.7
							c-10.8,48.7-43.4,53.9-56.9,53.9c0,0,0,0,0,0c-0.6,0-1.2,0-1.8,0c-0.6,2.4-1.9,5.3-4.2,8c-4.1,4.6-10.1,7.1-18.1,7.5
							C310.3,417.3,309.4,417.4,308.6,417.4z" class="st3"></path>
						<path d="M301.5,313.1c6.2,0,11.1,2.8,11.4,9.9c0.4,10.7-6.4,11.3-6.4,11.3c-0.8-0.2-1.6-0.2-2.3-0.2
							c-13.2,0-18.2,23.7-1.7,31.2c3.6,1.6,7.1,2.4,10.6,2.4c13.1,0,24.4-11.1,30.7-25.8c7.3-17,20.3-20.4,29.5-20.4
							c6.2,0,10.7,1.5,10.7,1.5l3.5,23.9c-10,45.1-39.4,50.1-52.2,50.1c-3.7,0-6-0.4-6-0.4s1,14.9-18.4,15.9c-0.8,0-1.6,0.1-2.3,0.1
							c-17.4,0-21-10.5-21-10.5s-6,4.8-13.5,4.8c-5.2,0-11-2.3-15.9-10.3c-11.9-19.4,1.5-32.8,1.5-32.8s-11.7-10.7-9.1-23.5
							c2.4-11.7,10.6-14.1,17-14.1c4.7,0,8.5,1.3,8.5,1.3C279.1,319.9,291.9,313.1,301.5,313.1 M301.5,303.5
							C301.5,303.5,301.5,303.5,301.5,303.5c-6.3,0-13.5,2-19.9,5.5c-4,2.2-7.4,4.8-10,7.7c-1.3-0.1-2.6-0.2-4.1-0.2
							c-13.8,0-23.7,8.2-26.5,21.9c-2.1,10.1,1.9,19.5,6.4,26.1c-0.8,1.6-1.6,3.4-2.3,5.5c-2.3,7.2-3.4,18.6,4.7,31.7
							c7.6,12.3,17.3,14.9,24.1,14.9c4.1,0,7.8-0.9,10.9-2.1c4.9,4.2,12.5,7.8,23.6,7.8c0.9,0,1.9,0,2.8-0.1
							c9.3-0.5,16.5-3.5,21.4-9.1c1.8-2.1,3.1-4.3,4-6.4c8.2-0.2,19.7-2.2,30.9-9.8c14.4-9.7,24.2-25.8,29.1-47.9
							c0.3-1.1,0.3-2.3,0.1-3.5l-3.5-23.9c-0.5-3.6-3-6.6-6.4-7.7c-0.6-0.2-6.3-2.1-13.9-2.1c-17.5,0-31.1,9.3-38.4,26.3
							C329.6,350.2,321,358,313,358c-2.1,0-4.3-0.5-6.5-1.5c-5.7-2.6-4.8-8.2-4.6-9.3c0.4-1.9,1.4-3.4,2.2-3.4c0.1,0,0.3,0,0.4,0
							c0.6,0.1,1.3,0.2,1.9,0.2c0.3,0,0.6,0,0.8,0c6.4-0.6,15.8-6.7,15.2-21.3C322.1,311,313.8,303.5,301.5,303.5L301.5,303.5
							L301.5,303.5z" class="st1"></path>
					</g>
					<g>
						<path d="M321.5,545.5c-7.7,0-12.8-2.5-15.7-4.6c-0.4-0.3-0.8-0.6-1.1-0.9c-3.3,2.5-8.5,5.3-14.8,5.3
							c-6.7,0-12.8-3.2-18.3-9.4c-11.5-13.1-10-26.6-6.6-34.5c-4.6-4-11.9-12.1-11.5-23.1c0.5-13.7,9.4-21.8,24-21.8
							c0.2,0,0.4,0,0.6,0c4.7-9.5,18-18.4,28.9-18.4c7.6,0,13.1,4.5,14.6,11.9c2.5,11.9-4.1,16.9-7.9,17.9c-0.4,0.1-0.8,0.2-1.2,0.2
							c0,0-0.4,0-0.4,0c-5.5,0-6.6,6.1-6.7,7.3c-0.7,5.5,1.9,12.4,9.5,14.4c1.9,0.5,3.8,0.8,5.6,0.8c0,0,0,0,0,0
							c8.6,0,20.3-7.1,25.2-27.2c6.5-26.4,27.9-29.3,36.9-29.3c3,0,4.9,0.3,5.2,0.3c1.8,0.3,3.3,1.6,3.8,3.3l7.4,22.9
							c0.2,0.6,0.3,1.1,0.2,1.7c-2.7,51.5-36,61.1-48.9,62.9c-0.2,2.5-1,5.6-2.9,8.6c-3.2,5.2-8.8,8.7-16.6,10.4
							C327.6,545.2,324.5,545.5,321.5,545.5z" class="st3"></path>
						<path d="M382.7,439.1c2.7,0,4.4,0.3,4.4,0.3l7.4,22.9c-3,57.9-46.7,58.7-49,58.7c-0.1,0-0.1,0-0.1,0
							s3.5,14.5-15.5,18.7c-3.1,0.7-5.9,1-8.4,1c-12.4,0-16.4-7.4-16.4-7.4s-6.5,7.2-15.2,7.2c-4.5,0-9.6-1.9-14.7-7.7
							c-15-17.1-4-32.6-4-32.6s-13.3-8.6-12.9-21.6c0.5-15.2,12.7-17.2,19.1-17.2c2.3,0,3.9,0.3,3.9,0.3
							c1.9-8.8,15.7-18.6,25.6-18.6c4.8,0,8.7,2.3,9.9,8.1c2.2,10.5-4.4,12.2-4.4,12.2c-0.1,0-0.3,0-0.4,0
							c-14.8,0-16.8,26.3,1.6,31.2c2.4,0.6,4.7,0.9,6.9,0.9c14.9,0,25.7-13.8,29.9-30.8C356.1,441.8,374.2,439.1,382.7,439.1
							 M382.7,429.4c-21,0-36.5,12.3-41.6,33c-2.6,10.8-9.6,23.5-20.5,23.5c-1.4,0-2.9-0.2-4.4-0.6c-5.5-1.5-6.3-6.4-6-9.1
							c0.1-0.5,0.5-3.1,1.9-3.1l0.1,0c0.1,0,0.2,0,0.3,0c0.8,0,1.6-0.1,2.4-0.3c6.3-1.6,14.5-9.2,11.4-23.6
							c-2.1-9.7-9.5-15.8-19.4-15.8c-6.7,0-14.6,2.9-21.5,7.8c-2.9,2.1-7.2,5.7-10.3,10.6c-4.2,0.2-9.6,1.3-14.5,4.2
							c-5.2,3.2-11.5,9.6-12,22.2c-0.4,10.3,5.1,18.9,10.7,24.6c-0.6,1.7-1,3.7-1.4,5.8c-1.1,7.5-0.3,18.9,9.9,30.5
							c8,9.1,16.3,11,21.9,11c5.9,0,10.9-2,14.7-4.3c3.9,2.4,9.4,4.4,16.9,4.4c3.3,0,6.8-0.4,10.5-1.2c9.1-2,15.7-6.2,19.6-12.6
							c1.5-2.4,2.4-4.7,2.9-6.9c5.6-1.1,12.9-3.4,20.4-8.2c22.4-14.3,28.2-39.8,29.2-58.7c0.1-1.2-0.1-2.3-0.5-3.5l-7.4-22.9
							c-1.1-3.4-4.1-6-7.6-6.6C388.2,429.7,386,429.4,382.7,429.4L382.7,429.4z" class="st1"></path>
					</g>
					<g>
						<path d="M711.9,417.4c-0.8,0-1.7,0-2.6-0.1c-7.9-0.4-14-2.9-18.1-7.5c-2.4-2.7-3.6-5.6-4.2-8c-0.6,0-1.2,0-1.8,0
							c-13.5,0-46.1-5.3-56.9-53.9c-0.1-0.6-0.1-1.2-0.1-1.7l3.5-23.9c0.3-1.8,1.5-3.3,3.2-3.9c0.2-0.1,5.4-1.8,12.3-1.8
							c15.4,0,27.5,8.3,34,23.4c6.1,14.1,16.1,22.8,26.3,22.8c2.8,0,5.7-0.7,8.5-2c7-3.2,8.3-9.9,7.3-14.7c-0.7-3.3-3-7.2-7-7.2
							c-0.4,0-0.9,0-1.4,0.1c-0.3,0.1-0.6,0.1-0.9,0.1c-0.1,0-0.3,0-0.4,0c-4-0.3-11.3-4.2-10.8-16.3c0.4-9,6.6-14.5,16.2-14.5
							c9.4,0,22,5.6,27.8,13.6c1.7-0.3,3.8-0.6,6.1-0.6c11.5,0,19.4,6.6,21.7,18c2.2,10.7-3.6,19.9-7.5,24.7
							c4.7,7.2,8.4,20.2-0.7,35.1c-6.4,10.4-14.4,12.6-20,12.6c-4.8,0-9-1.6-12-3.1C731,412.6,724.3,417.4,711.9,417.4
							C711.9,417.4,711.9,417.4,711.9,417.4z" class="st3"></path>
						<path d="M719,313.1c9.6,0,22.4,6.8,25.4,14.4c0,0,3.8-1.3,8.5-1.3c6.4,0,14.6,2.5,17,14.1
							c2.6,12.7-9.1,23.5-9.1,23.5s13.4,13.4,1.5,32.8c-4.9,8-10.7,10.3-15.9,10.3c-7.4,0-13.5-4.8-13.5-4.8s-3.7,10.5-21,10.5
							c-0.8,0-1.5,0-2.3-0.1c-19.4-1-18.4-15.9-18.4-15.9s-2.3,0.4-6,0.4c-12.7,0-42.1-5.1-52.2-50.1l3.5-23.9c0,0,4.5-1.5,10.7-1.5
							c9.2,0,22.2,3.4,29.5,20.4c6.3,14.7,17.6,25.8,30.7,25.8c3.4,0,7-0.8,10.6-2.4c16.5-7.5,11.5-31.2-1.7-31.2
							c-0.8,0-1.5,0.1-2.3,0.2c0,0-6.8-0.6-6.4-11.3C707.9,315.9,712.8,313.1,719,313.1 M719,303.5c-12.3,0-20.5,7.5-21,19.1
							c-0.4,9.3,3.2,14.5,6.2,17.2c3.8,3.4,7.8,4,9,4.1c0.3,0,0.6,0,0.8,0c0.6,0,1.3-0.1,1.9-0.2c0.2,0,0.3,0,0.4,0
							c0.8,0,1.8,1.6,2.3,3.4c0.2,1.1,1.1,6.7-4.6,9.3c-2.2,1-4.4,1.5-6.5,1.5c-8,0-16.6-7.8-21.8-19.9
							c-7.3-16.9-20.9-26.3-38.4-26.3c-7.6,0-13.2,1.9-13.9,2.1c-3.4,1.2-5.9,4.2-6.4,7.7l-3.5,23.9c-0.2,1.2-0.1,2.3,0.1,3.5
							c4.9,22,14.7,38.1,29.1,47.9c11.2,7.6,22.7,9.6,30.9,9.8c0.9,2.1,2.2,4.3,4,6.4c5,5.6,12.2,8.6,21.4,9.1c1,0,1.9,0.1,2.8,0.1
							c11.1,0,18.7-3.6,23.6-7.8c3.1,1.2,6.8,2.1,10.9,2.1c6.8,0,16.5-2.6,24.1-14.9c8.1-13.1,7-24.5,4.7-31.7
							c-0.7-2.1-1.5-3.9-2.3-5.5c4.6-6.5,8.5-15.9,6.4-26.1c-2.8-13.7-12.7-21.9-26.5-21.9c-1.4,0-2.8,0.1-4.1,0.2
							c-2.6-2.9-6-5.5-10-7.7C732.5,305.5,725.2,303.5,719,303.5L719,303.5z" class="st1"></path>
					</g>
					<g>
						<path d="M699,545.5c-3,0-6.1-0.4-9.4-1.1c-7.8-1.7-13.3-5.2-16.6-10.4c-1.9-3-2.6-6.1-2.9-8.6
							c-12.8-1.8-46.2-11.3-48.9-62.9c0-0.6,0-1.2,0.2-1.7l7.4-22.9c0.6-1.7,2-3,3.8-3.3c0.2,0,2.2-0.3,5.2-0.3
							c8.9,0,30.4,2.9,36.9,29.3c3.1,12.5,11.5,27.2,25.2,27.2c1.8,0,3.7-0.3,5.6-0.8c7.6-2,10.2-8.9,9.5-14.4
							c-0.2-1.2-1.2-7.3-6.7-7.3c0,0-0.3,0-0.4,0c-0.4,0-0.8-0.1-1.2-0.2c-3.8-1-10.4-6-7.9-17.9c1.6-7.5,7.1-11.9,14.6-11.9
							c10.8,0,24.1,8.9,28.9,18.4c0.2,0,0.4,0,0.6,0c14.5,0,23.5,8.2,24,21.8c0.4,10.9-6.9,19.1-11.5,23.1
							c3.4,7.9,4.9,21.4-6.6,34.5c-5.5,6.2-11.6,9.4-18.3,9.4c0,0,0,0,0,0c-6.2,0-11.4-2.9-14.8-5.3c-0.3,0.3-0.7,0.6-1.1,0.9
							C711.7,543,706.6,545.5,699,545.5z" class="st3"></path>
						<path d="M637.8,439.1c8.4,0,26.6,2.8,32.2,25.6c4.2,17,15,30.8,29.9,30.8c2.2,0,4.5-0.3,6.9-0.9
							c18.3-4.9,16.4-31.2,1.6-31.2c-0.1,0-0.3,0-0.4,0c0,0-6.6-1.7-4.4-12.2c1.2-5.8,5.1-8.1,9.9-8.1c9.9,0,23.7,9.8,25.6,18.6
							c0,0,1.6-0.3,3.9-0.3c6.4,0,18.6,2,19.1,17.2c0.5,13-12.9,21.6-12.9,21.6s11,15.5-4,32.6c-5.1,5.8-10.2,7.7-14.7,7.7
							c-8.7,0-15.2-7.2-15.2-7.2s-4.1,7.4-16.4,7.4c-2.4,0-5.2-0.3-8.4-1c-18.9-4.2-15.5-18.7-15.5-18.7s0,0-0.1,0
							c-2.3,0-46-0.8-49-58.7l7.4-22.9C633.4,439.3,635.1,439.1,637.8,439.1 M637.8,429.4C637.8,429.4,637.8,429.4,637.8,429.4
							c-3.3,0-5.5,0.3-5.9,0.4c-3.6,0.6-6.5,3.1-7.6,6.6l-7.4,22.9c-0.4,1.1-0.5,2.3-0.5,3.5c1,18.9,6.8,44.4,29.2,58.7
							c7.4,4.8,14.8,7.1,20.4,8.2c0.5,2.2,1.5,4.6,2.9,6.9c4,6.3,10.6,10.5,19.6,12.6c3.6,0.8,7.2,1.2,10.5,1.2c7.5,0,13-2,16.9-4.4
							c3.8,2.3,8.8,4.3,14.7,4.3c5.6,0,13.9-1.9,21.9-11c10.2-11.6,11-23,9.9-30.5c-0.3-2.2-0.8-4.1-1.4-5.8
							c5.6-5.7,11.1-14.3,10.7-24.6c-0.4-12.5-6.8-19-12-22.2c-4.9-3-10.3-4-14.5-4.2c-3.1-4.9-7.4-8.5-10.3-10.6
							c-6.9-5-14.7-7.8-21.5-7.8c-9.9,0-17.3,6-19.4,15.8c-1.9,9.1,0.7,14.8,3.3,18c3.1,4,7.1,5.2,8.2,5.5c0.8,0.2,1.6,0.3,2.4,0.3
							c0.1,0,0.2,0,0.3,0l0.1,0c1.5,0,1.9,2.6,1.9,3.1c0.4,2.7-0.5,7.6-6,9.1c-1.5,0.4-3,0.6-4.4,0.6c-10.9,0-17.9-12.6-20.5-23.5
							C674.3,441.7,658.8,429.4,637.8,429.4L637.8,429.4z" class="st1"></path>
					</g>
				</g>
				<g>
					<path d="M373.1,445.6c-19.1,0-36.4-17.1-40.2-39.8c-4.3-25.2,9.3-48.6,30.1-52.1c1.8-0.3,3.6-0.5,5.4-0.5
						c19.1,0,36.4,17.1,40.2,39.8c4.3,25.2-9.3,48.6-30.1,52.1C376.7,445.4,374.9,445.6,373.1,445.6z" class="st4"></path>
					<path d="M368.4,358c16.6,0,32,15,35.5,35.8c3.8,22.6-7.9,43.5-26.2,46.6c-1.5,0.3-3.1,0.4-4.6,0.4
						c-16.6,0-32-15-35.5-35.8c-3.8-22.6,7.9-43.5,26.2-46.6C365.3,358.1,366.9,358,368.4,358 M368.4,348.3v9.6V348.3
						c-2.1,0-4.1,0.2-6.2,0.5c-11.8,2-21.8,9.4-28.2,20.7c-6,10.7-8.1,23.8-5.9,37c2,11.9,7.5,22.9,15.5,30.9
						c8.3,8.3,18.8,12.9,29.5,12.9c2.1,0,4.1-0.2,6.2-0.5c11.8-2,21.8-9.4,28.2-20.7c6-10.7,8.1-23.8,5.9-37
						c-2-11.9-7.5-22.9-15.5-30.9C389.5,352.9,379,348.3,368.4,348.3L368.4,348.3z" class="st1"></path>
				</g>
				<g>
					<path d="M656.8,445.6c-1.8,0-3.6-0.2-5.4-0.5c-20.9-3.5-34.4-26.9-30.1-52.1c3.8-22.7,21.1-39.8,40.2-39.8
						c1.8,0,3.6,0.2,5.4,0.5c20.9,3.5,34.4,26.9,30.1,52.1C693.1,428.4,675.8,445.6,656.8,445.6
						C656.8,445.6,656.8,445.6,656.8,445.6z" class="st4"></path>
					<path d="M661.4,358c1.5,0,3,0.1,4.6,0.4c18.3,3.1,30,23.9,26.2,46.6c-3.5,20.7-18.8,35.8-35.5,35.8
						c-1.5,0-3-0.1-4.6-0.4c-18.3-3.1-30-23.9-26.2-46.6C629.5,373,644.8,358,661.4,358 M661.4,348.3c-10.7,0-21.1,4.6-29.5,12.9
						c-8,8-13.5,19-15.5,30.9c-2.2,13.1-0.1,26.2,5.9,37c6.4,11.4,16.4,18.8,28.2,20.7c2,0.3,4.1,0.5,6.2,0.5
						c10.7,0,21.1-4.6,29.5-12.9c8-8,13.5-19,15.5-30.9c2.2-13.1,0.1-26.2-5.9-37c-6.4-11.4-16.4-18.8-28.2-20.7
						C665.6,348.5,663.5,348.3,661.4,348.3L661.4,348.3z" class="st1"></path>
				</g>
				<g>
					<path d="M299.9,967l14.9-154l2-13l17-111.4l0-0.2c0.1-0.3,0.1-0.7,0.2-1c1.6-9.6,4.2-19.1,7.8-28.2
						c1.3-3.4,2.9-7,4.7-10.5c0.3-0.7,0.7-1.4,1.1-2.2c2.8-5.4,6.1-10.9,9.8-16.3c1.8-2.6,3.7-5.1,5.8-7.7c1.7-2.2,3.5-4.4,5.4-6.5
						c0.9-1,1.8-2,2.6-2.9c10-10.8,21.7-20.5,34.8-28.8c1.5-0.9,2.9-1.8,4.4-2.7c31.1-18.6,67.3-28.5,104.7-28.5
						c40.3,0,80.3,11.9,112.7,33.5c1.9,1.2,3.9,2.6,6.4,4.4c0.2,0.1,0.4,0.3,0.7,0.5c10,7.4,19,15.6,26.8,24.5
						c1.3,1.4,2.4,2.8,3.5,4.1l0.4,0.5c0.5,0.6,1,1.2,1.5,1.8c1.4,1.8,2.9,3.7,4.3,5.6h0l1.5,2.1c3.7,5.3,7,10.8,9.8,16.3
						c0.4,0.7,0.8,1.5,1.1,2.2c1.8,3.5,3.3,7.1,4.7,10.5c3.6,9.2,6.3,18.7,7.8,28.2l0.2,1.3l34,278.4H299.9z" class="st5"></path>
					<path d="M515.1,557.8c40.4,0,79.1,12,110,32.7c2.1,1.4,4.2,2.9,6.2,4.3c0.1,0.1,0.3,0.2,0.4,0.3
						c9.7,7.1,18.5,15.1,26.2,23.9c1.2,1.3,2.3,2.7,3.4,4c0.6,0.7,1.2,1.4,1.8,2.2c2,2.4,3.8,5,5.6,7.5c0,0,0,0,0,0
						c3.5,5,6.7,10.3,9.4,15.7c0.4,0.7,0.7,1.4,1.1,2.1c1.7,3.3,3.2,6.7,4.5,10.2c3.4,8.7,6,17.8,7.5,27.2c0.1,0.4,0.1,0.8,0.2,1.2
						l33.4,272.8H305.2l14.4-148.5l2-12.9l17-111.4c0.1-0.4,0.1-0.8,0.2-1.2c1.5-9.4,4.1-18.5,7.6-27.2c1.3-3.5,2.9-6.9,4.5-10.2
						c0.3-0.7,0.7-1.4,1.1-2.1c2.8-5.5,6-10.7,9.5-15.7c1.8-2.5,3.7-5,5.6-7.5c1.7-2.1,3.4-4.2,5.2-6.3c0.8-1,1.7-1.9,2.6-2.8
						c9.8-10.6,21.2-20,33.8-28c1.4-0.9,2.8-1.8,4.3-2.6C442.3,567.9,477.9,557.8,515.1,557.8 M515.1,548.1
						c-38.3,0-75.4,10.1-107.2,29.2c-1.5,0.9-3,1.8-4.5,2.7c-13.5,8.6-25.5,18.5-35.8,29.6c-0.9,1-1.8,2-2.7,3
						c-1.9,2.2-3.8,4.4-5.5,6.7c-2.1,2.7-4,5.3-5.9,7.9l0,0l0,0c-3.8,5.5-7.2,11.2-10.1,16.8c-0.4,0.7-0.8,1.5-1.1,2.2
						c-1.8,3.7-3.5,7.4-4.8,10.9c-3.8,9.4-6.5,19.2-8.1,29.2l0,0l0,0c0,0.3-0.1,0.6-0.2,0.9l0,0.2l0,0.1l0,0.1l-17,111.4l-2,12.9
						l0,0.3l0,0.3l-14.4,148.5l-1,10.6h10.6h419.7h10.9l-1.3-10.8l-33.4-272.8l0-0.2l0-0.2l-0.1-0.5c0-0.2-0.1-0.4-0.1-0.6
						c-1.6-9.9-4.3-19.7-8.1-29.2c-1.4-3.6-3-7.2-4.9-10.9c-0.4-0.8-0.8-1.5-1.2-2.3c-2.9-5.6-6.3-11.3-10.1-16.8l-2.9-4.2h-0.1
						c-1-1.3-1.9-2.5-2.9-3.7c-0.5-0.7-1.1-1.4-1.5-1.9l-0.4-0.5l0,0l0,0c-1.1-1.4-2.4-2.8-3.6-4.2c-8-9.1-17.2-17.5-27.4-25.1
						c-0.4-0.3-0.7-0.6-0.9-0.7c-2.5-1.8-4.5-3.2-6.5-4.5C597.3,560.3,556.3,548.1,515.1,548.1L515.1,548.1z" class="st1"></path>
				</g>
				<g>
					<g>
						<path d="M515.1,698c-57.6,0-113.3-15.2-165.5-45.3c-2.2-1.3-3.1-4.1-1.9-6.4c4.3-8.4,9.6-16.5,15.6-24
							c0.5-0.6,1.1-1.1,1.8-1.4c0.8-0.4,1.7-0.7,2.8-1.2c43.6-17.8,94.6-27.2,147.2-27.2c53.6,0,105.4,9.8,149.9,28.3
							c0.8,0.3,1.4,0.8,1.9,1.5c6.1,7.6,11.3,15.7,15.6,24.1c1.2,2.3,0.3,5.1-1.9,6.4C628.4,682.8,572.7,698,515.1,698z" class="st6"></path>
						<path d="M515.1,597.4c53.9,0,105.6,10.2,148.1,27.9c5.8,7.3,10.9,15,15.1,23.3c-50,28.8-105.2,44.6-163.1,44.6
							S402,677.3,351.9,648.6c4.2-8.2,9.2-15.9,15-23.2c0.9-0.4,1.7-0.7,2.6-1.1C411.5,607.2,462.2,597.4,515.1,597.4 M515.1,587.7
							c-53.2,0-104.7,9.5-149,27.6c-1.1,0.4-2.1,0.8-3,1.2c-1.4,0.6-2.7,1.6-3.7,2.8c-6.2,7.8-11.6,16.1-16.1,24.8
							c-2.4,4.6-0.7,10.2,3.8,12.8c53,30.5,109.5,45.9,168,45.9c58.5,0,115-15.5,168-45.9c4.5-2.6,6.1-8.2,3.8-12.8
							c-4.4-8.6-9.8-17-16.1-24.9c-1-1.3-2.3-2.3-3.8-2.9c-22-9.2-46.1-16.3-71.6-21.2C569.1,590.3,542.2,587.7,515.1,587.7
							L515.1,587.7z" class="st1"></path>
					</g>
				</g>
				<g>
					<path d="M419.3,569.5l3.1-4.7c2.3-3.5,4.3-7.3,6-11.1c2.6-5.8,4.4-11.9,5.3-18.2l0.5-2.9l3.4-22.4l65.6-6.6l66,16
						l2.4,15.9c3.3,21.5,15.6,40.3,33.9,51.8l8.7,5.5l-100.3,76L419.3,569.5z" class="st4"></path>
					<path d="M502.7,510.7l60.2,14.6l1.7,11.2c3.6,23.5,17.1,44.2,37.1,56.7l-87,65.9l-86.3-90.5
						c2.6-3.9,4.8-7.9,6.6-12.2c2.8-6.3,4.8-13,5.8-20l0.4-2.9l2.6-17L502.7,510.7 M503.7,496.3l-2.4,0.2l-58.9,5.9l-11,1.1
						l-1.7,10.9l-2.6,17l-0.4,2.8c-0.9,5.7-2.5,11.2-4.8,16.4l0,0.1l0,0.1c-1.5,3.4-3.3,6.8-5.4,10l-6.3,9.5l7.8,8.2l86.3,90.5
						l8.8,9.2l10.1-7.7l87-65.9l16.4-12.4l-17.5-11c-16.5-10.3-27.6-27.4-30.6-46.8l-1.7-11.2l-1.4-9.4l-9.3-2.2l-60.2-14.6
						L503.7,496.3L503.7,496.3z" class="st1"></path>
				</g>
				<g>
					<path d="M484,686.9l-94.5-86.8l13.7-18.8l1.5-0.5c0.5-0.1,2.2-0.6,5.3-0.6c11.7,0,38.2,6.5,84.1,50
						c6.3,6,15,13.9,25.9,23.6c1.3,1.1,2.5,2.2,3.9,3.4c1.6,1.4,3.2,2.9,4.9,4.3c7.6,6.7,14.4,12.6,20.8,18.2l4.1,3.5l-36.9,33.8
						L484,686.9z" class="st7"></path>
					<path d="M410.1,584.9c9.1,0,34.6,4.9,80.8,48.7c6.8,6.5,15.8,14.6,26,23.7c2.8,2.5,5.8,5.1,8.8,7.8
						c6.6,5.8,13.6,12,20.8,18.2l-29.6,27.2l-29.6-27.2L396,599.4l10.2-14.1C406.2,585.3,407.5,584.9,410.1,584.9 M410.1,575.3
						L410.1,575.3c-3.6,0-5.8,0.5-6.8,0.9l-3,1l-1.9,2.6l-10.2,14.1l-5.1,7l6.3,5.8l91.3,83.9l29.6,27.2l6.5,6l6.5-6l29.6-27.2
						l8-7.3l-8.2-7.1c-6.4-5.6-13.2-11.5-20.8-18.2c-1.7-1.5-3.3-2.9-4.9-4.3c-1.3-1.2-2.6-2.3-3.9-3.4
						c-10.8-9.6-19.5-17.5-25.8-23.5c-20.7-19.6-39.8-33.9-56.6-42.4C426.2,576.8,416,575.3,410.1,575.3L410.1,575.3z" class="st1"></path>
				</g>
				<g>
					<path d="M461.2,700.9l6.9-6c3.9-3.4,13-11.7,21-19c6.6-6,12.9-11.8,15.8-14.4c1.7-1.5,3.3-2.9,4.9-4.3
						c1.3-1.2,2.6-2.3,3.9-3.5c10.9-9.6,19.6-17.6,25.9-23.6c45.9-43.5,72.4-50,84.1-50c3.1,0,4.9,0.5,5.3,0.6l1.5,0.5l13.7,18.8
						l-94.5,86.8l-31.5,29L461.2,700.9z" class="st7"></path>
					<path d="M623.7,584.9c2.6,0,3.8,0.4,3.8,0.4l10.2,14.1l-91.3,83.9l-29.6,27.2l-45.6-12
						c7.2-6.2,30.2-27.6,36.9-33.4c3-2.7,6-5.3,8.8-7.8c10.2-9.1,19.2-17.3,26-23.7C589.1,589.8,614.6,584.9,623.7,584.9
						 M623.7,575.3L623.7,575.3c-6,0-16.1,1.6-30.8,9c-16.9,8.5-35.9,22.8-56.6,42.4c-6.3,6-14.9,13.9-25.8,23.5
						c-1.3,1.1-2.6,2.3-3.9,3.4c-1.6,1.4-3.2,2.8-4.9,4.3c-3,2.7-9.3,8.4-15.9,14.5c-8,7.3-17,15.5-20.9,18.9l-13.9,12l17.7,4.7
						l45.6,12l5.1,1.3l3.9-3.6l29.6-27.2l91.3-83.9l6.3-5.8l-5.1-7l-10.2-14.1l-1.9-2.6l-3-1C629.5,575.8,627.3,575.3,623.7,575.3
						L623.7,575.3z" class="st1"></path>
				</g>
				<g>
					<path d="M462.7,523.6c0,39.6-46,101.1-102.9,81.2c-61.2-21.4-40.5-81.2-40.5-81.2c0-39.6,55.4-109.6,94.6-104.2
						C478,428.2,462.7,484,462.7,523.6z" class="st1"></path>
					<path d="M567.4,530.5c0,39.6,46,101.1,102.9,81.2c61.2-21.4,40.5-81.2,40.5-81.2c0-39.6-55.4-109.6-94.6-104.2
						C552.2,435.2,567.4,490.9,567.4,530.5z" class="st1"></path>
				</g>
				<g>
					<path d="M515.1,555.8c-40.1,0-71.2-14.7-92.3-43.7c-18.4-25.2-29.4-60.6-33.8-108.3c-4.5-49.4-0.1-86,13.5-112
						c23.7-45.2,70.6-49,112.7-49c42.2,0,89.1,3.8,112.6,48.9l0.5,1v0.1c13,25.9,17.3,62.2,13.1,110.9
						C637,454.7,627.6,488,611,512.1C590.6,541.5,559.2,555.8,515.1,555.8z" class="st4"></path>
					<path d="M515.2,247.7c43.3,0,86.4,4.2,108.3,46.3c0,0,0,0,0,0c12,23.1,17.5,57.7,13.1,109.3
						C629.2,489.1,605.7,551,515.1,551c-81.9,0-113.4-62-121.3-147.5c-4.7-51.5,0.8-86.1,12.9-109.3
						C428.6,252.3,472,247.7,515.2,247.7 M515.2,238.1c-20.4,0-44.2,1-65.3,8c-23.6,7.9-40.5,22.2-51.7,43.5
						c-14.1,26.8-18.6,64.3-14,114.7c4.5,48.6,15.8,84.8,34.7,110.7c22.1,30.3,54.5,45.6,96.2,45.6c45.9,0,78.5-15,99.9-45.8
						c17.1-24.8,26.8-58.9,31.2-110.6c4.2-49-0.1-85.8-13.1-112.4v-0.1l-1.1-2.1c-11.2-21.5-28.1-35.8-51.6-43.7
						C559.7,239,536.8,238.1,515.2,238.1L515.2,238.1z" class="st1"></path>
				</g>
				<path d="M370.7,358.1c0,0-21.3,42.2,28,90.2c0,0-2.8-96.8,43.3-121.6C442,326.7,389.8,319.7,370.7,358.1z" class="st1"></path>
				<path d="M662.3,358.1c0,0,21.3,42.2-28,90.2c0,0,2.8-96.8-43.3-121.6C591,326.7,643.2,319.7,662.3,358.1z" class="st1"></path>
				<g>
					<g>
						<path d="M493.6,489.4c0,0,1.6-13.8,11.3-13.8c7,0,10.2,6.9,10.2,6.9s3.5-6.9,10.2-6.9c9.1,0,11.3,13.8,11.3,13.8
							H493.6z" class="st8"></path>
						<path d="M493.6,488.1c0,0,6.3,14.8,22.6,14.3c16.3-0.4,20.4-14.3,20.4-14.3H493.6z" class="st8"></path>
					</g>
					<path d="M541.8,487.4l-1.3,0.5c-2.3,0.9-5.2,1.4-8.1,1.3l-34.6-0.4c-3,0-5.8-0.6-8-1.5l-1.5-0.7" class="st9"></path>
					<g>
						
							<ellipse ry="2.5" rx="2" cy="487.1" cx="489" class="st1" transform="matrix(0.2909 -0.9568 0.9568 0.2909 -119.3181 813.2808)"></ellipse>
						
							<ellipse ry="2" rx="2.5" cy="487.1" cx="541.1" class="st1" transform="matrix(0.9568 -0.2909 0.2909 0.9568 -118.2995 178.4741)"></ellipse>
					</g>
				</g>
				<g>
					<g>
						<g>
							<g>
								
									<ellipse ry="22.6" rx="7.7" cy="100.2" cx="493" class="st10" transform="matrix(0.973 -0.2307 0.2307 0.973 -9.808 116.4086)"></ellipse>
								<circle r="7.4" cy="75.3" cx="487.1" class="st11"></circle>
								<circle r="7.4" cy="122.1" cx="498.2" class="st11"></circle>
							</g>
							<g>
								
									<ellipse ry="22.6" rx="7.7" cy="148.9" cx="504.5" class="st10" transform="matrix(0.973 -0.2307 0.2307 0.973 -20.7317 120.3851)"></ellipse>
								<circle r="7.4" cy="124" cx="498.6" class="st11"></circle>
								<circle r="7.4" cy="170.8" cx="509.7" class="st11"></circle>
							</g>
						</g>
						<g>
							<g>
								
									<ellipse ry="7.7" rx="22.6" cy="120.6" cx="616.5" class="st10" transform="matrix(0.574 -0.8189 0.8189 0.574 163.897 556.1772)"></ellipse>
								<circle r="7.4" cy="99.6" cx="631.1" class="st11"></circle>
								<circle r="7.4" cy="139" cx="603.5" class="st11"></circle>
							</g>
							<g>
								
									<ellipse ry="7.7" rx="22.6" cy="161.6" cx="587.7" class="st10" transform="matrix(0.574 -0.8189 0.8189 0.574 118.0886 550.1122)"></ellipse>
								<circle r="7.4" cy="140.6" cx="602.4" class="st11"></circle>
								<circle r="7.4" cy="180" cx="574.8" class="st11"></circle>
							</g>
						</g>
						<g>
							<g>
								
									<ellipse ry="22.6" rx="7.7" cy="110.4" cx="453.5" class="st10" transform="matrix(0.884 -0.4676 0.4676 0.884 1.0146 224.8712)"></ellipse>
								<circle r="7.4" cy="87.8" cx="441.6" class="st11"></circle>
								<circle r="7.4" cy="130.3" cx="464.1" class="st11"></circle>
							</g>
							<g>
								
									<ellipse ry="22.6" rx="7.7" cy="154.6" cx="476.9" class="st10" transform="matrix(0.884 -0.4676 0.4676 0.884 -16.9595 240.9508)"></ellipse>
								<circle r="7.4" cy="132" cx="465" class="st11"></circle>
								<circle r="7.4" cy="174.6" cx="487.5" class="st11"></circle>
							</g>
						</g>
						<g>
							<g>
								
									<ellipse ry="22.6" rx="7.7" cy="128.9" cx="417.2" class="st10" transform="matrix(0.703 -0.7112 0.7112 0.703 32.2402 334.9416)"></ellipse>
								<circle r="7.4" cy="110.9" cx="399" class="st11"></circle>
								<circle r="7.4" cy="144.7" cx="433.2" class="st11"></circle>
							</g>
							<g>
								
									<ellipse ry="22.6" rx="7.7" cy="164.1" cx="452.8" class="st10" transform="matrix(0.703 -0.7112 0.7112 0.703 17.7841 370.7102)"></ellipse>
								<circle r="7.4" cy="146.1" cx="434.6" class="st11"></circle>
								<circle r="7.4" cy="179.9" cx="468.8" class="st11"></circle>
							</g>
						</g>
						<g>
							<g>
								
									<ellipse ry="7.7" rx="22.6" cy="106.5" cx="579" class="st10" transform="matrix(0.35 -0.9368 0.9368 0.35 276.6518 611.6094)"></ellipse>
								<circle r="7.4" cy="82.5" cx="588" class="st11"></circle>
								<circle r="7.4" cy="127.6" cx="571.1" class="st11"></circle>
							</g>
							<g>
								
									<ellipse ry="7.7" rx="22.6" cy="153.4" cx="561.5" class="st10" transform="matrix(0.35 -0.9368 0.9368 0.35 221.3356 625.6791)"></ellipse>
								<circle r="7.4" cy="129.4" cx="570.5" class="st11"></circle>
								<circle r="7.4" cy="174.5" cx="553.6" class="st11"></circle>
							</g>
						</g>
						<g>
							<g>
								
									<ellipse ry="7.7" rx="22.6" cy="99.8" cx="533.7" class="st10" transform="matrix(1.436843e-02 -0.9999 0.9999 1.436843e-02 426.2386 632.0253)"></ellipse>
								<circle r="7.4" cy="74.2" cx="534.1" class="st11"></circle>
								<circle r="7.4" cy="122.4" cx="533.4" class="st11"></circle>
							</g>
							<g>
								
									<ellipse ry="7.7" rx="22.6" cy="149.9" cx="533" class="st10" transform="matrix(1.436843e-02 -0.9999 0.9999 1.436843e-02 375.4804 680.6414)"></ellipse>
								<circle r="7.4" cy="124.3" cx="533.4" class="st11"></circle>
								<circle r="7.4" cy="172.4" cx="532.7" class="st11"></circle>
							</g>
						</g>
					</g>
				</g>
				<g>
					<g>
						<g>
							<g>
								
									<ellipse ry="19.7" rx="5.6" cy="220.6" cx="318.8" class="st10" transform="matrix(0.1929 -0.9812 0.9812 0.1929 40.925 490.8685)"></ellipse>
								
									<ellipse ry="6.5" rx="5.4" cy="216.4" cx="296.9" class="st11" transform="matrix(0.3696 -0.9292 0.9292 0.3696 -13.9304 412.3209)"></ellipse>
								
									<ellipse ry="6.5" rx="5.4" cy="224.2" cx="338.2" class="st11" transform="matrix(0.3696 -0.9292 0.9292 0.3696 4.8552 455.5596)"></ellipse>
							</g>
							<g>
								
									<ellipse ry="19.7" rx="5.6" cy="228.6" cx="361.8" class="st10" transform="matrix(0.1929 -0.9812 0.9812 0.1929 67.6329 539.5124)"></ellipse>
								
									<ellipse ry="6.5" rx="5.4" cy="224.5" cx="339.8" class="st11" transform="matrix(0.3696 -0.9292 0.9292 0.3696 5.6121 457.3017)"></ellipse>
								
									<ellipse ry="6.5" rx="5.4" cy="232.3" cx="381.1" class="st11" transform="matrix(0.3696 -0.9292 0.9292 0.3696 24.3978 500.5403)"></ellipse>
							</g>
						</g>
						<g>
							<g>
								
									<ellipse ry="18.8" rx="5.9" cy="144.2" cx="368.5" class="st10" transform="matrix(0.7713 -0.6364 0.6364 0.7713 -7.5069 267.5416)"></ellipse>
								
									<ellipse ry="6.5" rx="5.4" cy="127.5" cx="355.4" class="st11" transform="matrix(0.3696 -0.9292 0.9292 0.3696 105.4916 410.5858)"></ellipse>
								
									<ellipse ry="6.5" rx="5.4" cy="158.9" cx="380.2" class="st11" transform="matrix(0.3696 -0.9292 0.9292 0.3696 91.993 453.4503)"></ellipse>
							</g>
							<g>
								
									<ellipse ry="18.8" rx="5.9" cy="176.9" cx="394.4" class="st10" transform="matrix(0.7713 -0.6364 0.6364 0.7713 -22.374 291.4546)"></ellipse>
								
									<ellipse ry="6.5" rx="5.4" cy="160.2" cx="381.2" class="st11" transform="matrix(0.3696 -0.9292 0.9292 0.3696 91.4492 455.1773)"></ellipse>
								
									<ellipse ry="6.5" rx="5.4" cy="191.6" cx="406" class="st11" transform="matrix(0.3696 -0.9292 0.9292 0.3696 77.9506 498.0419)"></ellipse>
							</g>
						</g>
						<g>
							<g>
								
									<ellipse ry="5.8" rx="19.2" cy="250.4" cx="316.7" class="st10" transform="matrix(0.9999 -1.506713e-02 1.506713e-02 0.9999 -3.7369 4.7996)"></ellipse>
								
									<ellipse ry="6.5" rx="5.4" cy="251.1" cx="295" class="st11" transform="matrix(0.3696 -0.9292 0.9292 0.3696 -47.3529 432.373)"></ellipse>
								
									<ellipse ry="6.5" rx="5.4" cy="249.8" cx="335.8" class="st11" transform="matrix(0.3696 -0.9292 0.9292 0.3696 -20.441 469.4772)"></ellipse>
							</g>
							<g>
								
									<ellipse ry="5.8" rx="19.2" cy="249.1" cx="359.1" class="st10" transform="matrix(0.9999 -1.506713e-02 1.506713e-02 0.9999 -3.712 5.439)"></ellipse>
								
									<ellipse ry="6.5" rx="5.4" cy="249.8" cx="337.4" class="st11" transform="matrix(0.3696 -0.9292 0.9292 0.3696 -19.3567 470.9722)"></ellipse>
								
									<ellipse ry="6.5" rx="5.4" cy="248.5" cx="378.2" class="st11" transform="matrix(0.3696 -0.9292 0.9292 0.3696 7.5553 508.0764)"></ellipse>
							</g>
						</g>
						<g>
							<g>
								
									<ellipse ry="6.1" rx="18.2" cy="280.9" cx="322.1" class="st10" transform="matrix(0.9583 -0.2859 0.2859 0.9583 -66.8481 103.7884)"></ellipse>
								
									<ellipse ry="6.5" rx="5.4" cy="287.2" cx="302.5" class="st11" transform="matrix(0.3696 -0.9292 0.9292 0.3696 -76.1969 462.1277)"></ellipse>
								
									<ellipse ry="6.5" rx="5.4" cy="275.2" cx="339.3" class="st11" transform="matrix(0.3696 -0.9292 0.9292 0.3696 -41.8471 488.777)"></ellipse>
							</g>
							<g>
								
									<ellipse ry="6.1" rx="18.2" cy="268.4" cx="360.4" class="st10" transform="matrix(0.9583 -0.2859 0.2859 0.9583 -61.6836 114.2165)"></ellipse>
								
									<ellipse ry="6.5" rx="5.4" cy="274.7" cx="340.8" class="st11" transform="matrix(0.3696 -0.9292 0.9292 0.3696 -40.4631 489.8507)"></ellipse>
								
									<ellipse ry="6.5" rx="5.4" cy="262.8" cx="377.6" class="st11" transform="matrix(0.3696 -0.9292 0.9292 0.3696 -6.1134 516.5001)"></ellipse>
							</g>
						</g>
						<g>
							<g>
								
									<ellipse ry="19.5" rx="5.7" cy="164.8" cx="347" class="st10" transform="matrix(0.6166 -0.7873 0.7873 0.6166 3.3079 336.3681)"></ellipse>
								
									<ellipse ry="6.5" rx="5.4" cy="151" cx="329.8" class="st11" transform="matrix(0.3696 -0.9292 0.9292 0.3696 67.6087 401.623)"></ellipse>
								
									<ellipse ry="6.5" rx="5.4" cy="177" cx="362.2" class="st11" transform="matrix(0.3696 -0.9292 0.9292 0.3696 63.8668 448.0728)"></ellipse>
							</g>
							<g>
								
									<ellipse ry="19.5" rx="5.7" cy="191.8" cx="380.7" class="st10" transform="matrix(0.6166 -0.7873 0.7873 0.6166 -5.0638 373.237)"></ellipse>
								
									<ellipse ry="6.5" rx="5.4" cy="178" cx="363.5" class="st11" transform="matrix(0.3696 -0.9292 0.9292 0.3696 63.716 449.9443)"></ellipse>
								
									<ellipse ry="6.5" rx="5.4" cy="204" cx="395.8" class="st11" transform="matrix(0.3696 -0.9292 0.9292 0.3696 59.9741 496.3941)"></ellipse>
							</g>
						</g>
						<g>
							<g>
								
									<ellipse ry="19.9" rx="5.6" cy="193.1" cx="329.4" class="st10" transform="matrix(0.3801 -0.9249 0.9249 0.3801 25.6252 424.4004)"></ellipse>
								
									<ellipse ry="6.5" rx="5.4" cy="184.5" cx="308.6" class="st11" transform="matrix(0.3696 -0.9292 0.9292 0.3696 23.1036 403.0925)"></ellipse>
								
									<ellipse ry="6.5" rx="5.4" cy="200.6" cx="347.8" class="st11" transform="matrix(0.3696 -0.9292 0.9292 0.3696 32.8157 449.6444)"></ellipse>
							</g>
							<g>
								
									<ellipse ry="19.9" rx="5.6" cy="209.8" cx="370.2" class="st10" transform="matrix(0.3801 -0.9249 0.9249 0.3801 35.372 472.479)"></ellipse>
								
									<ellipse ry="6.5" rx="5.4" cy="201.3" cx="349.4" class="st11" transform="matrix(0.3696 -0.9292 0.9292 0.3696 33.207 451.52)"></ellipse>
								
									<ellipse ry="6.5" rx="5.4" cy="217.4" cx="388.5" class="st11" transform="matrix(0.3696 -0.9292 0.9292 0.3696 42.919 498.0719)"></ellipse>
							</g>
						</g>
					</g>
				</g>
				<g>
					<g>
						<g>
							<g>
								
									<ellipse ry="5.6" rx="19.7" cy="239.7" cx="708.7" class="st10" transform="matrix(0.9812 -0.1929 0.1929 0.9812 -32.9264 141.2079)"></ellipse>
								
									<ellipse ry="5.4" rx="6.5" cy="235.6" cx="730.7" class="st11" transform="matrix(0.9292 -0.3696 0.3696 0.9292 -35.3294 286.759)"></ellipse>
								
									<ellipse ry="5.4" rx="6.5" cy="243.4" cx="689.4" class="st11" transform="matrix(0.9292 -0.3696 0.3696 0.9292 -41.125 272.0587)"></ellipse>
							</g>
							<g>
								
									<ellipse ry="5.6" rx="19.7" cy="247.8" cx="665.8" class="st10" transform="matrix(0.9812 -0.1929 0.1929 0.9812 -35.2924 133.0807)"></ellipse>
								
									<ellipse ry="5.4" rx="6.5" cy="243.7" cx="687.7" class="st11" transform="matrix(0.9292 -0.3696 0.3696 0.9292 -41.3585 271.4664)"></ellipse>
								
									<ellipse ry="5.4" rx="6.5" cy="251.4" cx="646.5" class="st11" transform="matrix(0.9292 -0.3696 0.3696 0.9292 -47.1541 256.7661)"></ellipse>
							</g>
						</g>
						<g>
							<g>
								
									<ellipse ry="5.9" rx="18.8" cy="163.4" cx="659" class="st10" transform="matrix(0.6364 -0.7713 0.7713 0.6364 113.5881 567.7222)"></ellipse>
								
									<ellipse ry="5.4" rx="6.5" cy="146.7" cx="672.2" class="st11" transform="matrix(0.9292 -0.3696 0.3696 0.9292 -6.6141 258.8661)"></ellipse>
								
									<ellipse ry="5.4" rx="6.5" cy="178.1" cx="647.4" class="st11" transform="matrix(0.9292 -0.3696 0.3696 0.9292 -19.9727 251.9061)"></ellipse>
							</g>
							<g>
								
									<ellipse ry="5.9" rx="18.8" cy="196" cx="633.2" class="st10" transform="matrix(0.6364 -0.7713 0.7713 0.6364 79.0128 559.6572)"></ellipse>
								
									<ellipse ry="5.4" rx="6.5" cy="179.3" cx="646.4" class="st11" transform="matrix(0.9292 -0.3696 0.3696 0.9292 -20.5109 251.6257)"></ellipse>
								
									<ellipse ry="5.4" rx="6.5" cy="210.7" cx="621.6" class="st11" transform="matrix(0.9292 -0.3696 0.3696 0.9292 -33.8694 244.6657)"></ellipse>
							</g>
						</g>
						<g>
							<g>
								
									<ellipse ry="19.2" rx="5.8" cy="269.6" cx="710.9" class="st10" transform="matrix(1.506713e-02 -0.9999 0.9999 1.506713e-02 430.6889 976.335)"></ellipse>
								
									<ellipse ry="5.4" rx="6.5" cy="270.2" cx="732.6" class="st11" transform="matrix(0.9292 -0.3696 0.3696 0.9292 -48.0034 289.9279)"></ellipse>
								
									<ellipse ry="5.4" rx="6.5" cy="269" cx="691.8" class="st11" transform="matrix(0.9292 -0.3696 0.3696 0.9292 -50.419 274.7555)"></ellipse>
							</g>
							<g>
								
									<ellipse ry="19.2" rx="5.8" cy="268.2" cx="668.5" class="st10" transform="matrix(1.506713e-02 -0.9999 0.9999 1.506713e-02 390.2162 932.5799)"></ellipse>
								
									<ellipse ry="5.4" rx="6.5" cy="268.9" cx="690.2" class="st11" transform="matrix(0.9292 -0.3696 0.3696 0.9292 -50.5164 274.1442)"></ellipse>
								
									<ellipse ry="5.4" rx="6.5" cy="267.6" cx="649.4" class="st11" transform="matrix(0.9292 -0.3696 0.3696 0.9292 -52.932 258.9718)"></ellipse>
							</g>
						</g>
						<g>
							<g>
								
									<ellipse ry="18.2" rx="6.1" cy="300" cx="705.5" class="st10" transform="matrix(0.2859 -0.9583 0.9583 0.2859 216.3592 890.3263)"></ellipse>
								
									<ellipse ry="5.4" rx="6.5" cy="306.4" cx="725.1" class="st11" transform="matrix(0.9292 -0.3696 0.3696 0.9292 -61.8918 289.712)"></ellipse>
								
									<ellipse ry="5.4" rx="6.5" cy="294.4" cx="688.3" class="st11" transform="matrix(0.9292 -0.3696 0.3696 0.9292 -60.0667 275.2547)"></ellipse>
							</g>
							<g>
								
									<ellipse ry="18.2" rx="6.1" cy="287.5" cx="667.2" class="st10" transform="matrix(0.2859 -0.9583 0.9583 0.2859 200.963 844.7173)"></ellipse>
								
									<ellipse ry="5.4" rx="6.5" cy="293.9" cx="686.8" class="st11" transform="matrix(0.9292 -0.3696 0.3696 0.9292 -59.9932 274.6722)"></ellipse>
								
									<ellipse ry="5.4" rx="6.5" cy="281.9" cx="650" class="st11" transform="matrix(0.9292 -0.3696 0.3696 0.9292 -58.1681 260.2149)"></ellipse>
							</g>
						</g>
						<g>
							<g>
								
									<ellipse ry="5.7" rx="19.5" cy="183.9" cx="680.6" class="st10" transform="matrix(0.7873 -0.6166 0.6166 0.7873 31.3582 458.7702)"></ellipse>
								
									<ellipse ry="5.4" rx="6.5" cy="170.1" cx="697.8" class="st11" transform="matrix(0.9292 -0.3696 0.3696 0.9292 -13.4684 269.969)"></ellipse>
								
									<ellipse ry="5.4" rx="6.5" cy="196.1" cx="665.4" class="st11" transform="matrix(0.9292 -0.3696 0.3696 0.9292 -25.3643 259.8468)"></ellipse>
							</g>
							<g>
								
									<ellipse ry="5.7" rx="19.5" cy="211" cx="646.9" class="st10" transform="matrix(0.7873 -0.6166 0.6166 0.7873 7.5306 443.7611)"></ellipse>
								
									<ellipse ry="5.4" rx="6.5" cy="197.2" cx="664.1" class="st11" transform="matrix(0.9292 -0.3696 0.3696 0.9292 -25.8436 259.439)"></ellipse>
								
									<ellipse ry="5.4" rx="6.5" cy="223.1" cx="631.8" class="st11" transform="matrix(0.9292 -0.3696 0.3696 0.9292 -37.7395 249.3169)"></ellipse>
							</g>
						</g>
						<g>
							<g>
								
									<ellipse ry="5.6" rx="19.9" cy="212.2" cx="698.1" class="st10" transform="matrix(0.9249 -0.3801 0.3801 0.9249 -28.2682 281.3127)"></ellipse>
								
									<ellipse ry="5.4" rx="6.5" cy="203.7" cx="719" class="st11" transform="matrix(0.9292 -0.3696 0.3696 0.9292 -24.3648 280.1688)"></ellipse>
								
									<ellipse ry="5.4" rx="6.5" cy="219.8" cx="679.8" class="st11" transform="matrix(0.9292 -0.3696 0.3696 0.9292 -33.0962 266.8337)"></ellipse>
							</g>
							<g>
								
									<ellipse ry="5.6" rx="19.9" cy="229" cx="657.4" class="st10" transform="matrix(0.9249 -0.3801 0.3801 0.9249 -37.7003 267.0839)"></ellipse>
								
									<ellipse ry="5.4" rx="6.5" cy="220.4" cx="678.2" class="st11" transform="matrix(0.9292 -0.3696 0.3696 0.9292 -33.448 266.2964)"></ellipse>
								
									<ellipse ry="5.4" rx="6.5" cy="236.6" cx="639" class="st11" transform="matrix(0.9292 -0.3696 0.3696 0.9292 -42.1793 252.9614)"></ellipse>
							</g>
						</g>
					</g>
				</g>
				<path d="M387.3,327.3h2.7c33.5-20.3,77.2-32.6,125-32.6c47.8,0,91.5,12.3,125,32.6h2.7l12.8-71.6
					c9.8-54.8-40.4-104.2-106-104.2h-69.1c-65.6,0-115.8,49.3-106,104.2L387.3,327.3z" class="st12"></path>
				<g>
					<path d="M373.3,330.2c-8.2,0-14.8-6.6-14.8-14.8s6.6-14.8,14.8-14.8s14.8,6.6,14.8,14.8S381.5,330.2,373.3,330.2z" class="st13"></path>
					<path d="M373.3,304.1c6.2,0,11.3,5,11.3,11.3c0,6.2-5,11.3-11.3,11.3s-11.3-5-11.3-11.3
						C362.1,309.2,367.1,304.1,373.3,304.1 M373.3,297c-10.1,0-18.4,8.2-18.4,18.4c0,10.1,8.2,18.4,18.4,18.4s18.4-8.2,18.4-18.4
						C391.7,305.3,383.4,297,373.3,297L373.3,297z" class="st1"></path>
				</g>
				<g>
					<path d="M373.1,243.5c-8.2,0-14.8-6.6-14.8-14.8s6.6-14.8,14.8-14.8s14.8,6.6,14.8,14.8S381.3,243.5,373.1,243.5z" class="st13"></path>
					<path d="M373.1,217.4c6.2,0,11.3,5,11.3,11.3s-5,11.3-11.3,11.3c-6.2,0-11.3-5-11.3-11.3S366.9,217.4,373.1,217.4
						 M373.1,210.3c-10.1,0-18.4,8.2-18.4,18.4c0,10.1,8.2,18.4,18.4,18.4s18.4-8.2,18.4-18.4C391.5,218.5,383.2,210.3,373.1,210.3
						L373.1,210.3z" class="st1"></path>
				</g>
				<g>
					<path d="M403.3,195.1c-8.2,0-14.8-6.6-14.8-14.8s6.6-14.8,14.8-14.8s14.8,6.6,14.8,14.8S411.5,195.1,403.3,195.1z" class="st13"></path>
					<path d="M403.3,169c6.2,0,11.3,5,11.3,11.3c0,6.2-5,11.3-11.3,11.3c-6.2,0-11.3-5-11.3-11.3
						C392.1,174,397.1,169,403.3,169 M403.3,161.9c-10.1,0-18.4,8.2-18.4,18.4c0,10.1,8.2,18.4,18.4,18.4s18.4-8.2,18.4-18.4
						C421.7,170.1,413.5,161.9,403.3,161.9L403.3,161.9z" class="st1"></path>
				</g>
				<g>
					<path d="M471.5,171.5c-8.2,0-14.8-6.6-14.8-14.8s6.6-14.8,14.8-14.8s14.8,6.6,14.8,14.8S479.7,171.5,471.5,171.5z" class="st13"></path>
					<path d="M471.5,145.4c6.2,0,11.3,5,11.3,11.3s-5,11.3-11.3,11.3s-11.3-5-11.3-11.3S465.3,145.4,471.5,145.4
						 M471.5,138.3c-10.1,0-18.4,8.2-18.4,18.4c0,10.1,8.2,18.4,18.4,18.4s18.4-8.2,18.4-18.4C489.9,146.6,481.6,138.3,471.5,138.3
						L471.5,138.3z" class="st1"></path>
				</g>
				<g>
					<path d="M553.6,171.5c-8.2,0-14.8-6.6-14.8-14.8s6.6-14.8,14.8-14.8s14.8,6.6,14.8,14.8S561.8,171.5,553.6,171.5z" class="st13"></path>
					<path d="M553.6,145.4c6.2,0,11.3,5,11.3,11.3s-5,11.3-11.3,11.3s-11.3-5-11.3-11.3S547.4,145.4,553.6,145.4
						 M553.6,138.3c-10.1,0-18.4,8.2-18.4,18.4c0,10.1,8.2,18.4,18.4,18.4c10.1,0,18.4-8.2,18.4-18.4
						C572,146.6,563.7,138.3,553.6,138.3L553.6,138.3z" class="st1"></path>
				</g>
				<g>
					<path d="M623.7,194.2c-4.9,0-9.5-2.4-12.3-6.5c-4.6-6.8-2.8-16,4-20.6c2.5-1.7,5.3-2.6,8.3-2.6
						c4.9,0,9.5,2.4,12.3,6.5c2.2,3.3,3,7.2,2.3,11.1c-0.7,3.9-3,7.3-6.2,9.5C629.6,193.3,626.7,194.2,623.7,194.2z" class="st13"></path>
					<path d="M623.7,168.1c3.6,0,7.2,1.7,9.3,4.9c3.5,5.1,2.1,12.2-3,15.6c-1.9,1.3-4.1,1.9-6.3,1.9
						c-3.6,0-7.2-1.7-9.3-4.9c-3.5-5.1-2.1-12.2,3-15.6C619.4,168.7,621.5,168.1,623.7,168.1 M623.7,161
						C623.7,161,623.7,161,623.7,161c-3.7,0-7.2,1.1-10.3,3.2c-8.4,5.7-10.6,17.1-4.9,25.5c3.4,5.1,9.1,8.1,15.2,8.1
						c3.7,0,7.2-1.1,10.3-3.2c8.4-5.7,10.6-17.1,4.9-25.5C635.5,164,629.8,161,623.7,161L623.7,161z" class="st1"></path>
				</g>
				<g>
					<path d="M656.1,247.4c-4.9,0-9.5-2.4-12.3-6.5c-4.6-6.8-2.8-16,4-20.6c2.5-1.7,5.3-2.6,8.3-2.6
						c4.9,0,9.5,2.4,12.3,6.5c2.2,3.3,3,7.2,2.3,11.1c-0.7,3.9-3,7.3-6.2,9.5C662,246.5,659.1,247.4,656.1,247.4z" class="st13"></path>
					<path d="M656.1,221.3c3.6,0,7.2,1.7,9.3,4.9c3.5,5.1,2.1,12.2-3,15.6c-1.9,1.3-4.1,1.9-6.3,1.9
						c-3.6,0-7.2-1.7-9.3-4.9c-3.5-5.1-2.1-12.2,3-15.6C651.7,221.9,653.9,221.3,656.1,221.3 M656.1,214.2
						C656.1,214.2,656.1,214.2,656.1,214.2c-3.7,0-7.2,1.1-10.3,3.2c-8.4,5.7-10.6,17.1-4.9,25.5c3.4,5.1,9.1,8.1,15.2,8.1
						c3.7,0,7.2-1.1,10.3-3.2c8.4-5.7,10.6-17.1,4.9-25.5C667.9,217.2,662.2,214.2,656.1,214.2L656.1,214.2z" class="st1"></path>
				</g>
				<g>
					<path d="M652.8,328.9c-4.9,0-9.5-2.4-12.3-6.5c-2.2-3.3-3-7.2-2.3-11.1s3-7.3,6.2-9.5c2.5-1.7,5.3-2.6,8.3-2.6
						c4.9,0,9.5,2.4,12.3,6.5c4.6,6.8,2.8,16-4,20.6C658.6,328,655.7,328.9,652.8,328.9z" class="st13"></path>
					<path d="M652.7,302.8c3.6,0,7.2,1.7,9.3,4.9c3.5,5.1,2.1,12.2-3,15.6c-1.9,1.3-4.1,1.9-6.3,1.9
						c-3.6,0-7.2-1.7-9.3-4.9c-3.5-5.1-2.1-12.2,3-15.6C648.4,303.5,650.6,302.8,652.7,302.8 M652.7,295.7
						C652.7,295.7,652.7,295.7,652.7,295.7c-3.7,0-7.2,1.1-10.3,3.2c-8.4,5.7-10.6,17.1-4.9,25.5c3.4,5.1,9.1,8.1,15.2,8.1
						c3.7,0,7.2-1.1,10.3-3.2c8.4-5.7,10.6-17.1,4.9-25.5C664.5,298.7,658.8,295.7,652.7,295.7L652.7,295.7z" class="st1"></path>
				</g>
				<g>
					<g>
						<path d="M380.2,325.4c-1.2,0-2.4-0.6-3.1-1.7c-1.3-2.1-2.3-4.4-3-6.7c-14.8-48.5,9.8-78.7,10.9-80
							c0.7-0.8,1.7-1.3,2.7-1.3c0.2,0,0.4,0,0.6,0c1.5,0.3,37.7,6.9,53.9,60.5c0.7,2.3,1.1,4.7,1.2,7.2c0.1,1.6-1,3.1-2.5,3.6
							l-59.8,18.2C380.9,325.4,380.6,325.4,380.2,325.4z" class="st5"></path>
						<path d="M387.8,239.3c0,0,35.3,5.9,51.1,58c0.6,2.1,1,4.2,1.1,6.4l-59.8,18.2c-1.1-1.8-2-3.8-2.6-5.9
							C363.2,268.7,387.8,239.3,387.8,239.3 M387.8,232.2c-2.1,0-4.1,0.9-5.5,2.6c-1.1,1.3-26.8,32.9-11.5,83.3
							c0.8,2.6,1.9,5.1,3.3,7.5c1.3,2.2,3.7,3.5,6.1,3.5c0.7,0,1.4-0.1,2.1-0.3l59.8-18.2c3.1-1,5.2-3.9,5-7.2
							c-0.1-2.8-0.6-5.5-1.4-8c-16.9-55.6-55.1-62.7-56.7-63C388.6,232.2,388.2,232.2,387.8,232.2L387.8,232.2z" class="st1"></path>
					</g>
					<g>
						<path d="M388,314.4c-0.6,0-1.2-0.2-1.8-0.5c-0.9-0.5-1.5-1.3-1.7-2.3c-5.9-27.3-0.7-48.1,4.7-60.8
							c0.4-1,1.2-1.7,2.2-2c0.3-0.1,0.7-0.2,1.1-0.2c0.7,0,1.3,0.2,1.9,0.5c10.8,6.8,25.8,20.7,36.3,48.5c0.3,0.9,0.3,1.9-0.1,2.8
							s-1.2,1.5-2.2,1.8l-39.4,12C388.7,314.4,388.4,314.4,388,314.4z" class="st5"></path>
						<path d="M392.6,252.2c10.4,6.5,24.7,19.9,34.9,46.7l-39.4,12C382.3,284.5,387.4,264.4,392.6,252.2 M392.6,245.1
							c-0.7,0-1.4,0.1-2.1,0.3c-2,0.6-3.6,2.1-4.4,4c-5.6,13.2-11.1,34.8-5,63c0.4,1.9,1.6,3.6,3.4,4.6c1.1,0.6,2.3,1,3.6,1
							c0.7,0,1.4-0.1,2.1-0.3l39.4-12c1.9-0.6,3.4-1.9,4.3-3.7c0.9-1.8,1-3.8,0.3-5.7c-10.9-28.7-26.5-43.2-37.8-50.2
							C395.2,245.4,393.9,245.1,392.6,245.1L392.6,245.1z" class="st1"></path>
					</g>
					<g>
						<path d="M386.5,247.6c-5.5,0-10.2-3.5-11.8-8.7c-1-3.1-0.6-6.5,0.9-9.4c1.5-2.9,4.1-5,7.3-6
							c1.2-0.4,2.4-0.5,3.6-0.5c5.5,0,10.2,3.5,11.8,8.7c2,6.5-1.7,13.4-8.2,15.4C389,247.4,387.8,247.6,386.5,247.6z" class="st14"></path>
						<g>
							<path d="M386.6,226.5c3.8,0,7.2,2.4,8.4,6.2c1.4,4.6-1.2,9.5-5.8,10.9c-0.8,0.3-1.7,0.4-2.5,0.4
								c-3.7,0-7.2-2.4-8.4-6.2c-1.4-4.6,1.2-9.5,5.8-10.9C384.9,226.7,385.7,226.5,386.6,226.5 M386.6,219.4
								C386.6,219.4,386.6,219.4,386.6,219.4c-1.6,0-3.1,0.2-4.6,0.7c-8.4,2.5-13.1,11.4-10.6,19.8c2,6.7,8.1,11.3,15.2,11.3
								c1.6,0,3.1-0.2,4.6-0.7c4.1-1.2,7.4-4,9.4-7.7c2-3.7,2.4-8,1.2-12.1C399.7,223.9,393.6,219.4,386.6,219.4L386.6,219.4z" class="st1"></path>
						</g>
					</g>
					<g>
						<path d="M405.3,298.6c-5.1,0-10.2-5.1-12.4-12.3c-1.1-3.7-1.3-7.5-0.6-10.6c0.9-3.8,3.1-6.5,6.1-7.4
							c0.7-0.2,1.5-0.3,2.2-0.3c5.1,0,10.2,5.1,12.4,12.3c2.6,8.6,0.2,16.3-5.5,18.1C406.8,298.5,406.1,298.6,405.3,298.6z" class="st15"></path>
						<path d="M400.7,271.4c3.4,0,7.2,4,9,9.8c2,6.4,0.6,12.5-3.1,13.6c-0.4,0.1-0.8,0.2-1.2,0.2c-3.4,0-7.2-4-9-9.8
							c-2-6.4-0.6-12.5,3.1-13.6C399.9,271.5,400.3,271.4,400.7,271.4 M400.7,264.3C400.7,264.3,400.7,264.3,400.7,264.3
							c-1.1,0-2.2,0.2-3.3,0.5c-7.7,2.3-11.1,12-7.9,22.5c2.7,8.9,9,14.8,15.8,14.8c1.1,0,2.2-0.2,3.3-0.5c4.3-1.3,7.4-5,8.5-10.1
							c0.9-3.8,0.6-8.2-0.7-12.5C413.8,270.3,407.4,264.3,400.7,264.3L400.7,264.3z" class="st1"></path>
					</g>
				</g>
				<g>
					<g>
						<path d="M644,322.7c-0.3,0-0.7,0-1-0.2l-59.8-18.2c-1.6-0.5-2.6-2-2.5-3.6c0.1-2.5,0.6-4.9,1.2-7.2
							c16.3-53.6,52.4-60.2,53.9-60.5c0.2,0,0.4,0,0.6,0c1,0,2,0.5,2.7,1.3c1.1,1.3,25.6,31.4,10.9,80c-0.7,2.3-1.7,4.5-3,6.7
							C646.4,322.1,645.3,322.7,644,322.7z" class="st5"></path>
						<path d="M636.5,236.6c0,0,24.5,29.4,10.2,76.6c-0.6,2.1-1.5,4.1-2.6,5.9L584.3,301c0.1-2.1,0.5-4.2,1.1-6.4
							C601.2,242.5,636.5,236.6,636.5,236.6 M636.5,229.5c-0.4,0-0.8,0-1.2,0.1c-1.6,0.3-39.8,7.3-56.7,63c-0.8,2.6-1.2,5.3-1.4,8
							c-0.2,3.3,1.9,6.2,5,7.2l59.8,18.2c0.7,0.2,1.4,0.3,2.1,0.3c2.5,0,4.8-1.3,6.1-3.5c1.4-2.4,2.5-4.9,3.3-7.5
							c15.3-50.3-10.4-82-11.5-83.3C640.6,230.4,638.6,229.5,636.5,229.5L636.5,229.5z" class="st1"></path>
					</g>
					<g>
						<path d="M636.2,311.7c-0.3,0-0.7-0.1-1-0.2l-39.4-12c-0.9-0.3-1.7-1-2.2-1.8s-0.5-1.9-0.1-2.8
							c10.5-27.8,25.6-41.7,36.3-48.5c0.6-0.4,1.2-0.5,1.9-0.5c0.4,0,0.7,0.1,1.1,0.2c1,0.3,1.8,1,2.2,2
							c5.4,12.7,10.7,33.6,4.7,60.8c-0.2,1-0.8,1.8-1.7,2.3C637.5,311.6,636.9,311.7,636.2,311.7z" class="st5"></path>
						<path d="M631.7,249.5c5.2,12.2,10.3,32.3,4.5,58.7l-39.4-12C607,269.4,621.3,256,631.7,249.5 M631.7,242.4
							c-1.3,0-2.6,0.4-3.8,1.1c-11.2,7.1-26.9,21.5-37.8,50.2c-0.7,1.8-0.6,3.9,0.3,5.7c0.9,1.8,2.4,3.1,4.3,3.7l39.4,12
							c0.7,0.2,1.4,0.3,2.1,0.3c1.3,0,2.5-0.3,3.6-1c1.7-1,2.9-2.7,3.4-4.6c6.1-28.2,0.7-49.8-5-63c-0.8-1.9-2.4-3.4-4.4-4
							C633.1,242.5,632.4,242.4,631.7,242.4L631.7,242.4z" class="st1"></path>
					</g>
					<g>
						<path d="M637.7,244.9c-1.2,0-2.4-0.2-3.6-0.5c-6.5-2-10.2-8.9-8.2-15.4c1.6-5.2,6.3-8.7,11.8-8.7
							c1.2,0,2.4,0.2,3.6,0.5c3.1,1,5.7,3.1,7.3,6c1.5,2.9,1.9,6.2,0.9,9.4C647.9,241.4,643.2,244.9,637.7,244.9
							C637.7,244.9,637.7,244.9,637.7,244.9z" class="st14"></path>
						<g>
							<path d="M637.7,223.8c0.8,0,1.7,0.1,2.5,0.4c4.6,1.4,7.2,6.3,5.8,10.9c-1.1,3.8-4.6,6.2-8.4,6.2
								c-0.8,0-1.7-0.1-2.5-0.4c-4.6-1.4-7.2-6.3-5.8-10.9C630.5,226.2,634,223.8,637.7,223.8 M637.7,216.7c-7,0-13.1,4.5-15.2,11.3
								c-1.2,4.1-0.8,8.3,1.2,12.1c2,3.7,5.3,6.5,9.4,7.7c1.5,0.5,3.1,0.7,4.6,0.7c7,0,13.1-4.5,15.2-11.3c1.2-4.1,0.8-8.3-1.2-12.1
								c-2-3.7-5.3-6.5-9.4-7.7C640.8,216.9,639.3,216.7,637.7,216.7L637.7,216.7z" class="st1"></path>
						</g>
					</g>
					<g>
						<path d="M618.9,295.9c-0.8,0-1.5-0.1-2.2-0.3c-5.7-1.7-8.1-9.5-5.5-18.1c2.2-7.2,7.3-12.3,12.4-12.3
							c0.8,0,1.5,0.1,2.2,0.3c5.7,1.7,8.1,9.5,5.5,18.1C629.1,290.8,624,295.9,618.9,295.9C618.9,295.9,618.9,295.9,618.9,295.9z" class="st15"></path>
						<path d="M623.6,268.7c0.4,0,0.8,0.1,1.2,0.2c3.7,1.1,5.1,7.2,3.1,13.6c-1.7,5.7-5.6,9.8-9,9.8
							c-0.4,0-0.8-0.1-1.2-0.2c-3.7-1.1-5.1-7.2-3.1-13.6C616.4,272.7,620.2,268.7,623.6,268.7 M623.6,261.6
							c-6.8,0-13.1,6-15.8,14.8c-1.3,4.3-1.5,8.7-0.7,12.5c1.2,5.1,4.3,8.8,8.5,10.1c1.1,0.3,2.2,0.5,3.3,0.5
							c6.8,0,13.1-6,15.8-14.8c1.3-4.3,1.5-8.7,0.7-12.5c-1.2-5.1-4.3-8.8-8.5-10.1C625.8,261.7,624.7,261.6,623.6,261.6
							L623.6,261.6z" class="st1"></path>
					</g>
				</g>
				<g>
					<g>
						<path d="M422.1,306.4c-1.4,0-2.7-0.8-3.3-2.1c-1-2.3-1.7-4.7-2.1-7c-8.4-50,19.8-76.8,21-77.9
							c0.7-0.6,1.5-0.9,2.4-0.9c0.3,0,0.7,0.1,1,0.2c1.5,0.5,36.5,11.7,45.8,66.9c0.4,2.3,0.5,4.8,0.3,7.3c-0.1,1.6-1.3,3-3,3.2
							l-61.6,10.4C422.5,306.4,422.3,306.4,422.1,306.4z" class="st5"></path>
						<path d="M440.1,221.9c0,0,34.2,10.4,43.3,64.1c0.4,2.2,0.4,4.3,0.3,6.4l-61.6,10.4c-0.8-1.9-1.5-4-1.9-6.2
							C412,248,440.1,221.9,440.1,221.9 M440.1,214.8c-1.8,0-3.5,0.7-4.8,1.9c-1.3,1.2-30.8,29.2-22.1,81.1c0.4,2.6,1.2,5.3,2.3,7.8
							c1.1,2.6,3.7,4.3,6.5,4.3c0.4,0,0.8,0,1.2-0.1l61.6-10.4c3.2-0.5,5.7-3.2,5.9-6.5c0.2-2.8,0.1-5.5-0.4-8.2
							c-9.7-57.3-46.7-69.2-48.3-69.7C441.5,214.9,440.8,214.8,440.1,214.8L440.1,214.8z" class="st1"></path>
					</g>
					<g>
						<path d="M431.3,296.5c-0.8,0-1.6-0.3-2.2-0.7c-0.8-0.6-1.3-1.5-1.4-2.5c-2.4-27.8,5.5-47.8,12.5-59.7
							c0.5-0.9,1.4-1.5,2.4-1.7c0.2,0,0.4-0.1,0.6-0.1c0.8,0,1.6,0.3,2.3,0.8c9.8,8.1,23,23.8,29.8,52.7c0.2,1,0,2-0.5,2.8
							c-0.5,0.8-1.4,1.4-2.4,1.5l-40.6,6.9C431.7,296.5,431.5,296.5,431.3,296.5z" class="st5"></path>
						<path d="M443.3,235.3c9.5,7.8,22,22.9,28.6,50.8l-40.6,6.9C428.9,266.1,436.5,246.8,443.3,235.3 M443.3,228.2
							c-0.4,0-0.8,0-1.2,0.1c-2.1,0.4-3.8,1.6-4.9,3.4c-7.3,12.4-15.4,33.1-13,61.8c0.2,2,1.2,3.8,2.7,5c1.3,1,2.8,1.5,4.4,1.5
							c0.4,0,0.8,0,1.2-0.1l40.6-6.9c1.9-0.3,3.7-1.4,4.7-3.1c1.1-1.6,1.4-3.7,1-5.6c-7.1-29.9-20.8-46.2-31-54.6
							C446.5,228.8,444.9,228.2,443.3,228.2L443.3,228.2z" class="st1"></path>
					</g>
					<g>
						<path d="M439.4,230.1c-6,0-11.1-4.3-12.1-10.3c-0.5-3.2,0.2-6.5,2.1-9.2s4.7-4.5,8-5c0.7-0.1,1.4-0.2,2.1-0.2
							c6,0,11.1,4.3,12.1,10.3c1.1,6.7-3.4,13.1-10.1,14.2C440.8,230,440.1,230.1,439.4,230.1z" class="st14"></path>
						<g>
							<path d="M439.4,209c4.2,0,7.9,3,8.6,7.3c0.8,4.8-2.4,9.3-7.2,10.1c-0.5,0.1-1,0.1-1.5,0.1c-4.2,0-7.9-3-8.6-7.3
								c-0.8-4.8,2.4-9.3,7.2-10.1C438.5,209.1,439,209,439.4,209 M439.5,201.9C439.5,201.9,439.4,201.9,439.5,201.9
								c-0.9,0-1.8,0.1-2.7,0.2c-4.2,0.7-7.8,3-10.3,6.4c-2.5,3.5-3.4,7.7-2.7,11.8c1.3,7.7,7.9,13.2,15.6,13.2
								c0.9,0,1.8-0.1,2.7-0.2c4.2-0.7,7.8-3,10.3-6.4c2.5-3.5,3.4-7.7,2.7-11.8C453.8,207.5,447.2,201.9,439.5,201.9L439.5,201.9z" class="st1"></path>
						</g>
					</g>
					<g>
						<path d="M451,283c-5.4,0-10.4-5.8-11.7-13.8c-1.5-8.8,1.8-16.2,7.8-17.2c0.4-0.1,0.8-0.1,1.3-0.1
							c5.4,0,10.4,5.8,11.7,13.8c1.5,8.8-1.8,16.2-7.8,17.2C451.8,283,451.4,283,451,283z" class="st15"></path>
						<path d="M448.3,255.4c3.6,0,7.2,4.7,8.2,10.9c1.1,6.6-1,12.5-4.8,13.1c-0.2,0-0.5,0.1-0.7,0.1
							c-3.6,0-7.2-4.7-8.2-10.9c-1.1-6.6,1-12.5,4.8-13.1C447.8,255.4,448.1,255.4,448.3,255.4 M448.3,248.3
							C448.3,248.3,448.3,248.3,448.3,248.3c-0.6,0-1.3,0.1-1.9,0.2c-7.9,1.3-12.5,10.5-10.7,21.3c1.7,9.9,7.9,16.8,15.2,16.8
							c0.6,0,1.2-0.1,1.9-0.2c4.4-0.7,7.9-4,9.8-8.9c1.3-3.6,1.7-8.1,0.9-12.5C461.8,255.2,455.6,248.3,448.3,248.3L448.3,248.3z" class="st1"></path>
					</g>
				</g>
				<g>
					<g>
						<path d="M599.4,306.4c-0.2,0-0.4,0-0.6,0l-61.6-10.4c-1.6-0.3-2.8-1.6-3-3.2c-0.2-2.5-0.1-4.9,0.3-7.3
							c9.3-55.2,44.3-66.4,45.8-66.9c0.3-0.1,0.7-0.2,1-0.2c0.9,0,1.8,0.3,2.4,0.9c1.2,1.1,29.4,27.9,21,77.9
							c-0.4,2.3-1.1,4.7-2.1,7C602.1,305.6,600.8,306.4,599.4,306.4z" class="st5"></path>
						<path d="M581.4,221.9c0,0,28.1,26,19.9,74.7c-0.4,2.2-1,4.2-1.9,6.2l-61.6-10.4c-0.2-2.1-0.1-4.3,0.3-6.4
							C547.1,232.3,581.4,221.9,581.4,221.9 M581.4,214.8c-0.7,0-1.4,0.1-2.1,0.3c-1.6,0.5-38.6,12.3-48.3,69.7
							c-0.4,2.6-0.6,5.4-0.4,8.2c0.2,3.3,2.7,5.9,5.9,6.5l61.6,10.4c0.4,0.1,0.8,0.1,1.2,0.1c2.8,0,5.4-1.7,6.5-4.3
							c1.1-2.6,1.9-5.2,2.3-7.8c8.8-51.9-20.8-80-22.1-81.1C584.9,215.5,583.1,214.8,581.4,214.8L581.4,214.8z" class="st1"></path>
					</g>
					<g>
						<path d="M590.2,296.5c-0.2,0-0.4,0-0.6,0l-40.6-6.9c-1-0.2-1.8-0.7-2.4-1.5c-0.5-0.8-0.7-1.8-0.5-2.8
							c6.9-28.9,20-44.6,29.8-52.7c0.6-0.5,1.4-0.8,2.3-0.8c0.2,0,0.4,0,0.6,0.1c1,0.2,1.9,0.8,2.4,1.7c7,11.9,14.9,31.9,12.5,59.7
							c-0.1,1-0.6,1.9-1.4,2.5C591.8,296.3,591,296.5,590.2,296.5z" class="st5"></path>
						<path d="M578.3,235.3c6.7,11.4,14.3,30.7,12,57.6l-40.6-6.9C556.3,258.2,568.8,243.1,578.3,235.3 M578.3,228.2
							c-1.6,0-3.2,0.6-4.5,1.6c-10.2,8.4-23.9,24.7-31,54.6c-0.5,1.9-0.1,3.9,1,5.6c1.1,1.6,2.8,2.8,4.7,3.1l40.6,6.9
							c0.4,0.1,0.8,0.1,1.2,0.1c1.6,0,3.1-0.5,4.4-1.5c1.6-1.2,2.6-3,2.7-5c2.5-28.7-5.7-49.5-13-61.8c-1.1-1.8-2.8-3-4.9-3.4
							C579.1,228.2,578.7,228.2,578.3,228.2L578.3,228.2z" class="st1"></path>
					</g>
					<g>
						<path d="M582.1,230.1c-0.7,0-1.4-0.1-2.1-0.2c-6.7-1.1-11.2-7.5-10.1-14.2c1-5.9,6.1-10.3,12.1-10.3
							c0.7,0,1.4,0.1,2.1,0.2c6.7,1.1,11.2,7.5,10.1,14.2C593.2,225.8,588.1,230.1,582.1,230.1C582.1,230.1,582.1,230.1,582.1,230.1
							z" class="st14"></path>
						<g>
							<path d="M582.1,209c0.5,0,1,0,1.5,0.1c4.8,0.8,8,5.3,7.2,10.1c-0.7,4.3-4.4,7.3-8.6,7.3c-0.5,0-1,0-1.5-0.1
								c-4.8-0.8-8-5.3-7.2-10.1C574.2,212.1,577.9,209,582.1,209 M582.1,201.9c-7.8,0-14.3,5.6-15.6,13.2
								c-0.7,4.2,0.3,8.4,2.7,11.8c2.5,3.5,6.1,5.7,10.3,6.4c0.9,0.1,1.8,0.2,2.7,0.2c7.8,0,14.3-5.6,15.6-13.2
								c0.7-4.2-0.3-8.4-2.7-11.8c-2.5-3.5-6.1-5.7-10.3-6.4C583.8,202,582.9,201.9,582.1,201.9L582.1,201.9z" class="st1"></path>
						</g>
					</g>
					<g>
						<path d="M570.5,283c-0.4,0-0.9,0-1.3-0.1c-5.9-1-9.2-8.4-7.8-17.2c1.4-8,6.3-13.8,11.7-13.8c0.4,0,0.9,0,1.3,0.1
							c5.9,1,9.2,8.4,7.8,17.2C580.9,277.2,576,283,570.5,283L570.5,283z" class="st15"></path>
						<path d="M573.2,255.4c0.2,0,0.5,0,0.7,0.1c3.8,0.6,6,6.5,4.8,13.1c-1.1,6.2-4.6,10.9-8.2,10.9
							c-0.2,0-0.5,0-0.7-0.1c-3.8-0.6-6-6.5-4.8-13.1C566.1,260,569.6,255.4,573.2,255.4 M573.2,248.3c-7.3,0-13.6,6.9-15.2,16.8
							c-1.8,10.8,2.8,20,10.7,21.3c0.6,0.1,1.2,0.2,1.9,0.2c7.3,0,13.6-6.9,15.2-16.8c0.7-4.4,0.4-8.8-0.9-12.5
							c-1.8-4.9-5.4-8.1-9.8-8.9C574.5,248.3,573.8,248.3,573.2,248.3L573.2,248.3z" class="st1"></path>
					</g>
				</g>
				<g>
					<g>
						<path d="M483.8,299.6c-1.6,0-3.1-1.1-3.5-2.7c-0.6-2.4-0.9-4.9-0.9-7.2c0-50.7,32.3-72.4,33.6-73.3
							c0.6-0.4,1.3-0.6,1.9-0.6c0.5,0,1.1,0.1,1.6,0.4c1.4,0.7,34,17.6,34,73.6c0,2.4-0.3,4.8-0.9,7.2c-0.4,1.6-1.8,2.7-3.5,2.7
							H483.8z" class="st5"></path>
						<path d="M515.1,219.3c0,0,32,16,32,70.4c0,2.2-0.3,4.3-0.8,6.4h-62.5c-0.5-2.1-0.8-4.2-0.8-6.4
							C483,240.3,515.1,219.3,515.1,219.3 M515.1,212.2c-1.4,0-2.7,0.4-3.9,1.2c-1.4,0.9-35.3,23.7-35.3,76.3c0,2.7,0.3,5.4,1,8.1
							c0.8,3.2,3.6,5.4,6.9,5.4h62.5c3.3,0,6.1-2.2,6.9-5.4c0.7-2.7,1-5.4,1-8.1c0-58.2-34.5-76-36-76.7
							C517.2,212.4,516.2,212.2,515.1,212.2L515.1,212.2z" class="st1"></path>
					</g>
					<g>
						<path d="M494.5,291.4c-1,0-1.9-0.4-2.6-1.1c-0.7-0.7-1-1.7-0.9-2.7c2.3-27.8,13.3-46.3,22.2-56.8
							c0.7-0.8,1.7-1.3,2.7-1.3c0,0,0,0,0,0c1,0,2,0.4,2.7,1.2c8.3,9.6,18.7,27.3,20.7,56.9c0.1,1-0.3,1.9-1,2.7s-1.6,1.1-2.6,1.1
							H494.5z" class="st5"></path>
						<path d="M515.9,233c8,9.3,17.9,26.2,19.8,54.8h-41.2C496.7,260.9,507.4,243.1,515.9,233 M515.9,225.9
							C515.9,225.9,515.9,225.9,515.9,225.9c-2.1,0-4.1,0.9-5.4,2.5c-9.2,11-20.7,30.1-23.1,58.8c-0.2,2,0.5,3.9,1.9,5.4
							c1.3,1.5,3.2,2.3,5.2,2.3h41.2c2,0,3.9-0.8,5.2-2.3c1.3-1.4,2-3.4,1.9-5.3c-2-30.6-12.8-49-21.5-59
							C519.9,226.8,518,225.9,515.9,225.9L515.9,225.9z" class="st1"></path>
					</g>
					<g>
						<path d="M515.1,227.4c-6.8,0-12.3-5.5-12.3-12.3c0-6.8,5.5-12.3,12.3-12.3c6.8,0,12.3,5.5,12.3,12.3
							C527.4,221.8,521.9,227.4,515.1,227.4z" class="st14"></path>
						<g>
							<path d="M515.1,206.3c4.8,0,8.7,3.9,8.7,8.7s-3.9,8.7-8.7,8.7c-4.8,0-8.7-3.9-8.7-8.7S510.2,206.3,515.1,206.3
								 M515.1,199.2c-8.7,0-15.9,7.1-15.9,15.9s7.1,15.9,15.9,15.9c8.7,0,15.9-7.1,15.9-15.9S523.8,199.2,515.1,199.2L515.1,199.2z" class="st1"></path>
						</g>
					</g>
					<g>
						<path d="M516.9,281.4c-6,0-10.5-6.8-10.5-15.7s4.5-15.7,10.5-15.7c6,0,10.5,6.8,10.5,15.7
							S522.9,281.4,516.9,281.4z" class="st15"></path>
						<path d="M516.9,253.5c3.8,0,7,5.4,7,12.2c0,6.7-3.1,12.2-7,12.2c-3.8,0-7-5.4-7-12.2
							C509.9,259,513,253.5,516.9,253.5 M516.9,246.4c-8,0-14.1,8.3-14.1,19.3c0,11,6,19.3,14.1,19.3c8,0,14.1-8.3,14.1-19.3
							C530.9,254.7,524.9,246.4,516.9,246.4L516.9,246.4z" class="st1"></path>
					</g>
				</g>
				<g>
					<path d="M391.1,344.3c-0.9,0-1.8-0.2-2.6-0.7c-1.7-0.9-2.7-2.7-2.7-4.6v-15.7c0-2.4,1.6-4.5,3.8-5.1
						C425,297,470,285.4,516.4,285.4c46.8,0,92.1,11.8,127.6,33.2c1.7,0.9,2.8,2.7,2.8,4.7v15.5c0,1.9-1,3.7-2.7,4.6
						c-0.8,0.5-1.7,0.7-2.6,0.7c-0.9,0-1.9-0.2-2.7-0.7c-34.2-20.1-77.6-31.2-122.4-31.2c-44.9,0-88.4,11.1-122.6,31.4
						C392.9,344.1,392,344.3,391.1,344.3z" class="st5"></path>
					<path d="M516.4,290.7c47.9,0,91.5,12.3,125,32.5h0v15.5c-33.8-19.9-77.4-31.9-125.1-31.9
						c-47.8,0-91.5,12.1-125.3,32.1v-15.7h0.3C424.9,303,468.6,290.7,516.4,290.7 M516.4,280.1c-47.2,0-93,11.8-129.1,33.2
						c-4,1.5-6.9,5.4-6.9,10V339c0,3.8,2.1,7.4,5.4,9.3c1.6,0.9,3.5,1.4,5.3,1.4c1.9,0,3.8-0.5,5.4-1.5
						c33.4-19.7,76-30.6,119.9-30.6c43.8,0,86.3,10.8,119.7,30.5c1.7,1,3.5,1.5,5.4,1.5c1.8,0,3.7-0.5,5.3-1.4
						c3.3-1.9,5.4-5.4,5.4-9.3v-15.5c0-4.1-2.3-7.7-5.7-9.4C610.2,292.1,564,280.1,516.4,280.1L516.4,280.1z" class="st1"></path>
				</g>
				<g>
					<g>
						<path d="M406.5,384.8c4.7-4.8,10.6-8.2,16.7-10.8c1.5-0.6,3.1-1.3,4.7-1.8c1.6-0.5,3.2-1.1,4.8-1.5
							c1.6-0.4,3.3-0.8,4.9-1.2l5-0.9l1.2-0.2l1.3-0.1l2.5-0.2c1.7-0.1,3.3-0.3,5-0.2c1.7,0,3.3,0,5,0c1.7,0.1,3.3,0.3,5,0.5
							c3.3,0.3,6.6,1.1,9.8,1.8l1.2,0.3c0.4,0.1,0.8,0.2,1.2,0.4c0.8,0.3,1.6,0.5,2.4,0.8c1.6,0.6,3.1,1.1,4.7,1.8
							c-3.4,0.3-6.6,0.1-9.8,0.2c-3.2,0.2-6.4,0.1-9.6,0.3l-4.7,0.2c-1.6,0.2-3.1,0.3-4.7,0.4c-1.6,0.1-3.1,0.3-4.7,0.5l-2.3,0.3
							l-1.2,0.1l-1.2,0.2l-4.7,0.7l-4.6,0.9c-3.1,0.6-6.2,1.3-9.2,2.1C418.9,380.7,412.8,382.5,406.5,384.8z" class="st1"></path>
					</g>
					<g>
						<path d="M623.6,383.5c-6.2-2.2-12.4-4-18.5-5.6c-3.1-0.8-6.2-1.4-9.2-2.1l-4.6-0.9l-4.7-0.7l-1.2-0.2l-1.2-0.1
							l-2.3-0.3c-1.6-0.2-3.1-0.4-4.7-0.5c-1.6-0.1-3.1-0.2-4.7-0.4l-4.7-0.2c-3.2-0.3-6.4-0.2-9.6-0.3c-3.2-0.1-6.5,0-9.8-0.2
							c1.5-0.7,3.1-1.2,4.7-1.8c0.8-0.3,1.6-0.5,2.4-0.8c0.4-0.1,0.8-0.3,1.2-0.4l1.2-0.3c3.2-0.7,6.5-1.5,9.8-1.8
							c1.7-0.2,3.3-0.4,5-0.5c1.7,0,3.3,0,5,0c1.7,0,3.3,0.1,5,0.2l2.5,0.2l1.3,0.1l1.2,0.2l5,0.9c1.6,0.4,3.3,0.8,4.9,1.2
							c1.6,0.4,3.2,1,4.8,1.5c1.6,0.5,3.1,1.2,4.7,1.8C613,375.4,618.9,378.8,623.6,383.5z" class="st1"></path>
					</g>
					<path d="M417.4,400.4c0,0,30.6-8.2,43.1,0c17,11.2,30.4,17.8,30.4,17.8s-23.3,5-36.8-5.9
						C443.6,403.7,417.4,400.4,417.4,400.4z" class="st1"></path>
					<path d="M623.4,400.4c0,0-30.6-8.2-43.1,0c-17,11.2-30.4,17.8-30.4,17.8s23.3,5,36.8-5.9
						C597.2,403.7,623.4,400.4,623.4,400.4z" class="st1"></path>
				</g>
				<g>
					<circle r="29.2" cy="456.1" cx="444.9" class="st16"></circle>
					<circle r="29.2" cy="456.1" cx="585.2" class="st16"></circle>
				</g>
				<g>
					
						<ellipse ry="6.7" rx="13.3" cy="449.2" cx="359.6" class="st10" transform="matrix(0.4209 -0.9071 0.9071 0.4209 -199.2665 586.3564)"></ellipse>
					
						<ellipse ry="13.3" rx="6.7" cy="450" cx="378.1" class="st10" transform="matrix(0.9071 -0.4209 0.4209 0.9071 -154.3028 200.9694)"></ellipse>
					<circle r="8.6" cy="434.2" cx="368.2" class="st10"></circle>
					<g>
						<g>
							<path d="M386.6,464.4c-5.6-2.3-11.8-1-16,2.8c0.3,0.1,0.6,0.2,0.9,0.3c7.7,3.2,11.4,12.1,8.2,19.8
								c-0.9,2.2-2.2,4-3.9,5.4c7.5,2.6,15.9-1.1,19-8.5C398.1,476.5,394.4,467.6,386.6,464.4z" class="st10"></path>
							<path d="M395.5,504.9c0.4-6-2.8-11.5-7.7-14.2c0,0.3,0,0.6,0,0.9c-0.6,8.4-7.8,14.7-16.2,14.1
								c-2.3-0.2-4.5-0.8-6.4-1.9c-0.1,8,6.1,14.7,14.1,15.2C387.7,519.5,394.9,513.2,395.5,504.9z" class="st10"></path>
							<path d="M353.5,515.6c5.9,1.4,11.8-0.8,15.3-5.2c-0.3-0.1-0.6-0.1-0.9-0.2c-8.1-2-13.1-10.2-11.2-18.3
								c0.5-2.3,1.6-4.3,3-6c-7.8-1.4-15.5,3.5-17.4,11.3C340.3,505.5,345.3,513.7,353.5,515.6z" class="st10"></path>
							<path d="M340.3,474.3c-1.3,5.9,1,11.8,5.4,15.3c0.1-0.3,0.1-0.6,0.2-0.9c1.9-8.2,10-13.3,18.2-11.4
								c2.3,0.5,4.3,1.5,6,2.9c1.3-7.9-3.7-15.5-11.6-17.3C350.3,461,342.2,466.1,340.3,474.3z" class="st10"></path>
						</g>
						<circle r="17.2" cy="488.9" cx="369.7" class="st17"></circle>
					</g>
				</g>
				<g>
					
						<ellipse ry="6.7" rx="13.3" cy="449.2" cx="657" class="st10" transform="matrix(0.4209 -0.9071 0.9071 0.4209 -27.0289 856.1556)"></ellipse>
					
						<ellipse ry="13.3" rx="6.7" cy="450" cx="675.6" class="st10" transform="matrix(0.9071 -0.4209 0.4209 0.9071 -126.6715 326.1624)"></ellipse>
					<circle r="8.6" cy="434.2" cx="665.7" class="st10"></circle>
					<g>
						<g>
							<path d="M684.1,464.4c-5.6-2.3-11.8-1-16,2.8c0.3,0.1,0.6,0.2,0.9,0.3c7.7,3.2,11.4,12.1,8.2,19.8
								c-0.9,2.2-2.2,4-3.9,5.4c7.5,2.6,15.9-1.1,19-8.5C695.5,476.5,691.8,467.6,684.1,464.4z" class="st10"></path>
							<path d="M692.9,504.9c0.4-6-2.8-11.5-7.7-14.2c0,0.3,0,0.6,0,0.9c-0.6,8.4-7.8,14.7-16.2,14.1
								c-2.3-0.2-4.5-0.8-6.4-1.9c-0.1,8,6.1,14.7,14.1,15.2C685.1,519.5,692.4,513.2,692.9,504.9z" class="st10"></path>
							<path d="M650.9,515.6c5.9,1.4,11.8-0.8,15.3-5.2c-0.3-0.1-0.6-0.1-0.9-0.2c-8.1-2-13.1-10.2-11.2-18.3
								c0.5-2.3,1.6-4.3,3-6c-7.8-1.4-15.5,3.5-17.4,11.3C637.7,505.5,642.7,513.7,650.9,515.6z" class="st10"></path>
							<path d="M637.8,474.3c-1.3,5.9,1,11.8,5.4,15.3c0.1-0.3,0.1-0.6,0.2-0.9c1.9-8.2,10-13.3,18.2-11.4
								c2.3,0.5,4.3,1.5,6,2.9c1.3-7.9-3.7-15.5-11.6-17.3C647.8,461,639.6,466.1,637.8,474.3z" class="st10"></path>
						</g>
						<circle r="17.2" cy="488.9" cx="667.1" class="st17"></circle>
					</g>
				</g>
			</g>
			<circle r="12.4" cy="317" cx="278.7" class="st18"></circle>
			<circle r="12.4" cy="318.7" cx="747.1" class="st18"></circle>
			<circle r="12.4" cy="365.3" cx="766.9" class="st18"></circle>
			<circle r="12.4" cy="409.8" cx="731.7" class="st18"></circle>
			<circle r="12.4" cy="453" cx="742.8" class="st18"></circle>
			<circle r="12.4" cy="498.6" cx="754.8" class="st18"></circle>
			<circle r="12.4" cy="538.4" cx="722" class="st18"></circle>
			<circle r="12.4" cy="369.5" cx="250.6" class="st18"></circle>
			<circle r="12.4" cy="406.6" cx="288.8" class="st18"></circle>
			<circle r="12.4" cy="453.8" cx="277.3" class="st18"></circle>
			<circle r="12.4" cy="503.6" cx="265.7" class="st18"></circle>
			<circle r="12.4" cy="535.5" cx="302.9" class="st18"></circle>
			<g>
				<path d="M460.3,828.2c-2,0-3.7-1.6-3.7-3.7v-58c0-2,1.6-3.7,3.7-3.7h31.4v-24.6c-59.6-6.5-113.2-38.3-143.9-85.6
					c-0.7-1.1-0.8-2.5-0.2-3.6c0.4-0.7,0.7-1.5,1.1-2.2c2.8-5.4,6-10.8,9.7-16.1c1.8-2.6,3.7-5.1,5.7-7.7c1.7-2.2,3.5-4.3,5.3-6.4
					c0.7-0.8,1.7-1.2,2.7-1.2c0.2,0,0.3,0,0.5,0c1.2,0.2,2.3,0.9,2.8,2.1c24.1,50.5,78.9,83,139.6,83c60.7,0,115.5-32.6,139.6-83
					c0.5-1.1,1.6-1.9,2.8-2c0.2,0,0.3,0,0.5,0c1,0,2.1,0.5,2.8,1.3c1.2,1.4,2.4,2.8,3.5,4.1l0.4,0.5c0.5,0.6,1,1.2,1.4,1.8
					c1.8,2.3,3.7,4.7,5.4,7.3c0.1,0.1,0.2,0.2,0.3,0.4c3.7,5.3,6.9,10.7,9.7,16.2c0.4,0.7,0.7,1.5,1.1,2.2c0.6,1.2,0.5,2.5-0.2,3.6
					c-30.7,47.2-84.3,79-143.9,85.6v24.6h31.4c2,0,3.7,1.6,3.7,3.7v58c0,2-1.6,3.7-3.7,3.7H460.3z M547.7,804.9v-18.8h-65.4v18.8
					H547.7z" class="st19"></path>
				<path d="M372.2,619.1c23.9,50.1,78.9,85.1,142.9,85.1c64,0,119-35,142.9-85.1c1.2,1.3,2.3,2.7,3.4,4
					c0.6,0.7,1.2,1.4,1.8,2.2c2,2.4,3.8,5,5.6,7.5c0,0,0,0,0,0c3.5,5,6.7,10.3,9.4,15.7c0.4,0.7,0.7,1.4,1.1,2.1
					c-30,46.1-82.9,78.5-144.5,84.2v31.6h35.1v58H460.3v-58h35.1v-31.6c-61.6-5.7-114.5-38.1-144.5-84.3c0.3-0.7,0.7-1.4,1.1-2.1
					c2.8-5.5,6-10.7,9.5-15.7c1.8-2.5,3.7-5,5.6-7.5C368.6,623.2,370.4,621.1,372.2,619.1 M478.7,808.6h72.7v-26.1h-72.7V808.6
					 M372.2,611.7c-2.1,0-4.1,0.9-5.5,2.5c-1.9,2.1-3.7,4.4-5.5,6.6c-2.1,2.6-4,5.2-5.8,7.8c0,0,0,0,0,0c-3.8,5.4-7.1,11-10,16.6
					c-0.4,0.7-0.8,1.5-1.1,2.2c-1.1,2.3-1,5.1,0.4,7.2c15.5,23.9,37.2,44.5,62.8,59.6c24.2,14.3,51.9,23.7,80.5,27.2v17.7h-27.8
					c-4,0-7.3,3.3-7.3,7.3v58c0,4,3.3,7.3,7.3,7.3h109.6c4,0,7.3-3.3,7.3-7.3v-58c0-4-3.3-7.3-7.3-7.3h-27.8v-17.7
					c28.6-3.6,56.3-12.9,80.5-27.2c25.6-15.1,47.3-35.7,62.8-59.6c1.4-2.2,1.6-4.9,0.4-7.2c-0.4-0.8-0.8-1.5-1.1-2.3
					c-2.8-5.6-6.2-11.1-9.9-16.6c-0.1-0.2-0.3-0.4-0.4-0.5c-1.8-2.5-3.6-5-5.4-7.3c-0.5-0.7-1-1.3-1.5-1.9l-0.4-0.5
					c-1.2-1.4-2.3-2.8-3.6-4.2c-1.4-1.6-3.4-2.5-5.5-2.5c-0.3,0-0.7,0-1,0.1c-2.4,0.3-4.6,1.9-5.6,4.1c-23.5,49.2-77,81-136.3,81
					c-59.3,0-112.8-31.8-136.3-81c-1.1-2.2-3.2-3.8-5.6-4.1C372.8,611.8,372.5,611.7,372.2,611.7L372.2,611.7z M486,789.8h58v11.5
					h-58V789.8L486,789.8z" class="st1"></path>
			</g>
		</g>
		<g>
			<g>
				<rect height="211.7" width="147.1" class="st20" y="639.3" x="441.5"></rect>
				<path d="M583.7,644.2v202H446.4v-202H583.7 M593.5,634.4h-9.8H446.4h-9.8v9.8v202v9.8h9.8h137.3h9.8v-9.8v-202
					V634.4L593.5,634.4z" class="st1"></path>
			</g>
			<g>
				<rect height="38.1" width="162.6" class="st21" y="634.3" x="433.7"></rect>
				<g>
					<path d="M426.2,684.1L426.2,684.1c-6.8,0-12.3-5.5-12.3-12.3v-37c0-6.8,5.5-12.3,12.3-12.3l0,0
						c6.8,0,12.3,5.5,12.3,12.3v37C438.5,678.6,433,684.1,426.2,684.1z" class="st21"></path>
					<path d="M604,684.1L604,684.1c-6.8,0-12.3-5.5-12.3-12.3v-37c0-6.8,5.5-12.3,12.3-12.3l0,0
						c6.8,0,12.3,5.5,12.3,12.3v37C616.2,678.6,610.7,684.1,604,684.1z" class="st21"></path>
				</g>
			</g>
			<g>
				<rect height="38.1" width="162.6" class="st21" y="833.3" x="433.7"></rect>
				<g>
					<path d="M426.2,883.1L426.2,883.1c-6.8,0-12.3-5.5-12.3-12.3v-37c0-6.8,5.5-12.3,12.3-12.3l0,0
						c6.8,0,12.3,5.5,12.3,12.3v37C438.5,877.6,433,883.1,426.2,883.1z" class="st21"></path>
					<path d="M604,883.1L604,883.1c-6.8,0-12.3-5.5-12.3-12.3v-37c0-6.8,5.5-12.3,12.3-12.3l0,0
						c6.8,0,12.3,5.5,12.3,12.3v37C616.2,877.6,610.7,883.1,604,883.1z" class="st21"></path>
				</g>
			</g>
		</g>
		<g>
			<g>
				<g>
					<path d="M412.5,706c-1.8,0-3.7-0.1-5.4-0.4l-4.1-0.6v-69l4.1-0.6c1.8-0.3,3.6-0.4,5.4-0.4
						c19.6,0,35.5,15.9,35.5,35.5S432.1,706,412.5,706z" class="st4"></path>
					<g>
						<path d="M412.5,639.8c16.9,0,30.7,13.7,30.7,30.7c0,16.9-13.7,30.7-30.7,30.7c-1.6,0-3.2-0.1-4.7-0.4l0-60.6
							C409.4,639.9,410.9,639.8,412.5,639.8 M412.5,630.1c-2.1,0-4.1,0.2-6.2,0.5l-8.2,1.3v8.3l0,60.6v8.3l8.2,1.3
							c2,0.3,4.1,0.5,6.2,0.5c22.3,0,40.4-18.1,40.4-40.4C452.9,648.2,434.8,630.1,412.5,630.1L412.5,630.1z" class="st1"></path>
					</g>
				</g>
				<g>
					<rect height="112.3" width="40.9" class="st7" y="634.9" x="370.6"></rect>
					<g>
						<path d="M375.4,639.8l31.2,0l0,102.7h-31.2L375.4,639.8 M365.8,630.1v9.7l0,102.7l0,9.7h9.7h31.2l9.7,0v-9.7
							l0-102.7l0-9.7h-9.7l-31.2,0H365.8L365.8,630.1z" class="st1"></path>
					</g>
				</g>
				<g>
					<path d="M375,836.3c-61.2,0-111-49.8-111-111v-30.7c0-32.9,26.8-59.7,59.7-59.7h56.1v201.4H375z" class="st5"></path>
					<g>
						<path d="M375,639.8l0,191.7h0c-58.6,0-106.1-47.5-106.1-106.1l0-30.7c0-30.3,24.6-54.9,54.9-54.9H375
							 M384.7,630.1H375h-51.2c-17.2,0-33.5,6.7-45.6,18.9c-12.2,12.2-18.9,28.4-18.9,45.6l0,30.7c0,30.9,12,60,33.9,81.9
							c21.9,21.9,51,33.9,81.9,33.9h9.7v-9.7l0-191.7L384.7,630.1L384.7,630.1z" class="st1"></path>
					</g>
				</g>
			</g>
			<g>
				<g>
					<path d="M617.6,706c-19.6,0-35.5-15.9-35.5-35.5s15.9-35.5,35.5-35.5c1.8,0,3.6,0.1,5.4,0.4l4.1,0.6v69l-4.1,0.6
						C621.2,705.8,619.4,706,617.6,706z" class="st4"></path>
					<g>
						<path d="M617.6,639.8c1.6,0,3.2,0.1,4.7,0.4v60.6c-1.5,0.2-3.1,0.4-4.7,0.4c-16.9,0-30.7-13.7-30.7-30.7
							S600.7,639.8,617.6,639.8 M617.6,630.1c-22.3,0-40.4,18.1-40.4,40.4c0,22.3,18.1,40.4,40.4,40.4c2.1,0,4.1-0.2,6.2-0.5
							l8.2-1.3v-8.3v-60.6v-8.3l-8.2-1.3C621.7,630.2,619.7,630.1,617.6,630.1L617.6,630.1z" class="st1"></path>
					</g>
				</g>
				<g>
					<rect height="112.3" width="40.9" class="st7" y="634.9" x="618.7"></rect>
					<g>
						<path d="M654.7,639.8v102.7h-31.2V639.8H654.7 M664.4,630.1h-9.7h-31.2h-9.7v9.7v102.7v9.7h9.7h31.2h9.7v-9.7
							V639.8V630.1L664.4,630.1z" class="st1"></path>
					</g>
				</g>
				<g>
					<path d="M650.3,836.3V634.9h56.1c32.9,0,59.7,26.8,59.7,59.7v30.7c0,61.2-49.8,111-111,111H650.3z" class="st5"></path>
					<g>
						<path d="M706.4,639.8c30.3,0,54.9,24.6,54.9,54.9v30.7c0,58.6-47.5,106.1-106.1,106.1h0V639.8H706.4 M706.4,630.1
							h-51.2h-9.7v9.7v191.7v9.7h9.7c30.9,0,60-12,81.9-33.9c21.9-21.9,33.9-51,33.9-81.9v-30.7C770.9,659.1,742,630.1,706.4,630.1
							L706.4,630.1z" class="st1"></path>
					</g>
				</g>
			</g>
		</g>
	</g>
</g>
</svg>
