<svg xml:space="preserve" style="enable-background:new 0 0 1024 1024;" viewBox="0 0 1024 1024" y="0px" x="0px" xmlns:xlink="http://www.w3.org/1999/xlink" xmlns="http://www.w3.org/2000/svg" id="图层_1" version="1.1">
<style type="text/css">
	.st0{fill:#FF8C52;}
	.st1{fill:#381818;}
	.st2{clip-path:url(#SVGID_2_);}
	.st3{fill:#93E2B8;}
	.st4{fill:#FFF39F;}
	.st5{fill:#C7E28D;}
	.st6{fill:#EF5E3C;}
	.st7{fill:#F4CABD;}
	.st8{fill:#596682;}
	.st9{fill:#E4473B;}
	.st10{opacity:0.72;}
	.st11{fill:#ED8A77;}
	.st12{fill:#FFFFFF;}
	.st13{fill:#FCC25B;}
	.st14{fill:#F4A462;}
</style>
<g>
	<g>
		<g>
			<path d="M373.1,945.2c-61.4,0-113.3-45-122.1-105.3c-14.1-4.1-37.7-13.3-57.5-32c-25.7-24.2-38.1-56.9-36.8-97.2
				l0-0.3l0-0.3c0.1-0.8,11.7-82.2-27.2-119.5l-3.9-3.7l3.9-3.7c38.9-37.3,27.3-118.7,27.2-119.5l0-0.3l0-0.3
				c-1.3-40.3,11.1-72.9,36.7-97.1c19.8-18.7,43.3-27.9,57.5-32c8.7-60.5,60.6-105.8,122.2-105.8h290.6
				c61.6,0,113.5,45.2,122.2,105.8c14.1,4.2,37.7,13.3,57.5,32c25.7,24.2,38,56.9,36.7,97.1l0,0.3l0,0.3
				c-0.1,0.8-11.7,82.2,27.2,119.5l3.9,3.7l-3.9,3.7C868.4,628,879.9,709.3,880,710.1l0,0.3l0,0.3c1.3,40.3-11.1,73-36.8,97.2
				c-19.8,18.7-43.4,27.8-57.5,32C777,900.1,725,945.2,663.7,945.2H373.1z" class="st0"></path>
		</g>
		<g>
			<g>
				<path d="M663.7,233.3c60.7,0,110.8,45.8,117.5,104.7c28.5,7.6,96.6,35.3,93.7,124.9c0,0-12.6,84.3,28.7,124
					c-41.3,39.7-28.7,124-28.7,124c2.8,89.7-65.3,117.3-93.8,124.9c-7,58.7-56.9,104.2-117.5,104.2H373.1
					c-60.6,0-110.5-45.5-117.5-104.2c-28.5-7.6-96.6-35.3-93.8-124.9c0,0,12.6-84.3-28.7-124c41.3-39.7,28.7-124,28.7-124
					c-2.8-89.6,65.3-117.3,93.7-124.9c6.8-58.9,56.8-104.7,117.5-104.7H663.7 M663.7,223H373.1c-31.8,0-62.3,11.7-85.9,32.9
					c-21.7,19.5-36.1,45.6-40.9,74.1c-16.5,5.2-37.9,14.7-56.4,32.3c-12.2,11.5-21.7,25.1-28.1,40.5c-7.5,17.9-10.9,38.3-10.2,60.6
					l0,0.6l0.1,0.6c0.1,0.8,11.3,79.5-25.7,115l-7.8,7.4l7.8,7.4c19,18.2,25,48.2,26.7,70.2c1.9,24.6-1,44.6-1,44.8l-0.1,0.6l0,0.6
					c-0.7,22.3,2.7,42.7,10.3,60.6c6.4,15.3,15.9,28.9,28.1,40.5c18.6,17.5,40,27.1,56.5,32.2C257,905,310.3,950.3,373.1,950.3
					h290.6c62.8,0,116.1-45.3,126.7-106.5c16.5-5.2,37.9-14.7,56.5-32.2c12.2-11.5,21.7-25.1,28.1-40.5c7.5-17.9,11-38.3,10.3-60.6
					l0-0.6l-0.1-0.6c-0.1-0.8-11.3-79.5,25.7-115l7.8-7.4l-7.8-7.4c-19-18.2-25-48.2-26.7-70.2c-1.9-24.6,1-44.6,1-44.8l0.1-0.6
					l0-0.6c0.7-22.3-2.7-42.7-10.2-60.6c-6.4-15.3-15.9-28.9-28.1-40.5c-18.6-17.5-39.9-27.1-56.4-32.3
					c-4.8-28.5-19.2-54.6-40.9-74.1C726,234.7,695.5,223,663.7,223L663.7,223z" class="st1"></path>
			</g>
		</g>
	</g>
	<g>
		<defs>
			<path d="M903.8,586.9c-41.3-39.7-28.7-124-28.7-124c2.8-89.6,156.5-125,128-132.6c-2.8-24,31.5-59.2,16.7-76.6
				c27.7-33.7-222.1-52.6-222.1-95.5c0-119.8-124.9-217-279-217s-279,97.1-279,217c0,43-119,84.9-91.3,118.6
				c-14.9,17.4-26.1,29.6-28.8,53.5c-28.5,7.6,39.8,43,42.6,132.6c0,0,12.6,84.3-28.7,124c41.3,39.7,28.7,124,28.7,124
				c-2.8,89.7,65.3,117.3,93.8,124.9c7,58.7,56.9,104.2,117.5,104.2h290.6c60.6,0,110.5-45.5,117.5-104.2
				c28.5-7.6,96.6-35.3,93.8-124.9C875,710.9,862.5,626.6,903.8,586.9z" id="SVGID_1_"></path>
		</defs>
		<clipPath id="SVGID_2_">
			<use style="overflow:visible;" xlink:href="#SVGID_1_"></use>
		</clipPath>
		<g class="st2">
			<g>
				<g>
					<g>
						<path d="M251.3,1016.8l10.4-67.9l8.3-54.5l0.7-4.8l22.9-149.9c3.7-24.2,12.7-47.3,26.7-68.6
							c4.2-6.4,8.9-12.6,13.8-18.4c1.9-2.2,3.8-4.4,5.6-6.4c12.3-13.3,26.8-25.3,43-35.6c1.7-1.1,3.5-2.2,5.4-3.3
							c6.7-4,13.7-7.7,20.6-11c8.3-3.9,17.1-7.5,26.3-10.7c22.5-7.7,46.1-12.1,70-13.3c4-0.2,8.1-0.3,12.6-0.3
							c21.8,0,43.4,2.7,64.2,8.1c2,0.5,4.3,1.1,6.6,1.8c5.1,1.4,10.2,3.1,15.2,4.8c19.1,6.7,37,15.7,53.4,26.7
							c2.3,1.5,4.9,3.3,7.9,5.5l0.1,0.1c0.2,0.1,0.4,0.3,0.7,0.5c11.3,8.4,21.6,17.6,30.5,27.4c1.9,2.1,3.8,4.3,5.6,6.4l1.3,1.6
							c20.9,25.4,33.9,53.9,38.6,84.6l42.3,277.2H251.3z" class="st3"></path>
					</g>
					<g>
						<path d="M517.8,576.6c21.6,0,42.9,2.7,63.1,8c2.1,0.6,4.3,1.1,6.4,1.8c5.1,1.4,10,3,14.9,4.8
							c18.8,6.7,36.5,15.5,52.4,26.2c2.6,1.7,5.2,3.6,7.8,5.4c0.2,0.1,0.4,0.3,0.6,0.4c11,8.1,21.1,17.1,30.1,26.9
							c1.8,2,3.7,4.1,5.5,6.2c0.4,0.5,0.9,1.1,1.3,1.6c19.5,23.8,32.9,51.7,37.6,82.4l41.5,272H256.6l9.6-62.7l8.3-54.5l0.7-4.8
							l1.7-11.3l21.2-138.7c3.7-24.2,12.8-46.7,26-66.8c4.1-6.2,8.6-12.2,13.5-17.9c1.8-2.1,3.6-4.2,5.5-6.2
							c12.2-13.2,26.4-24.9,42.1-34.9c1.8-1.1,3.5-2.2,5.3-3.3c6.5-3.9,13.3-7.5,20.2-10.8c8.3-4,17-7.4,25.9-10.5
							c21.7-7.4,44.9-11.9,68.8-13.1C509.5,576.6,513.6,576.6,517.8,576.6 M517.8,567.5c-4.6,0-8.8,0.1-12.9,0.3
							c-24.3,1.2-48.3,5.7-71.2,13.5c-9.4,3.2-18.4,6.9-26.8,10.9c-7.1,3.3-14.1,7.1-21,11.2c-2,1.2-3.8,2.3-5.5,3.4
							c-16.5,10.5-31.3,22.7-43.9,36.4c-1.9,2-3.8,4.2-5.8,6.5c-5.1,5.9-9.8,12.3-14.1,18.8c-14.4,21.8-23.6,45.5-27.4,70.4
							L268,877.6l-1.7,11.2l-0.7,4.8l-8.3,54.5l-9.6,62.7l-1.6,10.4h10.5H779h10.5l-1.6-10.4l-41.5-272
							c-4.8-31.5-18.1-60.8-39.5-86.8l0,0l0,0l-0.7-0.8l-0.6-0.8c-1.8-2.1-3.7-4.3-5.7-6.5c-9.1-10-19.5-19.3-31-27.9
							c-0.3-0.3-0.6-0.5-0.9-0.7l0,0c-3-2.2-5.7-4-8.1-5.6c-16.7-11.2-35-20.3-54.4-27.2c-5-1.8-10.2-3.5-15.4-4.9
							c-2.3-0.7-4.6-1.3-6.7-1.8C562,570.3,540,567.5,517.8,567.5L517.8,567.5z" class="st1"></path>
					</g>
				</g>
				<g>
					<g>
						<path d="M272.5,878.6l21.2-139c3.7-24.2,12.7-47.3,26.7-68.6c4.2-6.4,8.9-12.6,13.8-18.4c1.9-2.2,3.8-4.4,5.6-6.4
							c12.3-13.3,26.8-25.3,43-35.6c1.7-1.1,3.5-2.2,5.4-3.3c6.7-4,13.7-7.7,20.6-11c8.3-3.9,17.1-7.5,26.3-10.7
							c22.5-7.7,46.1-12.1,70-13.3l5-0.2l-25.3,420.5l-214.2,16.5L272.5,878.6z" class="st4"></path>
					</g>
					<g>
						<path d="M505.4,576.9l-24.8,411.5l-205.4,15.8l1.7-125.2l21.2-138.7c3.7-24.2,12.8-46.7,26-66.8
							c4.1-6.2,8.6-12.2,13.5-17.9c1.8-2.1,3.6-4.2,5.5-6.2c12.2-13.2,26.4-24.9,42.1-34.9c1.8-1.1,3.5-2.2,5.3-3.3
							c6.5-3.9,13.3-7.5,20.2-10.8c8.3-4,17-7.4,25.9-10.5C458.4,582.5,481.6,578,505.4,576.9 M515,567.3l-10.1,0.5
							c-24.3,1.2-48.3,5.7-71.2,13.5c-9.4,3.2-18.4,6.9-26.8,10.9c-7.1,3.3-14.1,7.1-21,11.2c-2,1.2-3.8,2.3-5.5,3.4
							c-16.5,10.5-31.3,22.7-43.9,36.4c-1.9,2-3.8,4.2-5.8,6.5c-5.1,5.9-9.8,12.3-14.1,18.8c-14.4,21.8-23.6,45.5-27.4,70.4
							L268,877.6l-0.1,0.6l0,0.6l-1.7,125.2l-0.1,9.9l9.9-0.8l205.4-15.8l7.9-0.6l0.5-7.9l24.8-411.5L515,567.3L515,567.3z" class="st1"></path>
					</g>
				</g>
				<g>
					<g>
						<path d="M549.2,992.6l-25.3-420.5l5,0.2c23.9,1.2,47.5,5.6,70,13.3c9.2,3.1,18,6.7,26.3,10.7
							c6.9,3.3,13.9,7,20.6,11c2,1.2,3.8,2.3,5.4,3.3c16.2,10.3,30.7,22.3,43,35.6c1.8,2,3.7,4.1,5.6,6.4c4.9,5.8,9.6,12,13.8,18.4
							c14,21.3,23,44.3,26.7,68.6l21.2,139l1.8,130.5L549.2,992.6z" class="st4"></path>
					</g>
					<g>
						<path d="M528.7,576.9c23.8,1.2,47,5.7,68.8,13.1c8.9,3,17.5,6.5,25.9,10.5c7,3.3,13.7,6.9,20.2,10.8
							c1.8,1.1,3.6,2.1,5.3,3.3c15.7,10,29.9,21.7,42.1,34.9c1.9,2,3.7,4.1,5.5,6.2c4.9,5.7,9.4,11.7,13.5,17.9
							c13.2,20.1,22.3,42.6,26,66.8l21.2,138.7l1.7,125.2l-205.4-15.8L528.7,576.9 M519.1,567.3l0.6,10.1l24.8,411.5l0.5,7.9
							l7.9,0.6l205.4,15.8l9.9,0.8l-0.1-9.9l-1.7-125.2l0-0.6l-0.1-0.6l-21.2-138.7c-3.8-24.9-13-48.6-27.4-70.4
							c-4.3-6.5-9-12.9-14.1-18.8c-1.9-2.3-3.9-4.5-5.8-6.5c-12.6-13.6-27.3-25.9-43.9-36.4c-1.7-1.1-3.5-2.2-5.5-3.4
							c-6.8-4.1-13.9-7.9-21-11.2c-8.4-4-17.4-7.6-26.8-10.8c-22.9-7.8-46.9-12.4-71.3-13.5L519.1,567.3L519.1,567.3z" class="st1"></path>
					</g>
				</g>
				<g>
					<g>
						<path d="M280.9,812.5c-2,0-3.7-1.3-4.3-3.1c-5.7-17.5-7.6-40.6-5.7-68.7c1.4-20.8,4.4-36.3,4.6-36.9
							c0.1-0.3,0.1-0.6,0.2-0.8c6.3-15.6,14.4-29.2,23.6-40.9c-6.1,7.1-9.4,11.8-9.5,11.9c-0.9,1.2-2.3,1.9-3.7,2
							c-0.6,0-1.1-0.1-1.7-0.3c-2-0.8-3.1-2.8-2.8-4.9c0.4-2.5,10.7-61.2,67.2-97.8c54.1-35.1,97.1-91.2,97.5-91.7
							c0.9-1.1,2.2-1.8,3.6-1.8c0.4,0,0.8,0.1,1.2,0.2l60.7,16.5l60.7-16.5c0.4-0.1,0.8-0.2,1.2-0.2c1.4,0,2.7,0.6,3.6,1.8
							c0.4,0.6,43.4,56.7,97.5,91.7c56.5,36.6,66.8,95.3,67.2,97.8c0.3,2.1-0.8,4.1-2.8,4.9c-0.6,0.2-1.1,0.3-1.7,0.3
							c-1.5,0-2.9-0.7-3.7-2c-0.1-0.1-3.4-4.8-9.5-11.9c9.1,11.7,17.2,25.3,23.6,40.9c0,0.1,0.1,0.2,0.1,0.3
							c0.9,2.7,22,67.6,6.9,101.9c-0.7,1.6-2.4,2.7-4.1,2.7c-0.1,0-0.1,0-0.2,0c-1.9-0.1-3.5-1.3-4.1-3c-0.2-0.5-17.4-48.7-55-100.2
							c-22-30.1-46.6-55.5-73.2-75.3c-32.8-24.5-68.6-40.7-106.4-48c-37.8,7.3-73.2,23.7-105.1,48.7c-25.8,20.2-49.5,46.1-70.4,76.9
							c-35.7,52.6-50.9,102.1-51.1,102.6C284.6,811.2,282.9,812.5,280.9,812.5C280.9,812.5,280.9,812.5,280.9,812.5z" class="st5"></path>
					</g>
					<g>
						<path d="M573.6,483.8c0,0,43.2,56.9,98.7,92.8c55.5,35.9,65.2,94.7,65.2,94.7s-56.2-81.4-145.9-81.4
							c-1.5,0-3.1,0-4.7,0.1c0,0,115.9,13.8,156.8,114.7c0,0,21.6,65.5,7,98.6c0,0-68.4-194.3-238.9-226.7
							C341.2,609,280.9,808,280.9,808c-13.3-40.9-1-103.3-1-103.3c40.9-101,156.8-114.7,156.8-114.7c-1.6,0-3.1-0.1-4.7-0.1
							c-89.7,0-145.9,81.4-145.9,81.4s9.7-58.8,65.2-94.7c55.5-35.9,98.7-92.8,98.7-92.8l61.9,16.9L573.6,483.8 M449.9,474.7
							c-2.8,0-5.5,1.3-7.2,3.6c-0.4,0.6-42.9,56.1-96.4,90.7c-30.4,19.7-47.6,45.9-56.6,64.5c-9.8,20.1-12.5,35.7-12.6,36.4
							c-0.7,4,1.4,7.9,5,9.6c-4,7-7.5,14.3-10.6,21.8c-0.2,0.5-0.4,1.1-0.5,1.6c-0.5,2.6-12.6,65.3,1.2,107.9
							c1.2,3.7,4.7,6.3,8.6,6.3c0,0,0.1,0,0.1,0c4,0,7.4-2.6,8.6-6.4c0.1-0.5,15.3-49.5,50.6-101.5c20.6-30.4,44-55.8,69.4-75.7
							C440.6,609,475,593,511.8,585.8c36.8,7.3,71.7,23.1,103.6,46.9c26.1,19.5,50.4,44.5,72.2,74.3c37.3,51,54.4,98.8,54.6,99.3
							c1.2,3.5,4.5,5.9,8.2,6c0.1,0,0.2,0,0.3,0c3.6,0,6.8-2.1,8.3-5.4c6.8-15.4,7.6-37.9,2.6-66.9c-3.6-20.9-9.1-37.5-9.3-38.2
							c-0.1-0.2-0.1-0.4-0.2-0.6c-3.1-7.5-6.6-14.8-10.6-21.8c3.6-1.7,5.6-5.6,5-9.6c-0.1-0.7-2.8-16.2-12.6-36.4
							c-9-18.5-26.2-44.8-56.6-64.5c-53.4-34.6-96-90.1-96.4-90.7c-1.7-2.3-4.4-3.6-7.2-3.6c-0.8,0-1.6,0.1-2.4,0.3l-59.5,16.2
							L452.3,475C451.5,474.8,450.7,474.7,449.9,474.7L449.9,474.7z" class="st1"></path>
					</g>
				</g>
				<g>
					<g>
						<g>
							<path d="M484.7,134.5c-9.3,0-19.5-2-30.3-5.9c-54.6-19.8-73.5-54.2-74.3-55.6l-4-7.4l8.4-0.2
								c0.3,0,30.8-1,64.9-16.1c8.3-3.7,17.7-5.6,27.2-5.6c19.4,0,36.9,7.8,47,20.8c6.3,8.1,12.6,22.1,7.1,42.8l-0.1,0.4l-0.2,0.4
								C530,109.2,518.5,134.5,484.7,134.5z" class="st6"></path>
						</g>
						<g>
							<path d="M476.7,48.9c30,0,58.7,20.6,49.1,57.2c0,0-10.2,23.3-41.1,23.3c-8.1,0-17.5-1.6-28.6-5.6
								c-53.3-19.4-71.5-53.2-71.5-53.2s31.4-0.8,66.8-16.5C459.4,50.6,468.1,48.9,476.7,48.9 M476.7,38.6L476.7,38.6
								c-10.2,0-20.4,2.1-29.3,6.1c-33,14.6-62.7,15.6-63,15.6l-16.7,0.5l7.9,14.7c0.8,1.5,20.7,37.5,77.1,58
								c11.4,4.1,22.2,6.2,32.1,6.2c37.1,0,50-28.3,50.5-29.5l0.3-0.7l0.2-0.8c6-22.7-1.1-38.2-8-47.3
								C516.7,47.1,497.6,38.6,476.7,38.6L476.7,38.6z" class="st1"></path>
						</g>
					</g>
					<g>
						<path d="M524.5,107.8H499c-2.1,0-3.9-1.7-3.9-3.9V68c0-2.1,1.7-3.9,3.9-3.9h25.4c2.1,0,3.9,1.7,3.9,3.9V104
							C528.3,106.1,526.6,107.8,524.5,107.8z" class="st7"></path>
						<path d="M524.5,112.1H499c-4.5,0-8.2-3.7-8.2-8.2V68c0-4.5,3.7-8.2,8.2-8.2h25.4c4.5,0,8.2,3.7,8.2,8.2V104
							C532.6,108.5,529,112.1,524.5,112.1z M499.5,103.5H524V68.5h-24.6V103.5z" class="st1"></path>
					</g>
					<g>
						<g>
							<path d="M358.9,295.3c-1.6,0-3-1-3.5-2.5c-16.3-47.5-7.4-91.4,26.7-130.5c28.2-32.4,67.8-54.5,96.1-67.4
								c10.8-4.9,22.8-7.5,34.8-7.5c11.9,0,24,2.6,34.8,7.5c28.3,12.9,67.9,35.1,96.1,67.4c34.1,39.1,43,83,26.7,130.5
								c-0.5,1.5-1.9,2.5-3.5,2.5H358.9z" class="st8"></path>
						</g>
						<g>
							<path d="M512.9,91.1c11.4,0,22.7,2.4,33.2,7.2c55.4,25.3,157.2,87.6,120.8,193.3H514.2h-2.5H358.9
								c-36.4-105.7,65.4-168,120.8-193.3C490.2,93.5,501.6,91.1,512.9,91.1 M512.9,83.6c-12.5,0-25,2.7-36.3,7.9
								c-28.6,13.1-68.8,35.5-97.4,68.4c-16,18.4-26.7,38.1-31.9,58.7c-6,24-4.5,49.4,4.5,75.5c1,3,3.9,5.1,7.1,5.1h152.8h2.5H667
								c3.2,0,6.1-2,7.1-5.1c9-26.1,10.5-51.5,4.5-75.5c-5.2-20.6-15.9-40.3-31.9-58.7c-28.6-32.9-68.8-55.3-97.4-68.4
								C538,86.3,525.4,83.6,512.9,83.6L512.9,83.6z" class="st1"></path>
						</g>
					</g>
					<g>
						<g>
							<path d="M516.8,537.1c-31.3,0-68.3-17.8-99-47.6c-34-33-55.3-75.6-60-120c-5.7-54.4-0.1-94.9,17.2-123.8
								c30.1-50.1,89-54.3,141.9-54.3c52.9,0,111.9,4.2,141.7,54.3l1.1,1.9v0.1c16.2,28.7,21.5,68.5,16.3,121.8
								c-4.5,45.4-24.4,88-56.1,120C589.8,519.8,552.3,537.1,516.8,537.1z" class="st7"></path>
						</g>
						<g>
							<path d="M516.9,199.5c53.9,0,107.6,4.6,134.8,50.4c0,0,0,0,0,0c14.9,25.2,21.8,62.7,16.3,118.8
								c-9.1,93.1-83.9,160.4-151.2,160.4c-57.6,0-141.2-67.4-151-160.4c-5.9-56,1-93.6,16.1-118.8
								C409.2,204.5,463.2,199.5,516.9,199.5 M516.9,183.4c-25.6,0-55.4,1-81.9,8.8c-30.4,8.9-52.2,25.1-66.8,49.4
								c-18.2,30.4-24.2,72.5-18.3,128.7c4.9,46.2,27,90.6,62.3,124.9c32.1,31.2,71.3,49.8,104.6,49.8c37.6,0,77.3-18.2,108.8-50
								c33-33.2,53.7-77.6,58.4-124.8c5.3-53.8,0-94.6-16.2-124.6v-0.2l-2.3-3.8c-14.6-24.5-36.4-40.7-66.7-49.6
								C572.7,184.5,544,183.4,516.9,183.4L516.9,183.4z" class="st1"></path>
						</g>
					</g>
					<g>
						<path d="M395.1,297.9c0,0,38-13.9,83.7,7.7l4,18.2C482.9,323.9,440.5,308.7,395.1,297.9z" class="st1"></path>
					</g>
					<g>
						<path d="M647.4,297.9c0,0-38-13.9-83.7,7.7l-4,18.2C559.6,323.9,602,308.7,647.4,297.9z" class="st1"></path>
					</g>
					<g>
						<g>
							<g>
								<g>
									<path d="M486.3,449.1c0,0,2-17.1,14.1-17.1c8.7,0,12.7,8.6,12.7,8.6s4.4-8.6,12.7-8.6
										c11.4,0,14.1,17.1,14.1,17.1H486.3z" class="st9"></path>
								</g>
								<g>
									<path d="M486.3,447.3c0,0,7.9,18.4,28.2,17.9c20.3-0.6,25.4-17.9,25.4-17.9H486.3z" class="st9"></path>
								</g>
							</g>
							<g>
								<path d="M535.1,450.4c-0.1,0-0.3,0-0.4,0l-43-0.5c-3.9,0-7.7-0.8-10.6-2.1l-1.9-0.9c-0.8-0.4-1.2-1.3-0.8-2.1
									c0.4-0.8,1.3-1.2,2.1-0.8l1.9,0.9c2.5,1.1,5.8,1.7,9.3,1.8l43,0.5c3.5,0,6.9-0.5,9.5-1.6l1.6-0.6c0.8-0.3,1.8,0.1,2.1,0.9
									s-0.1,1.8-0.9,2.1l-1.6,0.6C542.5,449.7,538.8,450.4,535.1,450.4z" class="st1"></path>
							</g>
							<g>
								<g>
									
										<ellipse ry="3.1" rx="2.5" cy="446.2" cx="480.6" class="st1" transform="matrix(0.2909 -0.9568 0.9568 0.2909 -86.0852 776.2119)"></ellipse>
								</g>
								<g>
									
										<ellipse ry="2.5" rx="3.1" cy="446.2" cx="545.5" class="st1" transform="matrix(0.9568 -0.2909 0.2909 0.9568 -106.1978 177.9738)"></ellipse>
								</g>
							</g>
						</g>
						<g class="st10">
							<g>
								<ellipse ry="23.9" rx="27.9" cy="428.6" cx="430.2" class="st11"></ellipse>
							</g>
						</g>
						<g class="st10">
							<g>
								<ellipse ry="23.9" rx="27.9" cy="428.6" cx="603.3" class="st11"></ellipse>
							</g>
						</g>
					</g>
					<g>
						<g>
							<circle r="15.8" cy="367.2" cx="449.9" class="st1"></circle>
						</g>
						<g>
							<circle r="15.8" cy="367.2" cx="583.7" class="st1"></circle>
						</g>
					</g>
					<g>
						<path d="M516.8,191.4c-100.1,0-108.1,32.2-108.1,32.2c40.7-3.3,70.2,5.8,88,14.2c12.7,6,27.5,6,40.2,0
							c17.8-8.4,47.3-17.5,88-14.2C624.9,223.6,616.9,191.4,516.8,191.4z" class="st1"></path>
					</g>
					<g>
						<g>
							<path d="M272.9,539.8c-1.3,0-2.4-0.6-3.2-1.6c-0.7-1-0.9-2.4-0.5-3.5l16.9-46.5l78.3-214.9
								c0.2-0.6,0.6-1.2,1.1-1.6l69.3-59.8c0.7-0.6,1.6-0.9,2.5-0.9c0.7,0,1.4,0.2,2,0.5c1.4,0.8,2.2,2.5,1.8,4.1l-69.3,321.1
								c-0.4,1.8-2,3-3.8,3H272.9z" class="st12"></path>
						</g>
						<g>
							<g>
								<path d="M437.4,214.7l-69.3,321.1h-95.3l16.9-46.5l78.3-214.9l46.4-40.1L437.4,214.7 M437.4,207
									c-1.8,0-3.6,0.6-5,1.9l-22.9,19.8l-46.4,40.1c-1,0.9-1.8,2-2.2,3.2l-78.3,214.9l-16.9,46.5c-0.9,2.4-0.5,5,0.9,7.1
									c1.4,2.1,3.8,3.3,6.3,3.3h95.3c3.6,0,6.8-2.5,7.5-6.1L445,216.4c0.7-3.2-0.8-6.6-3.6-8.3C440.2,207.4,438.8,207,437.4,207
									L437.4,207z M437.4,222.5L437.4,222.5L437.4,222.5L437.4,222.5z" class="st1"></path>
							</g>
						</g>
					</g>
					<g>
						<g>
							<path d="M289.8,493.2c-1.2,0-2.4-0.6-3.1-1.6c-0.7-1-0.9-2.3-0.5-3.4l78.3-214.9c0.1-0.3,0.3-0.6,0.4-0.9
								l26.8-38.4c0.6-0.9,1.6-1.5,2.8-1.6l19.6-1.7c0.1,0,0.2,0,0.3,0c1.1,0,2.2,0.5,2.9,1.4c0.8,0.9,1.1,2.2,0.7,3.4L348,490.4
								c-0.4,1.6-1.9,2.8-3.6,2.8H289.8z" class="st8"></path>
						</g>
						<g>
							<path d="M414.5,234.5l-70.1,254.9h-54.6l78.3-214.9l26.8-38.4L414.5,234.5 M414.5,227c-0.2,0-0.4,0-0.6,0
								l-19.6,1.7c-2.2,0.2-4.2,1.4-5.5,3.2L362,270.3c-0.4,0.5-0.7,1.1-0.9,1.7l-78.3,214.9c-0.8,2.3-0.5,4.9,0.9,6.9
								c1.4,2,3.7,3.2,6.1,3.2h54.6c3.4,0,6.3-2.3,7.2-5.5l70.1-254.9c0.7-2.4,0.1-4.9-1.5-6.8C418.9,228,416.8,227,414.5,227
								L414.5,227z M414.5,242L414.5,242L414.5,242L414.5,242z" class="st1"></path>
						</g>
					</g>
					<g>
						<g>
							<path d="M667.5,539.8c-1.8,0-3.4-1.3-3.8-3l-69.3-321.1c-0.4-1.6,0.4-3.3,1.8-4.1c0.6-0.4,1.3-0.5,2-0.5
								c0.9,0,1.8,0.3,2.5,0.9l69.3,59.8c0.5,0.4,0.9,1,1.1,1.6l78.3,214.9l16.9,46.5c0.4,1.2,0.3,2.5-0.5,3.5
								c-0.7,1-1.9,1.6-3.2,1.6H667.5z" class="st12"></path>
						</g>
						<g>
							<g>
								<path d="M598.2,214.7l22.9,19.8l46.4,40.1l78.3,214.9l16.9,46.5h-95.3L598.2,214.7 M598.2,207
									c-1.4,0-2.7,0.4-3.9,1.1c-2.9,1.7-4.3,5-3.6,8.3L660,537.5c0.8,3.6,3.9,6.1,7.5,6.1h95.3c2.5,0,4.9-1.2,6.3-3.3
									c1.4-2.1,1.8-4.7,0.9-7.1l-16.9-46.5l-78.3-214.9c-0.5-1.2-1.2-2.3-2.2-3.2l-46.4-40.1l-22.9-19.8
									C601.8,207.7,600,207,598.2,207L598.2,207z" class="st1"></path>
							</g>
						</g>
					</g>
					<g>
						<g>
							<path d="M691.2,493.2c-1.7,0-3.2-1.1-3.6-2.8l-70.1-254.9c-0.3-1.2-0.1-2.5,0.7-3.4c0.7-0.9,1.8-1.4,2.9-1.4
								c0.1,0,0.2,0,0.3,0l19.6,1.7c1.1,0.1,2.1,0.7,2.8,1.6l26.8,38.4c0.2,0.3,0.3,0.6,0.5,0.9l78.3,214.9c0.4,1.2,0.3,2.4-0.5,3.4
								s-1.8,1.6-3.1,1.6H691.2z" class="st8"></path>
						</g>
						<g>
							<path d="M621.1,234.5l19.6,1.7l26.8,38.4l78.3,214.9h-54.6L621.1,234.5 M621.1,227c-2.2,0-4.3,1-5.8,2.7
								c-1.6,1.9-2.1,4.4-1.5,6.8L684,491.4c0.9,3.3,3.9,5.5,7.2,5.5h54.6c2.4,0,4.7-1.2,6.1-3.2c1.4-2,1.7-4.6,0.9-6.9L674.6,272
								c-0.2-0.6-0.5-1.2-0.9-1.7l-26.8-38.4c-1.3-1.8-3.3-3-5.5-3.2l-19.6-1.7C621.5,227,621.3,227,621.1,227L621.1,227z" class="st1"></path>
						</g>
					</g>
					<g>
						<g>
							<g>
								<path d="M359,295.4c-0.5,0-0.9-0.1-1.4-0.3c-1.5-0.6-2.5-2-2.5-3.6v-54.1c0-0.4,0-0.7,0.1-1.1
									c10.6-37.3,53.6-69,112.3-82.7c19-4.4,32.8-10.7,41.2-18.8c2.1-2.1,5-3.2,8-3.2c3,0,5.9,1.1,8,3.2
									c8.3,8.1,22.2,14.4,41.2,18.8c58.7,13.7,101.7,45.3,112.3,82.7c0.1,0.3,0.1,0.7,0.1,1.1v54.1c0,1.6-1,3-2.5,3.6
									c-0.5,0.2-0.9,0.3-1.4,0.3c-1.1,0-2.1-0.4-2.8-1.2c-0.7-0.8-72.6-77.7-154.9-78.1c-82.3,0.4-154.2,77.3-154.9,78.1
									C361.1,295,360.1,295.4,359,295.4z" class="st12"></path>
							</g>
							<g>
								<path d="M516.8,135.5c2,0,3.9,0.7,5.3,2.1c7,6.8,19.8,14.4,43,19.8c52.5,12.2,98.5,41.3,109.4,80v54.1
									c0,0-72.7-78.9-157.7-79.3c-85,0.4-157.7,79.3-157.7,79.3v-54.1c10.9-38.7,56.9-67.7,109.4-80c23.2-5.4,36-13,43-19.8
									C512.9,136.3,514.8,135.5,516.8,135.5C516.8,135.5,516.8,135.5,516.8,135.5 M516.8,127.8L516.8,127.8c-4,0-7.8,1.5-10.7,4.3
									c-5.4,5.2-16.6,12.5-39.4,17.8c-27.8,6.5-53.1,17.3-73,31.3c-21.9,15.3-36.4,34.1-42.1,54.1c-0.2,0.7-0.3,1.4-0.3,2.1v54.1
									c0,3.2,2,6,4.9,7.2c0.9,0.4,1.9,0.5,2.8,0.5c2.1,0,4.2-0.9,5.7-2.5c0.2-0.2,18.1-19.5,46-38.6c16.2-11.1,32.6-20,48.6-26.3
									c19.8-7.8,39.1-11.8,57.5-11.9c18.4,0.1,37.8,4.1,57.7,12c16.1,6.4,32.5,15.3,48.7,26.4c27.8,19.1,45.5,38.2,45.7,38.4
									c1.5,1.6,3.6,2.5,5.7,2.5c0.9,0,1.9-0.2,2.8-0.5c3-1.2,4.9-4,4.9-7.2v-54.1c0-0.7-0.1-1.4-0.3-2.1
									c-5.7-20.1-20.2-38.8-42.1-54.1c-19.9-14-45.2-24.8-73-31.3c-22.8-5.3-34-12.6-39.4-17.8
									C524.6,129.3,520.8,127.8,516.8,127.8L516.8,127.8z" class="st1"></path>
							</g>
						</g>
					</g>
				</g>
				<g>
					<g>
						<g>
							<path d="M460.3,604.9c-4.1,0-8.6-2.5-12.1-6.7c-1.5-1.9-4-5.6-3.4-9.1l0.4-1.9c-4.8-1.9-9.6-8.6-10.6-14.9
								c-0.8-5.7,1.4-10.6,6.2-13.5c3.5-2.1,15.6-5.7,57.2-5.7c1.4,0,2.3,0,2.3,0l4.5,0l0,18.9l-1.6,1.4
								c-5.4,4.7-32.5,28.1-39.2,30.7C462.9,604.6,461.6,604.9,460.3,604.9C460.3,604.9,460.3,604.9,460.3,604.9z" class="st5"></path>
						</g>
						<g>
							<path d="M498.1,557.7c1.4,0,2.2,0,2.2,0l0,12.4c0,0-31.6,27.5-37.9,29.9c-0.7,0.3-1.4,0.4-2.2,0.4
								c-5.7,0-11.5-7.6-11-10.3c27-10.2,29.2-17.9,29.2-17.9s-21.8,11.2-29.8,11.2c-0.5,0-1,0-1.4-0.2c-5.1-1.3-13.5-14.8-4.2-20.5
								C451,558,488.5,557.7,498.1,557.7 M498.1,548.6c-4.7,0-16.8,0.1-28.6,0.8c-21.2,1.2-27.5,3.5-31,5.6
								c-6.3,3.8-9.4,10.6-8.3,18c1,6.6,5.1,13.1,10,16.6c-0.3,4.5,2.2,8.7,4.5,11.5c2.1,2.5,7.7,8.3,15.6,8.3c1.9,0,3.7-0.3,5.5-1
								c1.8-0.7,5.2-2.1,23.7-17.3c8.7-7.2,16.7-14.1,16.8-14.2l3.1-2.7l0-4.1l0-12.4l0-9l-9-0.1
								C500.4,548.6,499.5,548.6,498.1,548.6L498.1,548.6z" class="st1"></path>
						</g>
					</g>
					<g>
						<g>
							<path d="M571.4,604.9c-1.3,0-2.6-0.2-3.8-0.7c-6.6-2.6-33.8-26-39.2-30.7l-1.6-1.4v-18.9l4.5,0c0,0,0.8,0,2.3,0
								c17.9,0,49.1,0.7,57.2,5.7c4.8,2.9,7,7.8,6.2,13.5c-0.9,6.3-5.7,12.9-10.6,14.9l0.4,1.9c0.7,3.5-1.8,7.2-3.4,9.1
								C580,602.4,575.5,604.9,571.4,604.9z" class="st5"></path>
						</g>
						<g>
							<path d="M533.6,557.7c9.6,0,47.1,0.3,54.9,5.1c9.3,5.7,0.9,19.1-4.2,20.5c-0.4,0.1-0.9,0.2-1.4,0.2
								c-8,0-29.8-11.2-29.8-11.2s2.2,7.7,29.2,17.9c0.5,2.7-5.3,10.3-11,10.3c-0.7,0-1.5-0.1-2.2-0.4c-6.2-2.4-37.9-29.9-37.9-29.9
								l0-12.4C531.4,557.7,532.2,557.7,533.6,557.7 M533.6,548.6L533.6,548.6c-1.5,0-2.3,0-2.3,0l-9,0.1l0,9l0,12.4l0,4.1l3.1,2.7
								c0.1,0.1,8.1,7,16.8,14.2c18.5,15.3,21.9,16.6,23.7,17.3c1.7,0.7,3.6,1,5.5,1c7.9,0,13.5-5.8,15.6-8.3
								c2.3-2.8,4.8-6.9,4.5-11.5c5-3.5,9.1-10,10-16.6c1.1-7.4-2-14.2-8.3-18c-3.4-2.1-9.8-4.4-31-5.6
								C550.4,548.7,538.2,548.6,533.6,548.6L533.6,548.6z" class="st1"></path>
						</g>
					</g>
				</g>
				<g>
					<g>
						<path d="M505.1,596.4c-4.3,0-7.8-3.5-7.8-7.8v-34.9c0-4.3,3.5-7.8,7.8-7.8h21.4c4.3,0,7.8,3.5,7.8,7.8v34.9
							c0,4.3-3.5,7.8-7.8,7.8H505.1z" class="st5"></path>
					</g>
					<g>
						<path d="M526.5,550.4c1.8,0,3.2,1.5,3.2,3.2v34.9c0,1.8-1.5,3.2-3.2,3.2h-21.4c-1.8,0-3.2-1.5-3.2-3.2v-34.9
							c0-1.8,1.5-3.2,3.2-3.2H526.5 M526.5,541.4h-21.4c-6.8,0-12.3,5.5-12.3,12.3v34.9c0,6.8,5.5,12.3,12.3,12.3h21.4
							c6.8,0,12.3-5.5,12.3-12.3v-34.9C538.8,546.9,533.3,541.4,526.5,541.4L526.5,541.4z" class="st1"></path>
					</g>
				</g>
				<g>
					<g>
						<path d="M517,695.1c-16.1,0-29.1-13.1-29.1-29.1s13.1-29.1,29.1-29.1c16.1,0,29.1,13.1,29.1,29.1
							S533.1,695.1,517,695.1z" class="st4"></path>
					</g>
					<g>
						<g>
							<path d="M517,643.2c12.6,0,22.8,10.2,22.8,22.8s-10.2,22.8-22.8,22.8c-12.6,0-22.8-10.2-22.8-22.8
								S504.4,643.2,517,643.2 M517,630.6c-19.5,0-35.4,15.9-35.4,35.4s15.9,35.4,35.4,35.4c19.5,0,35.4-15.9,35.4-35.4
								S536.5,630.6,517,630.6L517,630.6z" class="st1"></path>
						</g>
					</g>
				</g>
				<g>
					<g>
						<path d="M517,800.7c-16.1,0-29.1-13.1-29.1-29.1c0-16.1,13.1-29.1,29.1-29.1c16.1,0,29.1,13.1,29.1,29.1
							C546.1,787.7,533.1,800.7,517,800.7z" class="st4"></path>
					</g>
					<g>
						<g>
							<path d="M517,748.7c12.6,0,22.8,10.2,22.8,22.8c0,12.6-10.2,22.8-22.8,22.8c-12.6,0-22.8-10.2-22.8-22.8
								C494.2,759,504.4,748.7,517,748.7 M517,736.1c-19.5,0-35.4,15.9-35.4,35.4c0,19.5,15.9,35.4,35.4,35.4
								c19.5,0,35.4-15.9,35.4-35.4C552.4,752,536.5,736.1,517,736.1L517,736.1z" class="st1"></path>
						</g>
					</g>
				</g>
			</g>
			<g>
				<g>
					<g>
						<rect height="211.7" width="147.1" class="st13" y="625.4" x="443.1"></rect>
					</g>
					<g>
						<path d="M585.3,630.3v202H448v-202H585.3 M595,620.5h-9.8H448h-9.8v9.8v202v9.8h9.8h137.3h9.8v-9.8v-202V620.5
							L595,620.5z" class="st1"></path>
					</g>
				</g>
				<g>
					<g>
						<rect height="38.1" width="162.6" class="st14" y="620.3" x="435.2"></rect>
						<path d="M602.7,663.2H430.4v-47.8h172.3V663.2z M440.1,653.5H593v-28.4H440.1V653.5z" class="st1"></path>
					</g>
					<g>
						<g>
							<path d="M427.7,670.1L427.7,670.1c-6.8,0-12.3-5.5-12.3-12.3v-37c0-6.8,5.5-12.3,12.3-12.3h0
								c6.8,0,12.3,5.5,12.3,12.3v37C440,664.6,434.5,670.1,427.7,670.1z" class="st14"></path>
							<path d="M427.7,675c-9.5,0-17.1-7.7-17.1-17.1v-37c0-9.5,7.7-17.1,17.1-17.1s17.1,7.7,17.1,17.1v37
								C444.9,667.3,437.2,675,427.7,675z M427.7,613.4c-4.1,0-7.4,3.3-7.4,7.4v37c0,4.1,3.3,7.4,7.4,7.4s7.4-3.3,7.4-7.4v-37
								C435.2,616.8,431.8,613.4,427.7,613.4z" class="st1"></path>
						</g>
						<g>
							<path d="M605.5,670.1L605.5,670.1c-6.8,0-12.3-5.5-12.3-12.3v-37c0-6.8,5.5-12.3,12.3-12.3l0,0
								c6.8,0,12.3,5.5,12.3,12.3v37C617.8,664.6,612.3,670.1,605.5,670.1z" class="st14"></path>
							<path d="M605.5,675c-9.5,0-17.1-7.7-17.1-17.1v-37c0-9.5,7.7-17.1,17.1-17.1s17.1,7.7,17.1,17.1v37
								C622.7,667.3,615,675,605.5,675z M605.5,613.4c-4.1,0-7.4,3.3-7.4,7.4v37c0,4.1,3.3,7.4,7.4,7.4s7.4-3.3,7.4-7.4v-37
								C612.9,616.8,609.6,613.4,605.5,613.4z" class="st1"></path>
						</g>
					</g>
				</g>
				<g>
					<g>
						<rect height="38.1" width="162.6" class="st14" y="819.4" x="435.2"></rect>
						<path d="M602.7,862.3H430.4v-47.8h172.3V862.3z M440.1,852.6H593v-28.4H440.1V852.6z" class="st1"></path>
					</g>
					<g>
						<g>
							<path d="M427.7,869.2L427.7,869.2c-6.8,0-12.3-5.5-12.3-12.3v-37c0-6.8,5.5-12.3,12.3-12.3h0
								c6.8,0,12.3,5.5,12.3,12.3v37C440,863.7,434.5,869.2,427.7,869.2z" class="st14"></path>
							<path d="M427.7,874c-9.5,0-17.1-7.7-17.1-17.1v-37c0-9.5,7.7-17.1,17.1-17.1s17.1,7.7,17.1,17.1v37
								C444.9,866.3,437.2,874,427.7,874z M427.7,812.5c-4.1,0-7.4,3.3-7.4,7.4v37c0,4.1,3.3,7.4,7.4,7.4s7.4-3.3,7.4-7.4v-37
								C435.2,815.8,431.8,812.5,427.7,812.5z" class="st1"></path>
						</g>
						<g>
							<path d="M605.5,869.2L605.5,869.2c-6.8,0-12.3-5.5-12.3-12.3v-37c0-6.8,5.5-12.3,12.3-12.3l0,0
								c6.8,0,12.3,5.5,12.3,12.3v37C617.8,863.7,612.3,869.2,605.5,869.2z" class="st14"></path>
							<path d="M605.5,874c-9.5,0-17.1-7.7-17.1-17.1v-37c0-9.5,7.7-17.1,17.1-17.1s17.1,7.7,17.1,17.1v37
								C622.7,866.3,615,874,605.5,874z M605.5,812.5c-4.1,0-7.4,3.3-7.4,7.4v37c0,4.1,3.3,7.4,7.4,7.4s7.4-3.3,7.4-7.4v-37
								C612.9,815.8,609.6,812.5,605.5,812.5z" class="st1"></path>
						</g>
					</g>
				</g>
			</g>
			<g>
				<g>
					<g>
						<g>
							<path d="M414.1,694.2c-1.8,0-3.7-0.1-5.4-0.4l-4.1-0.6v-69l4.1-0.6c1.8-0.3,3.6-0.4,5.4-0.4
								c19.6,0,35.5,15.9,35.5,35.5S433.7,694.2,414.1,694.2z" class="st7"></path>
						</g>
						<g>
							<g>
								<path d="M414.1,628c16.9,0,30.7,13.7,30.7,30.7c0,16.9-13.7,30.7-30.7,30.7c-1.6,0-3.2-0.1-4.7-0.4l0-60.6
									C410.9,628.1,412.5,628,414.1,628 M414.1,618.3L414.1,618.3c-2.1,0-4.1,0.2-6.2,0.5l-8.2,1.3l0,8.3l0,60.6v8.3l8.2,1.3
									c2,0.3,4.1,0.5,6.2,0.5c22.3,0,40.4-18.1,40.4-40.4C454.5,636.4,436.4,618.3,414.1,618.3L414.1,618.3z" class="st1"></path>
							</g>
						</g>
					</g>
					<g>
						<g>
							<rect height="111.1" width="39.6" class="st3" y="623.8" x="372.8"></rect>
						</g>
						<g>
							<g>
								<path d="M408.2,628l0,102.7H377l0-102.7H408.2 M416.6,619.6h-8.4H377h-8.4v8.4l0,102.7l0,8.4h8.4h31.2h8.4v-8.4
									l0-102.7L416.6,619.6L416.6,619.6z" class="st1"></path>
							</g>
						</g>
					</g>
					<g>
						<g>
							<path d="M376.6,823.9c-60.8,0-110.3-49.5-110.3-110.3v-30.7c0-32.6,26.5-59.1,59.1-59.1h55.4l0,200.1H376.6z" class="st3"></path>
						</g>
						<g>
							<g>
								<path d="M325.3,628l51.2,0l0,191.7h0c-58.6,0-106.1-47.5-106.1-106.1l0-30.7C270.4,652.5,295,628,325.3,628
									 M325.3,619.6c-34.9,0-63.3,28.4-63.3,63.3l0,30.7c0,30.6,11.9,59.4,33.5,81c21.6,21.6,50.4,33.5,81,33.5l8.4,0v-8.4
									l0-191.7l0-8.4h-8.4L325.3,619.6L325.3,619.6z" class="st1"></path>
							</g>
						</g>
					</g>
				</g>
				<g>
					<g>
						<g>
							<path d="M619.1,694.2c-19.6,0-35.5-15.9-35.5-35.5s15.9-35.5,35.5-35.5c1.8,0,3.7,0.1,5.4,0.4l4.1,0.6v69
								l-4.1,0.6C622.8,694,621,694.2,619.1,694.2z" class="st7"></path>
						</g>
						<g>
							<g>
								<path d="M619.1,628c1.6,0,3.2,0.1,4.7,0.4V689c-1.5,0.2-3.1,0.4-4.7,0.4c-16.9,0-30.7-13.7-30.7-30.7
									C588.5,641.7,602.2,628,619.1,628 M619.1,618.3c-22.3,0-40.4,18.1-40.4,40.4c0,22.3,18.1,40.4,40.4,40.4
									c2.1,0,4.1-0.2,6.2-0.5l8.2-1.3V689v-60.6V620l-8.2-1.3C623.3,618.4,621.2,618.3,619.1,618.3L619.1,618.3z" class="st1"></path>
							</g>
						</g>
					</g>
					<g>
						<g>
							<rect height="111.1" width="39.6" class="st3" y="623.8" x="620.8"></rect>
						</g>
						<g>
							<g>
								<path d="M656.3,628v102.7H625V628H656.3 M664.7,619.6h-8.4H625h-8.4v8.4v102.7v8.4h8.4h31.2h8.4v-8.4V628V619.6
									L664.7,619.6z" class="st1"></path>
							</g>
						</g>
					</g>
					<g>
						<g>
							<path d="M652.5,823.9V623.8h55.4c32.6,0,59.1,26.5,59.1,59.1v30.7c0,60.8-49.5,110.3-110.3,110.3H652.5z" class="st3"></path>
						</g>
						<g>
							<g>
								<path d="M707.9,628c30.3,0,54.9,24.6,54.9,54.9v30.7c0,58.6-47.5,106.1-106.1,106.1h0V628H707.9 M707.9,619.6
									h-51.2h-8.4v8.4v191.7v8.4h8.4c30.6,0,59.4-11.9,81-33.5c21.6-21.6,33.5-50.4,33.5-81v-30.7
									C771.2,648,742.8,619.6,707.9,619.6L707.9,619.6z" class="st1"></path>
							</g>
						</g>
					</g>
				</g>
			</g>
		</g>
	</g>
</g>
</svg>
