<svg viewBox="0 0 1211.74 1211.74" xmlns:xlink="http://www.w3.org/1999/xlink" xmlns="http://www.w3.org/2000/svg"><defs><style>.a,.l{fill:none;}.b{fill:#c79f62;}.c{fill:#fce4d6;}.d{fill:#231815;}.e{fill:#e6ae8b;}.f,.p{fill:#fff;}.g{fill:#3e3a39;}.h{clip-path:url(#a);}.i{fill:#a9aaaa;}.j{fill:#00b8ee;}.k{clip-path:url(#b);}.l,.p,.s{stroke:#231815;stroke-width:3.78px;}.l,.p{stroke-linecap:round;stroke-linejoin:round;}.m,.s{fill:#ca0915;}.n{clip-path:url(#c);}.o{fill:#717071;}.q{fill:#df7e9d;}.r{clip-path:url(#d);}.s{stroke-miterlimit:10;}.t{clip-path:url(#e);}</style><clipPath id="a"><path d="M498.26,521.7s200,93,367.83-6.25c0,0,21.45,62.84,3.35,126.06,0,0-73,96.75-375.88,27.39C493.56,668.9,462.93,583.65,498.26,521.7Z" class="a"></path></clipPath><clipPath id="b"><path d="M403.2,343.5s-100.06,64.3-53.7,247.9c0,0,91.27-14,87.33,118.66h22.85l-2.84-186.69L489.78,475l7.73-138.35S435.34,328.74,403.2,343.5Z" class="a"></path></clipPath><clipPath id="c"><ellipse transform="translate(-108.14 75.17) rotate(-10.05)" ry="138.11" rx="91.7" cy="652.4" cx="373.27" class="a"></ellipse></clipPath><clipPath id="d"><path d="M640.44,820.58s50.32-39.39,67.72-39.2,21.51,6.16,22.07,10.83a28.7,28.7,0,0,0,1.12-6.91s17.93,6.53,21.29,15.68,10.26,59,10.26,59-24.08,30.62-47,27.26-47.42-14-55.63-20.35S639.14,834.58,640.44,820.58Z" class="a"></path></clipPath><clipPath id="e"><path d="M826.28,1203.26H347.82s3.29-77.24,20.39-119a60.57,60.57,0,0,1,21.92-26.76c37.73-25.85,80.79-39.47,120.45-46.66V856.15H663.47v154.71c39.66,7.19,82.77,20.81,120.5,46.66a60.55,60.55,0,0,1,21.91,26.76C823,1126,826.28,1203.26,826.28,1203.26Z" class="a"></path></clipPath></defs><rect height="1211.74" width="1211.74" class="b"></rect><path d="M347.82,1207a3.76,3.76,0,0,1-3.78-3.94c.13-3.18,3.51-78.38,20.67-120.26A64.18,64.18,0,0,1,388,1054.4c32.42-22.21,72.39-37.91,118.82-46.69V856.15a3.78,3.78,0,0,1,3.78-3.78H663.47a3.79,3.79,0,0,1,3.79,3.78v151.56c46.47,8.79,86.44,24.49,118.85,46.69a64.18,64.18,0,0,1,23.27,28.44c17.16,41.88,20.54,117.08,20.68,120.26a3.78,3.78,0,0,1-3.78,3.94Z" class="c"></path><path d="M663.47,856.15v154.71c39.66,7.19,82.77,20.81,120.5,46.66a60.48,60.48,0,0,1,21.91,26.76c17.11,41.74,20.4,119,20.4,119H347.82s3.29-77.24,20.39-119a60.57,60.57,0,0,1,21.92-26.76c37.73-25.85,80.79-39.47,120.45-46.66V856.15H663.47m0-7.57H510.58a7.57,7.57,0,0,0-7.57,7.57v148.44c-45.64,9-85,24.68-117.16,46.69a67.89,67.89,0,0,0-24.64,30.13c-17.41,42.48-20.82,118.32-21,121.53a7.57,7.57,0,0,0,7.57,7.89H826.28a7.57,7.57,0,0,0,7.56-7.89c-.14-3.21-3.55-79-21-121.53a67.91,67.91,0,0,0-24.62-30.13c-32.14-22-71.54-37.7-117.22-46.69V856.15a7.57,7.57,0,0,0-7.57-7.57Z" class="d"></path><path d="M663.47,862.89V973.25C549,945.36,510.58,883.51,510.58,883.51V840.64l98.28,14.29Z" class="e"></path><path d="M669.37,917a407.47,407.47,0,0,1-57.72-4.45c-131.6-19-223.07-118.87-244.69-267.16-3.14-21.57-5.08-40.8-5.94-58.76-3.93-77.45,12.14-134.81,49.1-175.34,20.26-22.21,47.34-39.73,80.48-52.07,35.47-13.22,79.19-21,129.94-23.07,17.86-.74,34.22-1.9,48.66-2.92,18.34-1.3,34.17-2.43,48.47-2.43,32.9,0,53.5,6.5,71.1,22.42,19.14,17.31,35.46,47.27,52.92,97.14,16,45.78,24.16,104.87,26.36,191.58,2.67,107-17.11,180.69-60.49,225.17a155,155,0,0,1-59.27,37.6C725.53,912.9,699,917,669.37,917Z" class="c"></path><path d="M717.67,334.62c56.84,0,85.83,18.15,120.45,117,17.94,51.25,24.25,116,26.15,190.43,4.61,184.78-58.85,271.18-194.9,271.18a400.35,400.35,0,0,1-57.18-4.42C481.89,890,392.08,791.52,370.7,644.87c-2.87-19.75-5-39.32-5.9-58.39C358.25,457.28,404.38,348.89,620.7,340c40-1.65,71.33-5.34,97-5.34m0-7.57v0c-14.44,0-30.34,1.13-48.74,2.43-14.41,1-30.75,2.19-48.55,2.92-51.15,2.11-95.26,10-131.11,23.3-33.71,12.55-61.28,30.41-81.95,53.07-20.1,22-34.36,49.4-42.4,81.34-7.05,28.06-9.57,59.71-7.69,96.75.86,18.07,2.81,37.41,6,59.1,5.39,36.94,15.15,71.41,29,102.46C406,779.18,423.72,806.59,445,829.9A269.2,269.2,0,0,0,519,887a286.18,286.18,0,0,0,92.12,29.34,409.51,409.51,0,0,0,58.27,4.5c30,0,57-4.21,80.2-12.52a158.53,158.53,0,0,0,60.7-38.52c22.06-22.63,38.39-53.37,48.53-91.36,10-37.38,14.36-83.32,13-136.54-2.21-87.12-10.41-146.57-26.57-192.74-17.68-50.5-34.31-80.93-54-98.7-22.73-20.56-48.82-23.39-73.63-23.39Z" class="d"></path><path d="M768.07,757.91c-1.2,12.14-15.56,27.26-27.7,26.06s-17.46-18.25-16.27-30.39a22.09,22.09,0,0,1,44,4.33Z" class="e"></path><ellipse ry="27.9" rx="27.06" cy="736.9" cx="750.68" class="c"></ellipse><path d="M750.68,710.89c13.9,0,25.17,11.65,25.17,26s-11.27,26-25.17,26-25.16-11.64-25.16-26,11.27-26,25.16-26m0-3.78c-16,0-28.95,13.36-28.95,29.79s13,29.79,28.95,29.79,29-13.36,29-29.79-13-29.79-29-29.79Z" class="d"></path><ellipse ry="36.55" rx="35.42" cy="639.35" cx="598.21" class="f"></ellipse><path d="M598.21,604.69c18.51,0,33.53,15.52,33.53,34.66S616.72,674,598.21,674s-33.53-15.51-33.53-34.65,15-34.66,33.53-34.66m0-3.78c-20.58,0-37.32,17.24-37.32,38.44s16.74,38.44,37.32,38.44,37.31-17.25,37.31-38.44-16.74-38.44-37.31-38.44Z" class="d"></path><ellipse ry="36.55" rx="28.97" cy="639.35" cx="811.04" class="f"></ellipse><path d="M811,604.69c15,0,27.07,15.52,27.07,34.66S826,674,811,674,784,658.49,784,639.35s12.12-34.66,27.08-34.66m0-3.78c-17,0-30.87,17.24-30.87,38.44S794,677.79,811,677.79s30.86-17.25,30.86-38.44S828.05,600.91,811,600.91Z" class="d"></path><path d="M379.82,785.15c-28.19,0-55.95-24.25-74.26-64.87-17.66-39.2-14.42-85,7.71-109,12.57-13.59,29-21.08,46.36-21.08,25.86,0,55.71,18.13,64.12,58.63,6.84,32.91,8.9,70.32,5.15,93.09-1.64,9.94-9.55,30.8-27.74,38.65a53.68,53.68,0,0,1-21.34,4.55Z" class="c"></path><path d="M359.63,594c26.72,0,52.86,19.25,60.42,55.62,6.78,32.65,8.74,69.7,5.11,91.7-1.68,10.19-9.6,28.94-25.5,35.79a49.7,49.7,0,0,1-19.84,4.25c-28.21,0-54-25.45-70.81-62.65-16.83-37.36-14.26-81.79,7-104.84C328.42,600.5,344.12,594,359.63,594m0-7.57c-18.39,0-35.84,7.92-49.14,22.3-11.43,12.37-18.46,30.73-19.81,51.71a131.61,131.61,0,0,0,11.43,61.38c8.89,19.71,20.27,36.23,32.92,47.76,13.88,12.65,29.37,19.35,44.79,19.35a57.42,57.42,0,0,0,22.84-4.87c19.69-8.49,28.22-30.86,30-41.5,3.83-23.19,1.75-61.15-5.17-94.48-3.91-18.81-12.72-34.59-25.48-45.63a64.87,64.87,0,0,0-42.35-16Z" class="d"></path><path d="M416.83,618.67l-.78.51a3.62,3.62,0,0,1,.59,1,3.78,3.78,0,0,1-2.38,4.78,3.73,3.73,0,0,1-4.42-1.74l-.87.57,11.59,107,5.8.71a3.76,3.76,0,0,1,7.3-.76,3.58,3.58,0,0,1,.13,1.68l.36,0C457.84,667.24,416.83,618.67,416.83,618.67Z" class="c"></path><path d="M322.33,641.71a2.56,2.56,0,0,0,4.94.83c2.48-6.74,7.78-17.53,19.26-16.16,19.33,2.32-2.91,34.2-7,71.18-5.66,51.48,48.66,64.67,62.25,34.93,16.2-35.48-27-42.35-22.64-56.91,12.69-42.84-11.81-61.42-24.6-62.15C340.05,612.6,321.85,624.37,322.33,641.71Z" class="e"></path><path d="M688.19,697.72c-56.88,0-122.65-8.45-195.48-25.14a3.77,3.77,0,0,1-2.72-2.4A247.35,247.35,0,0,1,478.9,619c-3-27.07-2.68-66.24,16.08-99.12a3.79,3.79,0,0,1,4.88-1.56c.84.39,85.54,39.17,189.12,39.17,65.44,0,124.38-15.22,175.18-45.25a3.78,3.78,0,0,1,1.93-.52,3.73,3.73,0,0,1,1.31.23,3.8,3.8,0,0,1,2.27,2.33c.89,2.61,21.63,64.69,3.41,128.33a3.85,3.85,0,0,1-.62,1.23c-.43.57-10.78,14-38.89,27.36C808,683.27,762.08,697.72,688.19,697.72Z" class="g"></path><path d="M866.09,515.45s21.45,62.84,3.35,126.06c0,0-39.58,52.43-181.25,52.43-50.79,0-114.7-6.74-194.63-25,0,0-30.63-85.25,4.7-147.2,0,0,85,39.53,190.72,39.53,56.41,0,118.7-11.26,177.11-45.78m0-7.57a7.61,7.61,0,0,0-3.86,1.06C812,538.61,753.73,553.66,689,553.66c-102.83,0-186.69-38.43-187.53-38.82a7.5,7.5,0,0,0-3.18-.71,7.58,7.58,0,0,0-6.58,3.82c-8.56,15-14.14,32.48-16.58,51.94a210.92,210.92,0,0,0,0,49.48,251.34,251.34,0,0,0,11.29,52.09,7.56,7.56,0,0,0,5.44,4.81C565,693,631,701.51,688.19,701.51c143.79,0,185.58-53.17,187.29-55.44a7.65,7.65,0,0,0,1.24-2.47c9.7-33.91,8.26-67.56,5.34-89.81-3.17-24.09-8.58-40.11-8.81-40.78a7.57,7.57,0,0,0-4.54-4.66,7.67,7.67,0,0,0-2.62-.47Z" class="d"></path><g class="h"><polygon points="744 734.67 729.27 734.67 803.49 513.73 818.21 513.73 744 734.67" class="i"></polygon><polygon points="649.6 920.54 611.36 920.54 804.11 346.68 842.36 346.68 649.6 920.54" class="i"></polygon></g><path d="M700.52,649.77c-91.61,0-176.29-29-179.85-30.2-9.94-3.45-15.79-15.84-13-27.62,2.28-9.75,9.88-16.57,18.49-16.57a16.6,16.6,0,0,1,5.47.94c.81.28,82.91,28.18,169.9,28.18,56.33,0,101.81-11.61,135.17-34.52a17.12,17.12,0,0,1,9.7-3.09c7,0,13.52,4.5,16.87,11.75,5,10.79,1.86,24.09-7.14,30.27C816.59,636,764.26,649.77,700.52,649.77Z" class="f"></path><path d="M846.36,570.68c5.38,0,10.6,3.43,13.44,9.55,4.18,9,1.56,20.47-5.86,25.56C809.56,636.27,753.7,646,700.52,646c-90.47,0-173.19-28.12-178.61-30-8.18-2.84-12.93-13.21-10.6-23.18,1.93-8.25,8.1-13.64,14.81-13.64a12.84,12.84,0,0,1,4.23.72c1.28.44,83.63,28.4,171.14,28.4,48.49,0,98.57-8.59,137.32-35.19a13.25,13.25,0,0,1,7.55-2.42m0-7.57h0a20.9,20.9,0,0,0-11.84,3.75c-32.72,22.47-77.48,33.86-133,33.86-86.4,0-167.86-27.7-168.68-28a20.14,20.14,0,0,0-6.69-1.14c-10.38,0-19.5,8-22.18,19.49-3.23,13.84,3.57,27.92,15.49,32a566.43,566.43,0,0,0,58.25,15.94c43.19,9.61,84.52,14.48,122.84,14.48,64.52,0,117.57-14,157.71-41.53,10.48-7.19,14.19-22.56,8.44-35-4-8.6-11.77-13.94-20.31-13.94Z" class="d"></path><path d="M700.62,637.39c-90.11,0-173.63-28.64-177.14-29.86-4.57-1.58-7.2-6.93-6-12.16,1-4.4,4.57-7.47,8.63-7.47a8,8,0,0,1,2.64.45c.82.28,84.05,28.53,172.57,28.53,58.34,0,105.56-12.11,140.36-36a8.19,8.19,0,0,1,4.65-1.47,8.83,8.83,0,0,1,7.92,5.37c2.17,4.68.75,10.49-3.24,13.23C813,624.14,762.38,637.39,700.62,637.39Z" class="j"></path><path d="M846.37,583.19a5.06,5.06,0,0,1,4.48,3.19c1.39,3,.52,6.82-2,8.51-42.71,29.33-96.68,38.72-148.28,38.72-88.79,0-170.56-27.8-175.9-29.65-2.72-1-4.3-4.41-3.53-7.73.65-2.76,2.72-4.54,4.95-4.54a4.08,4.08,0,0,1,1.4.24c1.29.44,84.57,28.74,173.81,28.74,50.1,0,102.07-8.91,142.5-36.67a4.41,4.41,0,0,1,2.52-.81m0-7.57h0a11.89,11.89,0,0,0-6.8,2.15c-34.15,23.44-80.65,35.33-138.21,35.33-87.9,0-170.53-28.05-171.35-28.33a11.72,11.72,0,0,0-3.86-.65c-5.83,0-10.89,4.27-12.32,10.39-1.66,7.09,2,14.39,8.43,16.6,3.53,1.22,87.64,30.07,178.37,30.07,62.54,0,113.86-13.48,152.56-40,5.56-3.81,7.51-11.53,4.54-17.94a12.57,12.57,0,0,0-11.35-7.57Z" class="d"></path><path d="M436.83,713.85a3.83,3.83,0,0,1-2.72-1.15,3.79,3.79,0,0,1-1.06-2.75c1.29-43.51-7.59-75.4-26.4-94.78-17.25-17.76-38.61-20.41-49.8-20.41a52.39,52.39,0,0,0-6.78.38,3.64,3.64,0,0,1-.57,0,3.78,3.78,0,0,1-3.67-2.86c-10.68-42.29-14.47-81.8-11.27-117.45,2.58-28.64,9.64-54.86,21-77.94C375,357.42,400.1,341,401.15,340.32a4.31,4.31,0,0,1,.47-.26c13.44-6.17,33.18-9.3,58.66-9.3A328.24,328.24,0,0,1,498,332.92a3.78,3.78,0,0,1,3.3,4l-7.73,138.34a3.8,3.8,0,0,1-.65,1.92l-32.27,47.36L463.46,710a3.76,3.76,0,0,1-1.08,2.71,3.82,3.82,0,0,1-2.7,1.13Z" class="i"></path><path d="M460.28,334.55a329.73,329.73,0,0,1,37.23,2.12L489.78,475l-32.94,48.35,2.84,186.69H436.83c3.25-109.54-58.37-119.09-80-119.09a53.15,53.15,0,0,0-7.35.43c-46.36-183.6,53.7-247.9,53.7-247.9,15.49-7.11,38-8.95,57.08-8.95m0-7.57c-26,0-46.3,3.24-60.24,9.64a7.1,7.1,0,0,0-.93.52c-1.09.7-27,17.67-46.93,58.12-11.58,23.49-18.77,50.17-21.39,79.27-3.24,36.07.59,76,11.37,118.72a7.55,7.55,0,0,0,8.49,5.63h0a48.27,48.27,0,0,1,6.2-.34c10.6,0,30.8,2.5,47.08,19.27,18.07,18.61,26.59,49.58,25.33,92a7.57,7.57,0,0,0,7.57,7.79h22.85a7.56,7.56,0,0,0,7.57-7.68l-2.81-184.3L496,479.28a7.67,7.67,0,0,0,1.3-3.84l7.73-138.34a7.57,7.57,0,0,0-6.6-7.93A332.87,332.87,0,0,0,460.28,327Z" class="d"></path><g class="k"><path d="M312.89,329.3s76.93,33.53,197.61,12.91" class="l"></path><path d="M311.22,346s76.92,33.52,197.61,12.91" class="l"></path><path d="M309.54,362.68s76.92,33.52,197.61,12.91" class="l"></path><path d="M307.86,379.37s76.93,33.52,197.61,12.91" class="l"></path><path d="M306.19,396.06S383.11,429.58,503.8,409" class="l"></path><path d="M304.51,412.75s76.92,33.52,197.61,12.91" class="l"></path><path d="M302.83,429.44S379.76,463,500.44,442.35" class="l"></path><path d="M301.16,446.13s76.92,33.52,197.61,12.9" class="l"></path><path d="M299.48,462.82s76.93,33.52,197.61,12.9" class="l"></path><path d="M297.8,479.5S374.73,513,495.42,492.41" class="l"></path><path d="M296.13,496.19s76.92,33.52,197.61,12.91" class="l"></path><path d="M294.45,512.88s76.93,33.52,197.61,12.91" class="l"></path><path d="M292.77,529.57s76.93,33.52,197.62,12.91" class="l"></path><path d="M291.1,546.26S368,579.78,488.71,559.17" class="l"></path><path d="M289.42,563S366.35,596.47,487,575.86" class="l"></path><path d="M287.74,579.64s76.93,33.52,197.62,12.9" class="l"></path><path d="M286.07,596.33s76.92,33.52,197.61,12.9" class="l"></path></g><path d="M729.33,377.59a149,149,0,0,1-17.45-.88A3.78,3.78,0,0,1,709,371.3l72.81-148.84c2.29-4.47,16.9-7.2,26.65-7.2,10.67,0,25.52,2.59,35.62,15,10.89,13.32,13.44,34.67,7.59,63.44-15.41,75.75-90.66,83.93-122.3,83.93Z" class="m"></path><path d="M808.42,219c22.66,0,52,12.39,39.5,73.87-14.7,72.27-85.59,80.9-118.59,80.9a147.32,147.32,0,0,1-17-.85l72.81-148.84c.56-1.41,10.92-5.08,23.25-5.08m0-7.57a73.08,73.08,0,0,0-17.95,2.26c-8.27,2.15-10.94,4.46-12.18,7.23L705.56,369.64a7.56,7.56,0,0,0,5.84,10.83,153.54,153.54,0,0,0,17.93.91c18.07,0,44.78-2.44,69.39-14.07a101.87,101.87,0,0,0,34.9-26.4c10.73-12.75,18-28.39,21.72-46.49,6.09-29.94,3.27-52.35-8.37-66.6-8.74-10.69-22.07-16.35-38.55-16.35Z" class="d"></path><path d="M591.5,388.79a3.81,3.81,0,0,1-3.11-1.62l-59-84.83a4.05,4.05,0,0,1-.53-1.11L502.29,210.1a3.78,3.78,0,0,1,.31-2.89c2-3.54,5.48-6.21,10.64-8a49.83,49.83,0,0,0-11.14,3.7,3.74,3.74,0,0,1-1.77.44,3.79,3.79,0,0,1-3.4-5.46,47.62,47.62,0,0,1,8.84-12.32c-7.06,5.13-10.09,9.33-10.16,9.44a3.78,3.78,0,0,1-2.56,1.59,3.39,3.39,0,0,1-.55,0,3.84,3.84,0,0,1-2.36-.82l-49.2-39.14a3.79,3.79,0,0,1,.38-6.19c21.18-13,46.79-19.59,76.11-19.59,53.56,0,101.13,21.66,105.58,23.74l39.64,11.8a3.74,3.74,0,0,1,1.81,1.19l60.47,71.87a3.8,3.8,0,0,1,.88,2.68l-8,125.4a3.78,3.78,0,0,1-3.23,3.51L592,388.75A3.27,3.27,0,0,1,591.5,388.79Z" class="m"></path><path d="M517.43,134.66c54.84,0,104.22,23.5,104.22,23.5L661.57,170,722,241.91l-8,125.4L591.5,385l-59-84.84L505.92,209c3.87-7,16.65-9,29.89-9a221.87,221.87,0,0,1,35.52,3.42c-15.91-7.53-30.08-9.84-41.51-9.84-18.27,0-29.49,5.92-29.49,5.92,17.33-35.22,81.86-36.44,81.86-36.44-2.38-.08-4.69-.12-7-.12-62,0-82.74,29.86-82.74,29.86l-49.2-39.14c23.08-14.17,49.17-19,74.13-19m0-7.57c-30,0-56.3,6.78-78.09,20.15a7.56,7.56,0,0,0-.75,12.37l49.2,39.14a7.62,7.62,0,0,0,4.73,1.69h.29a7.59,7.59,0,0,0,5.84,6.48,7.64,7.64,0,0,0,0,4.24l26.56,91.13a7.87,7.87,0,0,0,1,2.21l59,84.83a7.58,7.58,0,0,0,6.21,3.25,7.85,7.85,0,0,0,1.08-.08L715.1,374.8a7.57,7.57,0,0,0,6.47-7l8-125.4a7.51,7.51,0,0,0-1.76-5.35l-60.46-71.88a7.56,7.56,0,0,0-3.64-2.38l-39.37-11.71c-5.93-2.75-53.49-24-106.92-24Z" class="d"></path><path d="M746.21,343a3.83,3.83,0,0,1-3.22-1.8l-33.85-54.68a3.51,3.51,0,0,1-.5-1.29c-8-42.42-31.76-75.23-70.66-97.5-29.12-16.68-56.08-20.82-56.35-20.86a3.78,3.78,0,0,1-1.55-6.89c18.95-12.66,39.44-19.08,60.9-19.08,54.51,0,96.6,40.63,98.36,42.36a3.56,3.56,0,0,1,.65.85l33.11,59a3.68,3.68,0,0,1,.47,1.47L780.42,313a3.78,3.78,0,0,1-1.32,3.26l-30.45,25.76A3.77,3.77,0,0,1,746.21,343Z" class="j"></path><path d="M641,144.65c53.6,0,95.71,41.27,95.71,41.27l33.11,59,6.85,68.5-30.44,25.76-33.85-54.68c-19.78-105-130.17-121.4-130.17-121.4,20.13-13.45,40.15-18.44,58.79-18.44m0-7.57c-22.23,0-43.42,6.63-63,19.72a7.57,7.57,0,0,0,3.1,13.78,177.86,177.86,0,0,1,55.46,20.65c37.63,21.7,60.64,53.55,68.38,94.66a7.45,7.45,0,0,0,1,2.58l33.85,54.69a7.6,7.6,0,0,0,5.25,3.49,8,8,0,0,0,1.19.09A7.6,7.6,0,0,0,751.1,345l30.44-25.76a7.57,7.57,0,0,0,2.65-6.53l-6.85-68.5a7.68,7.68,0,0,0-.94-2.95l-33.1-59a7.49,7.49,0,0,0-1.31-1.7,168.66,168.66,0,0,0-29.17-21.73c-23.71-14.2-48.56-21.71-71.84-21.71Z" class="d"></path><path d="M713.23,377.64c-20.73,0-37.93-11.6-52.58-35.47-12.63-20.56-21.39-47.28-28.3-70.7-13.67-46.33-57.76-59.44-58.2-59.57a3.78,3.78,0,0,1,.76-7.41c4.37-.32,8.76-.49,13.05-.49,61.92,0,104.7,33.87,129.69,62.28a249.1,249.1,0,0,1,34.57,51.06c3.58-30.61-4.91-71.11-16.25-88.84-3.14-4.91-6.4-7.9-9.18-8.42a26.09,26.09,0,0,0-4.69-.44c-13.61,0-21.06,11.6-21.37,12.09a3.79,3.79,0,0,1-7-2.56c8.22-54.75,43.93-62.92,64.48-62.92A78.44,78.44,0,0,1,778.74,169c9.6,2.69,17.94,10,23.49,20.6,7.57,14.47,13.32,41.19-2.3,86.36-23.15,66.92-50.72,100.17-84.28,101.66-.82,0-1.62.05-2.41.05Z" class="f"></path><path d="M758.25,170a73.6,73.6,0,0,1,19.47,2.59c20.25,5.67,40.91,37.67,18.63,102.07s-48.58,97.68-80.87,99.12c-.76,0-1.51.05-2.25.05-42.82,0-63-55.28-77.25-103.46-14.46-49-60.79-62.14-60.79-62.14,4.35-.32,8.59-.47,12.77-.47,117.13,0,165.86,122,165.86,122C764,289.68,746.93,220,727.49,216.36a29.43,29.43,0,0,0-5.39-.51c-16,0-24.58,13.88-24.58,13.88C704.83,181,735.09,170,758.25,170m0-7.57h0c-15.71,0-29.87,4.55-41,13.15-14.51,11.26-23.68,29.09-27.27,53a7.56,7.56,0,0,0,7.49,8.74,7.45,7.45,0,0,0,6.42-3.62c.45-.69,6.91-10.31,18.16-10.31a22.17,22.17,0,0,1,4,.38c.27,0,2.81.68,6.69,6.74,9.47,14.82,16.88,46.09,16.5,73.48a254,254,0,0,0-28.79-40.24c-16.17-18.37-34.2-33-53.6-43.58a163.46,163.46,0,0,0-78.94-20c-4.38,0-8.87.16-13.33.49a7.57,7.57,0,0,0-1.51,14.83,86.85,86.85,0,0,1,23.14,11.92c16.09,11.45,27,26.62,32.46,45.08,7,23.67,15.85,50.68,28.7,71.62,15.19,24.73,34,37.27,55.81,37.27.85,0,1.72,0,2.59-.06,18.21-.81,34.95-10.48,49.73-28.74,13.92-17.2,26.34-41.89,38-75.46,16.07-46.45,10-74.23,2.08-89.35-6-11.53-15.21-19.52-25.82-22.49a82.31,82.31,0,0,0-21.51-2.87Z" class="d"></path><path d="M385.19,425.88a3.79,3.79,0,0,1-3.13-1.66L365,399.1a3.56,3.56,0,0,1-.49-1c-6.78-22.35-28.87-95.72-28.87-101.65s17.68-52.49,23.1-66.57a3.78,3.78,0,0,1,2.76-2.35l76.54-15.79a3.91,3.91,0,0,1,.76-.07,3.49,3.49,0,0,1,1,.14l56.34,15.78a3.79,3.79,0,0,1,2.73,3.12l8.61,61.72a3.8,3.8,0,0,1-.49,2.44l-27.27,46.24-33.2,57.77a3.77,3.77,0,0,1-1.78,1.59l-58.11,25.12A3.73,3.73,0,0,1,385.19,425.88Z" class="m"></path><path d="M438.84,215.43l56.34,15.79,8.61,61.71-27.27,46.24L443.3,397l-58.11,25.11-17-25.11s-28.71-94.72-28.71-100.55,22.85-65.21,22.85-65.21l76.53-15.79m0-7.57a7.23,7.23,0,0,0-1.53.16L360.78,223.8a7.59,7.59,0,0,0-5.54,4.7c-.05.15-5.79,15.08-11.46,30.53-11.88,32.41-11.88,35.41-11.88,37.4s0,4.73,14.65,54.59c7.11,24.16,14.3,47.92,14.37,48.15a8.29,8.29,0,0,0,1,2.06l17,25.11a7.58,7.58,0,0,0,9.27,2.7l58.1-25.11a7.54,7.54,0,0,0,3.56-3.18L483.06,343l27.25-46.21a7.59,7.59,0,0,0,1-4.89l-8.61-61.71a7.57,7.57,0,0,0-5.46-6.24l-56.34-15.79a7.78,7.78,0,0,0-2-.28Z" class="d"></path><path d="M288.92,487a3.81,3.81,0,0,1-3.79-3.68,3.75,3.75,0,0,1,3.51-3.88h.06c.25,0,2.41-.39,4.54-3.52,4.33-6.32,9.34-24.88-5.7-78.11-9.52-33.71-6.71-63.95,8.35-89.86,18.15-31.22,53.57-54.7,99.73-66.11A143.58,143.58,0,0,1,430,237.49c46.72,0,71.63,25.16,72.67,26.23a3.78,3.78,0,0,1-2.72,6.42,3.9,3.9,0,0,1-1.33-.24c-.2-.08-20.57-7.65-42.15-7.65-22.91,0-38.38,8.28-46,24.61s-9.11,36.58-10.78,58.15c-2.91,37.78-5.93,76.86-42.82,94.92a4.15,4.15,0,0,1-1.79.41,3.74,3.74,0,0,1-3.16-1.63,3.62,3.62,0,0,1,.54-4.79c.47-.66,4.18-6.45,2.83-23.87-9,40-17.72,74-66.05,76.93l-.34,0Z" class="f"></path><path d="M430,241.27c45.65,0,69.95,25.08,69.95,25.08s-20.9-7.89-43.48-7.89c-19.19,0-39.59,5.7-49.4,26.8-21.34,45.92,3.36,124.25-51.82,151.27,0,0,5.9-5.95,3.65-29.1s20.27-63.9,31.85-70.07c0,0-24.93,11.13-35.5,55.95-10.91,46.29-14.65,86.76-66.24,89.9,1.95-.17,25.51-3.88,2.18-86.43-24.31-86,38.21-134.67,105.35-151.26A139.26,139.26,0,0,1,430,241.27M289,483.21h0m141-249.5v0a147.62,147.62,0,0,0-35.29,4.46c-21.56,5.33-41.8,13.72-58.53,24.26-19.06,12-33.72,26.69-43.56,43.62-15.6,26.83-18.53,58.05-8.72,92.79,14.63,51.78,9.57,69.1,6.72,74.14-1.17,2.06-2.21,2.59-2.5,2.71a7.48,7.48,0,0,0-6.72,7.71,7.4,7.4,0,0,0,1.82,4.7,7.57,7.57,0,0,0,5,2.64,6.79,6.79,0,0,0,.78,0h0l.54,0c37-2.28,52.15-22.26,61.1-48.23a7.6,7.6,0,0,0,4.61,1.57,7.46,7.46,0,0,0,3.33-.78c17.57-8.6,29.43-22.61,36.23-42.82,5.76-17.08,7.25-36.46,8.7-55.2,1.63-21.22,3.18-41.25,10.43-56.85,6.91-14.88,21.22-22.42,42.53-22.42,20.85,0,40.62,7.33,40.82,7.41a7.71,7.71,0,0,0,2.66.48,7.57,7.57,0,0,0,5.44-12.83C504.3,260,478.29,233.71,430,233.71Z" class="d"></path><path d="M306.08,382.41c-11.68,0-18.69-5.39-19-5.63a3.78,3.78,0,0,1,2.34-6.75h.32c9.6,0,16.8-2.76,22-8.44C326,346.11,323,311.1,320.65,283c-1.25-14.85-2.34-27.68-1.11-36.86,4.75-35.37,69.38-57.62,72.13-58.55a3.85,3.85,0,0,1,1.22-.2h61.48a3.79,3.79,0,0,1,3.35,2l26.57,50.13a3.8,3.8,0,0,1-.21,3.89,3.76,3.76,0,0,1-3.13,1.67l-.39,0a234.71,234.71,0,0,0-23.81-1.32c-57.22,0-66.19,27.37-76.57,59.07-5.28,16.12-10.73,32.79-22.62,47.55C336.21,376.85,317.78,382.41,306.08,382.41Z" class="j"></path><path d="M454.37,191.14,481,241.27a238,238,0,0,0-24.2-1.34c-89,0-67,64.43-102.14,108-19.95,24.77-36.92,30.66-48.53,30.66-10.51,0-16.64-4.82-16.64-4.82h.32c57.49,0,29.05-93.81,33.53-127.2s69.6-55.47,69.6-55.47h61.48m0-7.57H392.89a7.69,7.69,0,0,0-2.43.4A215.71,215.71,0,0,0,356,199.78c-24.49,14.08-38,29.5-40.21,45.83-1.29,9.59-.18,22.61,1.09,37.68,2.32,27.39,5.21,61.48-7.89,75.74-4.46,4.85-10.75,7.21-19.23,7.21h-.32a7.57,7.57,0,0,0-4.68,13.52c.84.66,8.56,6.44,21.32,6.44,8.15,0,16.5-2.36,24.83-7,10-5.56,19.92-14.47,29.59-26.48,12.33-15.3,17.9-32.31,23.28-48.75,5-15.4,9.81-29.94,19.77-40,11.06-11.21,28-16.43,53.2-16.43a232.86,232.86,0,0,1,23.42,1.3,6.79,6.79,0,0,0,.78,0,7.57,7.57,0,0,0,6.68-11.11L461.06,187.6a7.57,7.57,0,0,0-6.69-4Z" class="d"></path><path d="M391.7,438.39c-10.05,0-20.53-2.79-31.14-8.29a3.79,3.79,0,0,1,1.12-7.09,111.64,111.64,0,0,0,32.16-11.81c20.41-11.63,30.34-27.67,29.51-47.69-1.22-29.15,9.63-60.9,27-79,9.92-10.35,21.43-15.81,33.29-15.81,8.18,0,16.44,2.57,24.53,7.65a3.8,3.8,0,0,1,1.75,2.79l9.24,82.68a3.79,3.79,0,0,1-2.65,4,3.57,3.57,0,0,1-1.11.17,3.8,3.8,0,0,1-3.35-2c0-.07-4.66-8.41-12.83-8.41-5.14,0-10.88,3.13-17.05,9.31-4.67,4.66-10,11.69-15.56,19.12-17.28,22.94-40.95,54.35-74.88,54.35Z" class="m"></path><path d="M483.62,272.49c7.16,0,14.73,2.19,22.52,7.08l9.24,82.68s-5.54-10.42-16.18-10.42c-5.32,0-11.91,2.6-19.73,10.42-19.36,19.36-45,72.36-87.76,72.36-9,0-18.77-2.35-29.4-7.87,0,0,67-11.29,64.82-63.38-1.79-42.93,22.95-90.87,56.49-90.87m0-7.57v0c-12.91,0-25.37,5.87-36,17-9,9.37-16.39,22.12-21.4,36.87a124.67,124.67,0,0,0-6.63,44.9c.77,18.43-8.47,33.28-27.44,44.14A107.65,107.65,0,0,1,361,419.28a7.57,7.57,0,0,0-2.22,14.18c11.15,5.78,22.22,8.72,32.89,8.72,35.82,0,60.14-32.29,77.9-55.86,5.52-7.33,10.74-14.25,15.21-18.72,5.37-5.37,10.34-8.21,14.38-8.21,5.83,0,9.46,6.34,9.49,6.41a7.59,7.59,0,0,0,6.69,4,7.5,7.5,0,0,0,2.23-.34,7.58,7.58,0,0,0,5.29-8.07l-9.24-82.68a7.53,7.53,0,0,0-3.5-5.57c-8.7-5.47-17.63-8.24-26.54-8.24Z" class="d"></path><path d="M598.06,406.26c-38.08,0-67.34-15.54-87-46.18-13.69-21.34-22.42-49.53-25.94-83.77-3.21-31.15-34.19-73.92-65.77-79.41a67.3,67.3,0,0,0-11.63-1c-25.4,0-44.72,14-44.92,14.18a3.79,3.79,0,0,1-5.8-4.35c15.73-42.62,59.41-52.24,61.26-52.62l.16,0a157.43,157.43,0,0,1,25.63-2.24c88.84,0,102.49,89.26,113.46,161,.51,3.37,1,6.71,1.54,10,7.15,46,54.95,55.62,93.78,55.62a240.67,240.67,0,0,0,40.32-3.37,4.38,4.38,0,0,1,.71-.07,3.79,3.79,0,0,1,1.55,7.24c-36.85,16.61-69.61,25-97.36,25Z" class="f"></path><path d="M444.07,154.63c89.63,0,99.87,94.6,111.26,167.77,7.7,49.48,59.51,58.81,97.52,58.81a243.27,243.27,0,0,0,41-3.43c-38.75,17.46-70.23,24.69-95.82,24.69-83.09,0-104-76.29-109.16-126.54C485.51,243,453,198.91,420,193.17a70.94,70.94,0,0,0-12.28-1.06c-27.05,0-47.17,14.93-47.17,14.93,15.19-41.14,58.49-50.23,58.49-50.23a153.62,153.62,0,0,1,25-2.18m0-7.57h0a162.72,162.72,0,0,0-26.24,2.28l-.32.06A95.72,95.72,0,0,0,391.7,160c-18.18,10.59-31.4,26-38.23,44.46a7.57,7.57,0,0,0,11.61,8.7c.17-.12,18.6-13.44,42.66-13.44a64.67,64.67,0,0,1,11,.94c13.43,2.34,28.35,12.71,40.93,28.46,12.09,15.12,20.21,32.93,21.72,47.62,3.59,34.83,12.51,63.58,26.52,85.43,9.43,14.71,21.21,26.21,35,34.19,15.74,9.1,34.31,13.72,55.17,13.72,28.3,0,61.58-8.53,98.93-25.36a7.57,7.57,0,0,0-3.11-14.47,6.91,6.91,0,0,0-1.42.14,239,239,0,0,1-39.61,3.29c-37.35,0-83.3-9.09-90-52.41q-.76-4.94-1.54-10c-5.47-35.79-11.68-76.37-27.58-108-9-17.76-20-30.94-33.63-40.31-15.43-10.56-34.27-15.92-56-15.92Z" class="d"></path><path d="M511.45,766.63a1.89,1.89,0,0,1-1.56-.81l-7.18-10.34a1.88,1.88,0,0,1,0-2.17l6.84-9.62a1.89,1.89,0,0,1,1.54-.8,2,2,0,0,1,.42.05l11.79,2.69a1.88,1.88,0,0,1,1.31,2.6L517.74,764a1.88,1.88,0,0,1-1.15,1l-4.55,1.5A1.78,1.78,0,0,1,511.45,766.63Z" class="f"></path><path d="M511.1,744.78l11.79,2.69L516,763.23l-4.55,1.51-7.19-10.34,6.84-9.62m0-3.78a3.8,3.8,0,0,0-3.09,1.59l-6.83,9.62a3.77,3.77,0,0,0,0,4.35l7.19,10.34a3.8,3.8,0,0,0,3.11,1.62,3.73,3.73,0,0,0,1.18-.19l4.56-1.5a3.78,3.78,0,0,0,2.28-2.08L526.36,749a3.79,3.79,0,0,0-2.63-5.21l-11.79-2.68a3.44,3.44,0,0,0-.84-.1Z" class="d"></path><path d="M511.45,766.63a2.2,2.2,0,0,1-.44,0l-67.24-16.05a1.88,1.88,0,0,1-1.4-1.43l-5.91-26.71a1.88,1.88,0,0,1,.54-1.78l20.53-19.43a1.88,1.88,0,0,1,2.39-.17L524,745.92a1.9,1.9,0,0,1-.28,3.26l-5.35,2.56-.22.08a.6.6,0,0,1-.06.19l-4.84,13.37A1.9,1.9,0,0,1,511.45,766.63Z" class="g"></path><path d="M458.83,702.56l64.06,44.91L517.53,750,456.3,718.79l60,32.58-4.85,13.37-67.24-16-5.9-26.7,20.52-19.43m0-3.79a3.75,3.75,0,0,0-2.6,1L435.7,719.24a3.77,3.77,0,0,0-1.09,3.56l5.91,26.71a3.79,3.79,0,0,0,2.82,2.86l67.23,16A3.81,3.81,0,0,0,515,766l4.64-12.82,4.87-2.32a3.79,3.79,0,0,0,.54-6.52L461,699.46a3.75,3.75,0,0,0-2.17-.69Z" class="d"></path><path d="M386.55,791.23c-47.73,0-93.06-52.66-105.44-122.5-6.5-36.69-3.11-72.89,9.53-101.93,12.77-29.31,33.43-47.87,58.2-52.26a64.21,64.21,0,0,1,11.16-1c47.73,0,93.06,52.66,105.43,122.5,6.51,36.69,3.12,72.89-9.52,101.93-12.77,29.31-33.43,47.87-58.2,52.26A64.21,64.21,0,0,1,386.55,791.23Z" class="m"></path><path d="M360,515.45c46.26,0,91.22,51.26,103.57,120.94,13.32,75.11-16.32,143.16-66.19,152a62,62,0,0,1-10.83,1c-46.26,0-91.22-51.26-103.57-120.94-13.32-75.1,16.32-143.16,66.19-152a61.91,61.91,0,0,1,10.83-.95m0-3.78h0a66,66,0,0,0-11.49,1c-25.41,4.5-46.58,23.45-59.6,53.36-12.8,29.39-16.23,66-9.66,103,12.54,70.73,58.67,124.06,107.3,124.06a66.05,66.05,0,0,0,11.49-1c25.41-4.5,46.58-23.45,59.6-53.36,12.8-29.38,16.23-66,9.66-103C454.76,565,408.64,511.67,360,511.67Z" class="d"></path><g class="n"><path d="M358.37,822.85c-6.67,0-12.51-5.22-13.88-12.41-1.56-8.14,3.2-16,10.62-17.39,93.09-18.11,75.8-121.09,75-125.46-1.46-8.16,3.39-15.9,10.81-17.24l.14,0a12.76,12.76,0,0,1,2.11-.18c6.73,0,12.57,5.27,13.9,12.52.25,1.38,6.09,34.22-2.54,70.2-8.21,34.22-31.14,77.57-93.78,89.75l-.17,0A13.2,13.2,0,0,1,358.37,822.85Z" class="g"></path><path d="M443.19,652c5.7,0,10.87,4.54,12,11,.25,1.37,6,33.85-2.52,69.42-8.08,33.68-30.65,76.34-92.3,88.34l-.18,0a10.7,10.7,0,0,1-1.86.16c-5.65,0-10.81-4.49-12-10.86-1.37-7.14,2.72-13.94,9.12-15.18C450.36,776.44,432.78,671.7,432,667.25c-1.28-7.14,2.88-13.88,9.28-15h.05a10.82,10.82,0,0,1,1.87-.16m0-3.79a15.44,15.44,0,0,0-2.53.22h-.06c-8.44,1.54-14,10.26-12.34,19.44.77,4.3,17.76,105.51-73.51,123.27-8.44,1.64-13.87,10.44-12.12,19.61,1.54,8.08,8.16,13.94,15.74,13.94a15.22,15.22,0,0,0,2.52-.22l.27,0c63.6-12.39,86.89-56.41,95.23-91.17,8.72-36.35,2.82-69.58,2.56-71-1.49-8.15-8.12-14.07-15.76-14.07Z" class="d"></path></g><path d="M350.77,771.66c-34.71,0-68.61-43.55-78.85-101.3-5.29-29.84-3.51-59.13,5-82.46,8.66-23.68,23.24-38.46,41.07-41.62a40.75,40.75,0,0,1,7.07-.62c34.72,0,68.62,43.55,78.86,101.3,5.29,29.84,3.51,59.13-5,82.46-8.66,23.68-23.24,38.46-41.07,41.62A41,41,0,0,1,350.77,771.66Z" class="f"></path><path d="M325.08,547.55c33.33,0,66.86,42.57,77,99.74,10.82,61-9.13,115.61-44.56,121.89a38.4,38.4,0,0,1-6.75.59c-33.32,0-66.85-42.56-77-99.74-10.82-61,9.13-115.61,44.56-121.89a38.28,38.28,0,0,1,6.74-.59m0-3.78v0h0a41.63,41.63,0,0,0-7.4.65c-18.52,3.28-33.62,18.49-42.52,42.83-8.64,23.64-10.45,53.27-5.11,83.44,10.4,58.64,45.1,102.87,80.72,102.87a42.7,42.7,0,0,0,7.41-.65c18.52-3.29,33.62-18.5,42.51-42.84,8.65-23.64,10.46-53.27,5.11-83.44C395.41,588,360.71,543.77,325.09,543.77Z" class="d"></path><path d="M350.77,771.66c-34.71,0-68.61-43.55-78.85-101.3-5.29-29.84-3.51-59.13,5-82.46,8.66-23.68,23.24-38.46,41.07-41.62a40.75,40.75,0,0,1,7.07-.62c34.72,0,68.62,43.55,78.86,101.3,5.29,29.84,3.51,59.13-5,82.46-8.66,23.68-23.24,38.46-41.07,41.62A41,41,0,0,1,350.77,771.66Z" class="j"></path><path d="M325.08,547.55c33.33,0,66.86,42.57,77,99.74,10.82,61-9.13,115.61-44.56,121.89a38.4,38.4,0,0,1-6.75.59c-33.32,0-66.85-42.56-77-99.74-10.82-61,9.13-115.61,44.56-121.89a38.28,38.28,0,0,1,6.74-.59m0-3.78v0h0a41.63,41.63,0,0,0-7.4.65c-18.52,3.28-33.62,18.49-42.52,42.83-8.64,23.64-10.45,53.27-5.11,83.44,10.4,58.64,45.1,102.87,80.72,102.87a42.7,42.7,0,0,0,7.41-.65c18.52-3.29,33.62-18.5,42.51-42.84,8.65-23.64,10.46-53.27,5.11-83.44C395.41,588,360.71,543.77,325.09,543.77Z" class="d"></path><path d="M347.2,762.72c-31,0-61.49-40-70.9-93.13-4.85-27.34-3.4-54.13,4.07-75.44,7.6-21.68,20.54-35.18,36.45-38a35,35,0,0,1,6.14-.54c31,0,61.49,40,70.9,93.14,4.85,27.33,3.4,54.12-4.07,75.43-7.6,21.69-20.54,35.18-36.45,38A35,35,0,0,1,347.2,762.72Z" class="o"></path><path d="M323,557.5c29.65,0,59.74,39.14,69,91.58,9.9,55.86-7.56,105.67-39,111.24a33.45,33.45,0,0,1-5.81.51c-29.65,0-59.74-39.14-69-91.57-9.9-55.87,7.55-105.67,39-111.25a33.45,33.45,0,0,1,5.81-.51m0-3.78h0a36.77,36.77,0,0,0-6.46.57c-16.61,2.94-30.07,16.88-37.91,39.23-7.57,21.62-9.05,48.75-4.15,76.4,9.57,54,40.86,94.69,72.77,94.69a36.79,36.79,0,0,0,6.47-.57c16.61-2.94,30.07-16.87,37.91-39.23,7.57-21.62,9-48.75,4.14-76.39-9.57-54-40.85-94.7-72.76-94.7Z" class="d"></path><path d="M347.56,749c-27.69,0-54.73-34.77-62.91-80.88-4.21-23.78-2.81-47.13,4-65.73,6.9-19,18.54-30.78,32.8-33.31a32.45,32.45,0,0,1,5.66-.5c27.68,0,54.73,34.77,62.9,80.88,4.22,23.79,2.81,47.13-3.95,65.73-6.89,19-18.54,30.79-32.8,33.31A32.43,32.43,0,0,1,347.56,749Z" class="f"></path><path d="M327.06,570.45c26.39,0,53,33.86,61,79.32,8.6,48.52-7.17,91.88-35.22,96.85a30.85,30.85,0,0,1-5.32.47c-26.39,0-53-33.86-61-79.32-8.6-48.51,7.16-91.88,35.21-96.85a30.87,30.87,0,0,1,5.33-.47m0-3.78h0a35.28,35.28,0,0,0-6,.52c-14.95,2.66-27.11,14.92-34.24,34.53-6.88,18.91-8.31,42.6-4,66.71,8.33,47,36.18,82.44,64.77,82.44a34.26,34.26,0,0,0,6-.52c14.95-2.65,27.12-14.92,34.25-34.53,6.87-18.91,8.31-42.6,4-66.71-8.33-47-36.17-82.44-64.76-82.44Z" class="d"></path><path d="M347.75,749c-27.62,0-54.61-34.78-62.78-80.9-8.77-49.47,7.65-93.89,36.59-99a32.08,32.08,0,0,1,5.62-.49c27.62,0,54.6,34.78,62.78,80.9,8.77,49.47-7.65,93.88-36.59,99A33.07,33.07,0,0,1,347.75,749Z" class="g"></path><path d="M327.18,570.43c26.32,0,52.86,33.87,60.92,79.34,8.6,48.52-7.1,91.87-35.06,96.82a30.5,30.5,0,0,1-5.29.47c-26.32,0-52.86-33.87-60.92-79.34-8.6-48.52,7.1-91.87,35.06-96.83a30.49,30.49,0,0,1,5.29-.46m0-3.79h0a33.93,33.93,0,0,0-5.95.53c-14.91,2.64-27,14.9-34.14,34.51-6.84,18.9-8.26,42.59-4,66.7,8.33,47,36.12,82.46,64.64,82.46a33.92,33.92,0,0,0,5.95-.52c14.91-2.64,27-14.9,34.14-34.52,6.84-18.9,8.26-42.58,4-66.69-8.33-47-36.12-82.47-64.64-82.47Z" class="d"></path><line y2="746.52" x2="353.02" y1="570.89" x1="321.89" class="p"></line><line y2="730.38" x2="376.09" y1="587.25" x1="298.52" class="p"></line><line y2="695.19" x2="388.84" y1="622.91" x1="285.61" class="p"></line><line y2="650.38" x2="387.84" y1="668.32" x1="286.61" class="p"></line><line y2="607.95" x2="373.37" y1="711.31" x1="301.27" class="p"></line><line y2="579.28" x2="349.31" y1="740.36" x1="325.66" class="p"></line><line y2="740.94" x2="365.72" y1="576.18" x1="309.12" class="p"></line><line y2="714.23" x2="384.19" y1="603.24" x1="290.41" class="p"></line><line y2="672.75" x2="390.17" y1="645.28" x1="284.35" class="p"></line><line y2="627.61" x2="382.06" y1="691.02" x1="292.56" class="p"></line><line y2="590.91" x2="362.05" y1="728.2" x1="312.84" class="p"></line><line y2="572.48" x2="335.49" y1="746.88" x1="339.76" class="p"></line><line y2="746.52" x2="353.02" y1="570.89" x1="321.89" class="p"></line><line y2="730.38" x2="376.09" y1="587.25" x1="298.52" class="p"></line><line y2="695.19" x2="388.84" y1="622.91" x1="285.61" class="p"></line><line y2="650.38" x2="387.84" y1="668.32" x1="286.61" class="p"></line><line y2="607.95" x2="373.37" y1="711.31" x1="301.27" class="p"></line><line y2="579.28" x2="349.31" y1="740.36" x1="325.66" class="p"></line><path d="M351.34,723.11c-21.32,0-41.85-25.09-47.74-58.36-6.38-36,6.77-68.45,29.3-72.45a27.14,27.14,0,0,1,4.68-.41c21.31,0,41.84,25.1,47.74,58.37,6.37,36-6.77,68.45-29.31,72.44A26.07,26.07,0,0,1,351.34,723.11Z" class="j"></path><path d="M337.58,593.79c20.13,0,40.09,24.17,45.87,56.8,6.21,35-6.23,66.43-27.77,70.25a24.39,24.39,0,0,1-4.34.38c-20.14,0-40.1-24.17-45.88-56.8-6.2-35,6.23-66.44,27.77-70.25a24.59,24.59,0,0,1,4.35-.38m0-3.79h0a28.89,28.89,0,0,0-5,.44c-11.76,2.08-21.4,11.24-27.15,25.77-5.5,13.92-6.81,31.27-3.69,48.87,6.06,34.16,27.38,59.93,49.61,59.93a28.86,28.86,0,0,0,5-.44c11.76-2.09,21.4-11.24,27.15-25.78,5.5-13.91,6.81-31.26,3.69-48.86C381.12,615.76,359.8,590,337.58,590Z" class="d"></path><path d="M332,708.65c-15.7,0-30.79-18.37-35.1-42.71-4.67-26.33,5-50.14,21.65-53.09l11.88-2.1a19.41,19.41,0,0,1,3.48-.31c15.69,0,30.78,18.36,35.1,42.71,4.67,26.33-5.05,50.14-21.65,53.09l-11.89,2.1a20.17,20.17,0,0,1-3.47.31Z" class="m"></path><path d="M333.9,612.33c14.59,0,29.05,17.52,33.24,41.15,4.49,25.34-4.52,48.13-20.12,50.89l-11.89,2.11a18.41,18.41,0,0,1-3.14.27c-14.59,0-29.05-17.51-33.24-41.14-4.49-25.34,4.52-48.13,20.12-50.89l11.88-2.11a17.65,17.65,0,0,1,3.15-.28m0-3.78a22.11,22.11,0,0,0-3.81.33l-5.73,1L318.21,611c-8.89,1.58-16.15,8.44-20.45,19.31-4.06,10.26-5,23-2.74,36,2.13,12,6.93,23.06,13.51,31.16,6.88,8.45,15.2,13.11,23.46,13.11a21.06,21.06,0,0,0,3.8-.34l11.89-2.1c8.89-1.58,16.15-8.44,20.45-19.32,4.06-10.25,5-23,2.73-36-2.13-12-6.92-23.06-13.51-31.16-6.87-8.46-15.2-13.11-23.45-13.11Z" class="d"></path><path d="M332,708.65c-15.7,0-30.79-18.37-35.1-42.71-2.23-12.6-1.3-25,2.63-34.94,4-10.24,10.8-16.69,19-18.15a20.19,20.19,0,0,1,3.48-.3c15.69,0,30.78,18.36,35.09,42.71,2.24,12.6,1.3,25-2.62,34.94-4.05,10.24-10.81,16.68-19,18.14A20.17,20.17,0,0,1,332,708.65Z" class="m"></path><path d="M322,614.44c14.58,0,29,17.51,33.23,41.15,4.49,25.34-4.51,48.12-20.12,50.89a18.41,18.41,0,0,1-3.14.27c-14.59,0-29.05-17.51-33.24-41.14-4.49-25.34,4.52-48.13,20.12-50.89a17.65,17.65,0,0,1,3.15-.28m0-3.78h0a22,22,0,0,0-3.81.33c-8.89,1.58-16.15,8.44-20.45,19.31-4.06,10.26-5,23-2.74,36,2.13,12,6.93,23.06,13.51,31.16,6.87,8.45,15.2,13.11,23.46,13.11a21.06,21.06,0,0,0,3.8-.34c8.89-1.57,16.16-8.43,20.46-19.31,4.05-10.25,5-23,2.73-36-2.13-12-6.93-23.07-13.51-31.17-6.87-8.45-15.2-13.1-23.45-13.1Z" class="d"></path><path d="M327.3,679.63c-5.49,0-10.74-7.1-12.47-16.88a29.35,29.35,0,0,1,.42-13.14c1.24-4.16,3.57-6.75,6.56-7.28a6.68,6.68,0,0,1,1.09-.09c5.5,0,10.74,7.09,12.48,16.87,1.85,10.43-1.22,19.4-7,20.43A6.71,6.71,0,0,1,327.3,679.63Z" class="j"></path><path d="M322.9,644.13c4.43,0,9.06,6.58,10.61,15.31,1.64,9.25-.79,17.41-5.44,18.23a3.94,3.94,0,0,1-.77.07c-4.42,0-9.06-6.58-10.61-15.32-1.63-9.24.8-17.4,5.45-18.22a3.91,3.91,0,0,1,.76-.07m0-3.79h0a8.52,8.52,0,0,0-1.42.13c-3.73.66-6.59,3.71-8.05,8.6a31.21,31.21,0,0,0-.46,14c1.92,10.85,7.82,18.43,14.33,18.43a8.54,8.54,0,0,0,1.43-.12c3.73-.66,6.59-3.72,8-8.6a31.2,31.2,0,0,0,.47-14c-1.92-10.85-7.82-18.44-14.34-18.44Z" class="d"></path><ellipse transform="translate(-110.37 66.89) rotate(-10.05)" ry="3.83" rx="1.93" cy="660.93" cx="325.1" class="d"></ellipse><path d="M433.23,616.65a1.91,1.91,0,0,1-1.76-2.59l2.89-7.34a2.1,2.1,0,0,1,.13-.26l4.45-7.62a1.91,1.91,0,0,1,1.31-.91L458,594.79l.33,0a1.58,1.58,0,0,1,.38,0l6.42,1.32a1.89,1.89,0,0,1,1.09,3l-6.54,8.14a2,2,0,0,1-.86.6l-25,8.64A1.88,1.88,0,0,1,433.23,616.65Z" class="g"></path><path d="M458.33,596.65l6.42,1.32-6.55,8.14-25,8.64,2.89-7.34,4.46-7.61,17.75-3.15m0-3.78a4.89,4.89,0,0,0-.66,0l-17.75,3.15a3.79,3.79,0,0,0-2.61,1.82l-4.45,7.61a3.71,3.71,0,0,0-.26.53l-2.89,7.34a3.78,3.78,0,0,0,4.76,5l25-8.64a3.73,3.73,0,0,0,1.71-1.21l6.55-8.14a3.79,3.79,0,0,0-2.19-6.08l-6.41-1.32a4,4,0,0,0-.77-.07Z" class="d"></path><path d="M433.23,616.65a1.91,1.91,0,0,1-1.88-1.68c-1.49-13-14.65-31-14.78-31.2a1.89,1.89,0,0,1-.1-2.1c.6-1,2.1-6.62,3.15-11.26a1.89,1.89,0,0,1,1.84-1.48,1.93,1.93,0,0,1,1.13.37L441,582.92a1.87,1.87,0,0,1,.76,1.44l1,21a1.92,1.92,0,0,1-.42,1.28L434.69,616A1.87,1.87,0,0,1,433.23,616.65Z" class="g"></path><path d="M421.46,570.82l18.42,13.62.95,21-7.6,9.26c-1.57-13.68-15.14-32.1-15.14-32.1,1.14-1.88,3.37-11.83,3.37-11.83m0-3.78a3.79,3.79,0,0,0-3.69,3,85.9,85.9,0,0,1-2.94,10.73,3.79,3.79,0,0,0,.21,4.17c.13.18,13,17.79,14.43,30.3a3.75,3.75,0,0,0,2.69,3.19,3.56,3.56,0,0,0,1.07.16,3.78,3.78,0,0,0,2.93-1.38l7.6-9.27a3.8,3.8,0,0,0,.85-2.57l-.95-21.05a3.77,3.77,0,0,0-1.53-2.87l-18.42-13.62a3.77,3.77,0,0,0-2.25-.74Z" class="d"></path><path d="M440.83,607.38a1.83,1.83,0,0,1-.89-.22A1.93,1.93,0,0,1,439,606c-4.08-14.28-18.9-33.84-19.05-34a1.89,1.89,0,0,1,.88-2.93l25.29-8.82a1.87,1.87,0,0,1,.62-.1,1.9,1.9,0,0,1,1.32.54c5.45,5.31,17.11,33.4,18.43,36.59a1.91,1.91,0,0,1-1.19,2.53L441.4,607.3A2.24,2.24,0,0,1,440.83,607.38Z" class="o"></path><path d="M446.75,562c5.33,5.19,18,36,18,36l-23.92,7.52c-4.22-14.8-19.37-34.67-19.37-34.67L446.75,562m0-3.78a3.86,3.86,0,0,0-1.25.21l-25.28,8.81a3.79,3.79,0,0,0-1.77,5.87c.15.19,14.76,19.47,18.74,33.41a3.82,3.82,0,0,0,3.64,2.75,3.72,3.72,0,0,0,1.14-.18l23.91-7.52a3.78,3.78,0,0,0,2.36-5.05c-2.16-5.26-13.24-31.77-18.85-37.23a3.78,3.78,0,0,0-2.64-1.07Z" class="d"></path><path d="M719.45,889.38a27.29,27.29,0,0,1-3.86-.28c-23.59-3.45-48.39-14.44-56.52-20.72-8.35-6.46-21.9-33.11-20.51-48a1.91,1.91,0,0,1,.72-1.32c2.06-1.61,50.79-39.6,68.76-39.6h.14c12,.13,18.19,3,21.27,6.47,0-.22,0-.44,0-.66a1.89,1.89,0,0,1,.81-1.55,1.92,1.92,0,0,1,1.08-.34,2.06,2.06,0,0,1,.65.11c.77.28,18.79,7,22.41,16.81,3.39,9.23,10.08,57.34,10.37,59.38a1.88,1.88,0,0,1-.39,1.43C763.48,862.3,741.92,889.38,719.45,889.38Z" class="q"></path><path d="M708,781.38h.12c17.41.19,21.51,6.16,22.07,10.83a28.7,28.7,0,0,0,1.12-6.91s17.93,6.53,21.29,15.68,10.26,59,10.26,59-21.64,27.51-43.45,27.51a25.49,25.49,0,0,1-3.59-.25c-23-3.36-47.42-14-55.63-20.35s-21.09-32.3-19.79-46.3c0,0,50.08-39.2,67.6-39.2m0-3.78h0c-18.3,0-64.7,35.91-69.93,40a3.81,3.81,0,0,0-1.44,2.63c-1.46,15.68,12.38,42.79,21.25,49.64,8.5,6.57,33.17,17.56,57.39,21.1a28.32,28.32,0,0,0,4.14.3c23.38,0,45.5-27.78,46.43-29a3.81,3.81,0,0,0,.77-2.86c-.28-2.05-7-50.35-10.46-59.77-3.86-10.5-21.54-17.2-23.54-17.93a3.64,3.64,0,0,0-1.3-.23,3.81,3.81,0,0,0-2.17.68,3.17,3.17,0,0,0-.52.45c-3.83-2.86-10.17-4.94-20.46-5Z" class="d"></path><g class="r"><path d="M768.16,812.23c-64.15,0-114.74-31.56-115.24-31.88a1.89,1.89,0,0,1-.85-2L654.94,764a1.9,1.9,0,0,1,1.79-1.52l35.49-1.35h.24l31.22,3.88a1.36,1.36,0,0,1,.44.11l46.7,17.9a1.92,1.92,0,0,1,1.11,1.12l9.17,25.18a1.88,1.88,0,0,1-.2,1.69,1.9,1.9,0,0,1-1.47.85c-3.71.21-7.5.32-11.26.32Z" class="f"></path><path d="M692.22,763.06l31.23,3.87,46.7,17.91L779.32,810c-3.76.22-7.48.32-11.16.32-64.34,0-114.23-31.59-114.23-31.59l2.87-14.34,35.42-1.35m0-3.78h-.14l-35.42,1.35a3.78,3.78,0,0,0-3.57,3L650.22,778A3.78,3.78,0,0,0,651.9,782c.52.33,13,8.19,33.66,16.13,19,7.32,48.78,16,82.6,16,3.8,0,7.63-.11,11.38-.32a3.8,3.8,0,0,0,3.34-5.08l-9.18-25.18a3.76,3.76,0,0,0-2.2-2.23L724.8,763.4a3.86,3.86,0,0,0-.89-.22l-31.22-3.87a3.71,3.71,0,0,0-.47,0Z" class="d"></path><path d="M637.42,824.19s42.92-6.55,62,1.92,45.7,34.66,49.29,50.55L732.48,894.1,686,882.7l-31.86-15.43S645.3,852.18,645.3,850s-7.38-16.6-7.88-18.62S637.42,824.19,637.42,824.19Z" class="s"></path><path d="M744.91,909.57c-14-1.08-47-4-50.48-7.43-2.26-2.25-27.37-13.49-42.67-20a1.75,1.75,0,0,1-.65-.46l-16.43-17.94a1.81,1.81,0,0,1-.41-.71c-7.69-24.39-8.53-27.68-8.63-28.38h0c0-.24-.3-1.35-.56-2.42-2.5-10.41-3.77-17.39-2.43-20.07.89-1.78,3.34-2.54,8.22-2.54a122.59,122.59,0,0,1,16.07,1.51,1.9,1.9,0,0,1,1.47,1.21l16,42.49c6.1,2.56,47.68,19.82,59.2,19.82,12.36,0,42-13.44,42.31-13.57a1.8,1.8,0,0,1,.78-.17,1.88,1.88,0,0,1,1.71,2.71L746.76,908.5a1.89,1.89,0,0,1-1.7,1.07Z" class="f"></path><path d="M630.87,811.46A121.82,121.82,0,0,1,646.64,813l16.26,43.26s47.78,20.29,60.69,20.29,43.09-13.75,43.09-13.75l-21.63,44.93s-45.93-3.52-49.29-6.87-43.25-20.46-43.25-20.46l-16.43-17.94s-8.55-27.12-8.55-28-4.87-18.12-3.19-21.48c.56-1.12,3.22-1.49,6.53-1.49m135.81,51.29h0M630.87,807.68h0c-4.22,0-8.34.43-9.92,3.58-1.43,2.87-.85,8.26,2.29,21.36.23.94.49,2,.53,2.28,0,0,0-.11,0-.25.06.84.78,3.73,8.72,28.9a3.73,3.73,0,0,0,.81,1.42l16.44,17.94a3.75,3.75,0,0,0,1.3.92c18.76,8,39.61,17.59,42.1,19.69,1.28,1.28,3.23,3,28.14,5.74,11.82,1.29,23.39,2.18,23.51,2.19h.29a3.76,3.76,0,0,0,3.4-2.14L770,864.51a3.73,3.73,0,0,0,.44-1.76A3.79,3.79,0,0,0,766.7,859h-.2a3.62,3.62,0,0,0-1.46.37c-8.25,3.75-31.57,13.37-41.45,13.37-9.6,0-43.56-13.41-57.72-19.36l-15.69-41.73a3.77,3.77,0,0,0-2.93-2.4,122.87,122.87,0,0,0-16.38-1.54Z" class="d"></path></g><g class="t"><rect rx="3.78" height="343.28" width="645.6" y="937.38" x="248.56" class="o"></rect><path d="M890.37,941.16v335.71h-638V941.16h638m0-7.57h-638a7.57,7.57,0,0,0-7.57,7.57v335.71a7.57,7.57,0,0,0,7.57,7.57h638a7.57,7.57,0,0,0,7.57-7.57V941.16a7.57,7.57,0,0,0-7.57-7.57Z" class="d"></path></g><path d="M869.71,1176.75c-16.08,0-44.41-5-53.38-38.48-11.49-42.84-30.83-59.1-31-59.26a3.79,3.79,0,0,1-.93-1.14l-28.64-53.38a3.77,3.77,0,0,1,.38-4.15c.39-.49,9.78-11.92,30-11.92,14.79,0,31.46,6.1,49.55,18.14,33.26,22.13,35.5,59.14,37.48,91.79,1.22,20.21,2.37,39.29,10.88,51.56a3.79,3.79,0,0,1-2.38,5.87A67,67,0,0,1,869.71,1176.75Z" class="m"></path><path d="M786.1,1012.2c11.66,0,27.33,4.12,47.45,17.51,52.26,34.77,24.21,109,47.34,142.36a63.3,63.3,0,0,1-11.18.9c-15.2,0-41.43-4.71-49.73-35.68-11.93-44.52-32.28-61.21-32.28-61.21l-28.63-53.37s8.4-10.51,27-10.51m0-7.57h0c-22,0-32.51,12.8-32.94,13.35a7.53,7.53,0,0,0-.76,8.3L781,1079.66a7.73,7.73,0,0,0,1.87,2.27c.15.13,18.73,16.15,29.77,57.32,4.22,15.73,13,27.23,26,34.18,11,5.87,23,7.11,31,7.11a71,71,0,0,0,12.66-1,7.57,7.57,0,0,0,4.75-11.73c-7.9-11.4-9-30-10.22-49.64-1-16.68-2-33.93-7.06-50.35-5.92-19.42-16.42-33.93-32.1-44.36-18.72-12.46-36.09-18.78-51.64-18.78Z" class="d"></path><path d="M494.9,1186.92a1.86,1.86,0,0,1-.7-.14,1.91,1.91,0,0,1-1.09-1.15l-27.88-82.77a1.89,1.89,0,0,1,.77-2.2l129.29-82.17a1.93,1.93,0,0,1,1.91-.07L722.34,1086a1.9,1.9,0,0,1,.95,2.07l-21.73,97.4a1.87,1.87,0,0,1-1,1.29,1.81,1.81,0,0,1-.81.19,2,2,0,0,1-.85-.2l-103.43-51.86-99.66,51.84A1.8,1.8,0,0,1,494.9,1186.92Z" class="g"></path><path d="M596.3,1020.09l125.14,67.54L699.72,1185l-104.3-52.29L494.9,1185,467,1102.25l129.28-82.16m0-3.79a3.73,3.73,0,0,0-2,.6L465,1099.06a3.79,3.79,0,0,0-1.56,4.4l27.89,82.77a3.79,3.79,0,0,0,2.17,2.31,3.88,3.88,0,0,0,1.41.27,3.68,3.68,0,0,0,1.75-.43l98.8-51.39L698,1188.41a3.73,3.73,0,0,0,1.7.4,3.69,3.69,0,0,0,1.62-.37,3.77,3.77,0,0,0,2.07-2.59l21.72-97.39a3.79,3.79,0,0,0-1.89-4.16L598.1,1016.76a3.82,3.82,0,0,0-1.8-.46Z" class="d"></path><path d="M697.81,1139.94a5.67,5.67,0,0,1-3.23-1l-97-67.18-97,67.18a5.68,5.68,0,1,1-6.47-9.33l100.22-69.43a5.67,5.67,0,0,1,6.46,0l100.23,69.43a5.68,5.68,0,0,1-3.24,10.34Z" class="j"></path><path d="M597.59,1061.06a3.77,3.77,0,0,1,2.16.67L700,1131.15a3.79,3.79,0,0,1-4.31,6.23l-98.07-67.94-98.06,67.94a3.79,3.79,0,1,1-4.31-6.23l100.22-69.42a3.77,3.77,0,0,1,2.15-.67m0-3.79a7.59,7.59,0,0,0-4.3,1.34L493.07,1128a7.57,7.57,0,0,0,8.62,12.45l95.9-66.44,95.92,66.44a7.57,7.57,0,0,0,8.61-12.45L601.9,1058.62a7.54,7.54,0,0,0-4.31-1.35Z" class="d"></path><path d="M697.81,1172.26a5.68,5.68,0,0,1-3.07-.91l-96.55-62.06-97.77,62.08a5.67,5.67,0,0,1-7.84-1.75,5.69,5.69,0,0,1,1.75-7.83l100.83-64a5.65,5.65,0,0,1,6.12,0l99.6,64a5.58,5.58,0,0,1,2.48,3.56,5.68,5.68,0,0,1-5.55,6.89Z" class="j"></path><path d="M598.2,1098.77a3.72,3.72,0,0,1,2,.61l99.61,64a3.79,3.79,0,0,1-2.05,7,3.74,3.74,0,0,1-2-.61l-97.58-62.71-98.79,62.72a3.67,3.67,0,0,1-2,.59,3.78,3.78,0,0,1-2-7l100.83-64a3.69,3.69,0,0,1,2-.6m0-3.78a7.55,7.55,0,0,0-4.07,1.19l-100.81,64a7.57,7.57,0,0,0,4.06,14,7.49,7.49,0,0,0,4.06-1.19l96.74-61.42,95.54,61.4a7.57,7.57,0,1,0,8.18-12.73l-99.6-64a7.61,7.61,0,0,0-4.1-1.2Z" class="d"></path><path d="M664.17,1205.15a1.89,1.89,0,0,1-1.78-2.55l35.1-94.61-97.37-86.49a1.89,1.89,0,0,1,1.26-3.3,1.86,1.86,0,0,1,.61.1l153.23,51.94a1.9,1.9,0,0,1,1.25,1.43c.18.94,4.38,23.15-8.06,39.33-3.67,4.77-5,8.55-4.06,11.23,1.62,4.47,10.08,6.37,15.13,7.5,4,.9,6.33,6.6,5.76,14.18-.46,6-3.54,21.66-22.1,36.28-18.06,14.22-44.59,22.61-78.85,25Z" class="g"></path><path d="M601.38,1020.09,754.61,1072s4.36,22.13-7.7,37.82,1.39,19.31,12.16,21.72,9.1,64.57-94.9,71.69l35.55-95.82-98.34-87.35m0-3.79a3.79,3.79,0,0,0-2.51,6.62l96.4,85.63-34.65,93.39a3.78,3.78,0,0,0,3.55,5.1h.25c34.65-2.37,61.52-10.9,79.89-25.36,19.15-15.07,22.33-31.33,22.81-37.61.67-8.7-2.17-15-7.23-16.18-4.36-1-12.5-2.8-13.76-6.29-.72-2,.62-5.33,3.78-9.43,13-16.85,8.61-39.89,8.41-40.86a3.76,3.76,0,0,0-2.49-2.85L602.6,1016.51a3.77,3.77,0,0,0-1.22-.21Z" class="d"></path><path d="M757,1066.36a3.91,3.91,0,0,1-1.17-.18l-53.7-17.55a3.8,3.8,0,0,1-1.83-1.3l-28-36.59a3.78,3.78,0,0,1,.12-4.74l14.47-17.15a3.77,3.77,0,0,1,2.89-1.34,4,4,0,0,1,1.6.35l60.73,28.3a3.78,3.78,0,0,1,2.15,2.87l6.47,43a3.78,3.78,0,0,1-1.29,3.45A3.83,3.83,0,0,1,757,1066.36Z" class="g"></path><path d="M689.75,991.29l60.74,28.3,6.47,43L703.27,1045l-28-36.59,14.47-17.15m0-7.56a7.59,7.59,0,0,0-5.79,2.68l-14.47,17.14a7.58,7.58,0,0,0-.22,9.49l28,36.59a7.58,7.58,0,0,0,3.67,2.6l53.69,17.54a7.57,7.57,0,0,0,9.84-8.32l-6.48-43a7.57,7.57,0,0,0-4.29-5.73l-60.74-28.3a7.62,7.62,0,0,0-3.19-.7Z" class="d"></path><path d="M312.4,1176.75a79.77,79.77,0,0,1-13-1,3.78,3.78,0,0,1-2.33-6c9.31-12.24,10.57-31.29,11.91-51.45,2.18-32.69,4.64-69.75,41.13-91.86,19.78-12,38-18.05,54.08-18.05,21.92,0,32.11,11.31,32.53,11.79a3.78,3.78,0,0,1,.42,4.42L405.73,1078a3.54,3.54,0,0,1-1,1.11c-.2.16-21.55,16.68-34.08,59.25-9.84,33.4-40.71,38.39-58.25,38.39Z" class="m"></path><path d="M404.23,1012.2c20.46,0,29.69,10.51,29.69,10.51l-31.45,53.37s-22.35,16.69-35.45,61.21c-9.12,31-37.93,35.68-54.62,35.68a76.23,76.23,0,0,1-12.28-.9c25.41-33.39-5.4-107.59,52-142.36,22.09-13.39,39.3-17.51,52.11-17.51m0-7.57c-16.81,0-35.67,6.26-56,18.6-17.15,10.39-28.65,24.9-35.16,44.35-5.52,16.48-6.67,33.78-7.78,50.5-1.3,19.58-2.53,38.08-11.15,49.4a7.56,7.56,0,0,0,4.67,12,82.06,82.06,0,0,0,13.63,1c8.68,0,21.53-1.21,33.45-7,14.22-6.88,23.79-18.37,28.43-34.12,12.11-41.15,32.55-57.15,32.75-57.31a7.25,7.25,0,0,0,2-2.2l31.45-53.37a7.58,7.58,0,0,0-.83-8.84c-.47-.53-11.77-13.08-35.38-13.08Z" class="d"></path><path d="M531.79,1205.15c-39.19-2.75-64-17.45-77.94-29.31-16.36-13.92-24.49-29.72-25.11-38.5-.43-6,2.64-7.33,4-7.62,5.32-1.14,14.22-3.06,15.83-7.59.95-2.66-.48-6.39-4.25-11.1-12.92-16.13-10.06-38.21-9.93-39.14a1.9,1.9,0,0,1,1.29-1.55l160.07-52a2,2,0,0,1,.58-.09,1.89,1.89,0,0,1,1.24,3.32L497.15,1108l36.53,94.58a1.85,1.85,0,0,1-.24,1.8,1.88,1.88,0,0,1-1.52.77Z" class="g"></path><path d="M596.3,1020.09h0m0,0-101.4,87.35,37,95.82c-85-6-110-69.27-98.81-71.69s25.23-6,12.66-21.72-9.54-37.71-9.54-37.71l160.07-52.05m0-3.79a3.4,3.4,0,0,0-.45,0,3.46,3.46,0,0,0-.8.19l-160,52a3.8,3.8,0,0,0-2.58,3.09c-.13,1-3.09,23.82,10.34,40.59,3.23,4,4.63,7.33,3.94,9.27-1.26,3.55-9.84,5.39-14.45,6.38-1.42.31-6,1.91-5.46,9.6.67,9.47,8.91,25.46,25.77,39.82,14.14,12,39.33,27,79,29.74h.27a3.78,3.78,0,0,0,3.53-5.14l-36.05-93.34L598.71,1023a3.78,3.78,0,0,0-2.18-6.7Zm0,7.57h0Z" class="d"></path><path d="M436.23,1068.62a3.78,3.78,0,0,1-3.75-4.28l5.77-43a3.8,3.8,0,0,1,2-2.86l54.07-28.29a3.79,3.79,0,0,1,4.78,1.08L512,1008.42a3.8,3.8,0,0,1,.1,4.41l-24.91,36.59a3.83,3.83,0,0,1-1.83,1.42l-47.8,17.55A3.64,3.64,0,0,1,436.23,1068.62Z" class="g"></path><path d="M496.06,993.55l12.88,17.15L484,1047.29l-47.8,17.55,5.77-43,54.06-28.3m0-7.57a7.5,7.5,0,0,0-3.51.87l-54.06,28.29a7.59,7.59,0,0,0-4,5.7l-5.76,43a7.56,7.56,0,0,0,10.11,8.11l47.8-17.54a7.54,7.54,0,0,0,3.64-2.85L515.2,1015a7.57,7.57,0,0,0-.21-8.81L502.11,989a7.55,7.55,0,0,0-6.05-3Z" class="d"></path><path d="M696.6,1048.48a2,2,0,0,1-.58-.09l-96.28-31.13a1.9,1.9,0,0,1-1.31-1.61,1.92,1.92,0,0,1,1-1.84l48.15-26.88a1.89,1.89,0,0,1,2.38.45l48.14,58a1.89,1.89,0,0,1-1.46,3.1Z" class="g"></path><path d="M648.46,988.58l48.14,58-96.28-31.13,48.14-26.88m0-3.78a3.84,3.84,0,0,0-1.85.48l-48.14,26.88a3.78,3.78,0,0,0,.68,6.9l96.29,31.13a3.56,3.56,0,0,0,1.16.18,3.78,3.78,0,0,0,2.91-6.2l-48.14-58a3.79,3.79,0,0,0-2.91-1.37Z" class="d"></path><path d="M590.89,1015.61a1.89,1.89,0,0,1-.89-.22L500.92,968a1.89,1.89,0,0,1,.75-3.55l74.95-5.73h.15a1.88,1.88,0,0,1,1.82,1.41l14.13,53.14a1.88,1.88,0,0,1-.65,2A1.84,1.84,0,0,1,590.89,1015.61Z" class="g"></path><path d="M576.76,960.58l14.13,53.14-89.08-47.41,74.95-5.73m0-3.78h-.29l-75,5.73a3.78,3.78,0,0,0-1.49,7.11l89.08,47.41a3.76,3.76,0,0,0,4.13-.37,3.8,3.8,0,0,0,1.31-3.94l-14.13-53.14a3.77,3.77,0,0,0-3.65-2.81Z" class="d"></path><path d="M598.21,1015.61a1.84,1.84,0,0,1-1.18-.41,1.86,1.86,0,0,1-.65-2L610.5,960.1a1.9,1.9,0,0,1,1.83-1.41h.15l74.95,5.73a1.88,1.88,0,0,1,.74,3.55l-89.07,47.41A1.89,1.89,0,0,1,598.21,1015.61Z" class="g"></path><path d="M612.33,960.58l75,5.73-89.08,47.41,14.12-53.14m0-3.78a3.79,3.79,0,0,0-3.66,2.81l-14.12,53.14a3.78,3.78,0,0,0,1.3,3.94,3.82,3.82,0,0,0,2.36.82,3.7,3.7,0,0,0,1.77-.45l89.08-47.41a3.78,3.78,0,0,0-1.49-7.11l-75-5.73Z" class="d"></path><path d="M489.78,1052.41a1.9,1.9,0,0,1-1.38-3.19l53.29-57a1.9,1.9,0,0,1,1.38-.6,2,2,0,0,1,.84.2l48.81,23.95a1.9,1.9,0,0,1-.25,3.5l-102.1,33A2,2,0,0,1,489.78,1052.41Z" class="g"></path><path d="M543.07,993.55l48.81,24-102.1,33,53.29-57m0-3.78a3.79,3.79,0,0,0-2.76,1.2l-53.29,57a3.79,3.79,0,0,0,2.76,6.37,4,4,0,0,0,1.17-.18l102.1-33a3.78,3.78,0,0,0,.5-7l-48.81-24a3.79,3.79,0,0,0-1.67-.39Z" class="d"></path></svg>